<svg xmlns="http://www.w3.org/2000/svg" xmlns:xlink="http://www.w3.org/1999/xlink" width="500" zoomAndPan="magnify" viewBox="0 0 375 374.999991" height="500" preserveAspectRatio="xMidYMid meet" version="1.0"><path fill="#e80346" d="M 246.09375 23.4375 L 222.65625 23.4375 L 222.65625 11.71875 C 222.65625 10.949219 222.582031 10.1875 222.429688 9.433594 C 222.28125 8.679688 222.058594 7.945312 221.765625 7.234375 C 221.46875 6.523438 221.109375 5.847656 220.679688 5.207031 C 220.253906 4.570312 219.769531 3.976562 219.222656 3.433594 C 218.679688 2.886719 218.085938 2.402344 217.449219 1.976562 C 216.808594 1.546875 216.132812 1.1875 215.421875 0.890625 C 214.710938 0.597656 213.976562 0.375 213.222656 0.226562 C 212.46875 0.0742188 211.707031 0 210.9375 0 C 210.167969 0 209.40625 0.0742188 208.652344 0.226562 C 207.898438 0.375 207.164062 0.597656 206.453125 0.890625 C 205.742188 1.1875 205.066406 1.546875 204.425781 1.976562 C 203.785156 2.402344 203.195312 2.886719 202.652344 3.433594 C 202.105469 3.976562 201.621094 4.570312 201.195312 5.207031 C 200.765625 5.847656 200.40625 6.523438 200.109375 7.234375 C 199.816406 7.945312 199.59375 8.679688 199.445312 9.433594 C 199.292969 10.1875 199.21875 10.949219 199.21875 11.71875 L 199.21875 23.4375 L 152.34375 23.4375 L 152.34375 11.71875 C 152.34375 10.949219 152.269531 10.1875 152.117188 9.433594 C 151.96875 8.679688 151.746094 7.945312 151.453125 7.234375 C 151.15625 6.523438 150.796875 5.847656 150.367188 5.207031 C 149.941406 4.570312 149.457031 3.976562 148.910156 3.433594 C 148.367188 2.886719 147.773438 2.402344 147.136719 1.976562 C 146.496094 1.546875 145.820312 1.1875 145.109375 0.890625 C 144.398438 0.597656 143.664062 0.375 142.910156 0.226562 C 142.15625 0.0742188 141.394531 0 140.625 0 C 139.855469 0 139.09375 0.0742188 138.339844 0.226562 C 137.585938 0.375 136.851562 0.597656 136.140625 0.890625 C 135.429688 1.1875 134.753906 1.546875 134.113281 1.976562 C 133.472656 2.402344 132.882812 2.886719 132.339844 3.433594 C 131.792969 3.976562 131.308594 4.570312 130.882812 5.207031 C 130.453125 5.847656 130.09375 6.523438 129.796875 7.234375 C 129.503906 7.945312 129.28125 8.679688 129.132812 9.433594 C 128.980469 10.1875 128.90625 10.949219 128.90625 11.71875 L 128.90625 23.4375 L 82.03125 23.4375 L 82.03125 11.71875 C 82.03125 10.949219 81.957031 10.1875 81.804688 9.433594 C 81.65625 8.679688 81.433594 7.945312 81.140625 7.234375 C 80.84375 6.523438 80.484375 5.847656 80.054688 5.207031 C 79.628906 4.570312 79.144531 3.976562 78.597656 3.433594 C 78.054688 2.886719 77.460938 2.402344 76.824219 1.976562 C 76.183594 1.546875 75.507812 1.1875 74.796875 0.890625 C 74.085938 0.597656 73.351562 0.375 72.597656 0.226562 C 71.84375 0.0742188 71.082031 0 70.3125 0 C 69.542969 0 68.78125 0.0742188 68.027344 0.226562 C 67.273438 0.375 66.539062 0.597656 65.828125 0.890625 C 65.117188 1.1875 64.441406 1.546875 63.800781 1.976562 C 63.164062 2.402344 62.570312 2.886719 62.027344 3.433594 C 61.480469 3.976562 60.996094 4.570312 60.570312 5.207031 C 60.140625 5.847656 59.78125 6.523438 59.484375 7.234375 C 59.191406 7.945312 58.96875 8.679688 58.820312 9.433594 C 58.667969 10.1875 58.59375 10.949219 58.59375 11.71875 L 58.59375 23.4375 L 35.15625 23.4375 C 34.003906 23.4375 32.855469 23.492188 31.710938 23.605469 C 30.566406 23.71875 29.425781 23.886719 28.296875 24.113281 C 27.167969 24.335938 26.054688 24.617188 24.949219 24.953125 C 23.847656 25.285156 22.765625 25.671875 21.703125 26.113281 C 20.640625 26.554688 19.597656 27.046875 18.582031 27.589844 C 17.566406 28.132812 16.582031 28.722656 15.625 29.363281 C 14.667969 30.003906 13.742188 30.6875 12.851562 31.417969 C 11.964844 32.148438 11.109375 32.921875 10.296875 33.734375 C 9.484375 34.546875 8.710938 35.402344 7.980469 36.289062 C 7.25 37.179688 6.566406 38.105469 5.925781 39.0625 C 5.285156 40.019531 4.695312 41.003906 4.152344 42.019531 C 3.609375 43.035156 3.117188 44.078125 2.675781 45.140625 C 2.234375 46.203125 1.847656 47.285156 1.515625 48.386719 C 1.179688 49.492188 0.898438 50.605469 0.675781 51.734375 C 0.449219 52.863281 0.28125 54.003906 0.167969 55.148438 C 0.0546875 56.292969 0 57.441406 0 58.59375 L 0 339.84375 C 0 340.996094 0.0546875 342.144531 0.167969 343.289062 C 0.28125 344.433594 0.449219 345.574219 0.675781 346.703125 C 0.898438 347.832031 1.179688 348.945312 1.515625 350.050781 C 1.847656 351.152344 2.234375 352.234375 2.675781 353.296875 C 3.117188 354.359375 3.609375 355.402344 4.152344 356.417969 C 4.695312 357.433594 5.285156 358.417969 5.925781 359.375 C 6.566406 360.332031 7.25 361.257812 7.980469 362.148438 C 8.710938 363.035156 9.484375 363.890625 10.296875 364.703125 C 11.109375 365.515625 11.964844 366.289062 12.851562 367.019531 C 13.742188 367.75 14.667969 368.433594 15.625 369.074219 C 16.582031 369.714844 17.566406 370.304688 18.582031 370.847656 C 19.597656 371.390625 20.640625 371.882812 21.703125 372.324219 C 22.765625 372.765625 23.847656 373.152344 24.949219 373.484375 C 26.054688 373.820312 27.167969 374.101562 28.296875 374.324219 C 29.425781 374.550781 30.566406 374.71875 31.710938 374.832031 C 32.855469 374.945312 34.003906 375 35.15625 375 L 246.09375 375 C 247.246094 375 248.394531 374.945312 249.539062 374.832031 C 250.683594 374.71875 251.824219 374.550781 252.953125 374.324219 C 254.082031 374.101562 255.195312 373.820312 256.300781 373.484375 C 257.402344 373.152344 258.484375 372.765625 259.546875 372.324219 C 260.609375 371.882812 261.652344 371.390625 262.667969 370.847656 C 263.683594 370.304688 264.667969 369.714844 265.625 369.074219 C 266.582031 368.433594 267.507812 367.75 268.398438 367.019531 C 269.285156 366.289062 270.140625 365.515625 270.953125 364.703125 C 271.765625 363.890625 272.539062 363.035156 273.269531 362.148438 C 274 361.257812 274.683594 360.332031 275.324219 359.375 C 275.964844 358.417969 276.554688 357.433594 277.097656 356.417969 C 277.640625 355.402344 278.132812 354.359375 278.574219 353.296875 C 279.015625 352.234375 279.402344 351.152344 279.734375 350.050781 C 280.070312 348.945312 280.351562 347.832031 280.574219 346.703125 C 280.800781 345.574219 280.96875 344.433594 281.082031 343.289062 C 281.195312 342.144531 281.25 340.996094 281.25 339.84375 L 281.25 152.34375 C 281.25 151.574219 281.175781 150.8125 281.023438 150.058594 C 280.875 149.304688 280.652344 148.570312 280.359375 147.859375 C 280.0625 147.148438 279.703125 146.472656 279.273438 145.832031 C 278.847656 145.195312 278.363281 144.601562 277.816406 144.058594 C 277.273438 143.511719 276.679688 143.027344 276.042969 142.601562 C 275.402344 142.171875 274.726562 141.8125 274.015625 141.515625 C 273.304688 141.222656 272.570312 141 271.816406 140.851562 C 271.0625 140.699219 270.300781 140.625 269.53125 140.625 C 268.761719 140.625 268 140.699219 267.246094 140.851562 C 266.492188 141 265.757812 141.222656 265.046875 141.515625 C 264.335938 141.8125 263.660156 142.171875 263.019531 142.601562 C 262.378906 143.027344 261.789062 143.511719 261.246094 144.058594 C 260.699219 144.601562 260.214844 145.195312 259.789062 145.832031 C 259.359375 146.472656 259 147.148438 258.703125 147.859375 C 258.410156 148.570312 258.1875 149.304688 258.039062 150.058594 C 257.886719 150.8125 257.8125 151.574219 257.8125 152.34375 L 257.8125 339.84375 C 257.8125 340.613281 257.738281 341.375 257.585938 342.128906 C 257.4375 342.882812 257.214844 343.617188 256.921875 344.328125 C 256.625 345.039062 256.265625 345.714844 255.835938 346.355469 C 255.410156 346.992188 254.925781 347.585938 254.378906 348.128906 C 253.835938 348.675781 253.242188 349.160156 252.605469 349.585938 C 251.964844 350.015625 251.289062 350.375 250.578125 350.671875 C 249.867188 350.964844 249.132812 351.1875 248.378906 351.335938 C 247.625 351.488281 246.863281 351.5625 246.09375 351.5625 L 35.15625 351.5625 C 34.386719 351.5625 33.625 351.488281 32.871094 351.335938 C 32.117188 351.1875 31.382812 350.964844 30.671875 350.671875 C 29.960938 350.375 29.285156 350.015625 28.644531 349.585938 C 28.007812 349.160156 27.414062 348.675781 26.871094 348.128906 C 26.324219 347.585938 25.839844 346.992188 25.414062 346.355469 C 24.984375 345.714844 24.625 345.039062 24.328125 344.328125 C 24.035156 343.617188 23.8125 342.882812 23.664062 342.128906 C 23.511719 341.375 23.4375 340.613281 23.4375 339.84375 L 23.4375 117.1875 L 269.53125 117.1875 C 270.300781 117.1875 271.0625 117.113281 271.816406 116.960938 C 272.570312 116.8125 273.304688 116.589844 274.015625 116.296875 C 274.726562 116 275.402344 115.640625 276.042969 115.210938 C 276.679688 114.785156 277.273438 114.300781 277.816406 113.753906 C 278.363281 113.210938 278.847656 112.617188 279.273438 111.980469 C 279.703125 111.339844 280.0625 110.664062 280.359375 109.953125 C 280.652344 109.242188 280.875 108.507812 281.023438 107.753906 C 281.175781 107 281.25 106.238281 281.25 105.46875 L 281.25 58.59375 C 281.25 57.441406 281.195312 56.292969 281.082031 55.148438 C 280.96875 54.003906 280.800781 52.863281 280.574219 51.734375 C 280.351562 50.605469 280.070312 49.492188 279.734375 48.386719 C 279.402344 47.285156 279.015625 46.203125 278.574219 45.140625 C 278.132812 44.078125 277.640625 43.035156 277.097656 42.019531 C 276.554688 41.003906 275.964844 40.019531 275.324219 39.0625 C 274.683594 38.105469 274 37.179688 273.269531 36.289062 C 272.539062 35.402344 271.765625 34.546875 270.953125 33.734375 C 270.140625 32.921875 269.285156 32.148438 268.398438 31.417969 C 267.507812 30.6875 266.582031 30.003906 265.625 29.363281 C 264.667969 28.722656 263.683594 28.132812 262.667969 27.589844 C 261.652344 27.046875 260.609375 26.554688 259.546875 26.113281 C 258.484375 25.671875 257.402344 25.285156 256.300781 24.953125 C 255.195312 24.617188 254.082031 24.335938 252.953125 24.113281 C 251.824219 23.886719 250.683594 23.71875 249.539062 23.605469 C 248.394531 23.492188 247.246094 23.4375 246.09375 23.4375 Z M 23.4375 58.59375 C 23.4375 57.824219 23.511719 57.0625 23.664062 56.308594 C 23.8125 55.554688 24.035156 54.820312 24.328125 54.109375 C 24.625 53.398438 24.984375 52.722656 25.414062 52.082031 C 25.839844 51.445312 26.324219 50.851562 26.871094 50.308594 C 27.414062 49.761719 28.007812 49.277344 28.644531 48.851562 C 29.285156 48.421875 29.960938 48.0625 30.671875 47.765625 C 31.382812 47.472656 32.117188 47.25 32.871094 47.101562 C 33.625 46.949219 34.386719 46.875 35.15625 46.875 L 58.59375 46.875 L 58.59375 58.59375 C 58.59375 59.363281 58.667969 60.125 58.820312 60.878906 C 58.96875 61.632812 59.191406 62.367188 59.484375 63.078125 C 59.78125 63.789062 60.140625 64.464844 60.570312 65.105469 C 60.996094 65.742188 61.480469 66.335938 62.027344 66.878906 C 62.570312 67.425781 63.164062 67.910156 63.800781 68.335938 C 64.441406 68.765625 65.117188 69.125 65.828125 69.421875 C 66.539062 69.714844 67.273438 69.9375 68.027344 70.085938 C 68.78125 70.238281 69.542969 70.3125 70.3125 70.3125 C 71.082031 70.3125 71.84375 70.238281 72.597656 70.085938 C 73.351562 69.9375 74.085938 69.714844 74.796875 69.421875 C 75.507812 69.125 76.183594 68.765625 76.824219 68.335938 C 77.460938 67.910156 78.054688 67.425781 78.597656 66.878906 C 79.144531 66.335938 79.628906 65.742188 80.054688 65.105469 C 80.484375 64.464844 80.84375 63.789062 81.140625 63.078125 C 81.433594 62.367188 81.65625 61.632812 81.804688 60.878906 C 81.957031 60.125 82.03125 59.363281 82.03125 58.59375 L 82.03125 46.875 L 128.90625 46.875 L 128.90625 58.59375 C 128.90625 59.363281 128.980469 60.125 129.132812 60.878906 C 129.28125 61.632812 129.503906 62.367188 129.796875 63.078125 C 130.09375 63.789062 130.453125 64.464844 130.882812 65.105469 C 131.308594 65.742188 131.792969 66.335938 132.339844 66.878906 C 132.882812 67.425781 133.472656 67.910156 134.113281 68.335938 C 134.753906 68.765625 135.429688 69.125 136.140625 69.421875 C 136.851562 69.714844 137.585938 69.9375 138.339844 70.085938 C 139.09375 70.238281 139.855469 70.3125 140.625 70.3125 C 141.394531 70.3125 142.15625 70.238281 142.910156 70.085938 C 143.664062 69.9375 144.398438 69.714844 145.109375 69.421875 C 145.820312 69.125 146.496094 68.765625 147.136719 68.335938 C 147.773438 67.910156 148.367188 67.425781 148.910156 66.878906 C 149.457031 66.335938 149.941406 65.742188 150.367188 65.105469 C 150.796875 64.464844 151.15625 63.789062 151.453125 63.078125 C 151.746094 62.367188 151.96875 61.632812 152.117188 60.878906 C 152.269531 60.125 152.34375 59.363281 152.34375 58.59375 L 152.34375 46.875 L 199.21875 46.875 L 199.21875 58.59375 C 199.21875 59.363281 199.292969 60.125 199.445312 60.878906 C 199.59375 61.632812 199.816406 62.367188 200.109375 63.078125 C 200.40625 63.789062 200.765625 64.464844 201.195312 65.105469 C 201.621094 65.742188 202.105469 66.335938 202.652344 66.878906 C 203.195312 67.425781 203.785156 67.910156 204.425781 68.335938 C 205.066406 68.765625 205.742188 69.125 206.453125 69.421875 C 207.164062 69.714844 207.898438 69.9375 208.652344 70.085938 C 209.40625 70.238281 210.167969 70.3125 210.9375 70.3125 C 211.707031 70.3125 212.46875 70.238281 213.222656 70.085938 C 213.976562 69.9375 214.710938 69.714844 215.421875 69.421875 C 216.132812 69.125 216.808594 68.765625 217.449219 68.335938 C 218.085938 67.910156 218.679688 67.425781 219.222656 66.878906 C 219.769531 66.335938 220.253906 65.742188 220.679688 65.105469 C 221.109375 64.464844 221.46875 63.789062 221.765625 63.078125 C 222.058594 62.367188 222.28125 61.632812 222.429688 60.878906 C 222.582031 60.125 222.65625 59.363281 222.65625 58.59375 L 222.65625 46.875 L 246.09375 46.875 C 246.863281 46.875 247.625 46.949219 248.378906 47.101562 C 249.132812 47.25 249.867188 47.472656 250.578125 47.765625 C 251.289062 48.0625 251.964844 48.421875 252.605469 48.851562 C 253.242188 49.277344 253.835938 49.761719 254.378906 50.308594 C 254.925781 50.851562 255.410156 51.445312 255.835938 52.082031 C 256.265625 52.722656 256.625 53.398438 256.921875 54.109375 C 257.214844 54.820312 257.4375 55.554688 257.585938 56.308594 C 257.738281 57.0625 257.8125 57.824219 257.8125 58.59375 L 257.8125 93.75 L 23.4375 93.75 Z M 23.4375 58.59375 " fill-opacity="1" fill-rule="nonzero"/><path fill="#e80346" d="M 339.84375 70.3125 C 338.691406 70.3125 337.542969 70.367188 336.398438 70.480469 C 335.253906 70.59375 334.113281 70.761719 332.984375 70.988281 C 331.855469 71.210938 330.742188 71.492188 329.636719 71.828125 C 328.535156 72.160156 327.453125 72.546875 326.390625 72.988281 C 325.328125 73.429688 324.285156 73.921875 323.269531 74.464844 C 322.253906 75.007812 321.269531 75.597656 320.3125 76.238281 C 319.355469 76.878906 318.429688 77.5625 317.539062 78.292969 C 316.652344 79.023438 315.796875 79.796875 314.984375 80.609375 C 314.171875 81.421875 313.398438 82.277344 312.667969 83.164062 C 311.9375 84.054688 311.253906 84.980469 310.613281 85.9375 C 309.972656 86.894531 309.382812 87.878906 308.839844 88.894531 C 308.296875 89.910156 307.804688 90.953125 307.363281 92.015625 C 306.921875 93.078125 306.535156 94.160156 306.203125 95.261719 C 305.867188 96.367188 305.585938 97.480469 305.363281 98.609375 C 305.136719 99.738281 304.96875 100.878906 304.855469 102.023438 C 304.742188 103.167969 304.6875 104.316406 304.6875 105.46875 L 304.6875 339.84375 C 304.6875 346.171875 306.445312 346.523438 331.523438 371.601562 C 332.066406 372.152344 332.660156 372.640625 333.304688 373.074219 C 333.945312 373.503906 334.621094 373.871094 335.335938 374.167969 C 336.050781 374.464844 336.789062 374.6875 337.546875 374.839844 C 338.304688 374.992188 339.070312 375.066406 339.84375 375.066406 C 340.617188 375.066406 341.382812 374.992188 342.140625 374.839844 C 342.898438 374.6875 343.636719 374.464844 344.351562 374.167969 C 345.066406 373.871094 345.742188 373.503906 346.382812 373.074219 C 347.027344 372.640625 347.621094 372.152344 348.164062 371.601562 C 373.242188 346.523438 375 346.289062 375 339.84375 L 375 105.46875 C 375 104.316406 374.945312 103.167969 374.832031 102.023438 C 374.71875 100.878906 374.550781 99.738281 374.324219 98.609375 C 374.101562 97.480469 373.820312 96.367188 373.484375 95.261719 C 373.152344 94.160156 372.765625 93.078125 372.324219 92.015625 C 371.882812 90.953125 371.390625 89.910156 370.847656 88.894531 C 370.304688 87.878906 369.714844 86.894531 369.074219 85.9375 C 368.433594 84.980469 367.75 84.054688 367.019531 83.164062 C 366.289062 82.277344 365.515625 81.421875 364.703125 80.609375 C 363.890625 79.796875 363.035156 79.023438 362.148438 78.292969 C 361.257812 77.5625 360.332031 76.878906 359.375 76.238281 C 358.417969 75.597656 357.433594 75.007812 356.417969 74.464844 C 355.402344 73.921875 354.359375 73.429688 353.296875 72.988281 C 352.234375 72.546875 351.152344 72.160156 350.050781 71.828125 C 348.945312 71.492188 347.832031 71.210938 346.703125 70.988281 C 345.574219 70.761719 344.433594 70.59375 343.289062 70.480469 C 342.144531 70.367188 340.996094 70.3125 339.84375 70.3125 Z M 339.84375 93.75 C 340.613281 93.75 341.375 93.824219 342.128906 93.976562 C 342.882812 94.125 343.617188 94.347656 344.328125 94.640625 C 345.039062 94.9375 345.714844 95.296875 346.355469 95.726562 C 346.992188 96.152344 347.585938 96.636719 348.128906 97.183594 C 348.675781 97.726562 349.160156 98.316406 349.585938 98.957031 C 350.015625 99.597656 350.375 100.273438 350.671875 100.984375 C 350.964844 101.695312 351.1875 102.429688 351.335938 103.183594 C 351.488281 103.9375 351.5625 104.699219 351.5625 105.46875 L 351.5625 140.625 L 328.125 140.625 L 328.125 105.46875 C 328.125 104.699219 328.199219 103.9375 328.351562 103.183594 C 328.5 102.429688 328.722656 101.695312 329.015625 100.984375 C 329.3125 100.273438 329.671875 99.597656 330.101562 98.957031 C 330.527344 98.320312 331.011719 97.726562 331.558594 97.183594 C 332.101562 96.636719 332.695312 96.152344 333.332031 95.726562 C 333.972656 95.296875 334.648438 94.9375 335.359375 94.640625 C 336.070312 94.347656 336.804688 94.125 337.558594 93.976562 C 338.3125 93.824219 339.074219 93.75 339.84375 93.75 Z M 339.84375 346.757812 L 328.125 335.039062 L 328.125 164.0625 L 351.5625 164.0625 L 351.5625 335.039062 Z M 339.84375 346.757812 " fill-opacity="1" fill-rule="nonzero"/><path fill="#e80346" d="M 210.9375 187.5 L 93.75 187.5 C 92.980469 187.5 92.21875 187.425781 91.464844 187.273438 C 90.710938 187.125 89.976562 186.902344 89.265625 186.609375 C 88.554688 186.3125 87.878906 185.953125 87.238281 185.523438 C 86.601562 185.097656 86.007812 184.613281 85.464844 184.066406 C 84.917969 183.523438 84.433594 182.929688 84.007812 182.292969 C 83.578125 181.652344 83.21875 180.976562 82.921875 180.265625 C 82.628906 179.554688 82.40625 178.820312 82.257812 178.066406 C 82.105469 177.3125 82.03125 176.550781 82.03125 175.78125 C 82.03125 175.011719 82.105469 174.25 82.257812 173.496094 C 82.40625 172.742188 82.628906 172.007812 82.921875 171.296875 C 83.21875 170.585938 83.578125 169.910156 84.007812 169.269531 C 84.433594 168.628906 84.917969 168.039062 85.464844 167.496094 C 86.007812 166.949219 86.601562 166.464844 87.238281 166.039062 C 87.878906 165.609375 88.554688 165.25 89.265625 164.953125 C 89.976562 164.660156 90.710938 164.4375 91.464844 164.289062 C 92.21875 164.136719 92.980469 164.0625 93.75 164.0625 L 210.9375 164.0625 C 211.707031 164.0625 212.46875 164.136719 213.222656 164.289062 C 213.976562 164.4375 214.710938 164.660156 215.421875 164.953125 C 216.132812 165.25 216.808594 165.609375 217.449219 166.039062 C 218.085938 166.464844 218.679688 166.949219 219.222656 167.496094 C 219.769531 168.039062 220.253906 168.628906 220.679688 169.269531 C 221.109375 169.910156 221.46875 170.585938 221.765625 171.296875 C 222.058594 172.007812 222.28125 172.742188 222.429688 173.496094 C 222.582031 174.25 222.65625 175.011719 222.65625 175.78125 C 222.65625 176.550781 222.582031 177.3125 222.429688 178.066406 C 222.28125 178.820312 222.058594 179.554688 221.765625 180.265625 C 221.46875 180.976562 221.109375 181.652344 220.679688 182.292969 C 220.253906 182.929688 219.769531 183.523438 219.222656 184.066406 C 218.679688 184.613281 218.085938 185.097656 217.449219 185.523438 C 216.808594 185.953125 216.132812 186.3125 215.421875 186.609375 C 214.710938 186.902344 213.976562 187.125 213.222656 187.273438 C 212.46875 187.425781 211.707031 187.5 210.9375 187.5 Z M 210.9375 187.5 " fill-opacity="1" fill-rule="nonzero"/><path fill="#e80346" d="M 210.9375 246.09375 L 70.3125 246.09375 C 69.542969 246.09375 68.78125 246.019531 68.027344 245.867188 C 67.273438 245.71875 66.539062 245.496094 65.828125 245.203125 C 65.117188 244.90625 64.441406 244.546875 63.800781 244.117188 C 63.164062 243.691406 62.570312 243.207031 62.027344 242.660156 C 61.480469 242.117188 60.996094 241.523438 60.570312 240.886719 C 60.140625 240.246094 59.78125 239.570312 59.484375 238.859375 C 59.191406 238.148438 58.96875 237.414062 58.820312 236.660156 C 58.667969 235.90625 58.59375 235.144531 58.59375 234.375 C 58.59375 233.605469 58.667969 232.84375 58.820312 232.089844 C 58.96875 231.335938 59.191406 230.601562 59.484375 229.890625 C 59.78125 229.179688 60.140625 228.503906 60.570312 227.863281 C 60.996094 227.222656 61.480469 226.632812 62.027344 226.089844 C 62.570312 225.542969 63.164062 225.058594 63.800781 224.632812 C 64.441406 224.203125 65.117188 223.84375 65.828125 223.546875 C 66.539062 223.253906 67.273438 223.03125 68.027344 222.882812 C 68.78125 222.730469 69.542969 222.65625 70.3125 222.65625 L 210.9375 222.65625 C 211.707031 222.65625 212.46875 222.730469 213.222656 222.882812 C 213.976562 223.03125 214.710938 223.253906 215.421875 223.546875 C 216.132812 223.84375 216.808594 224.203125 217.449219 224.632812 C 218.085938 225.058594 218.679688 225.542969 219.222656 226.089844 C 219.769531 226.632812 220.253906 227.222656 220.679688 227.863281 C 221.109375 228.503906 221.46875 229.179688 221.765625 229.890625 C 222.058594 230.601562 222.28125 231.335938 222.429688 232.089844 C 222.582031 232.84375 222.65625 233.605469 222.65625 234.375 C 222.65625 235.144531 222.582031 235.90625 222.429688 236.660156 C 222.28125 237.414062 222.058594 238.148438 221.765625 238.859375 C 221.46875 239.570312 221.109375 240.246094 220.679688 240.886719 C 220.253906 241.523438 219.769531 242.117188 219.222656 242.660156 C 218.679688 243.207031 218.085938 243.691406 217.449219 244.117188 C 216.808594 244.546875 216.132812 244.90625 215.421875 245.203125 C 214.710938 245.496094 213.976562 245.71875 213.222656 245.867188 C 212.46875 246.019531 211.707031 246.09375 210.9375 246.09375 Z M 210.9375 246.09375 " fill-opacity="1" fill-rule="nonzero"/><path fill="#e80346" d="M 164.0625 304.6875 L 70.3125 304.6875 C 69.542969 304.6875 68.78125 304.613281 68.027344 304.460938 C 67.273438 304.3125 66.539062 304.089844 65.828125 303.796875 C 65.117188 303.5 64.441406 303.140625 63.800781 302.710938 C 63.164062 302.285156 62.570312 301.800781 62.027344 301.253906 C 61.480469 300.710938 60.996094 300.117188 60.570312 299.480469 C 60.140625 298.839844 59.78125 298.164062 59.484375 297.453125 C 59.191406 296.742188 58.96875 296.007812 58.820312 295.253906 C 58.667969 294.5 58.59375 293.738281 58.59375 292.96875 C 58.59375 292.199219 58.667969 291.4375 58.820312 290.683594 C 58.96875 289.929688 59.191406 289.195312 59.484375 288.484375 C 59.78125 287.773438 60.140625 287.097656 60.570312 286.457031 C 60.996094 285.816406 61.480469 285.226562 62.027344 284.683594 C 62.570312 284.136719 63.164062 283.652344 63.800781 283.226562 C 64.441406 282.796875 65.117188 282.4375 65.828125 282.140625 C 66.539062 281.847656 67.273438 281.625 68.027344 281.476562 C 68.78125 281.324219 69.542969 281.25 70.3125 281.25 L 164.0625 281.25 C 164.832031 281.25 165.59375 281.324219 166.347656 281.476562 C 167.101562 281.625 167.835938 281.847656 168.546875 282.140625 C 169.257812 282.4375 169.933594 282.796875 170.574219 283.226562 C 171.210938 283.652344 171.804688 284.136719 172.347656 284.683594 C 172.894531 285.226562 173.378906 285.816406 173.804688 286.457031 C 174.234375 287.097656 174.59375 287.773438 174.890625 288.484375 C 175.183594 289.195312 175.40625 289.929688 175.554688 290.683594 C 175.707031 291.4375 175.78125 292.199219 175.78125 292.96875 C 175.78125 293.738281 175.707031 294.5 175.554688 295.253906 C 175.40625 296.007812 175.183594 296.742188 174.890625 297.453125 C 174.59375 298.164062 174.234375 298.839844 173.804688 299.480469 C 173.378906 300.117188 172.894531 300.710938 172.347656 301.253906 C 171.804688 301.800781 171.210938 302.285156 170.574219 302.710938 C 169.933594 303.140625 169.257812 303.5 168.546875 303.796875 C 167.835938 304.089844 167.101562 304.3125 166.347656 304.460938 C 165.59375 304.613281 164.832031 304.6875 164.0625 304.6875 Z M 164.0625 304.6875 " fill-opacity="1" fill-rule="nonzero"/></svg>