<svg width="375" height="374.9999910000001" xmlns="http://www.w3.org/2000/svg" version="1.0" preserveAspectRatio="xMidYMid meet" zoomAndPan="magnify">
 <defs>
  <clipPath id="f9aac05103">
   <path id="svg_1" clip-rule="nonzero" d="m3,15.46875l345,0l0,344.25l-345,0l0,-344.25zm0,0"/>
  </clipPath>
  <clipPath id="737cda8fa0">
   <path id="svg_2" clip-rule="nonzero" d="m37,180l142,0l0,179.71875l-142,0l0,-179.71875zm0,0"/>
  </clipPath>
 </defs>
 <g>
  <title>Layer 1</title>
  <g id="svg_3" clip-path="url(#f9aac05103)">
   <path id="svg_4" fill-rule="nonzero" fill-opacity="0.2" d="m175.78906,15.48047c2.81641,0 5.62891,0.07031 8.44141,0.20703c2.8125,0.14063 5.62109,0.34766 8.42187,0.62109c2.80079,0.27735 5.59375,0.6211 8.37891,1.03516c2.78516,0.41406 5.55859,0.89453 8.32031,1.44531c2.75782,0.55078 5.50391,1.16797 8.23438,1.85157c2.73437,0.68359 5.44531,1.43359 8.14062,2.2539c2.69141,0.81641 5.36328,1.69922 8.01563,2.64844c2.64844,0.94922 5.27734,1.96094 7.8789,3.03906c2.59766,1.07813 5.17188,2.21875 7.71875,3.42578c2.54297,1.20313 5.0586,2.46875 7.53907,3.79688c2.48437,1.32812 4.93359,2.71484 7.34765,4.16406c2.41407,1.44922 4.79297,2.95313 7.13282,4.51953c2.33984,1.5625 4.64062,3.1875 6.90234,4.86328c2.26172,1.67969 4.48047,3.41016 6.65625,5.19922c2.17578,1.78516 4.30859,3.625 6.39453,5.51563c2.08594,1.89062 4.12109,3.83203 6.11328,5.82422c1.99219,1.99218 3.92969,4.03125 5.82031,6.12109c1.89063,2.08594 3.73047,4.21875 5.51563,6.39453c1.78516,2.17969 3.51953,4.39844 5.19531,6.66016c1.67578,2.26172 3.29688,4.5664 4.86328,6.90625c1.5625,2.34375 3.06641,4.72265 4.51563,7.13672c1.44531,2.41796 2.83594,4.86718 4.16015,7.35156c1.32813,2.48437 2.59375,5 3.79688,7.54687c1.20312,2.54297 2.34375,5.11719 3.42187,7.72266c1.07813,2.60156 2.08985,5.22656 3.03907,7.87891c0.94922,2.65234 1.83203,5.32812 2.64843,8.02343c0.81641,2.69532 1.56641,5.41016 2.25,8.14063c0.6836,2.73437 1.30079,5.48047 1.85157,8.24219c0.55078,2.76171 1.03125,5.53906 1.4414,8.32421c0.41407,2.78516 0.75782,5.58204 1.03516,8.38282c0.27734,2.80468 0.48437,5.61328 0.62109,8.42578c0.13672,2.8125 0.20703,5.6289 0.20703,8.44531c0,2.81641 -0.07031,5.63281 -0.20703,8.44531c-0.13672,2.8125 -0.34375,5.6211 -0.62109,8.42578c-0.27734,2.80079 -0.62109,5.59766 -1.03516,8.38282c-0.41015,2.78515 -0.89062,5.5625 -1.4414,8.32422c-0.55078,2.76171 -1.16797,5.50781 -1.85157,8.24218c-0.68359,2.73047 -1.43359,5.44532 -2.25,8.14063c-0.8164,2.69531 -1.69921,5.37109 -2.64843,8.02344c-0.94922,2.65234 -1.96094,5.27734 -3.03907,7.8789c-1.07812,2.60156 -2.21875,5.17969 -3.42187,7.72266c-1.20313,2.54687 -2.46875,5.0625 -3.79688,7.54687c-1.32421,2.48438 -2.71484,4.9336 -4.16015,7.35157c-1.44922,2.41406 -2.95313,4.79296 -4.51563,7.13671c-1.5664,2.33985 -3.1875,4.64454 -4.86328,6.90625c-1.67578,2.26172 -3.41015,4.48047 -5.19531,6.66016c-1.78516,2.17578 -3.625,4.30859 -5.51563,6.39453c-1.89062,2.08985 -3.82812,4.12891 -5.82031,6.1211c-1.99219,1.98828 -4.02734,3.93359 -6.11328,5.82421c-2.08594,1.89063 -4.21875,3.73047 -6.39453,5.51563c-2.17578,1.78906 -4.39453,3.51953 -6.65625,5.19922c-2.26172,1.67578 -4.5625,3.30078 -6.90234,4.86328c-2.33985,1.56641 -4.71875,3.07031 -7.13282,4.51953c-2.41406,1.44922 -4.86328,2.83594 -7.34765,4.16406c-2.48047,1.32813 -4.9961,2.59375 -7.53907,3.79688c-2.54687,1.20703 -5.12109,2.34765 -7.71875,3.42578c-2.60156,1.07812 -5.23046,2.08984 -7.8789,3.03906c-2.65235,0.94922 -5.32422,1.83203 -8.01563,2.64844c-2.69531,0.82031 -5.40625,1.57031 -8.14062,2.25391c-2.73047,0.68359 -5.47656,1.30078 -8.23438,1.85156c-2.76172,0.55078 -5.53515,1.03125 -8.32031,1.44531c-2.78516,0.41406 -5.57812,0.75781 -8.37891,1.03516c-2.80078,0.27343 -5.60937,0.48047 -8.42187,0.62109c-2.8125,0.13672 -5.625,0.20703 -8.44141,0.20703c-2.8125,0 -5.6289,-0.07031 -8.4375,-0.20703c-2.8125,-0.14062 -5.62109,-0.34766 -8.42187,-0.62109c-2.80078,-0.27735 -5.59375,-0.6211 -8.37891,-1.03516c-2.78515,-0.41406 -5.55859,-0.89453 -8.32031,-1.44531c-2.76172,-0.55078 -5.50781,-1.16797 -8.23828,-1.85156c-2.73047,-0.6836 -5.44141,-1.4336 -8.13672,-2.25391c-2.69141,-0.81641 -5.36719,-1.69922 -8.01563,-2.64844c-2.65234,-0.94922 -5.27734,-1.96094 -7.8789,-3.03906c-2.60156,-1.07813 -5.17188,-2.21875 -7.71875,-3.42578c-2.54297,-1.20313 -5.0586,-2.46875 -7.53906,-3.79688c-2.48438,-1.32812 -4.9336,-2.71484 -7.34766,-4.16406c-2.41406,-1.44922 -4.79297,-2.95312 -7.13281,-4.51953c-2.33985,-1.5625 -4.64063,-3.1875 -6.90235,-4.86328c-2.26172,-1.67969 -4.48047,-3.41016 -6.65625,-5.19922c-2.17578,-1.78516 -4.30859,-3.625 -6.39453,-5.51563c-2.08594,-1.89062 -4.125,-3.83593 -6.11328,-5.82421c-1.99219,-1.99219 -3.93359,-4.03125 -5.82422,-6.1211c-1.89062,-2.08594 -3.72656,-4.21875 -5.51172,-6.39453c-1.78906,-2.17969 -3.51953,-4.39844 -5.19531,-6.66016c-1.67969,-2.26171 -3.29687,-4.5664 -4.86328,-6.90625c-1.5625,-2.34375 -3.07031,-4.72265 -4.51563,-7.13671c-1.44921,-2.41797 -2.83593,-4.86719 -4.16015,-7.35157c-1.32813,-2.48437 -2.59375,-5 -3.79688,-7.54687c-1.20312,-2.54297 -2.34375,-5.1211 -3.42187,-7.72266c-1.07813,-2.60156 -2.08985,-5.22656 -3.03906,-7.8789c-0.94922,-2.65235 -1.83204,-5.32813 -2.64844,-8.02344c-0.81641,-2.69531 -1.56641,-5.41016 -2.25391,-8.14063c-0.68359,-2.73437 -1.30078,-5.48047 -1.84765,-8.24218c-0.55079,-2.76172 -1.03125,-5.53907 -1.44532,-8.32422c-0.41015,-2.78516 -0.75781,-5.58203 -1.03125,-8.38282c-0.27734,-2.80468 -0.48437,-5.61328 -0.62109,-8.42578c-0.14063,-2.8125 -0.20703,-5.6289 -0.20703,-8.44531c0,-2.81641 0.0664,-5.63281 0.20703,-8.44531c0.13672,-2.8125 0.34375,-5.6211 0.62109,-8.42578c0.27344,-2.80078 0.6211,-5.59766 1.03125,-8.38282c0.41407,-2.78515 0.89453,-5.5625 1.44532,-8.32421c0.54687,-2.76172 1.16406,-5.50782 1.84765,-8.24219c0.6875,-2.73047 1.4375,-5.44531 2.25391,-8.14063c0.8164,-2.69531 1.69922,-5.37109 2.64844,-8.02343c0.94921,-2.65235 1.96093,-5.27735 3.03906,-7.87891c1.07812,-2.60547 2.21875,-5.17969 3.42187,-7.72266c1.20313,-2.54687 2.46875,-5.0625 3.79688,-7.54687c1.32422,-2.48438 2.71094,-4.9336 4.16015,-7.35156c1.44532,-2.41407 2.95313,-4.79297 4.51563,-7.13672c1.56641,-2.33985 3.18359,-4.64453 4.86328,-6.90625c1.67578,-2.26172 3.40625,-4.48047 5.19531,-6.66016c1.78516,-2.17578 3.6211,-4.30859 5.51172,-6.39453c1.89063,-2.08984 3.83203,-4.12891 5.82422,-6.12109c1.98828,-1.99219 4.02734,-3.9336 6.11328,-5.82422c2.08594,-1.89063 4.21875,-3.73047 6.39453,-5.51563c2.17578,-1.78906 4.39453,-3.51953 6.65625,-5.19922c2.26172,-1.67578 4.5625,-3.30078 6.90235,-4.86328c2.33984,-1.5664 4.71875,-3.07031 7.13281,-4.51953c2.41406,-1.44922 4.86328,-2.83594 7.34766,-4.16406c2.48046,-1.32813 4.99609,-2.59375 7.53906,-3.79688c2.54687,-1.20703 5.11719,-2.34765 7.71875,-3.42578c2.60156,-1.07812 5.22656,-2.08984 7.8789,-3.03906c2.64844,-0.94922 5.32422,-1.83203 8.01563,-2.64844c2.69531,-0.82031 5.40625,-1.57031 8.13672,-2.2539c2.73047,-0.6836 5.47656,-1.30079 8.23828,-1.85157c2.76172,-0.55078 5.53516,-1.03125 8.32031,-1.44531c2.78516,-0.41406 5.57813,-0.75781 8.37891,-1.03516c2.80078,-0.27343 5.60937,-0.48046 8.42187,-0.62109c2.8086,-0.13672 5.625,-0.20703 8.4375,-0.20703zm0,0" fill="#6556ff"/>
  </g>
  <path id="svg_5" fill-rule="nonzero" d="m149.95703,100.4375l-82.26172,-23.95312l21.45703,-12.75c0,0 -38.35156,-4.50782 -51.23437,36.70312c-12.88281,41.21094 3.80078,55.55078 -17.05469,89.85547c-20.85547,34.30078 -16.85547,78.07812 31.28516,79.71875c48.14062,1.64453 118.875,-4.74609 119.39453,-45.6875c0.52344,-40.94141 -19.1875,-55.54688 -21.58594,-123.88672zm0,0" fill="#080717"/>
  <path id="svg_6" fill-rule="nonzero" d="m295.63281,182.50781c-0.21875,0 -0.40234,-0.07422 -0.55468,-0.22656c-0.15235,-0.15625 -0.22657,-0.33984 -0.22657,-0.55469l0,-30.05078c-0.0039,-0.21484 0.07422,-0.40234 0.22657,-0.55469c0.15234,-0.15234 0.33593,-0.22656 0.55468,-0.22656l54.21485,0c0.82422,0 1.64453,0.04297 2.46484,0.1211c0.82031,0.08203 1.63281,0.20312 2.44141,0.36718c0.80859,0.16016 1.60547,0.35938 2.39453,0.60157c0.78906,0.23828 1.5625,0.51562 2.32422,0.83203c0.76172,0.3164 1.5039,0.66797 2.23047,1.05859c0.72656,0.39063 1.43359,0.8125 2.11718,1.26953c0.6875,0.46094 1.34766,0.94922 1.98438,1.47266c0.63672,0.52344 1.24609,1.07812 1.82812,1.66015c0.58203,0.58204 1.13672,1.19141 1.66016,1.82813c0.51953,0.63672 1.01172,1.30078 1.46875,1.98437c0.45703,0.6875 0.88281,1.39063 1.26953,2.11719c0.39063,0.72656 0.74219,1.47266 1.05859,2.23438c0.31641,0.76172 0.59375,1.53515 0.83204,2.32422c0.23828,0.78906 0.4414,1.58593 0.60156,2.39453c0.16015,0.80859 0.28515,1.625 0.36328,2.44531c0.08203,0.82031 0.125,1.64062 0.125,2.46484l0,5.65625c0,0.21485 -0.07422,0.39844 -0.23047,0.55469c-0.15234,0.15234 -0.33594,0.22656 -0.55078,0.22656l-78.59766,0zm0,0" fill="#080717"/>
  <path id="svg_7" fill-rule="nonzero" d="m93.58984,185.44141c35.11329,-0.41407 49.59375,9.4414 56.31641,18.55078c4.6875,6.35156 5.00781,13.46875 13.29688,28.95312c4.40234,8.23438 9.44531,16.0586 15.11718,23.47266l49.01172,-50.85938l19.94531,22.29688c-5.51171,14.03125 -12.41796,27.33203 -20.73046,39.90625c-12.72657,19.24609 -29.14063,44.07031 -45.09766,46.55859c-25.84766,4.03125 -61.1875,-48.86328 -87.85938,-128.8789zm0,0" fill="#6556ff"/>
  <path id="svg_8" fill-rule="nonzero" d="m154.33594,262.67578c-3.02735,-32.58203 -1.23438,-46.14062 -12.27735,-58.6914c-6.26953,-7.11719 -15.30468,-12.28516 -25.39062,-15.33204c-0.8125,-0.25 -1.56641,-0.625 -2.26172,-1.11718c-0.69531,-0.4961 -1.29297,-1.08594 -1.79687,-1.77344c-0.50391,-0.6875 -0.88672,-1.43359 -1.15235,-2.24609c-0.26172,-0.8086 -0.39453,-1.64063 -0.39062,-2.49219l0,-16.6211l-27.63282,0l0,16.375c-0.0039,0.75782 -0.1289,1.49219 -0.38281,2.20313c-0.25,0.71484 -0.61328,1.36328 -1.08203,1.95312c-0.47266,0.58985 -1.02734,1.08594 -1.66797,1.48829c-0.64062,0.40234 -1.32812,0.6875 -2.0625,0.85937c-9.09765,2.14844 -17.34375,6.19531 -23.48047,12.27344c-6.55859,6.49219 -11.61328,16.1875 -13.03515,65.20703c-0.86328,29.35156 -0.00391,58.65234 2.57812,87.90234l127.2461,-0.78515c-8.61329,-29.17578 -14.35157,-58.91407 -17.21094,-89.20313zm0,0" fill="#ffffff"/>
  <path id="svg_9" fill-rule="nonzero" d="m44.30078,353.52344c-0.22656,0 -0.41797,-0.07422 -0.58594,-0.22266c-0.16406,-0.15234 -0.25781,-0.33984 -0.27734,-0.5625c-2.57812,-29.28125 -3.4375,-58.61719 -2.57812,-88c1.45703,-50.12109 6.8789,-59.45312 13.28906,-65.79687c5.94922,-5.89063 14.21094,-10.21094 23.88672,-12.5c0.64453,-0.14453 1.24609,-0.39063 1.80468,-0.74219c0.5586,-0.35156 1.04297,-0.78125 1.45313,-1.29688c0.41406,-0.51562 0.72656,-1.08203 0.94922,-1.70312c0.21875,-0.62109 0.32812,-1.26172 0.32812,-1.92188l0,-16.375c0,-0.23828 0.08594,-0.4414 0.25391,-0.60937c0.16797,-0.16797 0.37109,-0.25 0.60937,-0.25l27.63282,0c0.23828,0 0.4414,0.08203 0.60937,0.25c0.16797,0.16797 0.25,0.37109 0.25,0.60937l0,16.6211c0,0.76172 0.11719,1.5 0.35156,2.22265c0.23829,0.72266 0.57813,1.38672 1.02735,2c0.44922,0.61329 0.98047,1.14063 1.59765,1.58204c0.61719,0.4414 1.28907,0.77734 2.01172,1.0039c10.75,3.2461 19.67188,8.63672 25.78907,15.58985c8.88281,10.09375 9.65234,21 11.04296,40.80468c0.375,5.36719 0.80469,11.44532 1.44532,18.3711c2.87109,30.23047 8.59765,59.91015 17.17578,89.04297c0.03906,0.1289 0.04297,0.25781 0.01953,0.39062c-0.02344,0.13281 -0.07422,0.25391 -0.15625,0.36328c-0.07813,0.10938 -0.17969,0.19141 -0.30078,0.25391c-0.1211,0.0625 -0.2461,0.09375 -0.38281,0.09375l-127.2461,0.78125zm39.99219,-188.26172l0,15.51562c0,0.85547 -0.14453,1.6836 -0.42578,2.48829c-0.28125,0.80468 -0.69141,1.53906 -1.22266,2.20703c-0.53125,0.66406 -1.16015,1.22656 -1.88281,1.67968c-0.71875,0.45313 -1.49609,0.77735 -2.32813,0.96485c-9.37109,2.21484 -17.34765,6.3789 -23.07421,12.04687c-6.14063,6.08203 -11.33985,15.14063 -12.78125,64.6211c-0.84766,29.05468 -0.01172,58.05859 2.50781,87.01172l125.3164,-0.77344c-8.43359,-28.88672 -14.07421,-58.3125 -16.91796,-88.26953c-0.64454,-6.94532 -1.07422,-13.03516 -1.44922,-18.41016c-1.41016,-20.0625 -2.11719,-30.13281 -10.6211,-39.78906c-5.90625,-6.71094 -14.54687,-11.92188 -24.99218,-15.07813c-0.89844,-0.28125 -1.73438,-0.69922 -2.5,-1.24609c-0.76954,-0.54688 -1.4336,-1.20313 -1.99219,-1.96094c-0.5586,-0.76172 -0.98438,-1.58984 -1.27735,-2.48828c-0.29296,-0.89453 -0.4414,-1.81641 -0.4414,-2.75781l0,-15.76172l-25.91797,0zm0,0" fill="#090817"/>
  <g id="svg_10" clip-path="url(#737cda8fa0)">
   <path id="svg_11" fill-rule="nonzero" d="m80.10547,180.32031l33.92187,0.6875l0,4.42188c0,0 25.51563,8.39062 33.33594,22.28125c7.82031,13.88672 20.92188,123.82422 30.69531,151.99609l-140.14062,0c0,0 0.93359,-102.11719 6.80078,-134.98047c5.86328,-32.86718 34.11719,-40.30078 34.11719,-40.30078l1.26953,-4.10547zm0,0" fill="#6556ff"/>
  </g>
  <path id="svg_12" fill-rule="nonzero" d="m144.11328,118.22266c-0.17187,0 -0.34375,0.01953 -0.50781,0.02734c-0.1875,-1.42969 -0.4375,-2.84766 -0.75,-4.25391c-0.3125,-1.40625 -0.6875,-2.79687 -1.12891,-4.16796c-0.4375,-1.3711 -0.9375,-2.72266 -1.49609,-4.04688c-0.55859,-1.32812 -1.17969,-2.62891 -1.85547,-3.89844c-0.67578,-1.27343 -1.41016,-2.51172 -2.19922,-3.71484c-0.78906,-1.20703 -1.6289,-2.375 -2.52344,-3.50391c-0.89453,-1.1289 -1.83593,-2.21484 -2.82812,-3.26172c-0.99219,-1.04296 -2.03125,-2.04296 -3.11328,-2.99218c-1.08203,-0.94922 -2.20313,-1.85157 -3.36719,-2.69922c-1.16016,-0.85156 -2.35937,-1.64844 -3.59375,-2.38672c-1.23437,-0.74219 -2.5,-1.42578 -3.79687,-2.05469c-1.29688,-0.6289 -2.61719,-1.19531 -3.96485,-1.70312c-1.34765,-0.50782 -2.71484,-0.95313 -4.10547,-1.33985c-1.38672,-0.38281 -2.78906,-0.70703 -4.20312,-0.96484c-1.41797,-0.25781 -2.84375,-0.45313 -4.27735,-0.58203c-1.43359,-0.12891 -2.87109,-0.19531 -4.3125,-0.19531c-1.4375,0 -2.875,0.0664 -4.30859,0.19531c-1.4375,0.1289 -2.85937,0.32422 -4.27734,0.58203c-1.41797,0.25781 -2.82032,0.57812 -4.20703,0.96484c-1.38672,0.38282 -2.75391,0.82813 -4.10157,1.33985c-1.34765,0.50781 -2.67187,1.07422 -3.96484,1.69922c-1.29688,0.6289 -2.5625,1.3125 -3.79688,2.05468c-1.23437,0.74219 -2.43359,1.53516 -3.59765,2.38672c-1.16406,0.84766 -2.28516,1.75 -3.36719,2.69922c-1.08203,0.95313 -2.12109,1.94922 -3.11328,2.99219c-0.98828,1.04687 -1.93359,2.13281 -2.82813,3.26172c-0.89453,1.1289 -1.73437,2.29687 -2.52343,3.5c-0.78907,1.20703 -1.52344,2.44531 -2.19922,3.71484c-0.67578,1.27344 -1.29688,2.57422 -1.85547,3.89844c-0.5625,1.32812 -1.0625,2.67969 -1.5,4.05078c-0.4375,1.37109 -0.8125,2.76172 -1.12891,4.16797c-0.3125,1.40625 -0.5625,2.82422 -0.74609,4.25c-0.14063,-0.00391 -0.27344,-0.01953 -0.41016,-0.01953c-0.71875,0 -1.42578,0.07422 -2.1289,0.22265c-0.70313,0.15235 -1.37891,0.3711 -2.03516,0.66407c-0.65625,0.28906 -1.27344,0.64843 -1.85547,1.07031c-0.57812,0.41797 -1.10937,0.89844 -1.58984,1.42969c-0.48047,0.53515 -0.89844,1.10937 -1.25781,1.73046c-0.35938,0.6211 -0.65235,1.27344 -0.875,1.95704c-0.21875,0.67968 -0.3711,1.3789 -0.44532,2.09375c-0.07422,0.71093 -0.07812,1.42578 -0.0039,2.14062c0.07422,0.71484 0.22265,1.41016 0.4414,2.09375c0.22266,0.68359 0.51172,1.33594 0.86719,1.95703c0.35938,0.625 0.77734,1.20313 1.25391,1.73438c0.48047,0.53515 1.00781,1.01562 1.58984,1.4375c0.57813,0.42187 1.19531,0.78125 1.85156,1.07422c0.65235,0.29296 1.33203,0.51562 2.03125,0.66796c0.70313,0.15235 1.41016,0.22657 2.12891,0.23047c0.71484,0 1.42578,-0.07031 2.12891,-0.21875c0.39843,1.30469 0.85937,2.58203 1.36718,3.83985c4.61719,15.66797 15.61328,34.38281 41.80078,35.41797c30.66016,1.21484 43.72657,-21.41797 48.42188,-39.0586c0.02344,-0.07422 0.03906,-0.15234 0.0625,-0.22265c0.70312,0.15234 1.41406,0.23437 2.13281,0.23828c0.71875,0.0039 1.42969,-0.06641 2.13672,-0.21094c0.70313,-0.14844 1.38672,-0.36328 2.04297,-0.65234c0.66016,-0.28907 1.28125,-0.64454 1.86328,-1.06641c0.58594,-0.41797 1.12109,-0.89453 1.60156,-1.42969c0.48438,-0.53125 0.90625,-1.10937 1.26953,-1.73047c0.36329,-0.62109 0.65625,-1.27343 0.88282,-1.95703c0.22265,-0.68359 0.375,-1.38281 0.45312,-2.10156c0.07422,-0.71484 0.07813,-1.42969 0.00391,-2.14453c-0.07422,-0.71485 -0.21875,-1.41797 -0.44141,-2.10156c-0.21875,-0.6836 -0.50781,-1.33985 -0.86719,-1.96485c-0.35937,-0.62109 -0.77734,-1.20312 -1.25781,-1.73828c-0.48047,-0.53516 -1.01172,-1.01562 -1.59375,-1.4375c-0.58203,-0.42578 -1.19922,-0.78125 -1.85937,-1.07422c-0.65625,-0.29297 -1.33594,-0.51562 -2.03907,-0.66406c-0.70312,-0.15234 -1.41406,-0.22656 -2.13281,-0.22656zm0,0" fill="#ffffff"/>
  <path id="svg_13" fill-rule="nonzero" d="m95.76563,178.67578c-0.77344,0 -1.56641,-0.01562 -2.36719,-0.05078c-26.73438,-1.05469 -37.91797,-20.17969 -42.58985,-36.03516c-0.42578,-1.04296 -0.80468,-2.07812 -1.13671,-3.10937c-0.75,0.10547 -1.5,0.13672 -2.25391,0.08984c-0.75391,-0.05078 -1.49609,-0.17187 -2.22656,-0.37109c-0.72657,-0.19922 -1.42969,-0.47266 -2.10157,-0.8125c-0.67578,-0.34375 -1.30859,-0.75 -1.89843,-1.22266c-0.58985,-0.47265 -1.125,-1 -1.60938,-1.57812c-0.48437,-0.58203 -0.90234,-1.20703 -1.25781,-1.875c-0.35547,-0.66406 -0.64063,-1.36328 -0.85547,-2.08594c-0.21484,-0.72656 -0.35156,-1.46484 -0.41406,-2.21875c-0.0625,-0.75391 -0.05078,-1.50391 0.03906,-2.25781c0.09375,-0.75 0.25781,-1.48438 0.49609,-2.19922c0.24219,-0.71875 0.55079,-1.40234 0.92969,-2.05469c0.38281,-0.65625 0.82422,-1.26172 1.32813,-1.82812c0.5039,-0.5625 1.05859,-1.06641 1.66406,-1.51953c0.60937,-0.44922 1.25391,-0.83204 1.94141,-1.14844c0.68359,-0.32031 1.39453,-0.5625 2.13281,-0.73828c0.73437,-0.17188 1.48047,-0.26953 2.23437,-0.28907c0.21094,-1.43359 0.48438,-2.85546 0.82032,-4.26953c0.33593,-1.41015 0.73437,-2.80078 1.19531,-4.17968c0.46094,-1.375 0.98047,-2.72657 1.5625,-4.05469c0.58203,-1.32813 1.21875,-2.62891 1.91797,-3.90235c0.69531,-1.26953 1.44922,-2.50781 2.2539,-3.71484c0.8086,-1.20312 1.66797,-2.37109 2.57813,-3.49609c0.91406,-1.12891 1.87109,-2.21485 2.8789,-3.25782c1.00782,-1.04296 2.0625,-2.03906 3.15625,-2.98828c1.09766,-0.94531 2.23438,-1.84375 3.41016,-2.6914c1.17969,-0.84766 2.39063,-1.64063 3.63672,-2.37891c1.25,-0.73828 2.52734,-1.42187 3.83594,-2.04687c1.30859,-0.625 2.64062,-1.19141 4,-1.69532c1.35937,-0.50781 2.73437,-0.95312 4.13281,-1.33593c1.39844,-0.38282 2.8125,-0.70313 4.23828,-0.96094c1.42578,-0.25781 2.86328,-0.44922 4.30469,-0.57813c1.44531,-0.1289 2.89062,-0.19531 4.34375,-0.19531c1.44922,0 2.89453,0.06641 4.33984,0.19531c1.44141,0.12891 2.87891,0.32032 4.30469,0.57813c1.42578,0.25781 2.83984,0.57812 4.23828,0.96094c1.39844,0.38281 2.77734,0.82812 4.13281,1.33593c1.35938,0.50391 2.69532,1.07032 4,1.69532c1.3086,0.625 2.58594,1.30859 3.83594,2.04687c1.24609,0.73828 2.45703,1.53125 3.63672,2.37891c1.17578,0.84765 2.3125,1.74609 3.41016,2.6914c1.09375,0.94922 2.14843,1.94532 3.15625,2.98828c1.00781,1.04297 1.96875,2.12891 2.8789,3.25782c0.91016,1.125 1.76953,2.29297 2.57813,3.49609c0.80468,1.20703 1.55859,2.44531 2.2539,3.71484c0.69922,1.27344 1.33594,2.57422 1.91797,3.90235c0.58203,1.32812 1.10156,2.67969 1.5625,4.05469c0.46094,1.3789 0.85938,2.76953 1.19531,4.17968c0.33594,1.41407 0.60938,2.83594 0.82032,4.26953c0.72265,0.01563 1.4375,0.10157 2.14453,0.25782c0.71094,0.15625 1.39453,0.3789 2.05859,0.66797c0.66406,0.28906 1.29297,0.64062 1.88672,1.05468c0.59375,0.41407 1.14453,0.87891 1.64844,1.39844c0.5039,0.52344 0.95312,1.08594 1.34765,1.69531c0.39063,0.60938 0.72266,1.25 0.99219,1.92188c0.26563,0.67187 0.46485,1.36328 0.59766,2.07812c0.13281,0.71094 0.19531,1.42969 0.1875,2.15235c-0.00781,0.72656 -0.08203,1.4414 -0.23047,2.15234c-0.14844,0.71094 -0.36328,1.39844 -0.64453,2.0625c-0.28516,0.66797 -0.62891,1.30078 -1.03516,1.90234c-0.40625,0.59766 -0.86719,1.15235 -1.38281,1.66407c-0.51172,0.50781 -1.07031,0.96484 -1.67578,1.36328c-0.60156,0.40234 -1.23828,0.73828 -1.91016,1.01562c-0.66797,0.27344 -1.35937,0.48438 -2.07031,0.625c-0.71094,0.14063 -1.42578,0.21094 -2.15234,0.21094c-0.52735,0 -1.05079,-0.03906 -1.57032,-0.11719c-3.38281,12.31641 -14.49218,39.19532 -46.77343,39.19922zm-45.5,-41.02734c0.1875,0 0.35937,0.05469 0.51171,0.16797c0.15235,0.11328 0.25391,0.25781 0.3086,0.4375c0.375,1.21875 0.8125,2.45312 1.34375,3.76953c4.54297,15.39453 15.32031,33.86719 41.03906,34.88281c33.33594,1.31641 44.36328,-26.42969 47.5625,-38.42187l0.07031,-0.25782c0.06641,-0.21484 0.19532,-0.3789 0.39063,-0.48828c0.1914,-0.11328 0.39844,-0.14844 0.61328,-0.09765c0.64453,0.14062 1.29687,0.21093 1.95703,0.21875c0.65625,0.0039 1.30859,-0.0625 1.95313,-0.19532c0.64843,-0.13281 1.26953,-0.33203 1.875,-0.59765c0.60156,-0.26563 1.17187,-0.58985 1.70703,-0.97266c0.53515,-0.38672 1.02343,-0.82422 1.46875,-1.3125c0.4414,-0.48437 0.82812,-1.01562 1.16015,-1.58594c0.33203,-0.5664 0.60157,-1.16797 0.8086,-1.79297c0.20312,-0.625 0.34375,-1.26562 0.41406,-1.92187c0.07031,-0.65625 0.07422,-1.3125 0.00391,-1.96875c-0.06641,-0.65234 -0.19922,-1.29688 -0.40235,-1.92188c-0.20312,-0.6289 -0.46875,-1.22656 -0.79687,-1.80078c-0.32813,-0.57031 -0.71094,-1.10156 -1.15235,-1.59375c-0.4375,-0.48828 -0.92578,-0.92968 -1.45703,-1.3164c-0.53515,-0.38672 -1.10156,-0.71485 -1.70312,-0.98438c-0.60157,-0.26953 -1.22657,-0.47265 -1.8711,-0.60937c-0.64453,-0.13672 -1.29297,-0.20703 -1.95312,-0.20313c-0.09375,0 -0.1836,0.00391 -0.27735,0.01172l-0.1914,0.01172c-0.22266,0.01172 -0.42188,-0.05469 -0.59375,-0.19922c-0.17188,-0.14453 -0.27344,-0.32812 -0.30078,-0.55078c-0.1836,-1.40234 -0.42578,-2.79688 -0.73438,-4.17578c-0.30859,-1.38281 -0.67578,-2.7461 -1.10937,-4.09375c-0.42969,-1.34766 -0.91797,-2.67188 -1.46875,-3.97656c-0.55078,-1.30469 -1.16016,-2.57813 -1.82422,-3.82813c-0.66406,-1.25 -1.38281,-2.46484 -2.16016,-3.64844c-0.77344,-1.18359 -1.59765,-2.33203 -2.47656,-3.4375c-0.87891,-1.10937 -1.80469,-2.17968 -2.77734,-3.20312c-0.97657,-1.02735 -1.99219,-2.00781 -3.05469,-2.94141c-1.0625,-0.93359 -2.16406,-1.8164 -3.3086,-2.65234c-1.14062,-0.83203 -2.32031,-1.61328 -3.53125,-2.34375c-1.21093,-0.72656 -2.45312,-1.39844 -3.72656,-2.01563c-1.27344,-0.61718 -2.57422,-1.17187 -3.89453,-1.67187c-1.32422,-0.5 -2.66797,-0.9375 -4.03125,-1.31641c-1.36328,-0.3789 -2.73828,-0.6914 -4.12891,-0.94531c-1.39062,-0.25391 -2.79296,-0.44531 -4.19921,-0.57422c-1.41016,-0.125 -2.82032,-0.19141 -4.23438,-0.19141c-1.41406,0 -2.82422,0.06641 -4.23437,0.19141c-1.41016,0.12891 -2.8086,0.31641 -4.19922,0.57031c-1.39063,0.25391 -2.76953,0.57032 -4.13282,0.94922c-1.36328,0.375 -2.70312,0.81641 -4.02734,1.3125c-1.32422,0.5 -2.62109,1.0586 -3.89453,1.67188c-1.27344,0.61718 -2.51563,1.28906 -3.73047,2.01953c-1.21094,0.72656 -2.38672,1.50781 -3.53125,2.33984c-1.14062,0.83594 -2.24219,1.71875 -3.30469,2.65235c-1.0625,0.93359 -2.08203,1.91406 -3.05468,2.9414c-0.97657,1.02344 -1.90235,2.09375 -2.78125,3.19922c-0.875,1.10938 -1.70313,2.25781 -2.47657,3.44141c-0.77734,1.18359 -1.49609,2.39843 -2.16015,3.64843c-0.66797,1.25 -1.27344,2.52344 -1.82422,3.82813c-0.55078,1.30469 -1.03906,2.62891 -1.47266,3.97656c-0.42969,1.34766 -0.79687,2.71094 -1.10547,4.09375c-0.30859,1.37891 -0.55468,2.77344 -0.73437,4.17578c-0.02344,0.22266 -0.1211,0.41016 -0.29297,0.55469c-0.17578,0.14844 -0.375,0.21094 -0.59766,0.19531l-0.17968,-0.01172c-0.0625,0 -0.12891,-0.00781 -0.19532,-0.00781c-0.65625,-0.0039 -1.30468,0.06641 -1.94922,0.20313c-0.64062,0.13672 -1.26562,0.33593 -1.86328,0.60547c-0.60156,0.26562 -1.16797,0.59375 -1.69922,0.98046c-0.53125,0.38282 -1.01953,0.82032 -1.45703,1.3086c-0.4414,0.48828 -0.82812,1.01953 -1.15625,1.58594c-0.32812,0.57031 -0.59375,1.16796 -0.80078,1.79296c-0.20312,0.625 -0.33984,1.26563 -0.41015,1.91797c-0.06641,0.65625 -0.07032,1.3086 0,1.96094c0.0664,0.65625 0.20312,1.29688 0.40234,1.92188c0.20312,0.625 0.46875,1.22265 0.79687,1.79296c0.32813,0.57032 0.71094,1.10157 1.14844,1.58985c0.44141,0.48828 0.92578,0.92578 1.45703,1.3164c0.53125,0.38672 1.09375,0.71485 1.69532,0.98438c0.59765,0.26562 1.22265,0.46875 1.86328,0.60937c0.64453,0.13672 1.29297,0.20704 1.94922,0.20704c0.65625,0.0039 1.30859,-0.0625 1.94921,-0.19922c0.0586,-0.00782 0.11719,-0.01563 0.17579,-0.01172zm0,0" fill="#090817"/>
  <path id="svg_14" fill-rule="nonzero" d="m81.99609,184.29688c0,0 -14.73046,0.78125 -27.5039,8.86718c-12.77344,8.08594 -37.92969,54.25391 -36.75781,79.6875c1.17578,25.4336 11.34375,39.55469 38.71484,41.6875c27.37109,2.13282 85.24609,-36.21093 85.24609,-36.21093l-9.77734,-32.47266l-69.60156,18.38672l19.67968,-79.94531zm0,0" fill="#6556ff"/>
  <path id="svg_15" fill-rule="nonzero" d="m366.22656,158c0,0 -7.64062,-6.32422 -13.5039,-6.32422l-98.01172,0c-0.70703,0 -1.41406,0.03516 -2.1211,0.10547c-0.70703,0.06641 -1.40625,0.17188 -2.10156,0.3125c-0.69531,0.13672 -1.38281,0.30859 -2.05859,0.51563c-0.67969,0.20312 -1.34766,0.44531 -2,0.71484c-0.65625,0.27344 -1.29688,0.57422 -1.92188,0.91016c-0.625,0.33203 -1.23047,0.69531 -1.82031,1.08984c-0.58984,0.39453 -1.16016,0.81641 -1.70703,1.26562c-0.54688,0.45313 -1.07422,0.92579 -1.57422,1.42969c-0.5,0.5 -0.97656,1.02735 -1.42578,1.57422c-0.44922,0.54688 -0.87109,1.11719 -1.26563,1.70703c-0.39453,0.58985 -0.75781,1.19922 -1.09375,1.82422c-0.33203,0.625 -0.63671,1.26563 -0.90625,1.92188c-0.27343,0.65234 -0.51171,1.32031 -0.71875,2c-0.20312,0.67968 -0.375,1.36718 -0.51562,2.0625c-0.13672,0.69531 -0.24219,1.39453 -0.30859,2.10156c-0.07032,0.70703 -0.10547,1.41406 -0.10547,2.12109l0,154.29297l95.02343,0c0.80469,0 1.60938,-0.04297 2.41407,-0.12109c0.80078,-0.07813 1.59765,-0.19532 2.39062,-0.35547c0.78906,-0.15625 1.57422,-0.35156 2.34375,-0.58594c0.77344,-0.23437 1.53125,-0.50781 2.27735,-0.81641c0.74609,-0.30859 1.47265,-0.65234 2.18359,-1.03125c0.71484,-0.38281 1.40625,-0.79687 2.07422,-1.24609c0.67187,-0.44922 1.32031,-0.92969 1.9414,-1.44141c0.625,-0.51171 1.22266,-1.05078 1.79297,-1.625c0.57032,-0.57031 1.11328,-1.16796 1.625,-1.78906c0.51172,-0.625 0.99219,-1.27344 1.4375,-1.94531c0.44922,-0.67188 0.86328,-1.36328 1.2461,-2.07422c0.3789,-0.71094 0.72265,-1.44141 1.03125,-2.1875c0.30859,-0.74609 0.58203,-1.50391 0.8164,-2.27734c0.23438,-0.76953 0.42969,-1.55469 0.58594,-2.34375c0.15625,-0.79297 0.27734,-1.58985 0.35547,-2.39453c0.07812,-0.80469 0.11719,-1.60938 0.11719,-2.41407l0,-122.41015c0.08593,-4.47266 1.24218,-20.5586 13.5039,-22.56641zm0,0" fill="#ffffff"/>
  <path id="svg_16" fill-rule="nonzero" d="m328.08984,328.48438l-95.02343,0c-0.23828,0 -0.44141,-0.08594 -0.60938,-0.25391c-0.16797,-0.16797 -0.25,-0.37109 -0.25,-0.60547l0,-154.29297c0,-0.73437 0.03516,-1.47265 0.10938,-2.20312c0.07422,-0.73438 0.18359,-1.46485 0.32812,-2.1875c0.14453,-0.72266 0.32422,-1.4375 0.53516,-2.14063c0.21484,-0.70703 0.46484,-1.39844 0.74609,-2.08203c0.28516,-0.67969 0.59766,-1.34375 0.94531,-1.99609c0.34766,-0.64844 0.72657,-1.28125 1.13672,-1.89453c0.41016,-0.60938 0.84766,-1.20313 1.31641,-1.77344c0.46484,-0.57031 0.96094,-1.11328 1.48047,-1.63672c0.52344,-0.51953 1.0664,-1.01563 1.63672,-1.48047c0.57031,-0.46875 1.16015,-0.91016 1.77343,-1.31641c0.61329,-0.41015 1.24219,-0.78906 1.89454,-1.13671c0.64843,-0.34766 1.3125,-0.66407 1.99609,-0.94532c0.67969,-0.28515 1.37109,-0.53125 2.07812,-0.74609c0.70313,-0.21484 1.41797,-0.39453 2.14063,-0.53906c0.72266,-0.14453 1.44922,-0.25391 2.18359,-0.32813c0.73047,-0.07031 1.46875,-0.10937 2.20313,-0.10937l98.01172,0c6.10937,0 13.73047,6.2539 14.05468,6.52343c0.28516,0.23438 0.37891,0.53125 0.28125,0.88672c-0.09765,0.35547 -0.32812,0.56641 -0.6914,0.625c-11.51953,1.88282 -12.69922,17.10938 -12.78516,21.73047l0,122.39453c0,0.83203 -0.04297,1.66797 -0.125,2.4961c-0.08203,0.83203 -0.20312,1.65625 -0.36719,2.47656c-0.16406,0.82031 -0.36718,1.62891 -0.60937,2.42578c-0.24219,0.80078 -0.52344,1.58594 -0.84375,2.35938c-0.32031,0.76953 -0.67969,1.52343 -1.07031,2.26171c-0.39453,0.73438 -0.82422,1.44922 -1.28907,2.14454c-0.46484,0.69531 -0.96093,1.36328 -1.48828,2.00781c-0.53125,0.64844 -1.08984,1.26562 -1.67968,1.85547c-0.59375,0.58984 -1.21094,1.15234 -1.85547,1.67968c-0.64453,0.53125 -1.3125,1.02735 -2.00782,1.49219c-0.69531,0.46485 -1.41015,0.89453 -2.14453,1.28906c-0.73828,0.39454 -1.49218,0.75 -2.26172,1.07032c-0.76953,0.32031 -1.55468,0.60156 -2.35546,0.84375c-0.79688,0.24218 -1.60547,0.44531 -2.42579,0.60937c-0.8164,0.16406 -1.64062,0.28906 -2.47265,0.3711c-0.83203,0.08203 -1.66406,0.125 -2.4961,0.125zm-94.16406,-1.72266l94.16406,0c0.77735,0 1.55469,-0.03906 2.32813,-0.11719c0.77344,-0.07422 1.54297,-0.1914 2.30469,-0.34375c0.76562,-0.15234 1.51953,-0.33984 2.26562,-0.5664c0.74219,-0.23047 1.47656,-0.49219 2.19531,-0.78907c0.71875,-0.30078 1.42188,-0.63281 2.10547,-1c0.6875,-0.36718 1.35547,-0.76562 2,-1.19922c0.64844,-0.43359 1.27344,-0.89843 1.875,-1.39062c0.60157,-0.49609 1.17578,-1.01563 1.72657,-1.56641c0.55078,-0.55078 1.07421,-1.1289 1.5664,-1.73047c0.4961,-0.60156 0.95703,-1.22656 1.39063,-1.875c0.43359,-0.64843 0.83203,-1.3125 1.19922,-2c0.36718,-0.6875 0.69921,-1.39062 1,-2.10937c0.29687,-0.71875 0.55859,-1.45313 0.78515,-2.19531c0.22656,-0.7461 0.41797,-1.5 0.57031,-2.26563c0.15235,-0.76172 0.26563,-1.53125 0.34375,-2.30859c0.07813,-0.77344 0.11719,-1.55078 0.11719,-2.32813l0,-122.41015c0.08594,-4.72657 1.26563,-19.70703 12.38672,-22.9961c-2.43359,-1.76172 -7.49609,-5.03515 -11.52734,-5.03515l-98.01172,0c-0.67969,0.0039 -1.35938,0.03515 -2.03516,0.10547c-0.67969,0.0664 -1.35156,0.16796 -2.01562,0.30078c-0.66797,0.13281 -1.32813,0.29687 -1.98047,0.49609c-0.64844,0.19922 -1.28906,0.42969 -1.91797,0.6875c-0.62891,0.26172 -1.24219,0.55469 -1.84375,0.875c-0.60156,0.32031 -1.18359,0.67188 -1.75,1.05078c-0.5625,0.375 -1.10938,0.78125 -1.63672,1.21485c-0.52344,0.42968 -1.02734,0.88671 -1.51172,1.37109c-0.48047,0.48047 -0.9375,0.98437 -1.36719,1.51172c-0.43359,0.52344 -0.83593,1.07031 -1.21484,1.63672c-0.37891,0.5664 -0.73047,1.14843 -1.05078,1.75c-0.32031,0.60156 -0.60938,1.21484 -0.87109,1.84375c-0.26172,0.6289 -0.49219,1.26953 -0.6875,1.92187c-0.19922,0.64844 -0.36719,1.3086 -0.5,1.97656c-0.13282,0.66797 -0.23438,1.33985 -0.30079,2.01954c-0.0664,0.67578 -0.10156,1.35546 -0.10156,2.03515l0,153.42969zm0,0" fill="#090817"/>
  <path id="svg_17" fill-rule="nonzero" d="m331.67188,299.84375l-113.85547,0l0,9.68359c0,0.59375 0.02734,1.1836 0.08593,1.77344c0.0586,0.58985 0.14454,1.17578 0.26172,1.75781c0.11328,0.58204 0.25782,1.15625 0.42969,1.72266c0.17188,0.56641 0.37109,1.125 0.59766,1.67188c0.22656,0.54687 0.48047,1.08203 0.75781,1.60546c0.28125,0.52344 0.58594,1.03125 0.91406,1.52344c0.32813,0.49219 0.6836,0.96875 1.0586,1.42578c0.375,0.45703 0.77343,0.89844 1.1914,1.31641c0.41797,0.41797 0.85547,0.81641 1.3125,1.19141c0.46094,0.375 0.9336,0.73046 1.42578,1.05859c0.49219,0.32812 1,0.63281 1.52344,0.91406c0.52344,0.27735 1.05859,0.53125 1.60547,0.75781c0.54687,0.22657 1.10547,0.42579 1.67187,0.59766c0.56641,0.17188 1.14063,0.31641 1.71875,0.43359c0.58204,0.11329 1.16797,0.19922 1.75782,0.25782c0.58984,0.05859 1.17968,0.08984 1.77343,0.08984l95.76954,0c10.33203,0 15.58984,-9.17578 15.58984,-9.17578c-12.11328,3.73437 -15.58984,-18.60547 -15.58984,-18.60547zm0,0" fill="#ffffff"/>
  <path id="svg_18" fill-rule="nonzero" d="m331.67188,328.48438l-95.76954,0c-0.62109,0 -1.24218,-0.03125 -1.85937,-0.09375c-0.61719,-0.0625 -1.22656,-0.15235 -1.83594,-0.27344c-0.60937,-0.1211 -1.21094,-0.27344 -1.80469,-0.45313c-0.59375,-0.18359 -1.17578,-0.39062 -1.75,-0.6289c-0.57031,-0.23828 -1.13281,-0.50391 -1.67968,-0.79688c-0.54688,-0.29297 -1.07813,-0.60937 -1.59375,-0.95703c-0.51563,-0.34375 -1.01172,-0.71484 -1.49219,-1.10547c-0.47656,-0.39453 -0.9375,-0.8125 -1.375,-1.25c-0.44141,-0.4375 -0.85547,-0.89844 -1.25,-1.3789c-0.39453,-0.48047 -0.76172,-0.97657 -1.10547,-1.49219c-0.34766,-0.51563 -0.66406,-1.04688 -0.95703,-1.59375c-0.29297,-0.54688 -0.55859,-1.10938 -0.79688,-1.6836c-0.23828,-0.57031 -0.44531,-1.15625 -0.625,-1.75c-0.18359,-0.59375 -0.33203,-1.19531 -0.45312,-1.80078c-0.12109,-0.60937 -0.21484,-1.22265 -0.27734,-1.83984c-0.0586,-0.61719 -0.08985,-1.23828 -0.08985,-1.85938l0,-9.68359c0,-0.23828 0.08203,-0.44141 0.25,-0.60937c0.16797,-0.16797 0.3711,-0.25 0.60938,-0.25l113.85547,0c0.21484,0 0.39843,0.0664 0.5625,0.20703c0.16015,0.13672 0.25781,0.3125 0.28906,0.51953c0.01953,0.13281 2.14062,13.29297 8.42969,17.22265c0.90234,0.57422 1.88671,0.92188 2.94921,1.04297c1.0625,0.1211 2.09766,0.00391 3.10938,-0.35156c0.16797,-0.05078 0.33594,-0.05078 0.50391,0c0.16796,0.05469 0.30859,0.14844 0.41796,0.28516c0.11329,0.14062 0.17188,0.29687 0.1875,0.47265c0.01172,0.17578 -0.02343,0.33985 -0.11328,0.49219c-0.22656,0.39453 -5.6289,9.60938 -16.33593,9.60938zm-112.9961,-27.78125l0,8.82421c0,0.56641 0.02735,1.12891 0.08594,1.69141c0.05469,0.55859 0.13672,1.11719 0.25,1.67188c0.10937,0.55078 0.24609,1.09765 0.41016,1.63671c0.16406,0.54297 0.35546,1.07032 0.57031,1.59375c0.21484,0.51954 0.45703,1.03125 0.72265,1.52735c0.26563,0.49609 0.55469,0.98047 0.8711,1.44922c0.3125,0.46875 0.64844,0.92187 1.0039,1.35937c0.35938,0.4336 0.73829,0.85156 1.13672,1.25391c0.39844,0.39844 0.81641,0.77734 1.25391,1.13281c0.43359,0.35938 0.88672,0.69531 1.35547,1.00781c0.46875,0.3125 0.95312,0.60547 1.44922,0.8711c0.49609,0.26562 1.00781,0.50781 1.52734,0.72265c0.51953,0.21485 1.05078,0.40625 1.58984,0.57032c0.53907,0.16406 1.08594,0.30078 1.64063,0.41406c0.55078,0.10937 1.10937,0.1914 1.67187,0.25c0.5586,0.05469 1.1211,0.08203 1.6875,0.08203l95.76954,0c7.0039,0 11.61328,-4.51953 13.64453,-7.05469c-1.90625,0.16016 -3.66797,-0.27734 -5.28125,-1.3125c-6.11328,-3.82422 -8.53125,-14.73047 -9.08594,-17.6875l-112.27344,-0.0039zm0,0" fill="#090817"/>
  <path id="svg_19" fill-rule="nonzero" d="m320.86328,168.03516l-47.98828,0c-0.23828,0 -0.44141,-0.08203 -0.60937,-0.25c-0.16797,-0.16797 -0.25,-0.3711 -0.25,-0.60938c0,-0.23828 0.08203,-0.4414 0.25,-0.60937c0.16796,-0.16797 0.37109,-0.25 0.60937,-0.25l47.98828,0c0.23828,0 0.4375,0.08203 0.60547,0.25c0.16797,0.16797 0.25391,0.37109 0.25391,0.60937c0,0.23828 -0.08594,0.44141 -0.25391,0.60938c-0.16797,0.16797 -0.36719,0.25 -0.60547,0.25zm0,0" fill="#080717"/>
  <path id="svg_20" fill-rule="nonzero" d="m261.38281,197.36328l-11.26953,0c-0.25,0 -0.49609,-0.04687 -0.73047,-0.14453c-0.23437,-0.09766 -0.4414,-0.23828 -0.61718,-0.41406c-0.17969,-0.17969 -0.32032,-0.38672 -0.41407,-0.6211c-0.09765,-0.23437 -0.14843,-0.48046 -0.14843,-0.73046l0,-10.32032c0,-0.2539 0.05078,-0.49609 0.14843,-0.73047c0.09375,-0.23437 0.23438,-0.4414 0.41407,-0.62109c0.17578,-0.17969 0.38281,-0.31641 0.61718,-0.41406c0.23438,-0.09766 0.47657,-0.14453 0.73047,-0.14453l11.26953,0c0.25391,0 0.4961,0.04687 0.73047,0.14453c0.23438,0.09765 0.44141,0.23437 0.6211,0.41406c0.17578,0.17969 0.3164,0.38672 0.41406,0.62109c0.09375,0.23438 0.14453,0.47657 0.14453,0.73047l0,10.32032c0,0.25 -0.05078,0.49609 -0.14453,0.73046c-0.09766,0.23438 -0.23828,0.44141 -0.41406,0.6211c-0.17969,0.17578 -0.38672,0.3164 -0.6211,0.41406c-0.23437,0.09766 -0.47656,0.14453 -0.73047,0.14453zm-11.26953,-12.42187c-0.125,0 -0.1875,0.0664 -0.1914,0.1914l0,10.32032c0.0039,0.125 0.0664,0.1875 0.1914,0.1875l11.26953,0c0.125,0 0.1875,-0.0625 0.19141,-0.1875l0,-10.32032c-0.00391,-0.125 -0.06641,-0.1914 -0.19141,-0.1914l-11.26953,0zm0,0" fill="#080717"/>
  <path id="svg_21" fill-rule="nonzero" d="m329.99609,191.15234l-58.55078,0c-0.23828,0 -0.4414,-0.08203 -0.60937,-0.25c-0.16797,-0.16796 -0.25,-0.37109 -0.25,-0.60937c0,-0.23828 0.08203,-0.44141 0.25,-0.60938c0.16797,-0.16796 0.37109,-0.25 0.60937,-0.25l58.55078,0c0.23829,0 0.44141,0.08204 0.60938,0.25c0.16797,0.16797 0.25,0.3711 0.25,0.60938c0,0.23828 -0.08203,0.44141 -0.25,0.60937c-0.16797,0.16797 -0.37109,0.25 -0.60938,0.25zm0,0" fill="#080717"/>
  <path id="svg_22" fill-rule="nonzero" d="m261.38281,220.17578l-11.26953,0c-0.25,0 -0.49609,-0.05078 -0.73047,-0.14844c-0.23437,-0.09375 -0.4375,-0.23437 -0.61718,-0.41406c-0.17969,-0.17578 -0.32032,-0.38281 -0.41407,-0.61719c-0.09765,-0.23437 -0.14843,-0.48046 -0.14843,-0.73046l0,-10.32032c0,-0.2539 0.05078,-0.49609 0.14843,-0.73047c0.09375,-0.23437 0.23438,-0.4414 0.41407,-0.62109c0.17968,-0.17969 0.38281,-0.31641 0.61718,-0.41406c0.23438,-0.09766 0.48047,-0.14453 0.73047,-0.14453l11.26953,0c0.25391,0 0.4961,0.04687 0.73047,0.14453c0.23438,0.09765 0.44141,0.23437 0.61719,0.41406c0.17969,0.17969 0.32031,0.38672 0.41797,0.62109c0.09375,0.23438 0.14453,0.47657 0.14453,0.73047l0,10.32032c0,0.25 -0.05078,0.49609 -0.14453,0.73046c-0.09766,0.23438 -0.23828,0.44141 -0.41797,0.61719c-0.17578,0.17969 -0.38281,0.32031 -0.61719,0.41406c-0.23437,0.09766 -0.47656,0.14844 -0.73047,0.14844zm-11.26953,-12.42187c-0.125,0 -0.1875,0.0625 -0.1914,0.1914l0,10.32032c0.0039,0.125 0.0664,0.1875 0.1914,0.1875l11.26953,0c0.125,0 0.1875,-0.0625 0.19141,-0.1875l0,-10.32032c-0.00391,-0.125 -0.06641,-0.1914 -0.19141,-0.1914l-11.26953,0zm0,0" fill="#080717"/>
  <path id="svg_23" fill-rule="nonzero" d="m329.99609,213.96484l-58.55078,0c-0.23828,0 -0.4414,-0.08203 -0.60937,-0.25c-0.16797,-0.16796 -0.25,-0.37109 -0.25,-0.60937c0,-0.23828 0.08203,-0.44141 0.25,-0.60938c0.16797,-0.16796 0.37109,-0.25 0.60937,-0.25l58.55078,0c0.23829,0 0.44141,0.08204 0.60938,0.25c0.16797,0.16797 0.25,0.3711 0.25,0.60938c0,0.23828 -0.08203,0.44141 -0.25,0.60937c-0.16797,0.16797 -0.37109,0.25 -0.60938,0.25zm0,0" fill="#080717"/>
  <path id="svg_24" fill-rule="nonzero" d="m261.38281,242.98828l-11.26953,0c-0.2539,0 -0.49609,-0.05078 -0.73047,-0.14844c-0.23437,-0.09375 -0.4414,-0.23437 -0.61718,-0.41406c-0.17969,-0.17969 -0.32032,-0.38672 -0.41797,-0.62109c-0.09375,-0.23047 -0.14453,-0.47656 -0.14453,-0.73047l0,-10.31641c0,-0.2539 0.05078,-0.49609 0.14843,-0.73047c0.09375,-0.23437 0.23438,-0.4414 0.41407,-0.62109c0.17968,-0.17969 0.38281,-0.31641 0.61718,-0.41406c0.23438,-0.09766 0.48047,-0.14453 0.73047,-0.14844l11.26953,0c0.25391,0.00391 0.4961,0.05078 0.73047,0.14844c0.23438,0.09765 0.44141,0.23437 0.61719,0.41406c0.17969,0.17969 0.32031,0.38672 0.41797,0.62109c0.09375,0.23438 0.14453,0.47657 0.14453,0.73047l0,10.31641c0,0.25391 -0.05078,0.5 -0.14453,0.73047c-0.09766,0.23437 -0.23828,0.4414 -0.41406,0.62109c-0.17969,0.17969 -0.38672,0.32031 -0.6211,0.41406c-0.23437,0.09766 -0.47656,0.14844 -0.73047,0.14844zm-11.26953,-12.42187c-0.125,0 -0.1875,0.0625 -0.1914,0.1914l0,10.31641c0,0.12891 0.0664,0.19141 0.1914,0.19141l11.26953,0c0.125,0 0.19141,-0.0625 0.19141,-0.19141l0,-10.31641c-0.00391,-0.1289 -0.06641,-0.1914 -0.19141,-0.1914l-11.26953,0zm0,0" fill="#080717"/>
  <path id="svg_25" fill-rule="nonzero" d="m329.99609,236.77734l-58.55078,0c-0.23828,0 -0.4414,-0.08593 -0.60937,-0.2539c-0.16797,-0.16797 -0.25,-0.3711 -0.25,-0.60938c0,-0.23437 0.08203,-0.4375 0.25,-0.60547c0.16797,-0.16796 0.37109,-0.2539 0.60937,-0.2539l58.55078,0c0.23829,0 0.44141,0.08594 0.60938,0.2539c0.16797,0.16797 0.25,0.3711 0.25,0.60547c0,0.23828 -0.08203,0.44141 -0.25,0.60938c-0.16797,0.16797 -0.37109,0.2539 -0.60938,0.2539zm0,0" fill="#080717"/>
  <path id="svg_26" fill-rule="nonzero" d="m261.38281,265.80078l-11.26953,0c-0.25,0 -0.49609,-0.05078 -0.73047,-0.14844c-0.23437,-0.09765 -0.4414,-0.23437 -0.61718,-0.41406c-0.17969,-0.17969 -0.32032,-0.38672 -0.41407,-0.62109c-0.09765,-0.23047 -0.14843,-0.47656 -0.14843,-0.73047l0,-10.31641c0,-0.2539 0.05078,-0.5 0.14843,-0.73047c0.09375,-0.23437 0.23438,-0.4414 0.41407,-0.62109c0.17578,-0.17969 0.38281,-0.31641 0.61718,-0.41406c0.23438,-0.09766 0.47657,-0.14844 0.73047,-0.14844l11.26953,0c0.25391,0 0.4961,0.05078 0.73047,0.14844c0.23438,0.09765 0.44141,0.23437 0.6211,0.41406c0.17578,0.17969 0.3164,0.38672 0.41406,0.62109c0.09375,0.23047 0.14453,0.47657 0.14453,0.73047l0,10.31641c0,0.25391 -0.05078,0.5 -0.14453,0.73047c-0.09766,0.23437 -0.23828,0.4414 -0.41406,0.62109c-0.17969,0.17969 -0.38672,0.31641 -0.6211,0.41406c-0.23437,0.09766 -0.47656,0.14844 -0.73047,0.14844zm-11.26953,-12.42187c-0.125,0 -0.1875,0.0625 -0.1914,0.1914l0,10.31641c0.0039,0.12891 0.0664,0.19141 0.1914,0.19141l11.26953,0c0.125,0 0.1875,-0.0625 0.19141,-0.19141l0,-10.31641c-0.00391,-0.1289 -0.06641,-0.1914 -0.19141,-0.1914l-11.26953,0zm0,0" fill="#080717"/>
  <path id="svg_27" fill-rule="nonzero" d="m329.99609,259.58984l-58.55078,0c-0.23828,0 -0.4414,-0.08593 -0.60937,-0.2539c-0.16797,-0.16797 -0.25,-0.3711 -0.25,-0.60547c0,-0.23828 0.08203,-0.44141 0.25,-0.60938c0.16797,-0.16796 0.37109,-0.2539 0.60937,-0.2539l58.55078,0c0.23829,0 0.44141,0.08594 0.60938,0.2539c0.16797,0.16797 0.25,0.3711 0.25,0.60938c0,0.23437 -0.08203,0.4375 -0.25,0.60547c-0.16797,0.16797 -0.37109,0.2539 -0.60938,0.2539zm0,0" fill="#080717"/>
  <path id="svg_28" fill-rule="nonzero" d="m261.38281,288.61328l-11.26953,0c-0.25,0 -0.49609,-0.05078 -0.73047,-0.14844c-0.23437,-0.09765 -0.4414,-0.23437 -0.61718,-0.41406c-0.17969,-0.17969 -0.32032,-0.38672 -0.41407,-0.62109c-0.09765,-0.23047 -0.14843,-0.47656 -0.14843,-0.73047l0,-10.31641c0,-0.2539 0.05078,-0.49609 0.14843,-0.73047c0.09375,-0.23437 0.23438,-0.4414 0.41407,-0.62109c0.17578,-0.17969 0.38281,-0.31641 0.61718,-0.41406c0.23438,-0.09766 0.47657,-0.14844 0.73047,-0.14844l11.26953,0c0.25391,0 0.4961,0.05078 0.73047,0.14844c0.23438,0.09765 0.44141,0.23437 0.6211,0.41406c0.17578,0.17969 0.3164,0.38672 0.41406,0.62109c0.09375,0.23438 0.14453,0.47657 0.14453,0.73047l0,10.31641c0,0.25391 -0.05078,0.5 -0.14453,0.73047c-0.09766,0.23437 -0.23828,0.4414 -0.41406,0.62109c-0.17969,0.17969 -0.38672,0.31641 -0.6211,0.41406c-0.23437,0.09766 -0.47656,0.14844 -0.73047,0.14844zm-11.26953,-12.42187c-0.125,0 -0.1875,0.0625 -0.1914,0.1914l0,10.31641c0.0039,0.12891 0.0664,0.19141 0.1914,0.19141l11.26953,0c0.125,0 0.1875,-0.0625 0.19141,-0.19141l0,-10.31641c-0.00391,-0.1289 -0.06641,-0.1914 -0.19141,-0.1914l-11.26953,0zm0,0" fill="#080717"/>
  <path id="svg_29" fill-rule="nonzero" d="m329.99609,282.40234l-58.55078,0c-0.23828,0 -0.4414,-0.08593 -0.60937,-0.2539c-0.16797,-0.16797 -0.25,-0.3711 -0.25,-0.60547c0,-0.23828 0.08203,-0.44141 0.25,-0.60938c0.16797,-0.16796 0.37109,-0.2539 0.60937,-0.2539l58.55078,0c0.23829,0 0.44141,0.08594 0.60938,0.2539c0.16797,0.16797 0.25,0.3711 0.25,0.60938c0,0.23437 -0.08203,0.4375 -0.25,0.60547c-0.16797,0.16797 -0.37109,0.2539 -0.60938,0.2539zm0,0" fill="#080717"/>
  <path id="svg_30" fill-rule="nonzero" d="m219.46484,214.89063c0.57422,-4.5 2.15235,-8.60938 4.73829,-12.33594c1.16015,-1.64453 3.07421,-3.44141 6.90625,-7.04297c6.94531,-6.52344 7.96484,-6.34375 8.34375,-6.12891c1.24609,0.70313 0.36328,4.44922 0,6c-1.4375,6.12891 -4.11719,7.94922 -5.86329,12.12891c-0.79687,1.90234 -0.87109,3.03125 -0.26171,16.17187c0.66406,14.28907 0.92578,16.73829 -0.25782,17.21094c-2.20312,0.88281 -7.30859,-5.90625 -10.03515,-11.60937c-2.16016,-4.5586 -3.35157,-9.35547 -3.57032,-14.39453zm0,0" fill="#ffffff"/>
  <path id="svg_31" fill-rule="nonzero" d="m232.66406,241.83203c-3.41015,0 -8.47656,-8.13281 -10.40625,-12.17187c-2.21484,-4.66016 -3.42968,-9.57032 -3.64843,-14.73047c-0.00391,-0.05469 0,-0.10938 0.00781,-0.16016c0.59765,-4.63672 2.22656,-8.87109 4.88672,-12.71094c1.20703,-1.71484 3.14843,-3.53515 7.00781,-7.16406c7.11719,-6.67969 8.41016,-6.80078 9.36719,-6.26172c1.66797,0.94532 1.08593,4.07813 0.41406,6.94532c-0.70313,3.0039 -1.9375,5.76953 -3.70703,8.29687c-0.85547,1.25781 -1.58985,2.57813 -2.20313,3.96875c-0.71875,1.71875 -0.78906,2.93359 -0.1914,15.80078l0.19922,4.21485c0.5664,11.9375 0.625,13.1875 -1,13.83984c-0.23438,0.08984 -0.47657,0.13672 -0.72657,0.13281zm-12.33593,-26.90234c0.21484,4.89844 1.375,9.5625 3.47656,13.98828c3.15625,6.59766 7.79687,11.64062 8.94531,11.17969c0.47656,-0.47657 0.27734,-4.625 -0.07812,-12.16016l-0.19922,-4.21484c-0.6211,-13.40235 -0.54688,-14.45703 0.32422,-16.54297c0.65234,-1.48047 1.43359,-2.89063 2.33984,-4.23047c1.65625,-2.36328 2.81641,-4.95313 3.48047,-7.76172c0.89844,-3.82031 0.61719,-4.76953 0.46484,-5c-0.41015,0.11719 -2.0039,0.90234 -7.3789,5.95313c-3.78907,3.55859 -5.6875,5.33984 -6.79688,6.91015c-2.48437,3.58985 -4.01172,7.55078 -4.57812,11.87891zm0,0" fill="#090817"/>
  <path id="svg_32" fill-rule="nonzero" d="m82.39063,228.40234l0.23046,-0.66015c0.11329,-0.32422 0.25391,-0.63281 0.42579,-0.92969c0.17578,-0.29297 0.375,-0.57031 0.60156,-0.82812c0.22656,-0.25391 0.48047,-0.48829 0.75,-0.69532c0.27344,-0.20703 0.5664,-0.38672 0.875,-0.53515c0.30859,-0.14844 0.6289,-0.26953 0.95703,-0.35547c0.33203,-0.08594 0.67187,-0.14063 1.01172,-0.16016c0.34375,-0.01953 0.68359,-0.00781 1.02344,0.03906c0.33984,0.04688 0.67187,0.125 0.99609,0.23829l55.44531,19.19531c0.32422,0.10937 0.63672,0.2539 0.92969,0.42578c0.29687,0.17578 0.57422,0.375 0.82812,0.60156c0.25782,0.22656 0.48829,0.47656 0.69532,0.75c0.20703,0.27344 0.38672,0.56641 0.53515,0.875c0.15235,0.3086 0.26953,0.62891 0.35547,0.96094c0.08594,0.33203 0.14063,0.66797 0.16016,1.01172c0.02344,0.33984 0.00781,0.67969 -0.03906,1.01953c-0.04688,0.33984 -0.125,0.67187 -0.23829,0.99609l-0.22656,0.66016c-0.11328,0.32422 -0.2539,0.63672 -0.42969,0.92969c-0.17187,0.29687 -0.37109,0.57422 -0.59765,0.83203c-0.23047,0.2539 -0.48047,0.48828 -0.75391,0.69531c-0.27344,0.20703 -0.5625,0.38281 -0.87109,0.53516c-0.3086,0.14843 -0.62891,0.26562 -0.96094,0.35547c-0.32812,0.08593 -0.66797,0.14062 -1.00781,0.16015c-0.34375,0.01953 -0.6836,0.00781 -1.02344,-0.03906c-0.33984,-0.04688 -0.67187,-0.12891 -0.99609,-0.23828l-55.44922,-19.19531c-0.32422,-0.11329 -0.63281,-0.25391 -0.92969,-0.42579c-0.29297,-0.17578 -0.57031,-0.375 -0.82812,-0.60156c-0.25391,-0.23047 -0.48829,-0.48047 -0.69532,-0.7539c-0.20703,-0.27344 -0.38281,-0.5625 -0.53515,-0.8711c-0.14844,-0.30859 -0.26563,-0.6289 -0.35157,-0.96094c-0.08984,-0.33203 -0.14062,-0.66796 -0.16406,-1.01171c-0.01953,-0.33985 -0.0039,-0.6836 0.04297,-1.02344c0.04297,-0.33985 0.125,-0.67188 0.23438,-0.9961zm0,0" fill="#ffffff"/>
  <path id="svg_33" fill-rule="nonzero" d="m142.76953,255.39063c-0.67969,0 -1.34375,-0.10938 -1.98437,-0.33204l-55.44922,-19.19531c-0.375,-0.1289 -0.73828,-0.29687 -1.08203,-0.5c-0.34375,-0.19922 -0.66407,-0.43359 -0.96485,-0.69922c-0.29687,-0.26562 -0.5664,-0.55468 -0.80859,-0.875c-0.24219,-0.3164 -0.44922,-0.65625 -0.625,-1.01562c-0.17188,-0.35938 -0.3125,-0.73438 -0.41406,-1.11719c-0.09766,-0.38672 -0.16016,-0.78125 -0.1875,-1.17969c-0.02344,-0.39843 -0.00782,-0.79687 0.04687,-1.1914c0.05469,-0.39453 0.14844,-0.78125 0.27735,-1.16016l0.23046,-0.66016c0.13282,-0.3789 0.29688,-0.73828 0.5,-1.08203c0.19922,-0.34375 0.4336,-0.66797 0.69922,-0.96484c0.26563,-0.29688 0.5586,-0.57031 0.875,-0.80859c0.31641,-0.24219 0.65625,-0.44922 1.01563,-0.625c0.35937,-0.17188 0.73047,-0.3125 1.11719,-0.41407c0.38671,-0.10156 0.77734,-0.16406 1.17578,-0.1875c0.39843,-0.02343 0.79687,-0.00781 1.1914,0.04688c0.39453,0.05469 0.78125,0.14453 1.16016,0.27344l55.44531,19.1914c0.37891,0.13281 0.73828,0.29688 1.08203,0.5c0.34766,0.20313 0.66797,0.4375 0.96485,0.70313c0.30078,0.26172 0.57031,0.55468 0.80859,0.875c0.24219,0.3164 0.44922,0.65625 0.625,1.01562c0.17188,0.35938 0.3125,0.73047 0.41406,1.11719c0.09766,0.38672 0.16016,0.77734 0.1875,1.17578c0.02344,0.39844 0.00782,0.79688 -0.04687,1.19141c-0.05469,0.39843 -0.14453,0.78515 -0.27735,1.16015l-0.22656,0.66016c-0.20703,0.59766 -0.5,1.15234 -0.8789,1.66016c-0.37891,0.5039 -0.82813,0.9414 -1.34375,1.30859c-0.51563,0.36719 -1.07422,0.64844 -1.67579,0.83984c-0.60156,0.19532 -1.21875,0.28907 -1.85156,0.28907zm-55.21094,-30.30079c-0.45312,0 -0.89843,0.07032 -1.32812,0.20704c-0.43359,0.14062 -0.83203,0.33984 -1.20313,0.60546c-0.37109,0.26172 -0.6914,0.57422 -0.96093,0.9375c-0.27344,0.36329 -0.48438,0.75782 -0.63282,1.1875l-0.22656,0.66016c-0.09375,0.26953 -0.16015,0.54688 -0.19922,0.83203c-0.03906,0.28516 -0.05078,0.57031 -0.03515,0.85547c0.01562,0.28516 0.0625,0.56641 0.13281,0.84375c0.07422,0.27734 0.17187,0.54297 0.29687,0.80078c0.125,0.25781 0.27735,0.5 0.44922,0.73047c0.17188,0.22656 0.36719,0.4375 0.57813,0.625c0.21484,0.19141 0.44531,0.35938 0.69531,0.50391c0.24609,0.14453 0.50391,0.26172 0.77344,0.35547l55.44922,19.19531c0.26953,0.09375 0.54687,0.16015 0.83203,0.19922c0.28515,0.03906 0.5664,0.05078 0.85547,0.03125c0.28515,-0.01563 0.5664,-0.0586 0.84375,-0.13282c0.27343,-0.07421 0.54297,-0.17187 0.80078,-0.29687c0.25781,-0.125 0.5,-0.27344 0.72656,-0.44531c0.22656,-0.17578 0.4375,-0.36719 0.62891,-0.58203c0.1875,-0.21485 0.35547,-0.44532 0.5,-0.69141c0.14453,-0.24609 0.26562,-0.50781 0.35937,-0.77734l0.22656,-0.66016c0.09375,-0.26953 0.16016,-0.54688 0.19922,-0.83203c0.03907,-0.28516 0.05078,-0.57031 0.03125,-0.85547c-0.01562,-0.28516 -0.0625,-0.56641 -0.13281,-0.84375c-0.07422,-0.27734 -0.17187,-0.54297 -0.29687,-0.80078c-0.125,-0.25781 -0.27344,-0.5 -0.44922,-0.73047c-0.17188,-0.22656 -0.36328,-0.4375 -0.57813,-0.625c-0.21484,-0.19141 -0.44531,-0.35938 -0.6914,-0.50391c-0.2461,-0.14453 -0.50782,-0.26562 -0.77735,-0.35937l-55.44531,-19.1875c-0.46094,-0.16406 -0.93359,-0.24219 -1.42188,-0.2461zm60.37891,25.26563zm0,0" fill="#090817"/>
  <path id="svg_34" fill-rule="nonzero" d="m141.75391,254.13672l15.76953,0.83984l-12.14453,-10.8789c-0.41016,0.2539 -0.79688,0.53515 -1.16016,0.85156c-0.35937,0.31641 -0.69531,0.66406 -1,1.03516c-0.30078,0.375 -0.57422,0.76953 -0.80859,1.1914c-0.23828,0.41797 -0.4375,0.85156 -0.60157,1.30469c-0.16406,0.45312 -0.28906,0.91797 -0.375,1.39062c-0.08593,0.47266 -0.1289,0.95313 -0.13281,1.4336c-0.00781,0.48047 0.03125,0.96094 0.10547,1.43359c0.07813,0.47656 0.19141,0.94141 0.34766,1.39844zm0,0" fill="#ffffff"/>
  <path id="svg_35" fill-rule="nonzero" d="m157.52344,255.83594l-0.04688,0l-15.76953,-0.83985c-0.17578,-0.00781 -0.33594,-0.0664 -0.47656,-0.17187c-0.14063,-0.10547 -0.23828,-0.24609 -0.29688,-0.41406c-0.64843,-1.9375 -0.67187,-3.88672 -0.0664,-5.83985c0.34765,-1.07812 0.87109,-2.0664 1.5664,-2.95703c0.69922,-0.89453 1.52735,-1.64453 2.48829,-2.24609c0.16015,-0.09766 0.33593,-0.14063 0.52734,-0.125c0.19141,0.01562 0.35547,0.08984 0.5,0.21484l12.14062,10.87891c0.13282,0.11719 0.22266,0.26562 0.26172,0.4375c0.04297,0.17187 0.03125,0.34375 -0.03125,0.51172c-0.0625,0.16406 -0.16797,0.29687 -0.3164,0.39843c-0.14453,0.10157 -0.3086,0.15235 -0.48438,0.15235l0.00391,0zm-15.11719,-2.52735l12.72266,0.67579l-9.82422,-8.79297c-0.6211,0.45312 -1.16016,0.98437 -1.6211,1.60156c-0.46093,0.61719 -0.82031,1.28516 -1.07812,2.01172c-0.25781,0.72265 -0.40234,1.46875 -0.4375,2.23828c-0.03516,0.76562 0.04687,1.52344 0.23828,2.26562zm0,0" fill="#090817"/>
  <path id="svg_36" fill-rule="nonzero" d="m84.34375,241.76563c3.48828,-1.62891 6.57031,-3.83204 9.24609,-6.60547c4.17969,-4.4375 12.65235,-8.48047 17.47266,-7.69532c4.82422,0.78125 23.59375,10.82422 23.98438,12.78125c0.39062,1.95313 -14.46875,0.12891 -14.46875,0.12891c0,0 6.58984,3.78516 0.82031,6.78125c0,0 5.95703,3 1.0039,6.65234c0,0 3.91016,3.39063 -0.25781,6.91016c-4.16797,3.52344 -5.21484,1.56641 -9.90625,4.69531c-4.6914,3.13282 -17.33594,10.69532 -22.80859,6c-5.47656,-4.69531 -15.51563,-19.44922 -5.08594,-29.64843zm0,0" fill="#ffffff"/>
  <path id="svg_37" fill-rule="nonzero" d="m94.06641,273.76953c-0.94141,0.03906 -1.85938,-0.08594 -2.75391,-0.3789c-0.89453,-0.29297 -1.71094,-0.73438 -2.44531,-1.32422c-3.84375,-3.29688 -9.65625,-11.125 -9.92188,-19.17969c-0.04687,-1.09375 0.02344,-2.17969 0.21094,-3.25781c0.1875,-1.07813 0.48828,-2.1211 0.90234,-3.13672c0.41407,-1.01172 0.9336,-1.96875 1.55469,-2.8711c0.6211,-0.89843 1.32813,-1.72265 2.12891,-2.46875c0.07422,-0.07421 0.16015,-0.13281 0.25781,-0.17187c3.37891,-1.58984 6.36328,-3.72656 8.96094,-6.41016c4.21484,-4.46875 12.90234,-8.8164 18.23437,-7.95312c4.16016,0.67578 24.14453,10.73047 24.6836,13.46094c0.08203,0.41406 -0.01953,0.77343 -0.3086,1.07812c-1.15625,1.24609 -7.25781,0.91016 -12.1875,0.40625c0.78125,0.78125 1.19532,1.72266 1.2461,2.82813c-0.03907,0.5625 -0.19922,1.08984 -0.48047,1.57812c-0.28516,0.48828 -0.66406,0.88281 -1.13672,1.19141c0.58594,0.38672 1.07031,0.875 1.45703,1.46484c0.38281,0.58594 0.63672,1.22656 0.75391,1.92188c0.01953,0.65234 -0.10547,1.27343 -0.38282,1.86328c-0.27734,0.58984 -0.67187,1.08593 -1.1875,1.48437c0.23829,0.26563 0.44922,0.55469 0.625,0.86719c0.17579,0.3125 0.31641,0.63672 0.42579,0.98047c0.10546,0.33984 0.17187,0.6914 0.20703,1.04687c0.03125,0.35547 0.02343,0.71094 -0.02344,1.06641c-0.04297,0.35547 -0.12891,0.70312 -0.24609,1.03906c-0.1211,0.33594 -0.27344,0.65625 -0.46485,0.96094c-0.1875,0.30469 -0.40625,0.58594 -0.65625,0.83984c-0.25,0.25782 -0.52344,0.48438 -0.82031,0.6836c-1.53125,1.40625 -3.3125,2.32031 -5.34766,2.73047c-1.68359,0.35937 -3.23047,1.03125 -4.63672,2.02343c-3.96093,2.64063 -12.29296,7.63672 -18.64843,7.63672zm-9.23047,-31.28125c-1.41016,1.34375 -2.47656,2.91406 -3.20313,4.71875c-0.72656,1.80469 -1.05078,3.67969 -0.96484,5.625c0.24219,7.44531 5.84766,14.94922 9.31641,17.92969c1.30468,1.11719 6.72265,3.97656 21.77343,-6.0625c1.57422,-1.10156 3.30078,-1.85547 5.17969,-2.26172c1.77344,-0.35156 3.32422,-1.14453 4.64844,-2.375c0.46484,-0.32422 0.83984,-0.73047 1.12109,-1.22266c0.28516,-0.48828 0.44922,-1.01562 0.5,-1.58203c-0.08594,-1.11328 -0.54297,-2.04687 -1.36719,-2.80078c-0.10156,-0.08594 -0.17578,-0.1914 -0.22656,-0.30859c-0.05078,-0.1211 -0.07422,-0.2461 -0.07031,-0.375c0.00781,-0.13281 0.03906,-0.25391 0.10156,-0.36719c0.0625,-0.11719 0.14453,-0.21094 0.25,-0.28906c1.13281,-0.83594 1.67578,-1.65235 1.61328,-2.42188c-0.10937,-1.28515 -1.83593,-2.4375 -2.49609,-2.76953c-0.3125,-0.16015 -0.46875,-0.41406 -0.47266,-0.76562c0,-0.35157 0.15235,-0.60547 0.46485,-0.76953c0.85937,-0.44141 1.88281,-1.16016 1.90234,-2.03516c0.02734,-1.32422 -2.03125,-2.81641 -2.75781,-3.23438c-0.17578,-0.10156 -0.30078,-0.25 -0.375,-0.4414c-0.07031,-0.19141 -0.07422,-0.38281 -0.01172,-0.57813c0.0625,-0.19531 0.18359,-0.34765 0.35547,-0.45703c0.17578,-0.10937 0.36328,-0.14844 0.5664,-0.12109c5.27344,0.64453 11.40625,1.01172 13.23438,0.58984c-2.59375,-2.55469 -18.50781,-11.07422 -22.99219,-11.80078c-4.24609,-0.6875 -12.52344,2.99609 -16.71094,7.4375c-2.71484,2.82031 -5.83984,5.06641 -9.3789,6.73828zm49.39453,-1.98828zm0,0" fill="#090817"/>
  <path id="svg_38" fill-rule="nonzero" d="m52.14844,259.39453c-0.07031,0 -0.14063,-0.00781 -0.21094,-0.02734c-0.23047,-0.0586 -0.40625,-0.1875 -0.52734,-0.39453c-0.125,-0.20313 -0.15625,-0.42188 -0.09766,-0.65235l10.16797,-40.19531c0.05859,-0.23437 0.1875,-0.41016 0.39062,-0.53516c0.20704,-0.12109 0.42188,-0.15234 0.65625,-0.09375c0.23047,0.0586 0.40625,0.1875 0.52735,0.39454c0.12109,0.20703 0.15234,0.42187 0.09375,0.65625l-10.16797,40.19531c-0.04688,0.1914 -0.14844,0.34765 -0.30469,0.46875c-0.15625,0.12109 -0.33203,0.18359 -0.52734,0.18359zm0,0" fill="#ffffff"/>
  <path id="svg_39" fill-rule="nonzero" d="m31.03125,277.10156c-0.35547,0 -0.61719,-0.15625 -0.77344,-0.47656c-0.16015,-0.32031 -0.13281,-0.625 0.08594,-0.90625c0.48047,-0.62891 11.83984,-15.37109 23.44141,-17.99609l27,-15.48438c0.20703,-0.11719 0.42578,-0.14453 0.65625,-0.08594c0.22656,0.0625 0.40234,0.19532 0.51953,0.40235c0.12109,0.20703 0.14844,0.42578 0.08594,0.65234c-0.0586,0.23047 -0.19532,0.40625 -0.39844,0.52344l-27.11719,15.54687c-0.07812,0.04688 -0.16016,0.07813 -0.24609,0.09375c-11.02735,2.41016 -22.45703,17.24219 -22.57032,17.39063c-0.17187,0.22656 -0.39843,0.33984 -0.68359,0.33984zm0,0" fill="#ffffff"/>
  <path id="svg_40" fill-rule="nonzero" d="m41.25391,312.41797c-0.48047,0.00391 -0.95703,-0.03906 -1.4336,-0.12891c-0.55468,-0.05468 -1.07031,-0.23437 -1.54297,-0.53515c-0.47265,-0.30469 -0.85156,-0.69532 -1.14062,-1.17578c-0.08594,-0.21094 -0.08984,-0.42579 -0.01172,-0.64063c0.08203,-0.21484 0.22656,-0.37109 0.43359,-0.46875c0.20704,-0.10156 0.41797,-0.11328 0.63672,-0.04297c0.21875,0.07031 0.38282,0.20313 0.49219,0.40625c0.42969,0.51563 0.98047,0.78125 1.64844,0.80078c3.52734,0.51563 15.51562,-1.82422 50.58594,-35.01562c0.17187,-0.16797 0.375,-0.25 0.61718,-0.2461c0.23828,0.00391 0.44141,0.09375 0.60547,0.26954c0.16797,0.17578 0.2461,0.38281 0.23438,0.62109c-0.00782,0.24219 -0.10157,0.44141 -0.27735,0.60547c-14.29297,13.52344 -39.33593,35.55078 -50.84765,35.55078zm0,0" fill="#ffffff"/>
  <path id="svg_41" fill-rule="nonzero" d="m165.54688,310.74609c-0.22266,0 -0.41407,-0.07421 -0.57813,-0.22265c-0.16016,-0.14844 -0.25391,-0.33203 -0.27734,-0.55078l-5.27735,-51.35547c-0.01562,-0.15625 0.00782,-0.30469 0.07422,-0.44531c6.87891,-14.91797 -6.5039,-27.36719 -6.64062,-27.4961c-0.13282,-0.11719 -0.21875,-0.26562 -0.25782,-0.4414l-3.46875,-15.11329c-0.04687,-0.23046 -0.00781,-0.44531 0.11719,-0.64062c0.125,-0.19922 0.30469,-0.32422 0.53125,-0.375c0.23047,-0.05078 0.44141,-0.01953 0.64453,0.10547c0.19922,0.12109 0.32813,0.29687 0.38282,0.52344l3.41015,14.86328c1.72266,1.6875 13.65235,14.15625 6.94141,29.07812l5.2539,51.11719c0.02735,0.23437 -0.03515,0.44531 -0.1875,0.63281c-0.14843,0.1836 -0.33984,0.28906 -0.57812,0.3125c-0.03125,0.00781 -0.05859,0.00781 -0.08984,0.00781zm0,0" fill="#ffffff"/>
  <path id="svg_42" fill-rule="nonzero" d="m174.92969,291.18359c-0.19141,0 -0.36719,-0.05859 -0.51953,-0.17578c-0.15625,-0.11718 -0.25782,-0.26953 -0.3086,-0.46093c-0.96484,-3.96094 -1.51953,-7.98047 -1.66015,-12.0586c-0.24219,-6.3125 0.45703,-15.34765 5.16406,-22.54687c0.125,-0.20703 0.30469,-0.33985 0.54297,-0.39453c0.23828,-0.05469 0.46094,-0.01563 0.66406,0.11718c0.20313,0.13282 0.32813,0.32032 0.375,0.5625c0.04688,0.23828 -0.00391,0.45703 -0.14453,0.65625c-8.55469,13.08985 -3.33203,33.01563 -3.27734,33.21875c0.0625,0.23047 0.03125,0.44532 -0.08594,0.65235c-0.11719,0.20703 -0.29297,0.33984 -0.52344,0.40234c-0.07422,0.01953 -0.14844,0.03125 -0.22656,0.02734zm0,0" fill="#ffffff"/>
  <path id="svg_43" fill-rule="nonzero" d="m41.90234,120.35938c0,0 4.76954,-3.11329 7.41016,0.49609c2.64063,3.61328 6.55078,3.52344 8.69922,-8.21875c2.15234,-11.74219 14.74609,-29.93359 43.35156,-32.86719c0,0 9.85156,12.71485 22.35547,17.01953c12.50391,4.30078 12.01172,21.8086 15.72656,25.03907c3.71485,3.23046 5.32422,-2.73047 7.0625,-3.32032c1.73828,-0.58984 7.3125,5.85547 7.3125,5.85547c1.41016,-22.02734 -7.35937,-42.05469 -23.46484,-51.57031c-3.44531,-1.98438 -7.09375,-3.48438 -10.94141,-4.50391c-3.84765,-1.01562 -7.75781,-1.51562 -11.73828,-1.49609c-2.66015,-0.97656 -23.65234,-8.28516 -43.27344,3.91406c-16.26953,10.10938 -25.10546,29.60156 -22.5,49.65235zm0,0" fill="#080717"/>
  <path id="svg_44" fill-rule="nonzero" d="m60.58594,121.71875c-0.38281,-0.00391 -0.64844,-0.17969 -0.79297,-0.53516c-0.14453,-0.35546 -0.08203,-0.67187 0.19141,-0.9414c0.66796,-0.67188 1.375,-1.30078 2.125,-1.88281c0.75,-0.57813 1.53906,-1.10547 2.35937,-1.58204c0.82031,-0.47265 1.66797,-0.89062 2.54688,-1.25c0.8789,-0.35937 1.77343,-0.66015 2.6914,-0.90234c0.91797,-0.23828 1.84766,-0.41406 2.78906,-0.53125c0.94141,-0.11328 1.88672,-0.16406 2.83594,-0.15234c0.94922,0.01172 1.89063,0.08984 2.82813,0.22656c0.9375,0.14062 1.86328,0.33984 2.77343,0.60547c0.21875,0.08203 0.37891,0.23047 0.47657,0.4414c0.09765,0.21485 0.10937,0.42969 0.03125,0.65235c-0.07813,0.21875 -0.22266,0.38281 -0.4336,0.48437c-0.21093,0.10157 -0.42578,0.11719 -0.64843,0.04297c-1.67579,-0.49609 -3.39063,-0.7539 -5.13672,-0.77734c-1.7461,-0.02735 -3.46485,0.18359 -5.15625,0.63281c-1.6875,0.44922 -3.28516,1.11328 -4.79297,2c-1.50781,0.88672 -2.86719,1.96094 -4.07813,3.22266c-0.16797,0.16406 -0.37109,0.24609 -0.60937,0.24609zm0,0" fill="#080717"/>
  <path id="svg_45" fill-rule="nonzero" d="m69.39844,129.64453c-0.89844,-0.02734 -1.66016,-0.36328 -2.28906,-1.00781c-0.17969,-0.16016 -0.27735,-0.36328 -0.29297,-0.60156c-0.01172,-0.24219 0.0625,-0.45313 0.22656,-0.63282c0.16406,-0.17578 0.36719,-0.26953 0.60937,-0.27734c0.24219,-0.00391 0.44922,0.07422 0.625,0.24609c1.01954,0.9375 1.70704,0.60157 3.26954,-0.51562c0.4414,-0.33594 0.90234,-0.63672 1.38671,-0.91016c0.7461,-0.34375 1.52735,-0.51562 2.35157,-0.51562c0.82031,0.0039 1.60156,0.18359 2.34765,0.53515c0.21094,0.10547 0.35547,0.27344 0.42969,0.4961c0.07813,0.22656 0.0625,0.44531 -0.04297,0.65625c-0.10547,0.21484 -0.26953,0.35937 -0.49609,0.43359c-0.22266,0.07813 -0.44141,0.0625 -0.65625,-0.04297c-0.49219,-0.23047 -1.01172,-0.34765 -1.55469,-0.35547c-0.54687,-0.00781 -1.06641,0.09766 -1.56641,0.3125c-0.41796,0.23829 -0.8164,0.5 -1.19921,0.78907c-0.90235,0.79297 -1.95313,1.25781 -3.14844,1.39062zm0,0" fill="#080717"/>
  <path id="svg_46" fill-rule="nonzero" d="m80.75,130.60156c0,0.34375 -0.03125,0.67969 -0.10156,1.01563c-0.06641,0.33984 -0.16406,0.66406 -0.29688,0.98047c-0.1289,0.3164 -0.28906,0.61718 -0.48047,0.90234c-0.1914,0.28516 -0.40625,0.55078 -0.64843,0.79297c-0.24219,0.24219 -0.50782,0.45703 -0.79297,0.64844c-0.28125,0.1914 -0.58203,0.35156 -0.89844,0.48437c-0.32031,0.12891 -0.64453,0.23047 -0.98047,0.29688c-0.33594,0.0664 -0.67578,0.09765 -1.01953,0.09765c-0.33984,0 -0.67969,-0.03125 -1.01562,-0.09765c-0.33594,-0.06641 -0.66407,-0.16797 -0.98047,-0.29688c-0.31641,-0.13281 -0.61719,-0.29297 -0.90235,-0.48437c-0.28515,-0.19141 -0.54687,-0.40625 -0.78906,-0.64844c-0.24219,-0.24219 -0.46094,-0.50781 -0.64844,-0.79297c-0.1914,-0.28516 -0.35156,-0.58594 -0.48437,-0.90234c-0.12891,-0.31641 -0.23047,-0.64063 -0.29688,-0.98047c-0.0664,-0.33594 -0.10156,-0.67188 -0.10156,-1.01563c0,-0.34375 0.03516,-0.68359 0.10156,-1.01953c0.06641,-0.33594 0.16797,-0.66406 0.29688,-0.98047c0.13281,-0.3164 0.29297,-0.61718 0.48437,-0.90234c0.1875,-0.28516 0.40625,-0.54688 0.64844,-0.78906c0.24219,-0.24219 0.50391,-0.46094 0.78906,-0.65235c0.28516,-0.1875 0.58594,-0.35156 0.90235,-0.48047c0.3164,-0.13281 0.64453,-0.23046 0.98047,-0.29687c0.33593,-0.06641 0.67578,-0.10156 1.01562,-0.10156c0.34375,0 0.68359,0.03515 1.01953,0.10156c0.33594,0.06641 0.66016,0.16406 0.97656,0.29687c0.32032,0.12891 0.6211,0.29297 0.90235,0.48047c0.28515,0.19141 0.55078,0.41016 0.79297,0.65235c0.24218,0.24218 0.45703,0.5039 0.64843,0.78906c0.19141,0.28516 0.35157,0.58594 0.48047,0.90234c0.13282,0.31641 0.23047,0.64453 0.29688,0.98047c0.07031,0.33594 0.10156,0.67578 0.10156,1.01953zm0,0" fill="#080717"/>
  <path id="svg_47" fill-rule="nonzero" d="m125.94141,117.88672c-0.22657,0 -0.41797,-0.07422 -0.58594,-0.22656c-0.5625,-0.52344 -1.15625,-1 -1.78906,-1.4336c-0.63282,-0.43359 -1.29297,-0.8164 -1.98047,-1.15234c-0.69141,-0.33594 -1.39844,-0.62109 -2.13281,-0.85156c-0.73047,-0.23047 -1.47266,-0.40625 -2.23047,-0.52735c-0.75391,-0.12109 -1.51563,-0.1875 -2.28125,-0.19531c-0.76953,-0.00781 -1.53125,0.03906 -2.28907,0.14453c-0.76171,0.10547 -1.50781,0.26172 -2.24218,0.47656c-0.73828,0.21485 -1.45313,0.48438 -2.14844,0.80079c-0.21484,0.10156 -0.43359,0.10937 -0.65625,0.02343c-0.22266,-0.08203 -0.38281,-0.23047 -0.48438,-0.44531c-0.09765,-0.21484 -0.10546,-0.4375 -0.02343,-0.66016c0.08203,-0.22265 0.23047,-0.38281 0.44531,-0.48046c0.77344,-0.35547 1.57031,-0.65235 2.38672,-0.89063c0.8164,-0.23828 1.64453,-0.41406 2.48828,-0.53125c0.84375,-0.11328 1.69141,-0.16797 2.54297,-0.15625c0.84765,0.00781 1.69531,0.07813 2.53515,0.21484c0.83985,0.13282 1.66407,0.32813 2.47657,0.58594c0.8125,0.25781 1.60156,0.57031 2.36328,0.94531c0.76562,0.3711 1.5,0.79688 2.20312,1.28125c0.69922,0.48047 1.36328,1.00782 1.98828,1.58985c0.12891,0.11719 0.21485,0.26562 0.25391,0.4375c0.03906,0.17187 0.02344,0.33984 -0.03906,0.50781c-0.06641,0.16406 -0.17188,0.29688 -0.31641,0.39453c-0.14453,0.10156 -0.30859,0.14844 -0.48437,0.14844zm0,0" fill="#080717"/>
  <path id="svg_48" fill-rule="nonzero" d="m121.86328,126.13281c-1.0625,-0.09375 -2.03906,-0.42968 -2.93359,-1.00781c-0.41797,-0.23828 -0.84766,-0.44922 -1.28906,-0.63281c-0.52344,-0.14844 -1.05469,-0.1875 -1.59375,-0.10938c-0.53516,0.07422 -1.03516,0.25782 -1.4961,0.54688c-0.19922,0.13281 -0.41406,0.17187 -0.64453,0.125c-0.23437,-0.04688 -0.41406,-0.16797 -0.54687,-0.36328c-0.13282,-0.19922 -0.17579,-0.41407 -0.12891,-0.64453c0.04687,-0.23438 0.16797,-0.41797 0.36328,-0.54688c0.69141,-0.44531 1.44531,-0.72266 2.26172,-0.82812c0.81641,-0.10547 1.61328,-0.03516 2.39844,0.21484c0.51172,0.20703 1.00781,0.44922 1.49218,0.72266c1.69141,0.91796 2.41797,1.16015 3.3086,0.10156c0.15234,-0.17969 0.34765,-0.28125 0.58594,-0.30469c0.23437,-0.01953 0.44531,0.04688 0.625,0.19922c0.18359,0.15234 0.28515,0.34766 0.30468,0.58594c0.01953,0.23828 -0.04687,0.44531 -0.19922,0.6289c-0.29296,0.40235 -0.66015,0.71875 -1.10156,0.94922c-0.4414,0.23047 -0.91015,0.35156 -1.40625,0.36328zm0,0" fill="#080717"/>
  <path id="svg_49" fill-rule="nonzero" d="m121.48438,127.83203c0,0.34375 -0.03125,0.6836 -0.09766,1.01953c-0.06641,0.33594 -0.16797,0.66407 -0.29688,0.98047c-0.13281,0.31641 -0.29296,0.61719 -0.48437,0.90235c-0.1875,0.28515 -0.40625,0.54687 -0.64844,0.78906c-0.24219,0.24219 -0.5039,0.46094 -0.78906,0.65234c-0.28516,0.1875 -0.58594,0.34766 -0.90234,0.48047c-0.31641,0.13281 -0.64454,0.23047 -0.98047,0.29688c-0.33594,0.0664 -0.67578,0.10156 -1.01563,0.10156c-0.34375,0 -0.68359,-0.03516 -1.01953,-0.10156c-0.33594,-0.06641 -0.66406,-0.16407 -0.98047,-0.29688c-0.3164,-0.13281 -0.61719,-0.29297 -0.90234,-0.48047c-0.28125,-0.1914 -0.54688,-0.41015 -0.78906,-0.65234c-0.24219,-0.24219 -0.45704,-0.50391 -0.64844,-0.78906c-0.19141,-0.28516 -0.35156,-0.58594 -0.48438,-0.90235c-0.1289,-0.3164 -0.22656,-0.64453 -0.29687,-0.98047c-0.06641,-0.33593 -0.09766,-0.67578 -0.09766,-1.01953c0,-0.34375 0.03125,-0.67969 0.09766,-1.01953c0.07031,-0.33594 0.16797,-0.66016 0.29687,-0.97656c0.13282,-0.31641 0.29297,-0.61719 0.48438,-0.90235c0.1914,-0.28515 0.40625,-0.55078 0.64844,-0.79296c0.24218,-0.24219 0.50781,-0.45704 0.78906,-0.64844c0.28515,-0.19141 0.58594,-0.35156 0.90234,-0.48438c0.31641,-0.1289 0.64453,-0.23047 0.98047,-0.29687c0.33594,-0.06641 0.67578,-0.09766 1.01953,-0.09766c0.33985,0 0.67969,0.03125 1.01563,0.09766c0.33593,0.0664 0.66406,0.16797 0.98047,0.29687c0.3164,0.13282 0.61718,0.29297 0.90234,0.48438c0.28516,0.1914 0.54687,0.40625 0.78906,0.64844c0.24219,0.24218 0.46094,0.50781 0.64844,0.79296c0.19141,0.28516 0.35156,0.58594 0.48437,0.90235c0.12891,0.3164 0.23047,0.64062 0.29688,0.97656c0.06641,0.33984 0.09766,0.67578 0.09766,1.01953zm0,0" fill="#080717"/>
  <path id="svg_50" fill-rule="nonzero" d="m94.6875,142.51953c-0.45312,0 -0.80859,-0.01172 -1.01562,-0.02344c-0.23829,-0.00781 -0.4375,-0.10156 -0.59766,-0.27734c-0.16016,-0.17578 -0.23438,-0.37891 -0.22656,-0.61719c0.01562,-0.23828 0.10937,-0.43359 0.28125,-0.59375c0.17578,-0.16015 0.3789,-0.23437 0.61718,-0.23047c2.8125,0.125 6.17579,-0.3164 6.71485,-1.23828c0.48437,-1.05468 -1.83594,-7.54297 -4.3125,-12.9375c-0.10547,-0.21875 -0.1211,-0.4414 -0.03906,-0.67187c0.08203,-0.22656 0.23046,-0.39063 0.45312,-0.49219c0.21875,-0.10156 0.44141,-0.10937 0.66797,-0.01953c0.22656,0.08594 0.38672,0.24219 0.48047,0.46484c1.68359,3.66797 5.46875,12.42188 4.23437,14.52735c-1.09375,1.86328 -5.18359,2.10937 -7.25781,2.10937zm0,0" fill="#080717"/>
  <path id="svg_51" fill-rule="nonzero" d="m74.89844,144.35547c0,0.30859 -0.04688,0.61328 -0.13672,0.91797c-0.09375,0.30469 -0.23047,0.59765 -0.41016,0.88281c-0.18359,0.28516 -0.40625,0.55859 -0.66797,0.8125c-0.26171,0.25781 -0.5625,0.49609 -0.89453,0.71484c-0.33593,0.21875 -0.69922,0.41407 -1.09375,0.58594c-0.39453,0.17188 -0.80859,0.31641 -1.24609,0.4336c-0.4375,0.12109 -0.88672,0.21093 -1.35156,0.26953c-0.46485,0.05859 -0.9336,0.08984 -1.40625,0.08984c-0.47657,0 -0.94532,-0.03125 -1.40625,-0.08984c-0.46485,-0.0586 -0.91797,-0.14844 -1.35547,-0.26953c-0.4336,-0.11719 -0.85156,-0.26172 -1.2461,-0.4336c-0.39062,-0.17187 -0.75781,-0.36719 -1.08984,-0.58594c-0.33594,-0.21875 -0.63281,-0.45703 -0.89844,-0.71484c-0.26172,-0.25391 -0.48437,-0.52734 -0.66406,-0.8125c-0.18359,-0.28516 -0.32031,-0.57812 -0.41016,-0.88281c-0.09375,-0.30469 -0.14062,-0.60938 -0.14062,-0.91797c0,-0.30859 0.04687,-0.61719 0.14062,-0.91797c0.08985,-0.30469 0.22657,-0.59766 0.41016,-0.88281c0.17969,-0.28906 0.40234,-0.5586 0.66406,-0.81641c0.26563,-0.25781 0.5625,-0.49219 0.89844,-0.71094c0.33203,-0.21875 0.69922,-0.41406 1.08984,-0.58593c0.39454,-0.17188 0.8125,-0.31641 1.2461,-0.4375c0.4375,-0.11719 0.89062,-0.20703 1.35547,-0.26563c0.46093,-0.0625 0.92968,-0.08984 1.40625,-0.08984c0.47265,0 0.9414,0.02734 1.40625,0.08984c0.46484,0.0586 0.91406,0.14844 1.35156,0.26563c0.4375,0.12109 0.85156,0.26562 1.24609,0.4375c0.39453,0.17187 0.75782,0.36718 1.09375,0.58593c0.33203,0.21875 0.63282,0.45313 0.89453,0.71094c0.26172,0.25781 0.48438,0.52735 0.66797,0.81641c0.17969,0.28515 0.31641,0.57812 0.41016,0.88281c0.08984,0.30078 0.13672,0.60938 0.13672,0.91797zm0,0" fill="#6556ff"/>
  <path id="svg_52" fill-rule="nonzero" d="m127.71484,143.05469c0,0.30859 -0.04687,0.61719 -0.14062,0.91797c-0.08984,0.30468 -0.23047,0.59765 -0.41016,0.88281c-0.17968,0.28906 -0.40234,0.55859 -0.66406,0.81641c-0.26562,0.25781 -0.5625,0.49218 -0.89844,0.71093c-0.33593,0.21875 -0.69922,0.41407 -1.09375,0.58594c-0.39062,0.17188 -0.80859,0.31641 -1.24609,0.4375c-0.4375,0.11719 -0.88672,0.20703 -1.35156,0.26563c-0.46485,0.0625 -0.9336,0.08984 -1.40625,0.08984c-0.47266,0 -0.94141,-0.02734 -1.40625,-0.08984c-0.46485,-0.0586 -0.91407,-0.14844 -1.35157,-0.26563c-0.4375,-0.12109 -0.85156,-0.26562 -1.24609,-0.4375c-0.39453,-0.17187 -0.75781,-0.36719 -1.09375,-0.58594c-0.33203,-0.21875 -0.63281,-0.45312 -0.89453,-0.71093c-0.26172,-0.25782 -0.48438,-0.52735 -0.66797,-0.81641c-0.17969,-0.28516 -0.31641,-0.57813 -0.41016,-0.88281c-0.08984,-0.30078 -0.13671,-0.60938 -0.13671,-0.91797c0,-0.3086 0.04687,-0.61328 0.13671,-0.91797c0.09375,-0.30469 0.23047,-0.59766 0.41016,-0.88281c0.18359,-0.28516 0.40625,-0.5586 0.66797,-0.8125c0.26172,-0.25782 0.5625,-0.4961 0.89453,-0.71485c0.33594,-0.21875 0.69922,-0.41406 1.09375,-0.58593c0.39453,-0.17188 0.80859,-0.31641 1.24609,-0.4336c0.4375,-0.12109 0.88672,-0.20703 1.35157,-0.26953c0.46484,-0.05859 0.93359,-0.08984 1.40625,-0.08984c0.47265,0 0.9414,0.03125 1.40625,0.08984c0.46484,0.0625 0.91406,0.14844 1.35156,0.26953c0.4375,0.11719 0.85547,0.26172 1.24609,0.4336c0.39453,0.17187 0.75782,0.36718 1.09375,0.58593c0.33594,0.21875 0.63282,0.45703 0.89844,0.71485c0.26172,0.2539 0.48438,0.52734 0.66406,0.8125c0.17969,0.28515 0.32032,0.57812 0.41016,0.88281c0.09375,0.30469 0.14062,0.60937 0.14062,0.91797zm0,0" fill="#6556ff"/>
  <path id="svg_53" fill-rule="nonzero" d="m97.03906,160.57031c-7.46093,0 -11.71875,-5.89453 -11.76953,-5.96875c-0.13281,-0.1914 -0.17969,-0.40625 -0.13672,-0.63672c0.03907,-0.23046 0.15625,-0.41796 0.34766,-0.55078c0.19531,-0.13672 0.40625,-0.1875 0.63672,-0.14843c0.23437,0.03906 0.41797,0.15625 0.55859,0.34375c0.4336,0.58203 0.91797,1.125 1.44141,1.625c0.52734,0.5039 1.09375,0.95703 1.69531,1.36718c0.60156,0.40625 1.23438,0.76172 1.89453,1.0625c0.66406,0.30469 1.34375,0.54688 2.04688,0.73828c0.70312,0.1875 1.41406,0.31641 2.14062,0.38672c0.72266,0.07032 1.44531,0.07813 2.17188,0.02735c0.72656,-0.05078 1.4414,-0.16016 2.14843,-0.32813c0.70704,-0.17187 1.39454,-0.39844 2.06641,-0.68359c0.22266,-0.09375 0.44531,-0.09766 0.67188,-0.00391c0.22265,0.09766 0.3789,0.25781 0.46875,0.48438c0.08593,0.22656 0.08203,0.44922 -0.02344,0.67187c-0.10156,0.22266 -0.26563,0.3711 -0.4961,0.45313c-1.88281,0.75781 -3.83593,1.14453 -5.86328,1.16015zm0,0" fill="#080717"/>
  <path id="svg_54" fill-rule="nonzero" d="m120.57813,241.23438c-0.16016,0 -0.30469,-0.03907 -0.44141,-0.1211c-1.63281,-0.90625 -3.35547,-1.57031 -5.17188,-1.99609c-1.8164,-0.42188 -3.66015,-0.58594 -5.52343,-0.49219c-0.23828,0.02344 -0.44922,-0.03906 -0.63672,-0.19141c-0.1875,-0.15234 -0.28906,-0.35156 -0.3125,-0.58984c-0.01953,-0.24219 0.04687,-0.45312 0.20703,-0.63672c0.15625,-0.18359 0.35547,-0.28125 0.59375,-0.29687c2.04687,-0.11719 4.06641,0.05859 6.05859,0.52343c1.9961,0.46094 3.88672,1.19922 5.66797,2.20313c0.16797,0.10156 0.28516,0.24219 0.35547,0.41797c0.07422,0.17969 0.08203,0.36328 0.03125,0.55078c-0.05078,0.1875 -0.15234,0.33594 -0.30859,0.45312c-0.15235,0.11719 -0.32813,0.17579 -0.51953,0.17579zm0,0" fill="#080717"/>
  <path id="svg_55" fill-rule="nonzero" d="m121.39844,248.01563c-0.10938,0 -0.21485,-0.01954 -0.31641,-0.0586c-4.89453,-1.96094 -11.60156,-1.63672 -11.66797,-1.63672c-0.23828,0.00782 -0.4414,-0.0664 -0.61718,-0.22265c-0.17579,-0.16016 -0.27344,-0.35547 -0.28516,-0.58985c-0.01563,-0.23828 0.05859,-0.44531 0.21875,-0.62109c0.15625,-0.17969 0.35547,-0.27344 0.59375,-0.28516c0.28906,-0.01562 7.14453,-0.34375 12.39453,1.75391c0.19141,0.07812 0.33984,0.20703 0.4375,0.38672c0.09766,0.18359 0.12891,0.375 0.08984,0.57812c-0.03906,0.20313 -0.13671,0.36719 -0.29687,0.5c-0.16016,0.13282 -0.34375,0.19532 -0.55078,0.19532zm0,0" fill="#080717"/>
  <path id="svg_56" fill-rule="nonzero" d="m122.40234,254.66797c-0.10546,0 -0.20703,-0.01953 -0.30468,-0.05469c-4.1836,-1.60156 -10.8711,-0.87109 -10.9375,-0.86328c-0.23438,0.02344 -0.44532,-0.03516 -0.62891,-0.18359c-0.1875,-0.14844 -0.29297,-0.33985 -0.32422,-0.57422c-0.02344,-0.23438 0.03516,-0.44531 0.1836,-0.63281c0.14843,-0.1836 0.33984,-0.29297 0.57421,-0.31641c0.29297,-0.03516 7.17188,-0.78906 11.7461,0.96094c0.1914,0.07422 0.33984,0.20312 0.4414,0.38281c0.10157,0.18359 0.13282,0.375 0.09375,0.57812c-0.03515,0.20313 -0.13671,0.3711 -0.29296,0.50391c-0.16016,0.13281 -0.34375,0.19922 -0.55079,0.19922zm0,0" fill="#080717"/>
  <path id="svg_57" fill-rule="nonzero" d="m50.97266,102.92969c-0.09766,0 -0.19532,-0.01563 -0.28907,-0.05078c-0.22265,-0.07813 -0.38671,-0.22657 -0.48828,-0.44141c-0.10156,-0.21484 -0.11328,-0.43359 -0.03125,-0.65625c7.10157,-19.9375 26.64063,-26.0625 26.83594,-26.12109c0.22656,-0.06641 0.44141,-0.04297 0.65234,0.0664c0.20704,0.11328 0.34375,0.28125 0.41407,0.50782c0.0664,0.22656 0.04687,0.44531 -0.0625,0.65234c-0.11328,0.21094 -0.28125,0.35156 -0.50782,0.42187c-0.1875,0.05469 -18.91015,5.94922 -25.71484,25.05079c-0.0625,0.16796 -0.16406,0.30859 -0.3125,0.41015c-0.14844,0.10547 -0.3125,0.16016 -0.49609,0.16016zm0,0" fill="#ffffff"/>
  <path id="svg_58" fill-rule="nonzero" d="m140.44531,96.67188c-6.04297,0 -12.23828,-2.61719 -17.9414,-7.57422c-2.63282,-2.27344 -4.95313,-4.83594 -6.95313,-7.6836c-0.11719,-0.19922 -0.14844,-0.40625 -0.09765,-0.63281c0.05468,-0.22266 0.17578,-0.39453 0.36718,-0.52344c0.1875,-0.125 0.39844,-0.16797 0.6211,-0.1289c0.22656,0.04297 0.40625,0.15234 0.54297,0.33984c0.09765,0.14453 9.77734,14.48828 23.45703,14.48828c0.08593,0 0.17187,0 0.26172,0c0.24218,-0.00781 0.44531,0.07422 0.61718,0.23828c0.17188,0.16797 0.25782,0.3711 0.25782,0.60938c0.0039,0.23828 -0.07813,0.44531 -0.2461,0.61328c-0.16406,0.17187 -0.36719,0.25781 -0.60547,0.26172l-0.28125,-0.00781zm0,0" fill="#ffffff"/>
  <path id="svg_59" fill-rule="nonzero" d="m136.50391,90.87109c-7.13672,0 -11.24219,-6.45703 -11.29297,-6.53906c-0.125,-0.20312 -0.16016,-0.41797 -0.10547,-0.64844c0.05078,-0.23437 0.17969,-0.41015 0.38281,-0.53515c0.20313,-0.125 0.41797,-0.16406 0.64844,-0.10938c0.23047,0.05469 0.41016,0.1836 0.53516,0.38672c0.23828,0.37891 5.89843,9.21875 15.60546,4.1875c0.21094,-0.10937 0.42969,-0.1289 0.65625,-0.05859c0.22657,0.07422 0.39454,0.21484 0.50391,0.42578c0.10938,0.21094 0.12891,0.42969 0.05469,0.65625c-0.07031,0.22656 -0.21094,0.39453 -0.42188,0.50391c-2.04687,1.11718 -4.23437,1.69531 -6.5664,1.73046zm0,0" fill="#ffffff"/>
  <path id="svg_60" fill-rule="nonzero" d="m21.05859,230.86719c-0.33203,0 -0.57812,-0.14063 -0.74609,-0.42969c-0.09375,-0.16406 -9.32422,-16.83203 8.77734,-32.96094c17.21485,-15.32812 11.52735,-41.74218 11.46875,-42.00781c-0.04296,-0.23047 -0.0039,-0.44141 0.1211,-0.64062c0.1289,-0.19532 0.30859,-0.32032 0.53515,-0.3711c0.22657,-0.05078 0.44141,-0.01562 0.64063,0.10938c0.19922,0.12109 0.32812,0.29687 0.38281,0.52343c0.0625,0.27735 5.95703,27.67579 -12.0039,43.67579c-17.03125,15.16796 -8.78907,30.18359 -8.42969,30.8164c0.16797,0.28516 0.16797,0.57422 0,0.85938c-0.16406,0.28906 -0.41406,0.42968 -0.7461,0.42968l0,-0.0039zm0,0" fill="#ffffff"/>
  <path id="svg_61" fill-rule="nonzero" d="m160.85547,217.62891c-0.14063,0 -0.26953,-0.03516 -0.39453,-0.09766c-0.125,-0.0625 -0.22656,-0.15234 -0.3086,-0.26562c-0.07812,-0.11329 -0.1289,-0.24219 -0.14843,-0.37891c-0.01953,-0.13672 -0.00782,-0.27344 0.03906,-0.40625c0.04687,-0.13672 4.71094,-13.87109 -3.25391,-26.71875c-8.30468,-13.41016 -9.47265,-34.71484 -9.51953,-35.61719c-0.01172,-0.23437 0.0625,-0.44531 0.21875,-0.62109c0.16016,-0.17578 0.35938,-0.26953 0.59766,-0.28125c0.23828,-0.01172 0.44531,0.0625 0.62109,0.22265c0.17578,0.16016 0.26953,0.35547 0.28125,0.59375c0.01172,0.21875 1.19531,21.76563 9.26563,34.79688c8.40625,13.57031 3.625,27.60937 3.41406,28.19922c-0.05859,0.17187 -0.16406,0.30859 -0.31641,0.41406c-0.14843,0.10547 -0.3125,0.16016 -0.49609,0.16016zm0,0" fill="#ffffff"/>
  <path id="svg_62" fill-rule="nonzero" d="m47.55078,134.80469c-0.21094,0 -0.39844,-0.07031 -0.55859,-0.20703c-1.97266,-1.70313 -2.83985,-3.42188 -2.58985,-5.10157c0.16797,-0.92968 0.58594,-1.72656 1.25391,-2.39453l-4.19922,0c-0.23828,0 -0.4414,-0.08593 -0.60937,-0.2539c-0.16797,-0.16797 -0.25,-0.36719 -0.25,-0.60547c0,-0.23828 0.08203,-0.44141 0.25,-0.60938c0.16797,-0.16797 0.37109,-0.2539 0.60937,-0.2539l6.87891,0c0.20312,0 0.38672,0.0664 0.54297,0.19531c0.16015,0.12891 0.25781,0.29297 0.30078,0.49219c0.04297,0.19922 0.01562,0.39062 -0.07813,0.57031c-0.09375,0.17969 -0.23437,0.3125 -0.42187,0.39453c-0.01953,0.00781 -2.32031,1.03906 -2.57422,2.73047c-0.15625,1.05469 0.51562,2.24219 2.01172,3.52734c0.13672,0.11719 0.22656,0.26563 0.27344,0.4375c0.04296,0.17578 0.03515,0.34766 -0.02735,0.51563c-0.0625,0.16797 -0.16797,0.30469 -0.3164,0.40625c-0.14844,0.10156 -0.3125,0.15234 -0.49219,0.15234l-0.00391,0.00391zm0,0" fill="#080717"/>
  <path id="svg_63" fill-rule="nonzero" d="m143,134.35938c-0.19531,0 -0.37109,-0.0586 -0.52734,-0.17579c-0.15625,-0.11718 -0.25782,-0.27343 -0.3086,-0.46093c-0.05078,-0.1875 -0.03906,-0.375 0.03907,-0.55469c0.07421,-0.17969 0.19531,-0.31641 0.36718,-0.41406c1.71875,-0.98828 2.60938,-2.03125 2.65235,-3.09766c0.05468,-1.45703 -1.51172,-2.85156 -2.1211,-3.26562c-0.15234,-0.10157 -0.26172,-0.24219 -0.32422,-0.41407c-0.0625,-0.17187 -0.07031,-0.34765 -0.02343,-0.52734c0.05078,-0.17578 0.14843,-0.32422 0.28906,-0.44141c0.14453,-0.11328 0.30859,-0.17578 0.49219,-0.1875l7.36718,-0.40234c0.23829,-0.01953 0.44532,0.05078 0.625,0.21094c0.17579,0.16015 0.26954,0.35937 0.28125,0.59765c0.01172,0.23828 -0.0625,0.44532 -0.21875,0.6211c-0.16015,0.17968 -0.35937,0.27343 -0.59375,0.28515l-5.34765,0.29297c0.84375,0.9336 1.27734,2.02735 1.28906,3.28516c-0.0625,1.70703 -1.24609,3.23437 -3.51562,4.53906c-0.13282,0.07422 -0.27344,0.10938 -0.42188,0.10938zm0,0" fill="#080717"/>
 </g>
</svg>