<?xml version="1.0" encoding="UTF-8"?>
<svg width="371.24" height="344.23" version="1.0" xmlns="http://www.w3.org/2000/svg" zoomAndPan="magnify">
 <defs>
  <clipPath id="f9aac05103">
   <path d="m3 15.469h345v344.25h-345z"/>
  </clipPath>
  <clipPath id="737cda8fa0">
   <path d="m37 180h142v179.72h-142z"/>
  </clipPath>
 </defs>
 <g transform="translate(-3.7734 -15.48)">
  <title>Layer 1</title>
  <g clip-path="url(#f9aac05103)">
   <path d="m175.79 15.48c2.8164 0 5.6289 0.07031 8.4414 0.20703 2.8125 0.14063 5.6211 0.34766 8.4219 0.62109 2.8008 0.27735 5.5938 0.6211 8.3789 1.0352s5.5586 0.89453 8.3203 1.4453c2.7578 0.55078 5.5039 1.168 8.2344 1.8516 2.7344 0.68359 5.4453 1.4336 8.1406 2.2539 2.6914 0.81641 5.3633 1.6992 8.0156 2.6484 2.6484 0.94922 5.2773 1.9609 7.8789 3.0391 2.5977 1.0781 5.1719 2.2188 7.7188 3.4258 2.543 1.2031 5.0586 2.4688 7.5391 3.7969 2.4844 1.3281 4.9336 2.7148 7.3476 4.1641 2.4141 1.4492 4.793 2.9531 7.1328 4.5195 2.3398 1.5625 4.6406 3.1875 6.9023 4.8633 2.2617 1.6797 4.4805 3.4102 6.6562 5.1992 2.1758 1.7852 4.3086 3.625 6.3945 5.5156 2.0859 1.8906 4.1211 3.832 6.1133 5.8242 1.9922 1.9922 3.9297 4.0312 5.8203 6.1211 1.8906 2.0859 3.7305 4.2188 5.5156 6.3945 1.7852 2.1797 3.5195 4.3984 5.1953 6.6602s3.2969 4.5664 4.8633 6.9062c1.5625 2.3438 3.0664 4.7226 4.5156 7.1367 1.4453 2.418 2.8359 4.8672 4.1602 7.3516 1.3281 2.4844 2.5938 5 3.7969 7.5469 1.2031 2.543 2.3438 5.1172 3.4219 7.7227 1.0781 2.6016 2.0898 5.2266 3.0391 7.8789 0.94922 2.6523 1.832 5.3281 2.6484 8.0234 0.81641 2.6953 1.5664 5.4102 2.25 8.1406 0.6836 2.7344 1.3008 5.4805 1.8516 8.2422 0.55078 2.7617 1.0312 5.5391 1.4414 8.3242 0.41407 2.7852 0.75782 5.582 1.0352 8.3828 0.27734 2.8047 0.48437 5.6133 0.62109 8.4258s0.20703 5.6289 0.20703 8.4453-0.0703 5.6328-0.20703 8.4453c-0.13672 2.8125-0.34375 5.6211-0.62109 8.4258-0.27734 2.8008-0.62109 5.5977-1.0352 8.3828-0.41015 2.7852-0.89062 5.5625-1.4414 8.3242-0.55078 2.7617-1.168 5.5078-1.8516 8.2422-0.68359 2.7305-1.4336 5.4453-2.25 8.1406-0.8164 2.6953-1.6992 5.3711-2.6484 8.0234-0.94922 2.6523-1.9609 5.2773-3.0391 7.8789-1.0781 2.6016-2.2188 5.1797-3.4219 7.7227-1.2031 2.5469-2.4688 5.0625-3.7969 7.5469-1.3242 2.4844-2.7148 4.9336-4.1602 7.3516-1.4492 2.4141-2.9531 4.793-4.5156 7.1367-1.5664 2.3398-3.1875 4.6445-4.8633 6.9062-1.6758 2.2617-3.4102 4.4805-5.1953 6.6602-1.7852 2.1758-3.625 4.3086-5.5156 6.3945-1.8906 2.0898-3.8281 4.1289-5.8203 6.1211-1.9922 1.9883-4.0273 3.9336-6.1133 5.8242-2.0859 1.8906-4.2188 3.7305-6.3945 5.5156-2.1758 1.7891-4.3945 3.5195-6.6562 5.1992-2.2617 1.6758-4.5625 3.3008-6.9023 4.8633-2.3398 1.5664-4.7188 3.0703-7.1328 4.5195-2.4141 1.4492-4.8633 2.8359-7.3476 4.1641-2.4805 1.3281-4.9961 2.5938-7.5391 3.7969-2.5469 1.207-5.1211 2.3476-7.7188 3.4258-2.6016 1.0781-5.2305 2.0898-7.8789 3.0391-2.6524 0.94922-5.3242 1.832-8.0156 2.6484-2.6953 0.82031-5.4062 1.5703-8.1406 2.2539-2.7305 0.68359-5.4766 1.3008-8.2344 1.8516-2.7617 0.55078-5.5352 1.0312-8.3203 1.4453s-5.5781 0.75781-8.3789 1.0352c-2.8008 0.27343-5.6094 0.48047-8.4219 0.62109-2.8125 0.13672-5.625 0.20703-8.4414 0.20703-2.8125 0-5.6289-0.0703-8.4375-0.20703-2.8125-0.14062-5.6211-0.34766-8.4219-0.62109-2.8008-0.27735-5.5938-0.6211-8.3789-1.0352-2.7852-0.41406-5.5586-0.89453-8.3203-1.4453s-5.5078-1.168-8.2383-1.8516c-2.7305-0.6836-5.4414-1.4336-8.1367-2.2539-2.6914-0.81641-5.3672-1.6992-8.0156-2.6484-2.6523-0.94922-5.2773-1.9609-7.8789-3.0391-2.6016-1.0781-5.1719-2.2188-7.7188-3.4258-2.543-1.2031-5.0586-2.4688-7.5391-3.7969-2.4844-1.3281-4.9336-2.7148-7.3477-4.1641s-4.793-2.9531-7.1328-4.5195c-2.3398-1.5625-4.6406-3.1875-6.9024-4.8633-2.2617-1.6797-4.4805-3.4102-6.6562-5.1992-2.1758-1.7852-4.3086-3.625-6.3945-5.5156-2.0859-1.8906-4.125-3.8359-6.1133-5.8242-1.9922-1.9922-3.9336-4.0312-5.8242-6.1211-1.8906-2.0859-3.7266-4.2188-5.5117-6.3945-1.7891-2.1797-3.5195-4.3984-5.1953-6.6602-1.6797-2.2617-3.2969-4.5664-4.8633-6.9062-1.5625-2.3438-3.0703-4.7226-4.5156-7.1367-1.4492-2.418-2.8359-4.8672-4.1602-7.3516-1.3281-2.4844-2.5938-5-3.7969-7.5469-1.2031-2.543-2.3438-5.1211-3.4219-7.7227-1.0781-2.6016-2.0898-5.2266-3.0391-7.8789-0.94922-2.6524-1.832-5.3281-2.6484-8.0234-0.81641-2.6953-1.5664-5.4102-2.2539-8.1406-0.68359-2.7344-1.3008-5.4805-1.8476-8.2422-0.55079-2.7617-1.0312-5.5391-1.4453-8.3242-0.41015-2.7852-0.75781-5.582-1.0312-8.3828-0.27734-2.8047-0.48437-5.6133-0.62109-8.4258-0.14063-2.8125-0.20703-5.6289-0.20703-8.4453s0.0664-5.6328 0.20703-8.4453c0.13672-2.8125 0.34375-5.6211 0.62109-8.4258 0.27344-2.8008 0.6211-5.5977 1.0312-8.3828 0.41407-2.7852 0.89453-5.5625 1.4453-8.3242 0.54687-2.7617 1.1641-5.5078 1.8476-8.2422 0.6875-2.7305 1.4375-5.4453 2.2539-8.1406 0.8164-2.6953 1.6992-5.3711 2.6484-8.0234 0.94921-2.6524 1.9609-5.2774 3.0391-7.8789 1.0781-2.6055 2.2188-5.1797 3.4219-7.7227 1.2031-2.5469 2.4688-5.0625 3.7969-7.5469 1.3242-2.4844 2.7109-4.9336 4.1602-7.3516 1.4453-2.4141 2.9531-4.793 4.5156-7.1367 1.5664-2.3398 3.1836-4.6445 4.8633-6.9062 1.6758-2.2617 3.4062-4.4805 5.1953-6.6602 1.7852-2.1758 3.6211-4.3086 5.5117-6.3945 1.8906-2.0898 3.832-4.1289 5.8242-6.1211 1.9883-1.9922 4.0273-3.9336 6.1133-5.8242 2.0859-1.8906 4.2188-3.7305 6.3945-5.5156 2.1758-1.7891 4.3945-3.5195 6.6562-5.1992 2.2617-1.6758 4.5625-3.3008 6.9024-4.8633 2.3398-1.5664 4.7188-3.0703 7.1328-4.5195s4.8633-2.8359 7.3477-4.1641c2.4805-1.3281 4.9961-2.5938 7.5391-3.7969 2.5469-1.207 5.1172-2.3476 7.7188-3.4258 2.6016-1.0781 5.2266-2.0898 7.8789-3.0391 2.6484-0.94922 5.3242-1.832 8.0156-2.6484 2.6953-0.82031 5.4062-1.5703 8.1367-2.2539 2.7305-0.6836 5.4766-1.3008 8.2383-1.8516s5.5352-1.0312 8.3203-1.4453c2.7852-0.41406 5.5781-0.75781 8.3789-1.0352 2.8008-0.27343 5.6094-0.48046 8.4219-0.62109 2.8086-0.13672 5.625-0.20703 8.4375-0.20703z" fill="#135D66" fill-opacity=".2"/>
  </g>
  <g>
   <path d="m149.96 100.44-82.262-23.953 21.457-12.75s-38.352-4.5078-51.234 36.703 3.8008 55.551-17.055 89.855c-20.855 34.301-16.855 78.078 31.285 79.719 48.141 1.6445 118.88-4.7461 119.39-45.688 0.52344-40.941-19.188-55.547-21.586-123.89z" fill="#080717"/>
   <path d="m295.63 182.51c-0.21875 0-0.40234-0.0742-0.55468-0.22656-0.15235-0.15625-0.22657-0.33984-0.22657-0.55469v-30.051c-4e-3 -0.21484 0.0742-0.40234 0.22657-0.55469 0.15234-0.15234 0.33593-0.22656 0.55468-0.22656h54.215c0.82422 0 1.6445 0.043 2.4648 0.1211 0.82031 0.082 1.6328 0.20312 2.4414 0.36718 0.80859 0.16016 1.6055 0.35938 2.3945 0.60157 0.78906 0.23828 1.5625 0.51562 2.3242 0.83203 0.76172 0.3164 1.5039 0.66797 2.2305 1.0586 0.72656 0.39063 1.4336 0.8125 2.1172 1.2695 0.6875 0.46094 1.3477 0.94922 1.9844 1.4727s1.2461 1.0781 1.8281 1.6602c0.58203 0.58204 1.1367 1.1914 1.6602 1.8281 0.51953 0.63672 1.0117 1.3008 1.4688 1.9844 0.45703 0.6875 0.88281 1.3906 1.2695 2.1172 0.39063 0.72656 0.74219 1.4727 1.0586 2.2344 0.31641 0.76172 0.59375 1.5352 0.83204 2.3242 0.23828 0.78906 0.4414 1.5859 0.60156 2.3945 0.16015 0.80859 0.28515 1.625 0.36328 2.4453 0.082 0.82031 0.125 1.6406 0.125 2.4648v5.6562c0 0.21485-0.0742 0.39844-0.23047 0.55469-0.15234 0.15234-0.33594 0.22656-0.55078 0.22656z" fill="#080717"/>
   <path d="m93.59 185.44c35.113-0.41407 49.594 9.4414 56.316 18.551 4.6875 6.3516 5.0078 13.469 13.297 28.953 4.4023 8.2344 9.4453 16.059 15.117 23.473l49.012-50.859 19.945 22.297c-5.5117 14.031-12.418 27.332-20.73 39.906-12.727 19.246-29.141 44.07-45.098 46.559-25.848 4.0312-61.188-48.863-87.859-128.88z" fill="#135D66"/>
   <path d="m154.34 262.68c-3.0274-32.582-1.2344-46.141-12.277-58.691-6.2695-7.1172-15.305-12.285-25.391-15.332-0.8125-0.25-1.5664-0.625-2.2617-1.1172-0.69531-0.4961-1.293-1.0859-1.7969-1.7734-0.50391-0.6875-0.88672-1.4336-1.1524-2.2461-0.26172-0.8086-0.39453-1.6406-0.39062-2.4922v-16.621h-27.633v16.375c-0.0039 0.75782-0.1289 1.4922-0.38281 2.2031-0.25 0.71484-0.61328 1.3633-1.082 1.9531-0.47266 0.58985-1.0273 1.0859-1.668 1.4883-0.64062 0.40234-1.3281 0.6875-2.0625 0.85937-9.0976 2.1484-17.344 6.1953-23.48 12.273-6.5586 6.4922-11.613 16.188-13.035 65.207-0.86328 29.352-0.0039 58.652 2.5781 87.902l127.25-0.78515c-8.6133-29.176-14.352-58.914-17.211-89.203z" fill="#fff"/>
   <path d="m44.301 353.52c-0.22656 0-0.41797-0.0742-0.58594-0.22266-0.16406-0.15234-0.25781-0.33984-0.27734-0.5625-2.5781-29.281-3.4375-58.617-2.5781-88 1.457-50.121 6.8789-59.453 13.289-65.797 5.9492-5.8906 14.211-10.211 23.887-12.5 0.64453-0.14453 1.2461-0.39063 1.8047-0.74219 0.5586-0.35156 1.043-0.78125 1.4531-1.2969 0.41406-0.51562 0.72656-1.082 0.94922-1.7031 0.21875-0.62109 0.32812-1.2617 0.32812-1.9219v-16.375c0-0.23828 0.08594-0.4414 0.25391-0.60937s0.37109-0.25 0.60937-0.25h27.633c0.23828 0 0.4414 0.082 0.60937 0.25 0.16797 0.16797 0.25 0.37109 0.25 0.60937v16.621c0 0.76172 0.11719 1.5 0.35156 2.2226 0.23829 0.72266 0.57813 1.3867 1.0274 2 0.44922 0.61329 0.98047 1.1406 1.5976 1.582 0.61719 0.4414 1.2891 0.77734 2.0117 1.0039 10.75 3.2461 19.672 8.6367 25.789 15.59 8.8828 10.094 9.6523 21 11.043 40.805 0.375 5.3672 0.80469 11.445 1.4453 18.371 2.8711 30.23 8.5976 59.91 17.176 89.043 0.0391 0.1289 0.043 0.25781 0.0195 0.39062-0.0234 0.13281-0.0742 0.25391-0.15625 0.36328-0.0781 0.10938-0.17969 0.19141-0.30078 0.25391-0.1211 0.0625-0.2461 0.0937-0.38281 0.0937zm39.992-188.26v15.516c0 0.85547-0.14453 1.6836-0.42578 2.4883-0.28125 0.80468-0.69141 1.5391-1.2227 2.207-0.53125 0.66406-1.1602 1.2266-1.8828 1.6797-0.71875 0.45313-1.4961 0.77735-2.3281 0.96485-9.3711 2.2148-17.348 6.3789-23.074 12.047-6.1406 6.082-11.34 15.141-12.781 64.621-0.84766 29.055-0.01172 58.059 2.5078 87.012l125.32-0.77344c-8.4336-28.887-14.074-58.312-16.918-88.27-0.64454-6.9453-1.0742-13.035-1.4492-18.41-1.4102-20.062-2.1172-30.133-10.621-39.789-5.9062-6.7109-14.547-11.922-24.992-15.078-0.89844-0.28125-1.7344-0.69922-2.5-1.2461-0.76954-0.54688-1.4336-1.2031-1.9922-1.9609-0.5586-0.76172-0.98438-1.5898-1.2774-2.4883-0.29296-0.89453-0.4414-1.8164-0.4414-2.7578v-15.762z" fill="#090817"/>
  </g>
  <g clip-path="url(#737cda8fa0)">
   <path d="m80.105 180.32 33.922 0.6875v4.4219s25.516 8.3906 33.336 22.281c7.8203 13.887 20.922 123.82 30.695 152h-140.14s0.93359-102.12 6.8008-134.98c5.8633-32.867 34.117-40.301 34.117-40.301z" fill="#135D66"/>
  </g>
  <g>
   <path d="m144.11 118.22c-0.17187 0-0.34375 0.0195-0.50781 0.0273-0.1875-1.4297-0.4375-2.8477-0.75-4.2539s-0.6875-2.7969-1.1289-4.168c-0.4375-1.3711-0.9375-2.7227-1.4961-4.0469-0.55859-1.3281-1.1797-2.6289-1.8555-3.8984-0.67578-1.2734-1.4102-2.5117-2.1992-3.7148-0.78906-1.207-1.6289-2.375-2.5234-3.5039-0.89453-1.1289-1.8359-2.2148-2.8281-3.2617-0.99219-1.043-2.0312-2.043-3.1133-2.9922s-2.2031-1.8516-3.3672-2.6992c-1.1602-0.85156-2.3594-1.6484-3.5938-2.3867-1.2344-0.74219-2.5-1.4258-3.7969-2.0547-1.2969-0.6289-2.6172-1.1953-3.9648-1.7031-1.3476-0.50782-2.7148-0.95313-4.1055-1.3398-1.3867-0.38281-2.7891-0.70703-4.2031-0.96484-1.418-0.25781-2.8438-0.45313-4.2774-0.58203-1.4336-0.12891-2.8711-0.19531-4.3125-0.19531-1.4375 0-2.875 0.0664-4.3086 0.19531-1.4375 0.1289-2.8594 0.32422-4.2773 0.58203s-2.8203 0.57812-4.207 0.96484c-1.3867 0.38282-2.7539 0.82813-4.1016 1.3398-1.3476 0.50781-2.6719 1.0742-3.9648 1.6992-1.2969 0.6289-2.5625 1.3125-3.7969 2.0547-1.2344 0.74219-2.4336 1.5352-3.5976 2.3867-1.1641 0.84766-2.2852 1.75-3.3672 2.6992-1.082 0.95313-2.1211 1.9492-3.1133 2.9922-0.98828 1.0469-1.9336 2.1328-2.8281 3.2617-0.89453 1.1289-1.7344 2.2969-2.5234 3.5-0.78907 1.207-1.5234 2.4453-2.1992 3.7148-0.67578 1.2734-1.2969 2.5742-1.8555 3.8984-0.5625 1.3281-1.0625 2.6797-1.5 4.0508s-0.8125 2.7617-1.1289 4.168c-0.3125 1.4062-0.5625 2.8242-0.74609 4.25-0.14063-4e-3 -0.27344-0.0195-0.41016-0.0195-0.71875 0-1.4258 0.0742-2.1289 0.22265-0.70313 0.15235-1.3789 0.3711-2.0352 0.66407-0.65625 0.28906-1.2734 0.64843-1.8555 1.0703-0.57812 0.41797-1.1094 0.89844-1.5898 1.4297-0.48047 0.53515-0.89844 1.1094-1.2578 1.7305-0.35938 0.6211-0.65235 1.2734-0.875 1.957-0.21875 0.67968-0.3711 1.3789-0.44532 2.0938-0.07422 0.71093-0.07812 1.4258-0.0039 2.1406s0.22265 1.4102 0.4414 2.0938c0.22266 0.68359 0.51172 1.3359 0.86719 1.957 0.35938 0.625 0.77734 1.2031 1.2539 1.7344 0.48047 0.53515 1.0078 1.0156 1.5898 1.4375 0.57813 0.42187 1.1953 0.78125 1.8516 1.0742 0.65235 0.29296 1.332 0.51562 2.0312 0.66796 0.70313 0.15235 1.4102 0.22657 2.1289 0.23047 0.71484 0 1.4258-0.0703 2.1289-0.21875 0.39843 1.3047 0.85937 2.582 1.3672 3.8398 4.6172 15.668 15.613 34.383 41.801 35.418 30.66 1.2148 43.727-21.418 48.422-39.059 0.0234-0.0742 0.0391-0.15234 0.0625-0.22265 0.70312 0.15234 1.4141 0.23437 2.1328 0.23828 0.71875 4e-3 1.4297-0.0664 2.1367-0.21094 0.70313-0.14844 1.3867-0.36328 2.043-0.65234 0.66016-0.28907 1.2812-0.64454 1.8633-1.0664 0.58594-0.41797 1.1211-0.89453 1.6016-1.4297 0.48438-0.53125 0.90625-1.1094 1.2695-1.7305 0.36329-0.62109 0.65625-1.2734 0.88282-1.957 0.22265-0.68359 0.375-1.3828 0.45312-2.1016 0.0742-0.71484 0.0781-1.4297 4e-3 -2.1445-0.0742-0.71485-0.21875-1.418-0.44141-2.1016-0.21875-0.6836-0.50781-1.3398-0.86719-1.9648-0.35937-0.62109-0.77734-1.2031-1.2578-1.7383s-1.0117-1.0156-1.5938-1.4375c-0.58203-0.42578-1.1992-0.78125-1.8594-1.0742-0.65625-0.29297-1.3359-0.51562-2.0391-0.66406-0.70312-0.15234-1.4141-0.22656-2.1328-0.22656z" fill="#fff"/>
   <path d="m95.766 178.68c-0.77344 0-1.5664-0.0156-2.3672-0.0508-26.734-1.0547-37.918-20.18-42.59-36.035-0.42578-1.043-0.80468-2.0781-1.1367-3.1094-0.75 0.10547-1.5 0.13672-2.2539 0.0898-0.75391-0.0508-1.4961-0.17187-2.2266-0.37109-0.72657-0.19922-1.4297-0.47266-2.1016-0.8125-0.67578-0.34375-1.3086-0.75-1.8984-1.2227-0.58985-0.47265-1.125-1-1.6094-1.5781-0.48437-0.58203-0.90234-1.207-1.2578-1.875-0.35547-0.66406-0.64063-1.3633-0.85547-2.0859-0.21484-0.72656-0.35156-1.4648-0.41406-2.2188s-0.05078-1.5039 0.03906-2.2578c0.09375-0.75 0.25781-1.4844 0.49609-2.1992 0.24219-0.71875 0.55079-1.4023 0.92969-2.0547 0.38281-0.65625 0.82422-1.2617 1.3281-1.8281 0.5039-0.5625 1.0586-1.0664 1.6641-1.5195 0.60937-0.44922 1.2539-0.83204 1.9414-1.1484 0.68359-0.32031 1.3945-0.5625 2.1328-0.73828 0.73437-0.17188 1.4805-0.26953 2.2344-0.28907 0.21094-1.4336 0.48438-2.8555 0.82032-4.2695 0.33593-1.4102 0.73437-2.8008 1.1953-4.1797 0.46094-1.375 0.98047-2.7266 1.5625-4.0547 0.58203-1.3281 1.2188-2.6289 1.918-3.9024 0.69531-1.2695 1.4492-2.5078 2.2539-3.7148 0.8086-1.2031 1.668-2.3711 2.5781-3.4961 0.91406-1.1289 1.8711-2.2148 2.8789-3.2578 1.0078-1.043 2.0625-2.0391 3.1562-2.9883 1.0977-0.94531 2.2344-1.8438 3.4102-2.6914 1.1797-0.84766 2.3906-1.6406 3.6367-2.3789 1.25-0.73828 2.5273-1.4219 3.8359-2.0469 1.3086-0.625 2.6406-1.1914 4-1.6953 1.3594-0.50781 2.7344-0.95312 4.1328-1.3359 1.3984-0.38282 2.8125-0.70313 4.2383-0.96094s2.8633-0.44922 4.3047-0.57813c1.4453-0.1289 2.8906-0.19531 4.3438-0.19531 1.4492 0 2.8945 0.06641 4.3398 0.19531 1.4414 0.12891 2.8789 0.32032 4.3047 0.57813s2.8398 0.57812 4.2383 0.96094c1.3984 0.38281 2.7773 0.82812 4.1328 1.3359 1.3594 0.50391 2.6953 1.0703 4 1.6953 1.3086 0.625 2.5859 1.3086 3.8359 2.0469 1.2461 0.73828 2.457 1.5312 3.6367 2.3789 1.1758 0.84765 2.3125 1.7461 3.4102 2.6914 1.0938 0.94922 2.1484 1.9453 3.1562 2.9883 1.0078 1.043 1.9688 2.1289 2.8789 3.2578 0.91016 1.125 1.7695 2.293 2.5781 3.4961 0.80468 1.207 1.5586 2.4453 2.2539 3.7148 0.69922 1.2734 1.3359 2.5742 1.918 3.9024 0.58203 1.3281 1.1016 2.6797 1.5625 4.0547 0.46094 1.3789 0.85938 2.7695 1.1953 4.1797 0.33594 1.4141 0.60938 2.8359 0.82032 4.2695 0.72265 0.0156 1.4375 0.10157 2.1445 0.25782 0.71094 0.15625 1.3945 0.3789 2.0586 0.66797 0.66406 0.28906 1.293 0.64062 1.8867 1.0547 0.59375 0.41407 1.1445 0.87891 1.6484 1.3984 0.5039 0.52344 0.95312 1.0859 1.3476 1.6953 0.39063 0.60938 0.72266 1.25 0.99219 1.9219 0.26563 0.67187 0.46485 1.3633 0.59766 2.0781 0.13281 0.71094 0.19531 1.4297 0.1875 2.1524-8e-3 0.72656-0.082 1.4414-0.23047 2.1523-0.14844 0.71094-0.36328 1.3984-0.64453 2.0625-0.28516 0.66797-0.62891 1.3008-1.0352 1.9023-0.40625 0.59766-0.86719 1.1524-1.3828 1.6641-0.51172 0.50781-1.0703 0.96484-1.6758 1.3633-0.60156 0.40234-1.2383 0.73828-1.9102 1.0156-0.66797 0.27344-1.3594 0.48438-2.0703 0.625-0.71094 0.14063-1.4258 0.21094-2.1523 0.21094-0.52735 0-1.0508-0.0391-1.5703-0.11719-3.3828 12.316-14.492 39.195-46.773 39.199zm-45.5-41.027c0.1875 0 0.35937 0.0547 0.51171 0.16797 0.15235 0.11328 0.25391 0.25781 0.3086 0.4375 0.375 1.2188 0.8125 2.4531 1.3438 3.7695 4.543 15.395 15.32 33.867 41.039 34.883 33.336 1.3164 44.363-26.43 47.562-38.422l0.0703-0.25782c0.0664-0.21484 0.19532-0.3789 0.39063-0.48828 0.1914-0.11328 0.39844-0.14844 0.61328-0.0977 0.64453 0.14062 1.2969 0.21093 1.957 0.21875 0.65625 4e-3 1.3086-0.0625 1.9531-0.19532 0.64843-0.13281 1.2695-0.33203 1.875-0.59765 0.60156-0.26563 1.1719-0.58985 1.707-0.97266 0.53515-0.38672 1.0234-0.82422 1.4688-1.3125 0.4414-0.48437 0.82812-1.0156 1.1602-1.5859 0.33203-0.5664 0.60157-1.168 0.8086-1.793 0.20312-0.625 0.34375-1.2656 0.41406-1.9219 0.0703-0.65625 0.0742-1.3125 4e-3 -1.9688-0.0664-0.65234-0.19922-1.2969-0.40235-1.9219-0.20312-0.6289-0.46875-1.2266-0.79687-1.8008-0.32813-0.57031-0.71094-1.1016-1.1524-1.5938-0.4375-0.48828-0.92578-0.92968-1.457-1.3164-0.53515-0.38672-1.1016-0.71485-1.7031-0.98438-0.60157-0.26953-1.2266-0.47265-1.8711-0.60937s-1.293-0.20703-1.9531-0.20313c-0.0937 0-0.1836 4e-3 -0.27735 0.0117l-0.1914 0.0117c-0.22266 0.0117-0.42188-0.0547-0.59375-0.19922-0.17188-0.14453-0.27344-0.32812-0.30078-0.55078-0.1836-1.4023-0.42578-2.7969-0.73438-4.1758-0.30859-1.3828-0.67578-2.7461-1.1094-4.0938-0.42969-1.3477-0.91797-2.6719-1.4688-3.9766-0.55078-1.3047-1.1602-2.5781-1.8242-3.8281s-1.3828-2.4648-2.1602-3.6484c-0.77344-1.1836-1.5976-2.332-2.4766-3.4375-0.87891-1.1094-1.8047-2.1797-2.7773-3.2031-0.97657-1.0274-1.9922-2.0078-3.0547-2.9414-1.0625-0.93359-2.1641-1.8164-3.3086-2.6523-1.1406-0.83203-2.3203-1.6133-3.5312-2.3438-1.2109-0.72656-2.4531-1.3984-3.7266-2.0156-1.2734-0.61718-2.5742-1.1719-3.8945-1.6719-1.3242-0.5-2.668-0.9375-4.0312-1.3164-1.3633-0.3789-2.7383-0.6914-4.1289-0.94531-1.3906-0.25391-2.793-0.44531-4.1992-0.57422-1.4102-0.125-2.8203-0.19141-4.2344-0.19141s-2.8242 0.06641-4.2344 0.19141c-1.4102 0.12891-2.8086 0.31641-4.1992 0.57031-1.3906 0.25391-2.7695 0.57032-4.1328 0.94922-1.3633 0.375-2.7031 0.81641-4.0273 1.3125-1.3242 0.5-2.6211 1.0586-3.8945 1.6719-1.2734 0.61718-2.5156 1.2891-3.7305 2.0195-1.2109 0.72656-2.3867 1.5078-3.5312 2.3398-1.1406 0.83594-2.2422 1.7188-3.3047 2.6524-1.0625 0.93359-2.082 1.9141-3.0547 2.9414-0.97657 1.0234-1.9024 2.0938-2.7812 3.1992-0.875 1.1094-1.7031 2.2578-2.4766 3.4414-0.77734 1.1836-1.4961 2.3984-2.1602 3.6484-0.66797 1.25-1.2734 2.5234-1.8242 3.8281s-1.0391 2.6289-1.4727 3.9766c-0.42969 1.3477-0.79687 2.7109-1.1055 4.0938-0.30859 1.3789-0.55468 2.7734-0.73437 4.1758-0.02344 0.22266-0.1211 0.41016-0.29297 0.55469-0.17578 0.14844-0.375 0.21094-0.59766 0.19531l-0.17968-0.0117c-0.0625 0-0.12891-8e-3 -0.19532-8e-3 -0.65625-4e-3 -1.3047 0.0664-1.9492 0.20313-0.64062 0.13672-1.2656 0.33593-1.8633 0.60547-0.60156 0.26562-1.168 0.59375-1.6992 0.98046-0.53125 0.38282-1.0195 0.82032-1.457 1.3086-0.4414 0.48828-0.82812 1.0195-1.1562 1.5859-0.32812 0.57031-0.59375 1.168-0.80078 1.793-0.20312 0.625-0.33984 1.2656-0.41015 1.918-0.06641 0.65625-0.07032 1.3086 0 1.9609 0.0664 0.65625 0.20312 1.2969 0.40234 1.9219 0.20312 0.625 0.46875 1.2226 0.79687 1.793 0.32813 0.57032 0.71094 1.1016 1.1484 1.5898 0.44141 0.48828 0.92578 0.92578 1.457 1.3164 0.53125 0.38672 1.0938 0.71485 1.6953 0.98438 0.59765 0.26562 1.2226 0.46875 1.8633 0.60937 0.64453 0.13672 1.293 0.20704 1.9492 0.20704 0.65625 4e-3 1.3086-0.0625 1.9492-0.19922 0.0586-8e-3 0.11719-0.0156 0.17579-0.0117z" fill="#090817"/>
   <path d="m81.996 184.3s-14.73 0.78125-27.504 8.8672c-12.773 8.0859-37.93 54.254-36.758 79.688 1.1758 25.434 11.344 39.555 38.715 41.688 27.371 2.1328 85.246-36.211 85.246-36.211l-9.7773-32.473-69.602 18.387z" fill="#135D66"/>
   <path d="m366.23 158s-7.6406-6.3242-13.504-6.3242h-98.012c-0.70703 0-1.4141 0.0352-2.1211 0.10547-0.70703 0.0664-1.4062 0.17188-2.1016 0.3125-0.69531 0.13672-1.3828 0.30859-2.0586 0.51563-0.67969 0.20312-1.3477 0.44531-2 0.71484-0.65625 0.27344-1.2969 0.57422-1.9219 0.91016-0.625 0.33203-1.2305 0.69531-1.8203 1.0898s-1.1602 0.81641-1.707 1.2656c-0.54688 0.45313-1.0742 0.92579-1.5742 1.4297-0.5 0.5-0.97656 1.0274-1.4258 1.5742-0.44922 0.54688-0.87109 1.1172-1.2656 1.707-0.39453 0.58985-0.75781 1.1992-1.0938 1.8242-0.33203 0.625-0.63671 1.2656-0.90625 1.9219-0.27343 0.65234-0.51171 1.3203-0.71875 2-0.20312 0.67968-0.375 1.3672-0.51562 2.0625-0.13672 0.69531-0.24219 1.3945-0.30859 2.1016-0.0703 0.70703-0.10547 1.4141-0.10547 2.1211v154.29h95.023c0.80469 0 1.6094-0.043 2.4141-0.12109 0.80078-0.0781 1.5976-0.19532 2.3906-0.35547 0.78906-0.15625 1.5742-0.35156 2.3438-0.58594 0.77344-0.23437 1.5312-0.50781 2.2774-0.81641 0.74609-0.30859 1.4726-0.65234 2.1836-1.0312 0.71484-0.38281 1.4062-0.79687 2.0742-1.2461 0.67187-0.44922 1.3203-0.92969 1.9414-1.4414 0.625-0.51171 1.2227-1.0508 1.793-1.625 0.57032-0.57031 1.1133-1.168 1.625-1.7891 0.51172-0.625 0.99219-1.2734 1.4375-1.9453 0.44922-0.67188 0.86328-1.3633 1.2461-2.0742 0.3789-0.71094 0.72265-1.4414 1.0312-2.1875 0.30859-0.74609 0.58203-1.5039 0.8164-2.2773 0.23438-0.76953 0.42969-1.5547 0.58594-2.3438 0.15625-0.79297 0.27734-1.5898 0.35547-2.3945 0.0781-0.80469 0.11719-1.6094 0.11719-2.4141v-122.41c0.0859-4.4727 1.2422-20.559 13.504-22.566z" fill="#fff"/>
   <path d="m328.09 328.48h-95.023c-0.23828 0-0.44141-0.0859-0.60938-0.25391-0.16797-0.16797-0.25-0.37109-0.25-0.60547v-154.29c0-0.73437 0.0352-1.4726 0.10938-2.2031 0.0742-0.73438 0.18359-1.4648 0.32812-2.1875 0.14453-0.72266 0.32422-1.4375 0.53516-2.1406 0.21484-0.70703 0.46484-1.3984 0.74609-2.082 0.28516-0.67969 0.59766-1.3438 0.94531-1.9961 0.34766-0.64844 0.72657-1.2812 1.1367-1.8945 0.41016-0.60938 0.84766-1.2031 1.3164-1.7734 0.46484-0.57031 0.96094-1.1133 1.4805-1.6367 0.52344-0.51953 1.0664-1.0156 1.6367-1.4805 0.57031-0.46875 1.1602-0.91016 1.7734-1.3164 0.61329-0.41015 1.2422-0.78906 1.8945-1.1367 0.64843-0.34766 1.3125-0.66407 1.9961-0.94532 0.67969-0.28515 1.3711-0.53125 2.0781-0.74609 0.70313-0.21484 1.418-0.39453 2.1406-0.53906s1.4492-0.25391 2.1836-0.32813c0.73047-0.0703 1.4688-0.10937 2.2031-0.10937h98.012c6.1094 0 13.73 6.2539 14.055 6.5234 0.28516 0.23438 0.37891 0.53125 0.28125 0.88672-0.0976 0.35547-0.32812 0.56641-0.6914 0.625-11.52 1.8828-12.699 17.109-12.785 21.73v122.39c0 0.83203-0.043 1.668-0.125 2.4961-0.082 0.83203-0.20312 1.6562-0.36719 2.4766-0.16406 0.82031-0.36718 1.6289-0.60937 2.4258-0.24219 0.80078-0.52344 1.5859-0.84375 2.3594-0.32031 0.76953-0.67969 1.5234-1.0703 2.2617-0.39453 0.73438-0.82422 1.4492-1.2891 2.1445-0.46484 0.69531-0.96093 1.3633-1.4883 2.0078-0.53125 0.64844-1.0898 1.2656-1.6797 1.8555-0.59375 0.58984-1.2109 1.1523-1.8555 1.6797-0.64453 0.53125-1.3125 1.0274-2.0078 1.4922-0.69531 0.46485-1.4102 0.89453-2.1445 1.2891-0.73828 0.39454-1.4922 0.75-2.2617 1.0703-0.76953 0.32031-1.5547 0.60156-2.3555 0.84375-0.79688 0.24218-1.6055 0.44531-2.4258 0.60937-0.8164 0.16406-1.6406 0.28906-2.4726 0.3711-0.83203 0.082-1.6641 0.125-2.4961 0.125zm-94.164-1.7227h94.164c0.77735 0 1.5547-0.0391 2.3281-0.11719 0.77344-0.0742 1.543-0.1914 2.3047-0.34375 0.76562-0.15234 1.5195-0.33984 2.2656-0.5664 0.74219-0.23047 1.4766-0.49219 2.1953-0.78907 0.71875-0.30078 1.4219-0.63281 2.1055-1 0.6875-0.36718 1.3555-0.76562 2-1.1992 0.64844-0.43359 1.2734-0.89843 1.875-1.3906 0.60157-0.49609 1.1758-1.0156 1.7266-1.5664 0.55078-0.55078 1.0742-1.1289 1.5664-1.7305 0.4961-0.60156 0.95703-1.2266 1.3906-1.875 0.43359-0.64843 0.83203-1.3125 1.1992-2 0.36718-0.6875 0.69921-1.3906 1-2.1094 0.29687-0.71875 0.55859-1.4531 0.78515-2.1953 0.22656-0.7461 0.41797-1.5 0.57031-2.2656 0.15235-0.76172 0.26563-1.5312 0.34375-2.3086 0.0781-0.77344 0.11719-1.5508 0.11719-2.3281v-122.41c0.0859-4.7266 1.2656-19.707 12.387-22.996-2.4336-1.7617-7.4961-5.0352-11.527-5.0352h-98.012c-0.67969 4e-3 -1.3594 0.0352-2.0352 0.10547-0.67969 0.0664-1.3516 0.16796-2.0156 0.30078-0.66797 0.13281-1.3281 0.29687-1.9805 0.49609-0.64844 0.19922-1.2891 0.42969-1.918 0.6875-0.62891 0.26172-1.2422 0.55469-1.8438 0.875s-1.1836 0.67188-1.75 1.0508c-0.5625 0.375-1.1094 0.78125-1.6367 1.2148-0.52344 0.42968-1.0273 0.88671-1.5117 1.3711-0.48047 0.48047-0.9375 0.98437-1.3672 1.5117-0.43359 0.52344-0.83593 1.0703-1.2148 1.6367-0.37891 0.5664-0.73047 1.1484-1.0508 1.75-0.32031 0.60156-0.60938 1.2148-0.87109 1.8438-0.26172 0.6289-0.49219 1.2695-0.6875 1.9219-0.19922 0.64844-0.36719 1.3086-0.5 1.9766-0.13282 0.66797-0.23438 1.3398-0.30079 2.0195-0.0664 0.67578-0.10156 1.3555-0.10156 2.0352z" fill="#090817"/>
   <path d="m331.67 299.84h-113.86v9.6836c0 0.59375 0.0273 1.1836 0.0859 1.7734 0.0586 0.58985 0.14454 1.1758 0.26172 1.7578 0.11328 0.58204 0.25782 1.1562 0.42969 1.7227 0.17188 0.56641 0.37109 1.125 0.59766 1.6719 0.22656 0.54687 0.48047 1.082 0.75781 1.6055 0.28125 0.52344 0.58594 1.0312 0.91406 1.5234 0.32813 0.49219 0.6836 0.96875 1.0586 1.4258s0.77343 0.89844 1.1914 1.3164 0.85547 0.81641 1.3125 1.1914c0.46094 0.375 0.9336 0.73046 1.4258 1.0586 0.49219 0.32812 1 0.63281 1.5234 0.91406 0.52344 0.27735 1.0586 0.53125 1.6055 0.75781 0.54687 0.22657 1.1055 0.42579 1.6719 0.59766 0.56641 0.17188 1.1406 0.31641 1.7188 0.43359 0.58204 0.11329 1.168 0.19922 1.7578 0.25782 0.58984 0.0586 1.1797 0.0898 1.7734 0.0898h95.77c10.332 0 15.59-9.1758 15.59-9.1758-12.113 3.7344-15.59-18.605-15.59-18.605z" fill="#fff"/>
   <path d="m331.67 328.48h-95.77c-0.62109 0-1.2422-0.0312-1.8594-0.0937s-1.2266-0.15235-1.8359-0.27344c-0.60937-0.1211-1.2109-0.27344-1.8047-0.45313-0.59375-0.18359-1.1758-0.39062-1.75-0.6289-0.57031-0.23828-1.1328-0.50391-1.6797-0.79688-0.54688-0.29297-1.0781-0.60937-1.5938-0.95703-0.51563-0.34375-1.0117-0.71484-1.4922-1.1055-0.47656-0.39453-0.9375-0.8125-1.375-1.25-0.44141-0.4375-0.85547-0.89844-1.25-1.3789-0.39453-0.48047-0.76172-0.97657-1.1055-1.4922-0.34766-0.51563-0.66406-1.0469-0.95703-1.5938-0.29297-0.54688-0.55859-1.1094-0.79688-1.6836-0.23828-0.57031-0.44531-1.1562-0.625-1.75-0.18359-0.59375-0.33203-1.1953-0.45312-1.8008-0.12109-0.60937-0.21484-1.2226-0.27734-1.8398-0.0586-0.61719-0.0898-1.2383-0.0898-1.8594v-9.6836c0-0.23828 0.082-0.44141 0.25-0.60937 0.16797-0.16797 0.3711-0.25 0.60938-0.25h113.86c0.21484 0 0.39843 0.0664 0.5625 0.20703 0.16015 0.13672 0.25781 0.3125 0.28906 0.51953 0.0195 0.13281 2.1406 13.293 8.4297 17.223 0.90234 0.57422 1.8867 0.92188 2.9492 1.043 1.0625 0.1211 2.0977 4e-3 3.1094-0.35156 0.16797-0.0508 0.33594-0.0508 0.50391 0 0.16796 0.0547 0.30859 0.14844 0.41796 0.28516 0.11329 0.14062 0.17188 0.29687 0.1875 0.47265 0.0117 0.17578-0.0234 0.33985-0.11328 0.49219-0.22656 0.39453-5.6289 9.6094-16.336 9.6094zm-113-27.781v8.8242c0 0.56641 0.0273 1.1289 0.0859 1.6914 0.0547 0.55859 0.13672 1.1172 0.25 1.6719 0.10937 0.55078 0.24609 1.0976 0.41016 1.6367 0.16406 0.54297 0.35546 1.0703 0.57031 1.5938 0.21484 0.51954 0.45703 1.0312 0.72265 1.5274 0.26563 0.49609 0.55469 0.98047 0.8711 1.4492 0.3125 0.46875 0.64844 0.92187 1.0039 1.3594 0.35938 0.4336 0.73829 0.85156 1.1367 1.2539 0.39844 0.39844 0.81641 0.77734 1.2539 1.1328 0.43359 0.35938 0.88672 0.69531 1.3555 1.0078s0.95312 0.60547 1.4492 0.8711c0.49609 0.26562 1.0078 0.50781 1.5273 0.72265 0.51953 0.21485 1.0508 0.40625 1.5898 0.57032 0.53907 0.16406 1.0859 0.30078 1.6406 0.41406 0.55078 0.10937 1.1094 0.1914 1.6719 0.25 0.5586 0.0547 1.1211 0.082 1.6875 0.082h95.77c7.0039 0 11.613-4.5195 13.645-7.0547-1.9062 0.16016-3.668-0.27734-5.2812-1.3125-6.1133-3.8242-8.5312-14.73-9.0859-17.688z" fill="#090817"/>
  </g>
  <g fill="#080717">
   <path d="m320.86 168.04h-47.988c-0.23828 0-0.44141-0.082-0.60937-0.25-0.16797-0.16797-0.25-0.3711-0.25-0.60938s0.082-0.4414 0.25-0.60937c0.16796-0.16797 0.37109-0.25 0.60937-0.25h47.988c0.23828 0 0.4375 0.082 0.60547 0.25 0.16797 0.16797 0.25391 0.37109 0.25391 0.60937s-0.0859 0.44141-0.25391 0.60938c-0.16797 0.16797-0.36719 0.25-0.60547 0.25z"/>
   <path d="m261.38 197.36h-11.27c-0.25 0-0.49609-0.0469-0.73047-0.14453-0.23437-0.0977-0.4414-0.23828-0.61718-0.41406-0.17969-0.17969-0.32032-0.38672-0.41407-0.6211-0.0977-0.23437-0.14843-0.48046-0.14843-0.73046v-10.32c0-0.2539 0.0508-0.49609 0.14843-0.73047 0.0937-0.23437 0.23438-0.4414 0.41407-0.62109 0.17578-0.17969 0.38281-0.31641 0.61718-0.41406 0.23438-0.0977 0.47657-0.14453 0.73047-0.14453h11.27c0.25391 0 0.4961 0.0469 0.73047 0.14453 0.23438 0.0977 0.44141 0.23437 0.6211 0.41406 0.17578 0.17969 0.3164 0.38672 0.41406 0.62109 0.0937 0.23438 0.14453 0.47657 0.14453 0.73047v10.32c0 0.25-0.0508 0.49609-0.14453 0.73046-0.0977 0.23438-0.23828 0.44141-0.41406 0.6211-0.17969 0.17578-0.38672 0.3164-0.6211 0.41406-0.23437 0.0977-0.47656 0.14453-0.73047 0.14453zm-11.27-12.422c-0.125 0-0.1875 0.0664-0.1914 0.1914v10.32c4e-3 0.125 0.0664 0.1875 0.1914 0.1875h11.27c0.125 0 0.1875-0.0625 0.19141-0.1875v-10.32c-4e-3 -0.125-0.0664-0.1914-0.19141-0.1914z"/>
   <path d="m330 191.15h-58.551c-0.23828 0-0.4414-0.082-0.60937-0.25-0.16797-0.16796-0.25-0.37109-0.25-0.60937s0.082-0.44141 0.25-0.60938c0.16797-0.16796 0.37109-0.25 0.60937-0.25h58.551c0.23829 0 0.44141 0.082 0.60938 0.25 0.16797 0.16797 0.25 0.3711 0.25 0.60938s-0.082 0.44141-0.25 0.60937c-0.16797 0.16797-0.37109 0.25-0.60938 0.25z"/>
   <path d="m261.38 220.18h-11.27c-0.25 0-0.49609-0.0508-0.73047-0.14844-0.23437-0.0937-0.4375-0.23437-0.61718-0.41406-0.17969-0.17578-0.32032-0.38281-0.41407-0.61719-0.0977-0.23437-0.14843-0.48046-0.14843-0.73046v-10.32c0-0.2539 0.0508-0.49609 0.14843-0.73047 0.0937-0.23437 0.23438-0.4414 0.41407-0.62109 0.17968-0.17969 0.38281-0.31641 0.61718-0.41406 0.23438-0.0977 0.48047-0.14453 0.73047-0.14453h11.27c0.25391 0 0.4961 0.0469 0.73047 0.14453 0.23438 0.0977 0.44141 0.23437 0.61719 0.41406 0.17969 0.17969 0.32031 0.38672 0.41797 0.62109 0.0937 0.23438 0.14453 0.47657 0.14453 0.73047v10.32c0 0.25-0.0508 0.49609-0.14453 0.73046-0.0977 0.23438-0.23828 0.44141-0.41797 0.61719-0.17578 0.17969-0.38281 0.32031-0.61719 0.41406-0.23437 0.0977-0.47656 0.14844-0.73047 0.14844zm-11.27-12.422c-0.125 0-0.1875 0.0625-0.1914 0.1914v10.32c4e-3 0.125 0.0664 0.1875 0.1914 0.1875h11.27c0.125 0 0.1875-0.0625 0.19141-0.1875v-10.32c-4e-3 -0.125-0.0664-0.1914-0.19141-0.1914z"/>
   <path d="m330 213.96h-58.551c-0.23828 0-0.4414-0.082-0.60937-0.25-0.16797-0.16796-0.25-0.37109-0.25-0.60937s0.082-0.44141 0.25-0.60938c0.16797-0.16796 0.37109-0.25 0.60937-0.25h58.551c0.23829 0 0.44141 0.082 0.60938 0.25 0.16797 0.16797 0.25 0.3711 0.25 0.60938s-0.082 0.44141-0.25 0.60937c-0.16797 0.16797-0.37109 0.25-0.60938 0.25z"/>
   <path d="m261.38 242.99h-11.27c-0.2539 0-0.49609-0.0508-0.73047-0.14844-0.23437-0.0937-0.4414-0.23437-0.61718-0.41406-0.17969-0.17969-0.32032-0.38672-0.41797-0.62109-0.0937-0.23047-0.14453-0.47656-0.14453-0.73047v-10.316c0-0.2539 0.0508-0.49609 0.14843-0.73047 0.0937-0.23437 0.23438-0.4414 0.41407-0.62109 0.17968-0.17969 0.38281-0.31641 0.61718-0.41406 0.23438-0.0977 0.48047-0.14453 0.73047-0.14844h11.27c0.25391 4e-3 0.4961 0.0508 0.73047 0.14844 0.23438 0.0977 0.44141 0.23437 0.61719 0.41406 0.17969 0.17969 0.32031 0.38672 0.41797 0.62109 0.0937 0.23438 0.14453 0.47657 0.14453 0.73047v10.316c0 0.25391-0.0508 0.5-0.14453 0.73047-0.0977 0.23437-0.23828 0.4414-0.41406 0.62109-0.17969 0.17969-0.38672 0.32031-0.6211 0.41406-0.23437 0.0977-0.47656 0.14844-0.73047 0.14844zm-11.27-12.422c-0.125 0-0.1875 0.0625-0.1914 0.1914v10.316c0 0.12891 0.0664 0.19141 0.1914 0.19141h11.27c0.125 0 0.19141-0.0625 0.19141-0.19141v-10.316c-4e-3 -0.1289-0.0664-0.1914-0.19141-0.1914z"/>
   <path d="m330 236.78h-58.551c-0.23828 0-0.4414-0.0859-0.60937-0.2539-0.16797-0.16797-0.25-0.3711-0.25-0.60938 0-0.23437 0.082-0.4375 0.25-0.60547 0.16797-0.16796 0.37109-0.2539 0.60937-0.2539h58.551c0.23829 0 0.44141 0.0859 0.60938 0.2539 0.16797 0.16797 0.25 0.3711 0.25 0.60547 0 0.23828-0.082 0.44141-0.25 0.60938-0.16797 0.16797-0.37109 0.2539-0.60938 0.2539z"/>
   <path d="m261.38 265.8h-11.27c-0.25 0-0.49609-0.0508-0.73047-0.14844-0.23437-0.0976-0.4414-0.23437-0.61718-0.41406-0.17969-0.17969-0.32032-0.38672-0.41407-0.62109-0.0977-0.23047-0.14843-0.47656-0.14843-0.73047v-10.316c0-0.2539 0.0508-0.5 0.14843-0.73047 0.0937-0.23437 0.23438-0.4414 0.41407-0.62109 0.17578-0.17969 0.38281-0.31641 0.61718-0.41406 0.23438-0.0977 0.47657-0.14844 0.73047-0.14844h11.27c0.25391 0 0.4961 0.0508 0.73047 0.14844 0.23438 0.0977 0.44141 0.23437 0.6211 0.41406 0.17578 0.17969 0.3164 0.38672 0.41406 0.62109 0.0937 0.23047 0.14453 0.47657 0.14453 0.73047v10.316c0 0.25391-0.0508 0.5-0.14453 0.73047-0.0977 0.23437-0.23828 0.4414-0.41406 0.62109-0.17969 0.17969-0.38672 0.31641-0.6211 0.41406-0.23437 0.0977-0.47656 0.14844-0.73047 0.14844zm-11.27-12.422c-0.125 0-0.1875 0.0625-0.1914 0.1914v10.316c4e-3 0.12891 0.0664 0.19141 0.1914 0.19141h11.27c0.125 0 0.1875-0.0625 0.19141-0.19141v-10.316c-4e-3 -0.1289-0.0664-0.1914-0.19141-0.1914z"/>
   <path d="m330 259.59h-58.551c-0.23828 0-0.4414-0.0859-0.60937-0.2539-0.16797-0.16797-0.25-0.3711-0.25-0.60547 0-0.23828 0.082-0.44141 0.25-0.60938 0.16797-0.16796 0.37109-0.2539 0.60937-0.2539h58.551c0.23829 0 0.44141 0.0859 0.60938 0.2539 0.16797 0.16797 0.25 0.3711 0.25 0.60938 0 0.23437-0.082 0.4375-0.25 0.60547-0.16797 0.16797-0.37109 0.2539-0.60938 0.2539z"/>
   <path d="m261.38 288.61h-11.27c-0.25 0-0.49609-0.0508-0.73047-0.14844-0.23437-0.0976-0.4414-0.23437-0.61718-0.41406-0.17969-0.17969-0.32032-0.38672-0.41407-0.62109-0.0977-0.23047-0.14843-0.47656-0.14843-0.73047v-10.316c0-0.2539 0.0508-0.49609 0.14843-0.73047 0.0937-0.23437 0.23438-0.4414 0.41407-0.62109 0.17578-0.17969 0.38281-0.31641 0.61718-0.41406 0.23438-0.0977 0.47657-0.14844 0.73047-0.14844h11.27c0.25391 0 0.4961 0.0508 0.73047 0.14844 0.23438 0.0976 0.44141 0.23437 0.6211 0.41406 0.17578 0.17969 0.3164 0.38672 0.41406 0.62109 0.0937 0.23438 0.14453 0.47657 0.14453 0.73047v10.316c0 0.25391-0.0508 0.5-0.14453 0.73047-0.0977 0.23437-0.23828 0.4414-0.41406 0.62109-0.17969 0.17969-0.38672 0.31641-0.6211 0.41406-0.23437 0.0977-0.47656 0.14844-0.73047 0.14844zm-11.27-12.422c-0.125 0-0.1875 0.0625-0.1914 0.1914v10.316c4e-3 0.12891 0.0664 0.19141 0.1914 0.19141h11.27c0.125 0 0.1875-0.0625 0.19141-0.19141v-10.316c-4e-3 -0.1289-0.0664-0.1914-0.19141-0.1914z"/>
   <path d="m330 282.4h-58.551c-0.23828 0-0.4414-0.0859-0.60937-0.2539-0.16797-0.16797-0.25-0.3711-0.25-0.60547 0-0.23828 0.082-0.44141 0.25-0.60938 0.16797-0.16796 0.37109-0.2539 0.60937-0.2539h58.551c0.23829 0 0.44141 0.0859 0.60938 0.2539 0.16797 0.16797 0.25 0.3711 0.25 0.60938 0 0.23437-0.082 0.4375-0.25 0.60547-0.16797 0.16797-0.37109 0.2539-0.60938 0.2539z"/>
  </g>
  <g>
   <path d="m219.46 214.89c0.57422-4.5 2.1524-8.6094 4.7383-12.336 1.1602-1.6445 3.0742-3.4414 6.9062-7.043 6.9453-6.5234 7.9648-6.3438 8.3438-6.1289 1.2461 0.70313 0.36328 4.4492 0 6-1.4375 6.1289-4.1172 7.9492-5.8633 12.129-0.79687 1.9023-0.87109 3.0312-0.26171 16.172 0.66406 14.289 0.92578 16.738-0.25782 17.211-2.2031 0.88281-7.3086-5.9062-10.035-11.609-2.1602-4.5586-3.3516-9.3555-3.5703-14.395z" fill="#fff"/>
   <path d="m232.66 241.83c-3.4102 0-8.4766-8.1328-10.406-12.172-2.2148-4.6602-3.4297-9.5703-3.6484-14.73-4e-3 -0.0547 0-0.10938 8e-3 -0.16016 0.59765-4.6367 2.2266-8.8711 4.8867-12.711 1.207-1.7148 3.1484-3.5352 7.0078-7.1641 7.1172-6.6797 8.4102-6.8008 9.3672-6.2617 1.668 0.94532 1.0859 4.0781 0.41406 6.9453-0.70313 3.0039-1.9375 5.7695-3.707 8.2969-0.85547 1.2578-1.5898 2.5781-2.2031 3.9688-0.71875 1.7188-0.78906 2.9336-0.1914 15.801l0.19922 4.2148c0.5664 11.938 0.625 13.188-1 13.84-0.23438 0.0898-0.47657 0.13672-0.72657 0.13281zm-12.336-26.902c0.21484 4.8984 1.375 9.5625 3.4766 13.988 3.1562 6.5977 7.7969 11.641 8.9453 11.18 0.47656-0.47657 0.27734-4.625-0.0781-12.16l-0.19922-4.2148c-0.6211-13.402-0.54688-14.457 0.32422-16.543 0.65234-1.4805 1.4336-2.8906 2.3398-4.2305 1.6562-2.3633 2.8164-4.9531 3.4805-7.7617 0.89844-3.8203 0.61719-4.7695 0.46484-5-0.41015 0.11719-2.0039 0.90234-7.3789 5.9531-3.7891 3.5586-5.6875 5.3398-6.7969 6.9102-2.4844 3.5898-4.0117 7.5508-4.5781 11.879z" fill="#090817"/>
   <path d="m82.391 228.4 0.23046-0.66015c0.11329-0.32422 0.25391-0.63281 0.42579-0.92969 0.17578-0.29297 0.375-0.57031 0.60156-0.82812 0.22656-0.25391 0.48047-0.48829 0.75-0.69532 0.27344-0.20703 0.5664-0.38672 0.875-0.53515 0.30859-0.14844 0.6289-0.26953 0.95703-0.35547 0.33203-0.0859 0.67187-0.14063 1.0117-0.16016 0.34375-0.0195 0.68359-8e-3 1.0234 0.0391 0.33984 0.0469 0.67187 0.125 0.99609 0.23829l55.445 19.195c0.32422 0.10937 0.63672 0.2539 0.92969 0.42578 0.29687 0.17578 0.57422 0.375 0.82812 0.60156 0.25782 0.22656 0.48829 0.47656 0.69532 0.75s0.38672 0.56641 0.53515 0.875c0.15235 0.3086 0.26953 0.62891 0.35547 0.96094 0.0859 0.33203 0.14063 0.66797 0.16016 1.0117 0.0234 0.33984 8e-3 0.67969-0.0391 1.0195-0.0469 0.33984-0.125 0.67187-0.23829 0.99609l-0.22656 0.66016c-0.11328 0.32422-0.2539 0.63672-0.42969 0.92969-0.17187 0.29687-0.37109 0.57422-0.59765 0.83203-0.23047 0.2539-0.48047 0.48828-0.75391 0.69531s-0.5625 0.38281-0.87109 0.53516c-0.3086 0.14843-0.62891 0.26562-0.96094 0.35547-0.32812 0.0859-0.66797 0.14062-1.0078 0.16015-0.34375 0.0195-0.6836 8e-3 -1.0234-0.0391-0.33984-0.0469-0.67187-0.12891-0.99609-0.23828l-55.449-19.195c-0.32422-0.11329-0.63281-0.25391-0.92969-0.42579-0.29297-0.17578-0.57031-0.375-0.82812-0.60156-0.25391-0.23047-0.48829-0.48047-0.69532-0.7539-0.20703-0.27344-0.38281-0.5625-0.53515-0.8711-0.14844-0.30859-0.26563-0.6289-0.35157-0.96094-0.08984-0.33203-0.14062-0.66796-0.16406-1.0117-0.01953-0.33985-0.0039-0.6836 0.04297-1.0234 0.04297-0.33985 0.125-0.67188 0.23438-0.9961z" fill="#fff"/>
   <path d="m142.77 255.39c-0.67969 0-1.3438-0.10938-1.9844-0.33204l-55.449-19.195c-0.375-0.1289-0.73828-0.29687-1.082-0.5-0.34375-0.19922-0.66407-0.43359-0.96485-0.69922-0.29687-0.26562-0.5664-0.55468-0.80859-0.875-0.24219-0.3164-0.44922-0.65625-0.625-1.0156-0.17188-0.35938-0.3125-0.73438-0.41406-1.1172-0.09766-0.38672-0.16016-0.78125-0.1875-1.1797-0.02344-0.39843-0.0078-0.79687 0.04687-1.1914 0.05469-0.39453 0.14844-0.78125 0.27735-1.1602l0.23046-0.66016c0.13282-0.3789 0.29688-0.73828 0.5-1.082 0.19922-0.34375 0.4336-0.66797 0.69922-0.96484 0.26563-0.29688 0.5586-0.57031 0.875-0.80859 0.31641-0.24219 0.65625-0.44922 1.0156-0.625 0.35937-0.17188 0.73047-0.3125 1.1172-0.41407 0.38671-0.10156 0.77734-0.16406 1.1758-0.1875 0.39843-0.0234 0.79687-8e-3 1.1914 0.0469 0.39453 0.0547 0.78125 0.14453 1.1602 0.27344l55.445 19.191c0.37891 0.13281 0.73828 0.29688 1.082 0.5 0.34766 0.20313 0.66797 0.4375 0.96485 0.70313 0.30078 0.26172 0.57031 0.55468 0.80859 0.875 0.24219 0.3164 0.44922 0.65625 0.625 1.0156 0.17188 0.35938 0.3125 0.73047 0.41406 1.1172 0.0977 0.38672 0.16016 0.77734 0.1875 1.1758 0.0234 0.39844 8e-3 0.79688-0.0469 1.1914-0.0547 0.39843-0.14453 0.78515-0.27735 1.1602l-0.22656 0.66016c-0.20703 0.59766-0.5 1.1523-0.8789 1.6602-0.37891 0.5039-0.82813 0.9414-1.3438 1.3086-0.51563 0.36719-1.0742 0.64844-1.6758 0.83984-0.60156 0.19532-1.2188 0.28907-1.8516 0.28907zm-55.211-30.301c-0.45312 0-0.89843 0.0703-1.3281 0.20704-0.43359 0.14062-0.83203 0.33984-1.2031 0.60546-0.37109 0.26172-0.6914 0.57422-0.96093 0.9375-0.27344 0.36329-0.48438 0.75782-0.63282 1.1875l-0.22656 0.66016c-0.09375 0.26953-0.16015 0.54688-0.19922 0.83203-0.03906 0.28516-0.05078 0.57031-0.03515 0.85547 0.01562 0.28516 0.0625 0.56641 0.13281 0.84375 0.07422 0.27734 0.17187 0.54297 0.29687 0.80078s0.27735 0.5 0.44922 0.73047c0.17188 0.22656 0.36719 0.4375 0.57813 0.625 0.21484 0.19141 0.44531 0.35938 0.69531 0.50391 0.24609 0.14453 0.50391 0.26172 0.77344 0.35547l55.449 19.195c0.26953 0.0937 0.54687 0.16015 0.83203 0.19922 0.28515 0.0391 0.5664 0.0508 0.85547 0.0312 0.28515-0.0156 0.5664-0.0586 0.84375-0.13282 0.27343-0.0742 0.54297-0.17187 0.80078-0.29687s0.5-0.27344 0.72656-0.44531c0.22656-0.17578 0.4375-0.36719 0.62891-0.58203 0.1875-0.21485 0.35547-0.44532 0.5-0.69141s0.26562-0.50781 0.35937-0.77734l0.22656-0.66016c0.0937-0.26953 0.16016-0.54688 0.19922-0.83203 0.0391-0.28516 0.0508-0.57031 0.0312-0.85547-0.0156-0.28516-0.0625-0.56641-0.13281-0.84375-0.0742-0.27734-0.17187-0.54297-0.29687-0.80078s-0.27344-0.5-0.44922-0.73047c-0.17188-0.22656-0.36328-0.4375-0.57813-0.625-0.21484-0.19141-0.44531-0.35938-0.6914-0.50391-0.2461-0.14453-0.50782-0.26562-0.77735-0.35937l-55.445-19.188c-0.46094-0.16406-0.93359-0.24219-1.4219-0.2461z" fill="#090817"/>
   <path d="m141.75 254.14 15.77 0.83984-12.145-10.879c-0.41016 0.2539-0.79688 0.53515-1.1602 0.85156-0.35937 0.31641-0.69531 0.66406-1 1.0352-0.30078 0.375-0.57422 0.76953-0.80859 1.1914-0.23828 0.41797-0.4375 0.85156-0.60157 1.3047-0.16406 0.45312-0.28906 0.91797-0.375 1.3906-0.0859 0.47266-0.1289 0.95313-0.13281 1.4336-8e-3 0.48047 0.0312 0.96094 0.10547 1.4336 0.0781 0.47656 0.19141 0.94141 0.34766 1.3984z" fill="#fff"/>
   <path d="m157.52 255.84h-0.0469l-15.77-0.83985c-0.17578-8e-3 -0.33594-0.0664-0.47656-0.17187-0.14063-0.10547-0.23828-0.24609-0.29688-0.41406-0.64843-1.9375-0.67187-3.8867-0.0664-5.8398 0.34765-1.0781 0.87109-2.0664 1.5664-2.957 0.69922-0.89453 1.5274-1.6445 2.4883-2.2461 0.16015-0.0977 0.33593-0.14063 0.52734-0.125 0.19141 0.0156 0.35547 0.0898 0.5 0.21484l12.141 10.879c0.13282 0.11719 0.22266 0.26562 0.26172 0.4375 0.043 0.17187 0.0312 0.34375-0.0312 0.51172-0.0625 0.16406-0.16797 0.29687-0.3164 0.39843-0.14453 0.10157-0.3086 0.15235-0.48438 0.15235zm-15.117-2.5274 12.723 0.67579-9.8242-8.793c-0.6211 0.45312-1.1602 0.98437-1.6211 1.6016-0.46093 0.61719-0.82031 1.2852-1.0781 2.0117-0.25781 0.72265-0.40234 1.4688-0.4375 2.2383-0.0352 0.76562 0.0469 1.5234 0.23828 2.2656z" fill="#090817"/>
   <path d="m84.344 241.77c3.4883-1.6289 6.5703-3.832 9.2461-6.6055 4.1797-4.4375 12.652-8.4805 17.473-7.6953 4.8242 0.78125 23.594 10.824 23.984 12.781 0.39062 1.9531-14.469 0.12891-14.469 0.12891s6.5898 3.7852 0.82031 6.7812c0 0 5.957 3 1.0039 6.6523 0 0 3.9102 3.3906-0.25781 6.9102-4.168 3.5234-5.2148 1.5664-9.9062 4.6953-4.6914 3.1328-17.336 10.695-22.809 6-5.4766-4.6953-15.516-19.449-5.0859-29.648z" fill="#fff"/>
   <path d="m94.066 273.77c-0.94141 0.0391-1.8594-0.0859-2.7539-0.3789-0.89453-0.29297-1.7109-0.73438-2.4453-1.3242-3.8438-3.2969-9.6562-11.125-9.9219-19.18-0.04687-1.0938 0.02344-2.1797 0.21094-3.2578 0.1875-1.0781 0.48828-2.1211 0.90234-3.1367 0.41407-1.0117 0.9336-1.9688 1.5547-2.8711 0.6211-0.89843 1.3281-1.7226 2.1289-2.4688 0.07422-0.0742 0.16015-0.13281 0.25781-0.17187 3.3789-1.5898 6.3633-3.7266 8.9609-6.4102 4.2148-4.4688 12.902-8.8164 18.234-7.9531 4.1602 0.67578 24.145 10.73 24.684 13.461 0.082 0.41406-0.0195 0.77343-0.3086 1.0781-1.1562 1.2461-7.2578 0.91016-12.188 0.40625 0.78125 0.78125 1.1953 1.7227 1.2461 2.8281-0.0391 0.5625-0.19922 1.0898-0.48047 1.5781-0.28516 0.48828-0.66406 0.88281-1.1367 1.1914 0.58594 0.38672 1.0703 0.875 1.457 1.4648 0.38281 0.58594 0.63672 1.2266 0.75391 1.9219 0.0195 0.65234-0.10547 1.2734-0.38282 1.8633-0.27734 0.58984-0.67187 1.0859-1.1875 1.4844 0.23829 0.26563 0.44922 0.55469 0.625 0.86719 0.17579 0.3125 0.31641 0.63672 0.42579 0.98047 0.10546 0.33984 0.17187 0.6914 0.20703 1.0469 0.0312 0.35547 0.0234 0.71094-0.0234 1.0664-0.043 0.35547-0.12891 0.70312-0.24609 1.0391-0.1211 0.33594-0.27344 0.65625-0.46485 0.96094-0.1875 0.30469-0.40625 0.58594-0.65625 0.83984-0.25 0.25782-0.52344 0.48438-0.82031 0.6836-1.5312 1.4062-3.3125 2.3203-5.3477 2.7305-1.6836 0.35937-3.2305 1.0312-4.6367 2.0234-3.9609 2.6406-12.293 7.6367-18.648 7.6367zm-9.2305-31.281c-1.4102 1.3438-2.4766 2.9141-3.2031 4.7188-0.72656 1.8047-1.0508 3.6797-0.96484 5.625 0.24219 7.4453 5.8477 14.949 9.3164 17.93 1.3047 1.1172 6.7226 3.9766 21.773-6.0625 1.5742-1.1016 3.3008-1.8555 5.1797-2.2617 1.7734-0.35156 3.3242-1.1445 4.6484-2.375 0.46484-0.32422 0.83984-0.73047 1.1211-1.2227 0.28516-0.48828 0.44922-1.0156 0.5-1.582-0.0859-1.1133-0.54297-2.0469-1.3672-2.8008-0.10156-0.0859-0.17578-0.1914-0.22656-0.30859-0.0508-0.1211-0.0742-0.2461-0.0703-0.375 8e-3 -0.13281 0.0391-0.25391 0.10156-0.36719 0.0625-0.11719 0.14453-0.21094 0.25-0.28906 1.1328-0.83594 1.6758-1.6524 1.6133-2.4219-0.10937-1.2852-1.8359-2.4375-2.4961-2.7695-0.3125-0.16015-0.46875-0.41406-0.47266-0.76562 0-0.35157 0.15235-0.60547 0.46485-0.76953 0.85937-0.44141 1.8828-1.1602 1.9023-2.0352 0.0273-1.3242-2.0312-2.8164-2.7578-3.2344-0.17578-0.10156-0.30078-0.25-0.375-0.4414-0.0703-0.19141-0.0742-0.38281-0.0117-0.57813 0.0625-0.19531 0.18359-0.34765 0.35547-0.45703 0.17578-0.10937 0.36328-0.14844 0.5664-0.12109 5.2734 0.64453 11.406 1.0117 13.234 0.58984-2.5938-2.5547-18.508-11.074-22.992-11.801-4.2461-0.6875-12.523 2.9961-16.711 7.4375-2.7148 2.8203-5.8398 5.0664-9.3789 6.7383z" fill="#090817"/>
  </g>
  <g fill="#fff">
   <path d="m52.148 259.39c-0.07031 0-0.14063-8e-3 -0.21094-0.0273-0.23047-0.0586-0.40625-0.1875-0.52734-0.39453-0.125-0.20313-0.15625-0.42188-0.09766-0.65235l10.168-40.195c0.05859-0.23437 0.1875-0.41016 0.39062-0.53516 0.20704-0.12109 0.42188-0.15234 0.65625-0.0937 0.23047 0.0586 0.40625 0.1875 0.52735 0.39454 0.12109 0.20703 0.15234 0.42187 0.09375 0.65625l-10.168 40.195c-0.04688 0.1914-0.14844 0.34765-0.30469 0.46875-0.15625 0.12109-0.33203 0.18359-0.52734 0.18359z"/>
   <path d="m31.031 277.1c-0.35547 0-0.61719-0.15625-0.77344-0.47656-0.16015-0.32031-0.13281-0.625 0.08594-0.90625 0.48047-0.62891 11.84-15.371 23.441-17.996l27-15.484c0.20703-0.11719 0.42578-0.14453 0.65625-0.0859 0.22656 0.0625 0.40234 0.19532 0.51953 0.40235 0.12109 0.20703 0.14844 0.42578 0.08594 0.65234-0.0586 0.23047-0.19532 0.40625-0.39844 0.52344l-27.117 15.547c-0.07812 0.0469-0.16016 0.0781-0.24609 0.0937-11.027 2.4102-22.457 17.242-22.57 17.391-0.17187 0.22656-0.39843 0.33984-0.68359 0.33984z"/>
   <path d="m41.254 312.42c-0.48047 4e-3 -0.95703-0.0391-1.4336-0.12891-0.55468-0.0547-1.0703-0.23437-1.543-0.53515-0.47265-0.30469-0.85156-0.69532-1.1406-1.1758-0.08594-0.21094-0.08984-0.42579-0.01172-0.64063 0.08203-0.21484 0.22656-0.37109 0.43359-0.46875 0.20704-0.10156 0.41797-0.11328 0.63672-0.043 0.21875 0.0703 0.38282 0.20313 0.49219 0.40625 0.42969 0.51563 0.98047 0.78125 1.6484 0.80078 3.5273 0.51563 15.516-1.8242 50.586-35.016 0.17187-0.16797 0.375-0.25 0.61718-0.2461 0.23828 4e-3 0.44141 0.0937 0.60547 0.26954 0.16797 0.17578 0.2461 0.38281 0.23438 0.62109-0.0078 0.24219-0.10157 0.44141-0.27735 0.60547-14.293 13.523-39.336 35.551-50.848 35.551z"/>
   <path d="m165.55 310.75c-0.22266 0-0.41407-0.0742-0.57813-0.22265-0.16016-0.14844-0.25391-0.33203-0.27734-0.55078l-5.2774-51.355c-0.0156-0.15625 8e-3 -0.30469 0.0742-0.44531 6.8789-14.918-6.5039-27.367-6.6406-27.496-0.13282-0.11719-0.21875-0.26562-0.25782-0.4414l-3.4688-15.113c-0.0469-0.23046-8e-3 -0.44531 0.11719-0.64062 0.125-0.19922 0.30469-0.32422 0.53125-0.375 0.23047-0.0508 0.44141-0.0195 0.64453 0.10547 0.19922 0.12109 0.32813 0.29687 0.38282 0.52344l3.4102 14.863c1.7227 1.6875 13.652 14.156 6.9414 29.078l5.2539 51.117c0.0273 0.23437-0.0352 0.44531-0.1875 0.63281-0.14843 0.1836-0.33984 0.28906-0.57812 0.3125-0.0312 8e-3 -0.0586 8e-3 -0.0898 8e-3z"/>
   <path d="m174.93 291.18c-0.19141 0-0.36719-0.0586-0.51953-0.17578-0.15625-0.11718-0.25782-0.26953-0.3086-0.46093-0.96484-3.9609-1.5195-7.9805-1.6602-12.059-0.24219-6.3125 0.45703-15.348 5.1641-22.547 0.125-0.20703 0.30469-0.33985 0.54297-0.39453 0.23828-0.0547 0.46094-0.0156 0.66406 0.11718 0.20313 0.13282 0.32813 0.32032 0.375 0.5625 0.0469 0.23828-4e-3 0.45703-0.14453 0.65625-8.5547 13.09-3.332 33.016-3.2773 33.219 0.0625 0.23047 0.0312 0.44532-0.0859 0.65235-0.11719 0.20703-0.29297 0.33984-0.52344 0.40234-0.0742 0.0195-0.14844 0.0312-0.22656 0.0273z"/>
  </g>
  <g fill="#080717">
   <path d="m41.902 120.36s4.7695-3.1133 7.4102 0.49609c2.6406 3.6133 6.5508 3.5234 8.6992-8.2188 2.1523-11.742 14.746-29.934 43.352-32.867 0 0 9.8516 12.715 22.355 17.02 12.504 4.3008 12.012 21.809 15.727 25.039 3.7148 3.2305 5.3242-2.7305 7.0625-3.3203 1.7383-0.58984 7.3125 5.8555 7.3125 5.8555 1.4102-22.027-7.3594-42.055-23.465-51.57-3.4453-1.9844-7.0938-3.4844-10.941-4.5039-3.8476-1.0156-7.7578-1.5156-11.738-1.4961-2.6602-0.97656-23.652-8.2852-43.273 3.9141-16.27 10.109-25.105 29.602-22.5 49.652z"/>
   <path d="m60.586 121.72c-0.38281-4e-3 -0.64844-0.17969-0.79297-0.53516-0.14453-0.35546-0.08203-0.67187 0.19141-0.9414 0.66796-0.67188 1.375-1.3008 2.125-1.8828 0.75-0.57813 1.5391-1.1055 2.3594-1.582 0.82031-0.47265 1.668-0.89062 2.5469-1.25 0.8789-0.35937 1.7734-0.66015 2.6914-0.90234 0.91797-0.23828 1.8477-0.41406 2.7891-0.53125 0.94141-0.11328 1.8867-0.16406 2.8359-0.15234 0.94922 0.0117 1.8906 0.0898 2.8281 0.22656 0.9375 0.14062 1.8633 0.33984 2.7734 0.60547 0.21875 0.082 0.37891 0.23047 0.47657 0.4414 0.09765 0.21485 0.10937 0.42969 0.03125 0.65235-0.07813 0.21875-0.22266 0.38281-0.4336 0.48437-0.21093 0.10157-0.42578 0.11719-0.64843 0.043-1.6758-0.49609-3.3906-0.7539-5.1367-0.77734-1.7461-0.0273-3.4648 0.18359-5.1562 0.63281-1.6875 0.44922-3.2852 1.1133-4.793 2s-2.8672 1.9609-4.0781 3.2227c-0.16797 0.16406-0.37109 0.24609-0.60937 0.24609z"/>
   <path d="m69.398 129.64c-0.89844-0.0273-1.6602-0.36328-2.2891-1.0078-0.17969-0.16016-0.27735-0.36328-0.29297-0.60156-0.01172-0.24219 0.0625-0.45313 0.22656-0.63282 0.16406-0.17578 0.36719-0.26953 0.60937-0.27734 0.24219-4e-3 0.44922 0.0742 0.625 0.24609 1.0195 0.9375 1.707 0.60157 3.2695-0.51562 0.4414-0.33594 0.90234-0.63672 1.3867-0.91016 0.7461-0.34375 1.5274-0.51562 2.3516-0.51562 0.82031 4e-3 1.6016 0.18359 2.3476 0.53515 0.21094 0.10547 0.35547 0.27344 0.42969 0.4961 0.07813 0.22656 0.0625 0.44531-0.04297 0.65625-0.10547 0.21484-0.26953 0.35937-0.49609 0.43359-0.22266 0.0781-0.44141 0.0625-0.65625-0.043-0.49219-0.23047-1.0117-0.34765-1.5547-0.35547-0.54687-8e-3 -1.0664 0.0977-1.5664 0.3125-0.41796 0.23829-0.8164 0.5-1.1992 0.78907-0.90235 0.79297-1.9531 1.2578-3.1484 1.3906z"/>
   <path d="m80.75 130.6c0 0.34375-0.03125 0.67969-0.10156 1.0156-0.06641 0.33984-0.16406 0.66406-0.29688 0.98047-0.1289 0.3164-0.28906 0.61718-0.48047 0.90234-0.1914 0.28516-0.40625 0.55078-0.64843 0.79297-0.24219 0.24219-0.50782 0.45703-0.79297 0.64844-0.28125 0.1914-0.58203 0.35156-0.89844 0.48437-0.32031 0.12891-0.64453 0.23047-0.98047 0.29688-0.33594 0.0664-0.67578 0.0977-1.0195 0.0977-0.33984 0-0.67969-0.0312-1.0156-0.0977-0.33594-0.0664-0.66407-0.16797-0.98047-0.29688-0.31641-0.13281-0.61719-0.29297-0.90235-0.48437-0.28515-0.19141-0.54687-0.40625-0.78906-0.64844s-0.46094-0.50781-0.64844-0.79297c-0.1914-0.28516-0.35156-0.58594-0.48437-0.90234-0.12891-0.31641-0.23047-0.64063-0.29688-0.98047-0.0664-0.33594-0.10156-0.67188-0.10156-1.0156s0.03516-0.68359 0.10156-1.0195c0.06641-0.33594 0.16797-0.66406 0.29688-0.98047 0.13281-0.3164 0.29297-0.61718 0.48437-0.90234 0.1875-0.28516 0.40625-0.54688 0.64844-0.78906 0.24219-0.24219 0.50391-0.46094 0.78906-0.65235 0.28516-0.1875 0.58594-0.35156 0.90235-0.48047 0.3164-0.13281 0.64453-0.23046 0.98047-0.29687 0.33593-0.0664 0.67578-0.10156 1.0156-0.10156 0.34375 0 0.68359 0.0352 1.0195 0.10156 0.33594 0.0664 0.66016 0.16406 0.97656 0.29687 0.32032 0.12891 0.6211 0.29297 0.90235 0.48047 0.28515 0.19141 0.55078 0.41016 0.79297 0.65235 0.24218 0.24218 0.45703 0.5039 0.64843 0.78906 0.19141 0.28516 0.35157 0.58594 0.48047 0.90234 0.13282 0.31641 0.23047 0.64453 0.29688 0.98047 0.07031 0.33594 0.10156 0.67578 0.10156 1.0195z"/>
   <path d="m125.94 117.89c-0.22657 0-0.41797-0.0742-0.58594-0.22656-0.5625-0.52344-1.1562-1-1.7891-1.4336-0.63282-0.43359-1.293-0.8164-1.9805-1.1523-0.69141-0.33594-1.3984-0.62109-2.1328-0.85156-0.73047-0.23047-1.4727-0.40625-2.2305-0.52735-0.75391-0.12109-1.5156-0.1875-2.2812-0.19531-0.76953-8e-3 -1.5312 0.0391-2.2891 0.14453-0.76171 0.10547-1.5078 0.26172-2.2422 0.47656-0.73828 0.21485-1.4531 0.48438-2.1484 0.80079-0.21484 0.10156-0.43359 0.10937-0.65625 0.0234-0.22266-0.082-0.38281-0.23047-0.48438-0.44531-0.0977-0.21484-0.10546-0.4375-0.0234-0.66016 0.082-0.22265 0.23047-0.38281 0.44531-0.48046 0.77344-0.35547 1.5703-0.65235 2.3867-0.89063 0.8164-0.23828 1.6445-0.41406 2.4883-0.53125 0.84375-0.11328 1.6914-0.16797 2.543-0.15625 0.84765 8e-3 1.6953 0.0781 2.5352 0.21484 0.83985 0.13282 1.6641 0.32813 2.4766 0.58594s1.6016 0.57031 2.3633 0.94531c0.76562 0.3711 1.5 0.79688 2.2031 1.2812 0.69922 0.48047 1.3633 1.0078 1.9883 1.5898 0.12891 0.11719 0.21485 0.26562 0.25391 0.4375 0.0391 0.17187 0.0234 0.33984-0.0391 0.50781-0.0664 0.16406-0.17188 0.29688-0.31641 0.39453-0.14453 0.10156-0.30859 0.14844-0.48437 0.14844z"/>
   <path d="m121.86 126.13c-1.0625-0.0937-2.0391-0.42968-2.9336-1.0078-0.41797-0.23828-0.84766-0.44922-1.2891-0.63281-0.52344-0.14844-1.0547-0.1875-1.5938-0.10938-0.53516 0.0742-1.0352 0.25782-1.4961 0.54688-0.19922 0.13281-0.41406 0.17187-0.64453 0.125-0.23437-0.0469-0.41406-0.16797-0.54687-0.36328-0.13282-0.19922-0.17579-0.41407-0.12891-0.64453 0.0469-0.23438 0.16797-0.41797 0.36328-0.54688 0.69141-0.44531 1.4453-0.72266 2.2617-0.82812 0.81641-0.10547 1.6133-0.0352 2.3984 0.21484 0.51172 0.20703 1.0078 0.44922 1.4922 0.72266 1.6914 0.91796 2.418 1.1602 3.3086 0.10156 0.15234-0.17969 0.34765-0.28125 0.58594-0.30469 0.23437-0.0195 0.44531 0.0469 0.625 0.19922 0.18359 0.15234 0.28515 0.34766 0.30468 0.58594 0.0195 0.23828-0.0469 0.44531-0.19922 0.6289-0.29296 0.40235-0.66015 0.71875-1.1016 0.94922-0.4414 0.23047-0.91015 0.35156-1.4062 0.36328z"/>
   <path d="m121.48 127.83c0 0.34375-0.0312 0.6836-0.0977 1.0195-0.0664 0.33594-0.16797 0.66407-0.29688 0.98047-0.13281 0.31641-0.29296 0.61719-0.48437 0.90235-0.1875 0.28515-0.40625 0.54687-0.64844 0.78906s-0.5039 0.46094-0.78906 0.65234c-0.28516 0.1875-0.58594 0.34766-0.90234 0.48047-0.31641 0.13281-0.64454 0.23047-0.98047 0.29688-0.33594 0.0664-0.67578 0.10156-1.0156 0.10156-0.34375 0-0.68359-0.0352-1.0195-0.10156-0.33594-0.0664-0.66406-0.16407-0.98047-0.29688-0.3164-0.13281-0.61719-0.29297-0.90234-0.48047-0.28125-0.1914-0.54688-0.41015-0.78906-0.65234-0.24219-0.24219-0.45704-0.50391-0.64844-0.78906-0.19141-0.28516-0.35156-0.58594-0.48438-0.90235-0.1289-0.3164-0.22656-0.64453-0.29687-0.98047-0.0664-0.33593-0.0977-0.67578-0.0977-1.0195s0.0312-0.67969 0.0977-1.0195c0.0703-0.33594 0.16797-0.66016 0.29687-0.97656 0.13282-0.31641 0.29297-0.61719 0.48438-0.90235 0.1914-0.28515 0.40625-0.55078 0.64844-0.79296 0.24218-0.24219 0.50781-0.45704 0.78906-0.64844 0.28515-0.19141 0.58594-0.35156 0.90234-0.48438 0.31641-0.1289 0.64453-0.23047 0.98047-0.29687s0.67578-0.0977 1.0195-0.0977c0.33985 0 0.67969 0.0312 1.0156 0.0977 0.33593 0.0664 0.66406 0.16797 0.98047 0.29687 0.3164 0.13282 0.61718 0.29297 0.90234 0.48438 0.28516 0.1914 0.54687 0.40625 0.78906 0.64844 0.24219 0.24218 0.46094 0.50781 0.64844 0.79296 0.19141 0.28516 0.35156 0.58594 0.48437 0.90235 0.12891 0.3164 0.23047 0.64062 0.29688 0.97656 0.0664 0.33984 0.0977 0.67578 0.0977 1.0195z"/>
   <path d="m94.688 142.52c-0.45312 0-0.80859-0.0117-1.0156-0.0234-0.23829-8e-3 -0.4375-0.10156-0.59766-0.27734s-0.23438-0.37891-0.22656-0.61719c0.01562-0.23828 0.10937-0.43359 0.28125-0.59375 0.17578-0.16015 0.3789-0.23437 0.61718-0.23047 2.8125 0.125 6.1758-0.3164 6.7148-1.2383 0.48437-1.0547-1.8359-7.543-4.3125-12.938-0.10547-0.21875-0.1211-0.4414-0.03906-0.67187 0.08203-0.22656 0.23046-0.39063 0.45312-0.49219 0.21875-0.10156 0.44141-0.10937 0.66797-0.0195 0.22656 0.0859 0.38672 0.24219 0.48047 0.46484 1.6836 3.668 5.4688 12.422 4.2344 14.527-1.0938 1.8633-5.1836 2.1094-7.2578 2.1094z"/>
  </g>
  <path d="m74.898 144.36c0 0.30859-0.04688 0.61328-0.13672 0.91797-0.09375 0.30469-0.23047 0.59765-0.41016 0.88281-0.18359 0.28516-0.40625 0.55859-0.66797 0.8125-0.26171 0.25781-0.5625 0.49609-0.89453 0.71484-0.33593 0.21875-0.69922 0.41407-1.0938 0.58594-0.39453 0.17188-0.80859 0.31641-1.2461 0.4336-0.4375 0.12109-0.88672 0.21093-1.3516 0.26953-0.46485 0.0586-0.9336 0.0898-1.4062 0.0898-0.47657 0-0.94532-0.0312-1.4062-0.0898-0.46485-0.0586-0.91797-0.14844-1.3555-0.26953-0.4336-0.11719-0.85156-0.26172-1.2461-0.4336-0.39062-0.17187-0.75781-0.36719-1.0898-0.58594-0.33594-0.21875-0.63281-0.45703-0.89844-0.71484-0.26172-0.25391-0.48437-0.52734-0.66406-0.8125-0.18359-0.28516-0.32031-0.57812-0.41016-0.88281-0.09375-0.30469-0.14062-0.60938-0.14062-0.91797s0.04687-0.61719 0.14062-0.91797c0.08985-0.30469 0.22657-0.59766 0.41016-0.88281 0.17969-0.28906 0.40234-0.5586 0.66406-0.81641 0.26563-0.25781 0.5625-0.49219 0.89844-0.71094 0.33203-0.21875 0.69922-0.41406 1.0898-0.58593 0.39454-0.17188 0.8125-0.31641 1.2461-0.4375 0.4375-0.11719 0.89062-0.20703 1.3555-0.26563 0.46093-0.0625 0.92968-0.0898 1.4062-0.0898 0.47265 0 0.9414 0.0273 1.4062 0.0898 0.46484 0.0586 0.91406 0.14844 1.3516 0.26563 0.4375 0.12109 0.85156 0.26562 1.2461 0.4375 0.39453 0.17187 0.75782 0.36718 1.0938 0.58593 0.33203 0.21875 0.63282 0.45313 0.89453 0.71094 0.26172 0.25781 0.48438 0.52735 0.66797 0.81641 0.17969 0.28515 0.31641 0.57812 0.41016 0.88281 0.08984 0.30078 0.13672 0.60938 0.13672 0.91797z" fill="#135D66"/>
  <path d="m127.71 143.05c0 0.30859-0.0469 0.61719-0.14062 0.91797-0.0898 0.30468-0.23047 0.59765-0.41016 0.88281-0.17968 0.28906-0.40234 0.55859-0.66406 0.81641-0.26562 0.25781-0.5625 0.49218-0.89844 0.71093-0.33593 0.21875-0.69922 0.41407-1.0938 0.58594-0.39062 0.17188-0.80859 0.31641-1.2461 0.4375-0.4375 0.11719-0.88672 0.20703-1.3516 0.26563-0.46485 0.0625-0.9336 0.0898-1.4062 0.0898-0.47266 0-0.94141-0.0273-1.4062-0.0898-0.46485-0.0586-0.91407-0.14844-1.3516-0.26563-0.4375-0.12109-0.85156-0.26562-1.2461-0.4375-0.39453-0.17187-0.75781-0.36719-1.0938-0.58594-0.33203-0.21875-0.63281-0.45312-0.89453-0.71093-0.26172-0.25782-0.48438-0.52735-0.66797-0.81641-0.17969-0.28516-0.31641-0.57813-0.41016-0.88281-0.0898-0.30078-0.13671-0.60938-0.13671-0.91797 0-0.3086 0.0469-0.61328 0.13671-0.91797 0.0937-0.30469 0.23047-0.59766 0.41016-0.88281 0.18359-0.28516 0.40625-0.5586 0.66797-0.8125 0.26172-0.25782 0.5625-0.4961 0.89453-0.71485 0.33594-0.21875 0.69922-0.41406 1.0938-0.58593 0.39453-0.17188 0.80859-0.31641 1.2461-0.4336 0.4375-0.12109 0.88672-0.20703 1.3516-0.26953 0.46484-0.0586 0.93359-0.0898 1.4062-0.0898 0.47265 0 0.9414 0.0312 1.4062 0.0898 0.46484 0.0625 0.91406 0.14844 1.3516 0.26953 0.4375 0.11719 0.85547 0.26172 1.2461 0.4336 0.39453 0.17187 0.75782 0.36718 1.0938 0.58593 0.33594 0.21875 0.63282 0.45703 0.89844 0.71485 0.26172 0.2539 0.48438 0.52734 0.66406 0.8125 0.17969 0.28515 0.32032 0.57812 0.41016 0.88281 0.0937 0.30469 0.14062 0.60937 0.14062 0.91797z" fill="#135D66"/>
  <g fill="#080717">
   <path d="m97.039 160.57c-7.4609 0-11.719-5.8945-11.77-5.9688-0.13281-0.1914-0.17969-0.40625-0.13672-0.63672 0.03907-0.23046 0.15625-0.41796 0.34766-0.55078 0.19531-0.13672 0.40625-0.1875 0.63672-0.14843 0.23437 0.0391 0.41797 0.15625 0.55859 0.34375 0.4336 0.58203 0.91797 1.125 1.4414 1.625 0.52734 0.5039 1.0938 0.95703 1.6953 1.3672 0.60156 0.40625 1.2344 0.76172 1.8945 1.0625 0.66406 0.30469 1.3438 0.54688 2.0469 0.73828 0.70312 0.1875 1.4141 0.31641 2.1406 0.38672 0.72266 0.0703 1.4453 0.0781 2.1719 0.0273 0.72656-0.0508 1.4414-0.16016 2.1484-0.32813 0.70704-0.17187 1.3945-0.39844 2.0664-0.68359 0.22266-0.0937 0.44531-0.0977 0.67188-4e-3 0.22265 0.0977 0.3789 0.25781 0.46875 0.48438 0.0859 0.22656 0.082 0.44922-0.0234 0.67187-0.10156 0.22266-0.26563 0.3711-0.4961 0.45313-1.8828 0.75781-3.8359 1.1445-5.8633 1.1602z"/>
   <path d="m120.58 241.23c-0.16016 0-0.30469-0.0391-0.44141-0.1211-1.6328-0.90625-3.3555-1.5703-5.1719-1.9961-1.8164-0.42188-3.6602-0.58594-5.5234-0.49219-0.23828 0.0234-0.44922-0.0391-0.63672-0.19141-0.1875-0.15234-0.28906-0.35156-0.3125-0.58984-0.0195-0.24219 0.0469-0.45312 0.20703-0.63672 0.15625-0.18359 0.35547-0.28125 0.59375-0.29687 2.0469-0.11719 4.0664 0.0586 6.0586 0.52343 1.9961 0.46094 3.8867 1.1992 5.668 2.2031 0.16797 0.10156 0.28516 0.24219 0.35547 0.41797 0.0742 0.17969 0.082 0.36328 0.0312 0.55078s-0.15234 0.33594-0.30859 0.45312c-0.15235 0.11719-0.32813 0.17579-0.51953 0.17579z"/>
   <path d="m121.4 248.02c-0.10938 0-0.21485-0.0195-0.31641-0.0586-4.8945-1.9609-11.602-1.6367-11.668-1.6367-0.23828 8e-3 -0.4414-0.0664-0.61718-0.22265-0.17579-0.16016-0.27344-0.35547-0.28516-0.58985-0.0156-0.23828 0.0586-0.44531 0.21875-0.62109 0.15625-0.17969 0.35547-0.27344 0.59375-0.28516 0.28906-0.0156 7.1445-0.34375 12.395 1.7539 0.19141 0.0781 0.33984 0.20703 0.4375 0.38672 0.0977 0.18359 0.12891 0.375 0.0898 0.57812-0.0391 0.20313-0.13671 0.36719-0.29687 0.5-0.16016 0.13282-0.34375 0.19532-0.55078 0.19532z"/>
   <path d="m122.4 254.67c-0.10546 0-0.20703-0.0195-0.30468-0.0547-4.1836-1.6016-10.871-0.87109-10.938-0.86328-0.23438 0.0234-0.44532-0.0352-0.62891-0.18359-0.1875-0.14844-0.29297-0.33985-0.32422-0.57422-0.0234-0.23438 0.0352-0.44531 0.1836-0.63281 0.14843-0.1836 0.33984-0.29297 0.57421-0.31641 0.29297-0.0352 7.1719-0.78906 11.746 0.96094 0.1914 0.0742 0.33984 0.20312 0.4414 0.38281 0.10157 0.18359 0.13282 0.375 0.0937 0.57812-0.0352 0.20313-0.13671 0.3711-0.29296 0.50391-0.16016 0.13281-0.34375 0.19922-0.55079 0.19922z"/>
  </g>
  <g fill="#fff">
   <path d="m50.973 102.93c-0.09766 0-0.19532-0.0156-0.28907-0.0508-0.22265-0.0781-0.38671-0.22657-0.48828-0.44141-0.10156-0.21484-0.11328-0.43359-0.03125-0.65625 7.1016-19.937 26.641-26.062 26.836-26.121 0.22656-0.06641 0.44141-0.04297 0.65234 0.0664 0.20704 0.11328 0.34375 0.28125 0.41407 0.50782 0.0664 0.22656 0.04687 0.44531-0.0625 0.65234-0.11328 0.21094-0.28125 0.35156-0.50782 0.42187-0.1875 0.05469-18.91 5.9492-25.715 25.051-0.0625 0.16796-0.16406 0.30859-0.3125 0.41015-0.14844 0.10547-0.3125 0.16016-0.49609 0.16016z"/>
   <path d="m140.45 96.672c-6.043 0-12.238-2.6172-17.941-7.5742-2.6328-2.2734-4.9531-4.8359-6.9531-7.6836-0.11719-0.19922-0.14844-0.40625-0.0977-0.63281 0.0547-0.22266 0.17578-0.39453 0.36718-0.52344 0.1875-0.125 0.39844-0.16797 0.6211-0.1289 0.22656 0.04297 0.40625 0.15234 0.54297 0.33984 0.0977 0.14453 9.7773 14.488 23.457 14.488h0.26172c0.24218-0.0078 0.44531 0.07422 0.61718 0.23828 0.17188 0.16797 0.25782 0.3711 0.25782 0.60938 4e-3 0.23828-0.0781 0.44531-0.2461 0.61328-0.16406 0.17187-0.36719 0.25781-0.60547 0.26172z"/>
   <path d="m136.5 90.871c-7.1367 0-11.242-6.457-11.293-6.5391-0.125-0.20312-0.16016-0.41797-0.10547-0.64844 0.0508-0.23437 0.17969-0.41015 0.38281-0.53515 0.20313-0.125 0.41797-0.16406 0.64844-0.10938 0.23047 0.05469 0.41016 0.1836 0.53516 0.38672 0.23828 0.37891 5.8984 9.2188 15.605 4.1875 0.21094-0.10937 0.42969-0.1289 0.65625-0.05859 0.22657 0.07422 0.39454 0.21484 0.50391 0.42578 0.10938 0.21094 0.12891 0.42969 0.0547 0.65625-0.0703 0.22656-0.21094 0.39453-0.42188 0.50391-2.0469 1.1172-4.2344 1.6953-6.5664 1.7305z"/>
   <path d="m21.059 230.87c-0.33203 0-0.57812-0.14063-0.74609-0.42969-0.09375-0.16406-9.3242-16.832 8.7773-32.961 17.215-15.328 11.527-41.742 11.469-42.008-0.04296-0.23047-0.0039-0.44141 0.1211-0.64062 0.1289-0.19532 0.30859-0.32032 0.53515-0.3711 0.22657-0.0508 0.44141-0.0156 0.64063 0.10938 0.19922 0.12109 0.32812 0.29687 0.38281 0.52343 0.0625 0.27735 5.957 27.676-12.004 43.676-17.031 15.168-8.7891 30.184-8.4297 30.816 0.16797 0.28516 0.16797 0.57422 0 0.85938-0.16406 0.28906-0.41406 0.42968-0.7461 0.42968z"/>
   <path d="m160.86 217.63c-0.14063 0-0.26953-0.0352-0.39453-0.0977s-0.22656-0.15234-0.3086-0.26562c-0.0781-0.11329-0.1289-0.24219-0.14843-0.37891-0.0195-0.13672-8e-3 -0.27344 0.0391-0.40625 0.0469-0.13672 4.7109-13.871-3.2539-26.719-8.3047-13.41-9.4726-34.715-9.5195-35.617-0.0117-0.23437 0.0625-0.44531 0.21875-0.62109 0.16016-0.17578 0.35938-0.26953 0.59766-0.28125 0.23828-0.0117 0.44531 0.0625 0.62109 0.22265 0.17578 0.16016 0.26953 0.35547 0.28125 0.59375 0.0117 0.21875 1.1953 21.766 9.2656 34.797 8.4062 13.57 3.625 27.609 3.4141 28.199-0.0586 0.17187-0.16406 0.30859-0.31641 0.41406-0.14843 0.10547-0.3125 0.16016-0.49609 0.16016z"/>
  </g>
  <path d="m47.551 134.8c-0.21094 0-0.39844-0.0703-0.55859-0.20703-1.9727-1.7031-2.8398-3.4219-2.5898-5.1016 0.16797-0.92968 0.58594-1.7266 1.2539-2.3945h-4.1992c-0.23828 0-0.4414-0.0859-0.60937-0.2539-0.16797-0.16797-0.25-0.36719-0.25-0.60547s0.08203-0.44141 0.25-0.60938 0.37109-0.2539 0.60937-0.2539h6.8789c0.20312 0 0.38672 0.0664 0.54297 0.19531 0.16015 0.12891 0.25781 0.29297 0.30078 0.49219s0.01562 0.39062-0.07813 0.57031-0.23437 0.3125-0.42187 0.39453c-0.01953 8e-3 -2.3203 1.0391-2.5742 2.7305-0.15625 1.0547 0.51562 2.2422 2.0117 3.5273 0.13672 0.11719 0.22656 0.26563 0.27344 0.4375 0.04296 0.17578 0.03515 0.34766-0.02735 0.51563s-0.16797 0.30469-0.3164 0.40625c-0.14844 0.10156-0.3125 0.15234-0.49219 0.15234z" fill="#080717"/>
  <path d="m143 134.36c-0.19531 0-0.37109-0.0586-0.52734-0.17579-0.15625-0.11718-0.25782-0.27343-0.3086-0.46093-0.0508-0.1875-0.0391-0.375 0.0391-0.55469 0.0742-0.17969 0.19531-0.31641 0.36718-0.41406 1.7188-0.98828 2.6094-2.0312 2.6524-3.0977 0.0547-1.457-1.5117-2.8516-2.1211-3.2656-0.15234-0.10157-0.26172-0.24219-0.32422-0.41407-0.0625-0.17187-0.0703-0.34765-0.0234-0.52734 0.0508-0.17578 0.14843-0.32422 0.28906-0.44141 0.14453-0.11328 0.30859-0.17578 0.49219-0.1875l7.3672-0.40234c0.23829-0.0195 0.44532 0.0508 0.625 0.21094 0.17579 0.16015 0.26954 0.35937 0.28125 0.59765 0.0117 0.23828-0.0625 0.44532-0.21875 0.6211-0.16015 0.17968-0.35937 0.27343-0.59375 0.28515l-5.3476 0.29297c0.84375 0.9336 1.2773 2.0274 1.2891 3.2852-0.0625 1.707-1.2461 3.2344-3.5156 4.5391-0.13282 0.0742-0.27344 0.10938-0.42188 0.10938z" fill="#080717"/>
 </g>
</svg>
