<?xml version="1.0" encoding="UTF-8"?>
<svg width="497.81" height="435.59" version="1.0" viewBox="0 0 373.36 326.69" xmlns="http://www.w3.org/2000/svg" zoomAndPan="magnify">
 <defs>
  <clipPath id="e7d1190223">
   <path d="m171 48h202.5v71h-202.5z"/>
  </clipPath>
  <clipPath id="9222584203">
   <path d="m0 24.867h373.5v327h-373.5z"/>
  </clipPath>
 </defs>
 <g transform="translate(0 -24.867)" clip-path="url(#e7d1190223)">
  <path d="m361.69 118.21c-0.76563 0-1.5234-0.0742-2.2774-0.22265-0.75-0.14844-1.4805-0.3711-2.1875-0.66407s-1.3789-0.65234-2.0156-1.0781-1.2266-0.91016-1.7695-1.4531c-0.54297-0.53906-1.0234-1.1289-1.4492-1.7656s-0.78516-1.3086-1.0781-2.0195c-0.29297-0.70703-0.51562-1.4375-0.66406-2.1875-0.15234-0.75-0.22656-1.5078-0.22656-2.2774v-23.332c0-0.76562-0.0742-1.5273-0.22266-2.2773-0.14844-0.75-0.37109-1.4805-0.66406-2.1875-0.29297-0.71094-0.65235-1.3828-1.0781-2.0195-0.42578-0.63672-0.91015-1.2266-1.4531-1.7656-0.53906-0.54297-1.1289-1.0273-1.7656-1.4531-0.63672-0.42578-1.3086-0.78516-2.0195-1.0781-0.70703-0.29297-1.4375-0.51562-2.1875-0.66406-0.75-0.14844-1.5117-0.22266-2.2773-0.22266h-155.53c-0.76562 0-1.5234-0.07422-2.2734-0.22656-0.75391-0.14844-1.4844-0.37109-2.1914-0.66406-0.70703-0.29297-1.3789-0.65234-2.0156-1.0781-0.63672-0.42578-1.2266-0.90625-1.7695-1.4492-0.53906-0.54297-1.0234-1.1328-1.4492-1.7695-0.42579-0.63672-0.78516-1.3086-1.0781-2.0156-0.29297-0.70703-0.51562-1.4375-0.66406-2.1875-0.14844-0.75391-0.22656-1.5117-0.22656-2.2773s0.0781-1.5234 0.22656-2.2773c0.14844-0.75 0.37109-1.4805 0.66406-2.1875s0.65234-1.3789 1.0781-2.0195c0.42578-0.63672 0.91015-1.2227 1.4492-1.7656 0.54297-0.54297 1.1328-1.0273 1.7695-1.4531 0.63671-0.42578 1.3086-0.78516 2.0156-1.0781 0.70703-0.29297 1.4375-0.51172 2.1914-0.66406 0.75-0.14844 1.5078-0.22266 2.2734-0.22266h155.53c1.1484 0 2.293 0.05469 3.4336 0.16797 1.1406 0.11328 2.2734 0.28125 3.3945 0.50391 1.125 0.22266 2.2383 0.50391 3.3359 0.83594 1.0938 0.33203 2.1719 0.71875 3.2305 1.1562 1.0625 0.4375 2.0977 0.92969 3.1055 1.4688 1.0117 0.53906 1.9961 1.1289 2.9492 1.7656 0.95312 0.63672 1.8711 1.3203 2.7578 2.0469 0.88672 0.72656 1.7344 1.4961 2.543 2.3086 0.8125 0.80859 1.582 1.6562 2.3086 2.543s1.4102 1.8047 2.0469 2.7578c0.63672 0.95313 1.2266 1.9375 1.7656 2.9492 0.53906 1.0078 1.0312 2.043 1.4688 3.1055 0.4375 1.0586 0.82422 2.1367 1.1562 3.2344 0.33203 1.0938 0.61328 2.207 0.83594 3.332 0.22266 1.1211 0.39062 2.2539 0.50391 3.3945 0.11328 1.1406 0.16796 2.2852 0.16796 3.4336v23.332c0 0.76953-0.0742 1.5274-0.22265 2.2774-0.15235 0.75-0.3711 1.4805-0.66406 2.1875-0.29297 0.71093-0.65235 1.3828-1.0781 2.0195s-0.91016 1.2266-1.4531 1.7656c-0.54297 0.54297-1.1289 1.0274-1.7656 1.4531-0.64062 0.42578-1.3125 0.78515-2.0195 1.0781s-1.4375 0.51563-2.1875 0.66407c-0.75391 0.14843-1.5117 0.22265-2.2773 0.22265z" fill="#e80346"/>
 </g>
 <g transform="translate(0 -24.867)" clip-path="url(#9222584203)">
  <path d="m338.36 351.56h-303.35c-1.1484 0-2.293-0.0586-3.4336-0.16797-1.1406-0.11328-2.2734-0.28125-3.3984-0.5039-1.1211-0.22656-2.2344-0.50391-3.332-0.83594-1.0938-0.33203-2.1719-0.71875-3.2305-1.1562-1.0625-0.44141-2.0977-0.92969-3.1055-1.4688-1.0117-0.54297-1.9961-1.1289-2.9492-1.7656-0.95313-0.63672-1.8711-1.3203-2.7578-2.0469s-1.7344-1.4961-2.543-2.3086c-0.8125-0.8086-1.582-1.6562-2.3086-2.543-0.72656-0.88672-1.4102-1.8086-2.0469-2.7617-0.63672-0.95313-1.2266-1.9336-1.7656-2.9453-0.53906-1.0117-1.0312-2.0469-1.4688-3.1055-0.4375-1.0586-0.82422-2.1367-1.1562-3.2344-0.33203-1.0976-0.61328-2.207-0.83594-3.332s-0.39062-2.2539-0.50391-3.3984c-0.11328-1.1406-0.16797-2.2812-0.16797-3.4297v-186.68c0-0.76563 0.074219-1.5234 0.22266-2.2773 0.15234-0.75 0.37109-1.4805 0.66406-2.1875s0.65234-1.3789 1.0781-2.0156c0.42578-0.63672 0.91016-1.2266 1.4531-1.7695s1.1289-1.0234 1.7656-1.4492c0.64062-0.42578 1.3125-0.78515 2.0195-1.0781s1.4375-0.51563 2.1875-0.66407c0.75391-0.15234 1.5117-0.22656 2.2773-0.22656s1.5234 0.0742 2.2773 0.22656c0.75 0.14844 1.4805 0.3711 2.1875 0.66407 0.70703 0.29297 1.3789 0.65234 2.0156 1.0781 0.63672 0.42578 1.2266 0.90625 1.7695 1.4492s1.0234 1.1328 1.4492 1.7695c0.42578 0.63672 0.78516 1.3086 1.0781 2.0156 0.29297 0.70703 0.51563 1.4375 0.66406 2.1875 0.15234 0.7539 0.22656 1.5117 0.22656 2.2773v186.68c0 0.76562 0.07422 1.5273 0.22266 2.2773 0.14844 0.75 0.37109 1.4805 0.66406 2.1875 0.29297 0.70703 0.65234 1.3789 1.0781 2.0195 0.42578 0.63672 0.91016 1.2266 1.4531 1.7656 0.53906 0.54297 1.1289 1.0273 1.7656 1.4531s1.3086 0.78516 2.0195 1.0781c0.70703 0.29297 1.4375 0.51172 2.1875 0.66406 0.75 0.14844 1.5117 0.22266 2.2773 0.22266h303.35c0.76562 0 1.5273-0.0742 2.2773-0.22266 0.75-0.15234 1.4805-0.37109 2.1875-0.66406 0.71094-0.29297 1.3828-0.65235 2.0195-1.0781s1.2266-0.91015 1.7656-1.4531c0.54297-0.53907 1.0273-1.1289 1.4531-1.7656 0.42578-0.64062 0.78516-1.3125 1.0781-2.0195s0.51562-1.4375 0.66406-2.1875 0.22266-1.5117 0.22266-2.2773v-198.35h-151.68c-0.60938 4e-3 -1.2109-0.043-1.8125-0.13672-0.60157-0.0937-1.1914-0.23047-1.7695-0.41406-0.57812-0.1875-1.1406-0.41406-1.6836-0.6875s-1.0625-0.58594-1.5547-0.94141c-0.49609-0.35156-0.96093-0.74218-1.3945-1.168-0.42969-0.42579-0.82812-0.88282-1.1914-1.3711-0.35938-0.49219-0.6836-1.0039-0.96485-1.543-0.28125-0.53906-0.51953-1.0938-0.71484-1.6719l-17.965-54.137c-0.19531-0.57422-0.43359-1.1328-0.71484-1.6719-0.28125-0.53906-0.60547-1.0508-0.96484-1.5391-0.36328-0.48828-0.76172-0.94531-1.1953-1.3711-0.43359-0.42578-0.89453-0.81641-1.3906-1.1719-0.49219-0.35156-1.0117-0.66797-1.5547-0.9375-0.54297-0.27344-1.1055-0.50391-1.6836-0.6875-0.57813-0.1875-1.168-0.32422-1.7695-0.41797-0.60157-0.09375-1.2031-0.13672-1.8125-0.13672h-123.21c-0.76562 0-1.5273 0.07422-2.2773 0.22266-0.75 0.15234-1.4805 0.37109-2.1875 0.66406-0.71094 0.29297-1.3828 0.65234-2.0195 1.0781s-1.2266 0.91016-1.7656 1.4531c-0.54297 0.54297-1.0273 1.1289-1.4531 1.7656-0.42578 0.64062-0.78516 1.3125-1.0781 2.0195-0.29297 0.70703-0.51562 1.4375-0.66406 2.1875-0.14844 0.75391-0.22266 1.5117-0.22266 2.2773v23.336c0 0.76562-0.07422 1.5234-0.22656 2.2734-0.14844 0.75391-0.37109 1.4805-0.66406 2.1914-0.29297 0.70703-0.65234 1.3789-1.0781 2.0156-0.42578 0.63672-0.90625 1.2266-1.4492 1.7695-0.54297 0.53906-1.1328 1.0234-1.7695 1.4492-0.63672 0.42578-1.3086 0.78516-2.0156 1.0781-0.70703 0.29297-1.4375 0.51562-2.1875 0.66406-0.75391 0.14844-1.5117 0.22656-2.2773 0.22656s-1.5234-0.07813-2.2773-0.22656c-0.75-0.14844-1.4805-0.37109-2.1875-0.66406s-1.3789-0.65234-2.0195-1.0781c-0.63672-0.42578-1.2227-0.91016-1.7656-1.4492-0.54297-0.54297-1.0273-1.1328-1.4531-1.7695-0.42578-0.63672-0.78516-1.3086-1.0781-2.0156-0.29297-0.71094-0.51172-1.4375-0.66406-2.1914-0.14844-0.75-0.22266-1.5078-0.22266-2.2734v-23.336c0-1.1484 0.054688-2.2891 0.16797-3.4297 0.11328-1.1406 0.28125-2.2734 0.50391-3.3984s0.50391-2.2344 0.83594-3.332c0.33203-1.0977 0.71875-2.1758 1.1562-3.2344 0.4375-1.0586 0.92969-2.0938 1.4688-3.1055 0.53906-1.0117 1.1289-1.9922 1.7656-2.9453 0.63672-0.95312 1.3203-1.875 2.0469-2.7617 0.72656-0.88672 1.4961-1.7344 2.3086-2.543 0.80859-0.8125 1.6562-1.582 2.543-2.3086s1.8047-1.4102 2.7578-2.0469c0.95312-0.63672 1.9375-1.2227 2.9492-1.7656 1.0078-0.53906 2.043-1.0273 3.1055-1.4688 1.0586-0.4375 2.1367-0.82422 3.2305-1.1562 1.0977-0.33203 2.2109-0.60938 3.332-0.83594 1.125-0.22266 2.2578-0.39062 3.3984-0.50391 1.1406-0.10938 2.2852-0.16797 3.4336-0.16797h123.21c1.8203 0.0039 3.6328 0.14844 5.4336 0.43359 1.7969 0.28906 3.5625 0.71094 5.2969 1.2734 1.7344 0.5625 3.4141 1.2539 5.0391 2.0781 1.6211 0.82422 3.1758 1.7695 4.6523 2.8359 1.4766 1.0664 2.8633 2.2422 4.1562 3.5234 1.293 1.2852 2.4805 2.6602 3.5586 4.1289 1.0781 1.4648 2.0391 3.0078 2.875 4.6289 0.83984 1.6172 1.5469 3.2891 2.125 5.0156l15.398 46.672h154.95c0.76562 0 1.5234 0.07422 2.2773 0.22266 0.75 0.15234 1.4805 0.37109 2.1875 0.66406s1.3789 0.65234 2.0195 1.0781c0.63672 0.42578 1.2227 0.91016 1.7656 1.4531 0.54296 0.53906 1.0273 1.1289 1.4531 1.7656 0.42578 0.63671 0.78516 1.3125 1.0781 2.0195 0.29296 0.70703 0.51171 1.4375 0.66406 2.1875 0.14844 0.75 0.22265 1.5117 0.22265 2.2773v209.43c0 1.1484-0.0547 2.2891-0.16796 3.4297-0.11329 1.1445-0.28125 2.2734-0.50391 3.3984s-0.50391 2.2344-0.83594 3.332c-0.33203 1.0977-0.71875 2.1758-1.1562 3.2344-0.4375 1.0586-0.92969 2.0938-1.4688 3.1055s-1.1289 1.9922-1.7656 2.9453c-0.63672 0.95312-1.3203 1.875-2.0469 2.7617s-1.4961 1.7344-2.3086 2.543c-0.8086 0.8125-1.6562 1.582-2.543 2.3086s-1.8047 1.4102-2.7578 2.0469c-0.95313 0.63671-1.9375 1.2226-2.9492 1.7656-1.0078 0.53906-2.043 1.0273-3.1055 1.4688-1.0586 0.4375-2.1367 0.82422-3.2305 1.1562-1.0977 0.33203-2.2109 0.60938-3.3359 0.83594-1.1211 0.22265-2.2539 0.39062-3.3945 0.5039-1.1406 0.10938-2.2852 0.16797-3.4336 0.16797z" fill="#e80346"/>
 </g>
</svg>
