<?xml version="1.0" encoding="UTF-8"?>
<svg width="497.97" height="453.97" version="1.0" viewBox="0 0 373.48 340.48" xmlns="http://www.w3.org/2000/svg" zoomAndPan="magnify">
 <defs>
  <clipPath id="0bed7473c4">
   <path d="m7 17.109h341v339.89h-341z"/>
  </clipPath>
  <clipPath id="6ce5d06b05">
   <path d="m194 267h16v90.609h-16z"/>
  </clipPath>
 </defs>
 <g transform="translate(-.039062 -17.129)" clip-path="url(#0bed7473c4)">
  <path d="m177.57 17.129c2.7812 0 5.5625 0.07031 8.3398 0.20703 2.7812 0.13672 5.5547 0.33984 8.3242 0.61328 2.7695 0.27344 5.5312 0.61328 8.2812 1.0195 2.7539 0.41016 5.4961 0.88281 8.2227 1.4258 2.7305 0.54297 5.4453 1.1523 8.1445 1.8281 2.6992 0.67578 5.3789 1.418 8.043 2.2227 2.6641 0.80859 5.3047 1.6797 7.9258 2.6172 2.6172 0.9375 5.2148 1.9375 7.7852 3 2.5703 1.0625 5.1133 2.1914 7.6289 3.3789 2.5156 1.1875 5 2.4375 7.4531 3.75 2.457 1.3086 4.875 2.6797 7.2617 4.1094 2.3867 1.4297 4.7383 2.918 7.0508 4.4609 2.3164 1.543 4.5898 3.1445 6.8242 4.8008 2.2344 1.6562 4.4297 3.3672 6.5781 5.1328 2.1523 1.7617 4.2578 3.5781 6.3203 5.4453s4.0781 3.7812 6.043 5.75c1.9688 1.9648 3.8867 3.9766 5.7539 6.0391 1.8711 2.0586 3.6875 4.1641 5.4531 6.3125 1.7656 2.1484 3.4766 4.3398 5.1328 6.5742 1.6602 2.2344 3.2617 4.5078 4.8047 6.8164 1.5469 2.3125 3.0352 4.6602 4.4648 7.0469 1.4336 2.3828 2.8047 4.8008 4.1172 7.2539 1.3086 2.4531 2.5586 4.9375 3.75 7.4492 1.1914 2.5117 2.3164 5.0547 3.3828 7.6211 1.0625 2.5703 2.0664 5.1641 3.0039 7.7812 0.9375 2.6172 1.8086 5.2578 2.6172 7.918 0.80859 2.6602 1.5508 5.3398 2.2266 8.0352 0.67578 2.6992 1.2852 5.4102 1.8281 8.1367s1.0195 5.4648 1.4258 8.2148c0.41015 2.7539 0.75 5.5117 1.0234 8.2774 0.26953 2.7656 0.47656 5.5391 0.61328 8.3164 0.13672 2.7774 0.20312 5.5547 0.20312 8.3359s-0.0664 5.5586-0.20312 8.3359c-0.13672 2.7773-0.34375 5.5508-0.61328 8.3164-0.27344 2.7656-0.61329 5.5234-1.0234 8.2774-0.40625 2.75-0.88281 5.4883-1.4258 8.2148s-1.1524 5.4375-1.8281 8.1367c-0.67578 2.6953-1.418 5.375-2.2266 8.0352-0.80859 2.6602-1.6797 5.3008-2.6172 7.918-0.9375 2.6172-1.9414 5.2109-3.0039 7.7812-1.0664 2.5664-2.1914 5.1094-3.3828 7.6211-1.1914 2.5156-2.4414 4.9961-3.75 7.4492-1.3125 2.4531-2.6836 4.8711-4.1172 7.2539-1.4297 2.3867-2.918 4.7344-4.4648 7.0469-1.543 2.3086-3.1445 4.582-4.8047 6.8164-1.6562 2.2344-3.3672 4.4258-5.1328 6.5742-1.7656 2.1484-3.582 4.2539-5.4531 6.3125-1.8672 2.0625-3.7852 4.0742-5.7539 6.0391-1.9648 1.9688-3.9805 3.8828-6.043 5.75-2.0625 1.8672-4.168 3.6836-6.3203 5.4453-2.1484 1.7656-4.3438 3.4766-6.5781 5.1328-2.2344 1.6562-4.5078 3.2578-6.8242 4.8008-2.3125 1.543-4.6641 3.0312-7.0508 4.4609-2.3867 1.4297-4.8047 2.8008-7.2617 4.1094-2.4531 1.3125-4.9375 2.5625-7.4531 3.75-2.5156 1.1875-5.0586 2.3164-7.6289 3.3789-2.5703 1.0625-5.168 2.0664-7.7852 3-2.6211 0.9375-5.2617 1.8086-7.9258 2.6172-2.6641 0.80859-5.3438 1.5469-8.043 2.2227-2.6992 0.67578-5.4141 1.2852-8.1445 1.8281-2.7266 0.54297-5.4688 1.0156-8.2227 1.4258-2.75 0.40625-5.5117 0.7461-8.2812 1.0195-2.7695 0.27344-5.543 0.47657-8.3242 0.61328-2.7773 0.13672-5.5586 0.20704-8.3398 0.20704-2.7852 0-5.5664-0.0703-8.3438-0.20704-2.7812-0.13671-5.5547-0.33984-8.3242-0.61328-2.7695-0.27343-5.5312-0.61328-8.2812-1.0195-2.7539-0.41015-5.4922-0.88281-8.2227-1.4258s-5.4453-1.1523-8.1445-1.8281c-2.6992-0.67579-5.3789-1.4141-8.043-2.2227-2.6602-0.80859-5.3047-1.6797-7.9219-2.6172-2.6211-0.93359-5.2148-1.9375-7.7891-3-2.5703-1.0625-5.1133-2.1914-7.6289-3.3789-2.5156-1.1875-5-2.4375-7.4531-3.75-2.4531-1.3086-4.875-2.6797-7.2617-4.1094-2.3867-1.4297-4.7383-2.918-7.0508-4.4609s-4.5898-3.1445-6.8242-4.8008-4.4258-3.3672-6.5781-5.1328c-2.1523-1.7617-4.2578-3.5781-6.3203-5.4453-2.0586-1.8672-4.0742-3.7812-6.043-5.75-1.9688-1.9648-3.8867-3.9766-5.7539-6.0391-1.8711-2.0586-3.6875-4.1641-5.4531-6.3125-1.7656-2.1484-3.4766-4.3398-5.1328-6.5742-1.6562-2.2344-3.2578-4.5078-4.8047-6.8164-1.5469-2.3125-3.0352-4.6602-4.4648-7.0469-1.4297-2.3828-2.8008-4.8008-4.1133-7.2539-1.3125-2.4531-2.5625-4.9336-3.7539-7.4492-1.1875-2.5117-2.3164-5.0547-3.3828-7.6211-1.0625-2.5703-2.0625-5.1641-3-7.7812-0.9375-2.6172-1.8125-5.2578-2.6211-7.918-0.80469-2.6602-1.5469-5.3398-2.2227-8.0352-0.67969-2.6992-1.2891-5.4102-1.832-8.1367-0.54297-2.7266-1.0156-5.4648-1.4258-8.2148-0.40625-2.7539-0.74609-5.5117-1.0195-8.2774-0.27344-2.7656-0.48047-5.5391-0.61328-8.3164-0.13672-2.7774-0.20703-5.5547-0.20703-8.3359s0.070312-5.5586 0.20703-8.3359c0.13281-2.7773 0.33984-5.5508 0.61328-8.3164 0.27344-2.7656 0.61328-5.5234 1.0195-8.2774 0.41016-2.75 0.88281-5.4883 1.4258-8.2148 0.54297-2.7266 1.1523-5.4375 1.832-8.1367 0.67578-2.6953 1.418-5.375 2.2227-8.0352 0.80859-2.6602 1.6836-5.3008 2.6211-7.918 0.9375-2.6172 1.9375-5.2109 3-7.7812 1.0664-2.5664 2.1953-5.1094 3.3828-7.6211 1.1914-2.5117 2.4414-4.9961 3.7539-7.4492 1.3125-2.4531 2.6836-4.8711 4.1133-7.2539 1.4297-2.3867 2.918-4.7344 4.4648-7.0469 1.5469-2.3086 3.1484-4.582 4.8047-6.8164s3.3672-4.4258 5.1328-6.5742c1.7656-2.1484 3.582-4.2539 5.4531-6.3125 1.8672-2.0625 3.7852-4.0742 5.7539-6.0391 1.9688-1.9688 3.9844-3.8828 6.043-5.75 2.0625-1.8672 4.168-3.6836 6.3203-5.4453 2.1523-1.7656 4.3438-3.4766 6.5781-5.1328s4.5117-3.2578 6.8242-4.8008 4.6641-3.0312 7.0508-4.4609c2.3867-1.4297 4.8086-2.8008 7.2617-4.1094 2.4531-1.3125 4.9375-2.5625 7.4531-3.75 2.5156-1.1875 5.0586-2.3164 7.6289-3.3789 2.5742-1.0625 5.168-2.0625 7.7891-3 2.6172-0.9375 5.2617-1.8086 7.9219-2.6172 2.6641-0.80469 5.3438-1.5469 8.043-2.2227 2.6992-0.67578 5.4141-1.2852 8.1445-1.8281s5.4688-1.0156 8.2227-1.4258c2.75-0.40625 5.5117-0.74609 8.2812-1.0195 2.7695-0.27344 5.543-0.47656 8.3242-0.61328 2.7773-0.13672 5.5586-0.20703 8.3438-0.20703z" fill="#135D66" fill-opacity=".2"/>
 </g>
 <path d="m177.05 198.74h-166.15c-0.65625 0-1.3125-0.0664-1.957-0.19141-0.64844-0.12891-1.2773-0.32031-1.8867-0.57422-0.60938-0.25-1.1875-0.55859-1.7383-0.92578-0.54687-0.36719-1.0547-0.78516-1.5195-1.25-0.46875-0.46484-0.88281-0.97266-1.25-1.5195-0.36719-0.55078-0.67578-1.1289-0.92969-1.7383-0.25391-0.60938-0.44141-1.2344-0.57031-1.8828-0.12891-0.64454-0.19531-1.2969-0.19531-1.957v-128.71c0-0.66016 0.066406-1.3125 0.19531-1.957 0.12891-0.64844 0.31641-1.2734 0.57031-1.8828s0.5625-1.1875 0.92969-1.7383c0.36719-0.54688 0.78125-1.0547 1.25-1.5195 0.46484-0.46875 0.97266-0.88281 1.5195-1.25 0.55078-0.36719 1.1289-0.67578 1.7383-0.92578 0.60938-0.25391 1.2383-0.44531 1.8867-0.57422 0.64453-0.12891 1.3008-0.19141 1.957-0.19141h166.15c0.66015 0 1.3164 0.0625 1.9609 0.19141 0.64844 0.12891 1.2774 0.32031 1.8867 0.57422 0.60938 0.25 1.1875 0.55859 1.7344 0.92578 0.55078 0.36719 1.0586 0.78125 1.5234 1.25 0.46875 0.46484 0.88281 0.97266 1.25 1.5195 0.36718 0.55078 0.67578 1.1289 0.92968 1.7383 0.25 0.60938 0.44141 1.2344 0.57032 1.8828 0.1289 0.64453 0.19531 1.2969 0.19531 1.957v128.71c0 0.66016-0.0664 1.3125-0.19531 1.957-0.12891 0.64843-0.32032 1.2734-0.57032 1.8828-0.2539 0.60937-0.5625 1.1875-0.92968 1.7383-0.36719 0.54687-0.78125 1.0547-1.25 1.5195-0.46485 0.46484-0.97266 0.88281-1.5234 1.25-0.54688 0.36719-1.125 0.67578-1.7344 0.92578-0.60937 0.25391-1.2383 0.44531-1.8867 0.57422-0.64453 0.125-1.3008 0.19141-1.9609 0.19141z" fill="#fff"/>
 <path d="m177.05 199.59h-166.15c-0.71484 0-1.4219-0.0703-2.125-0.21093-0.69922-0.14063-1.3789-0.34766-2.043-0.6211-0.66016-0.27344-1.2852-0.60937-1.8828-1.0039-0.59375-0.39844-1.1445-0.85157-1.6484-1.3555-0.50781-0.50391-0.95703-1.0547-1.3555-1.6484-0.39844-0.59375-0.73438-1.2227-1.0078-1.8828-0.27344-0.66016-0.48047-1.3398-0.62109-2.0391-0.14062-0.70312-0.21094-1.4102-0.21094-2.125v-128.71c0-0.71484 0.070312-1.4219 0.21094-2.125 0.14062-0.69922 0.34766-1.3789 0.62109-2.0391 0.27344-0.66016 0.60938-1.2891 1.0078-1.8828 0.39844-0.59375 0.84766-1.1445 1.3555-1.6484 0.50391-0.50781 1.0547-0.95703 1.6484-1.3555 0.59766-0.39453 1.2227-0.73047 1.8828-1.0039 0.66406-0.27734 1.3438-0.48438 2.043-0.62109 0.70312-0.14062 1.4102-0.21094 2.125-0.21094h166.15c0.71484 0 1.4219 0.07031 2.125 0.21094 0.70312 0.14063 1.3828 0.34375 2.043 0.62109 0.66015 0.27344 1.2891 0.60938 1.8828 1.0039 0.59375 0.39844 1.1445 0.85156 1.6523 1.3555 0.50391 0.50391 0.95703 1.0547 1.3516 1.6484 0.39844 0.59375 0.73438 1.2227 1.0078 1.8828 0.27734 0.66016 0.48437 1.3398 0.62109 2.0391 0.14063 0.70312 0.21094 1.4102 0.21484 2.125v128.71c-4e-3 0.71485-0.0742 1.4219-0.21484 2.125-0.13672 0.69922-0.34375 1.3789-0.62109 2.0391-0.27344 0.66015-0.60938 1.2891-1.0078 1.8828-0.39453 0.59375-0.84765 1.1445-1.3516 1.6484-0.50781 0.5039-1.0586 0.95703-1.6523 1.3555-0.59375 0.39453-1.2227 0.73046-1.8828 1.0039-0.66016 0.27344-1.3398 0.48047-2.043 0.6211-0.70313 0.14062-1.4102 0.21093-2.125 0.21093zm-166.15-148.79c-0.60156 0.0039-1.1992 0.0625-1.793 0.17969-0.58984 0.11719-1.1641 0.29297-1.7227 0.52344-0.55859 0.23047-1.0859 0.51563-1.5898 0.85156-0.5 0.33594-0.96484 0.71484-1.3945 1.1406-0.42578 0.42578-0.80469 0.89062-1.1406 1.3945-0.33594 0.5-0.62109 1.0273-0.85156 1.5859-0.23047 0.55859-0.40625 1.1328-0.52344 1.7227-0.12109 0.59375-0.17969 1.1914-0.17969 1.793v128.71c0 0.60157 0.058594 1.1992 0.17969 1.793 0.11719 0.58985 0.29297 1.1641 0.52344 1.7227 0.23047 0.55469 0.51562 1.0859 0.85156 1.5859 0.33594 0.5039 0.71484 0.96484 1.1406 1.3945 0.42969 0.42578 0.89453 0.80469 1.3945 1.1406 0.50391 0.33594 1.0312 0.61719 1.5898 0.85157 0.55859 0.23046 1.1328 0.40234 1.7227 0.52343 0.59375 0.11719 1.1914 0.17578 1.793 0.17578h166.15c0.60156 0 1.2031-0.0586 1.793-0.17578 0.59375-0.11718 1.168-0.29297 1.7226-0.52343 0.5586-0.23438 1.0898-0.51563 1.5898-0.85157 0.5039-0.33593 0.96875-0.71484 1.3945-1.1406 0.42578-0.42969 0.80859-0.89063 1.1445-1.3945 0.33594-0.5 0.61719-1.0312 0.84765-1.5859 0.23438-0.55859 0.40625-1.1328 0.52735-1.7227 0.11719-0.59375 0.17578-1.1914 0.17578-1.793v-128.71c0-0.60156-0.0586-1.1992-0.17578-1.793-0.1211-0.58984-0.29297-1.1641-0.52735-1.7227-0.23046-0.55859-0.51171-1.0859-0.84765-1.5859-0.33594-0.50391-0.71875-0.96875-1.1445-1.3945s-0.89063-0.80469-1.3945-1.1406c-0.5-0.33594-1.0312-0.62109-1.5859-0.85156-0.5586-0.23047-1.1328-0.40625-1.7266-0.52344-0.58985-0.11719-1.1914-0.17578-1.793-0.17969z" fill="#090817"/>
 <g fill="#080717">
  <path d="m66.242 60.914c0 0.32031-0.03125 0.64062-0.09375 0.95703s-0.15625 0.625-0.28125 0.92188c-0.12109 0.29688-0.27344 0.58203-0.45312 0.84766-0.17969 0.26953-0.38281 0.51562-0.60938 0.74609-0.23047 0.22656-0.47656 0.42969-0.74609 0.60938-0.26953 0.17969-0.55078 0.33203-0.84766 0.45312-0.30078 0.125-0.60547 0.21875-0.92188 0.28125s-0.63672 0.09375-0.96094 0.09375c-0.32031 0-0.64063-0.03125-0.95703-0.09375s-0.625-0.15625-0.92188-0.28125c-0.30078-0.12109-0.58203-0.27344-0.85156-0.45312-0.26562-0.17969-0.51562-0.38281-0.74219-0.60938-0.23047-0.23047-0.43359-0.47656-0.61328-0.74609-0.17969-0.26562-0.32812-0.55078-0.45312-0.84766s-0.21484-0.60547-0.28125-0.92188c-0.0625-0.31641-0.09375-0.63672-0.09375-0.95703 0-0.32422 0.03125-0.64062 0.09375-0.95703 0.06641-0.31641 0.15625-0.625 0.28125-0.92188 0.125-0.29687 0.27344-0.58203 0.45312-0.84766 0.17969-0.26953 0.38281-0.51953 0.61328-0.74609 0.22656-0.22656 0.47656-0.42969 0.74219-0.60937 0.26953-0.17969 0.55078-0.33203 0.85156-0.45313 0.29688-0.125 0.60547-0.21875 0.92188-0.28125s0.63672-0.09375 0.95703-0.09375c0.32422 0 0.64453 0.03125 0.96094 0.09375s0.62109 0.15625 0.92188 0.28125c0.29688 0.12109 0.57812 0.27344 0.84766 0.45313 0.26953 0.17969 0.51562 0.38281 0.74609 0.60937 0.22656 0.22656 0.42969 0.47656 0.60938 0.74609 0.17969 0.26562 0.33203 0.55078 0.45312 0.84766 0.125 0.29688 0.21875 0.60547 0.28125 0.92188 0.0625 0.31641 0.09375 0.63281 0.09375 0.95703z"/>
  <path d="m43.797 60.914c0 0.32031-0.03125 0.64062-0.09375 0.95703s-0.15625 0.625-0.27734 0.92188c-0.125 0.29688-0.27734 0.58203-0.45703 0.84766-0.17578 0.26953-0.38281 0.51562-0.60937 0.74609-0.22656 0.22656-0.47656 0.42969-0.74609 0.60938-0.26562 0.17969-0.55078 0.33203-0.84766 0.45312-0.29688 0.125-0.60547 0.21875-0.92188 0.28125-0.31641 0.0625-0.63672 0.09375-0.95703 0.09375-0.32422 0-0.64453-0.03125-0.96094-0.09375s-0.625-0.15625-0.92188-0.28125c-0.29688-0.12109-0.58203-0.27344-0.84766-0.45312-0.26953-0.17969-0.51953-0.38281-0.74609-0.60938-0.22656-0.23047-0.43359-0.47656-0.60938-0.74609-0.17969-0.26562-0.33203-0.55078-0.45703-0.84766-0.12109-0.29688-0.21484-0.60547-0.27734-0.92188s-0.09375-0.63672-0.09375-0.95703c0-0.32422 0.03125-0.64062 0.09375-0.95703 0.0625-0.31641 0.15625-0.625 0.27734-0.92188 0.125-0.29687 0.27734-0.58203 0.45703-0.84766 0.17578-0.26953 0.38281-0.51953 0.60938-0.74609 0.22656-0.22656 0.47656-0.42969 0.74609-0.60937 0.26563-0.17969 0.55078-0.33203 0.84766-0.45313 0.29688-0.125 0.60547-0.21875 0.92188-0.28125s0.63672-0.09375 0.96094-0.09375c0.32031 0 0.64062 0.03125 0.95703 0.09375 0.31641 0.0625 0.625 0.15625 0.92188 0.28125 0.29687 0.12109 0.58203 0.27344 0.84766 0.45313 0.26953 0.17969 0.51953 0.38281 0.74609 0.60937 0.22656 0.22656 0.43359 0.47656 0.60937 0.74609 0.17969 0.26562 0.33203 0.55078 0.45703 0.84766 0.12109 0.29688 0.21484 0.60547 0.27734 0.92188 0.0625 0.31641 0.09375 0.63281 0.09375 0.95703z"/>
  <path d="m21.355 60.914c0 0.32031-0.03125 0.64062-0.09375 0.95703s-0.15625 0.625-0.28125 0.92188-0.27344 0.58203-0.45312 0.84766c-0.17969 0.26953-0.38281 0.51562-0.61328 0.74609-0.22656 0.22656-0.47656 0.42969-0.74219 0.60938-0.26953 0.17969-0.55078 0.33203-0.85156 0.45312-0.29688 0.125-0.60547 0.21875-0.92188 0.28125s-0.63281 0.09375-0.95703 0.09375-0.64062-0.03125-0.96094-0.09375c-0.31641-0.0625-0.62109-0.15625-0.91797-0.28125-0.30078-0.12109-0.58203-0.27344-0.85156-0.45312s-0.51562-0.38281-0.74609-0.60938c-0.22656-0.23047-0.42969-0.47656-0.60938-0.74609-0.17969-0.26562-0.33203-0.55078-0.45312-0.84766-0.125-0.29688-0.21875-0.60547-0.28125-0.92188s-0.09375-0.63672-0.09375-0.95703c0-0.32422 0.03125-0.64062 0.09375-0.95703 0.0625-0.31641 0.15625-0.625 0.28125-0.92188 0.12109-0.29687 0.27344-0.58203 0.45312-0.84766 0.17969-0.26953 0.38281-0.51953 0.60938-0.74609 0.23047-0.22656 0.47656-0.42969 0.74609-0.60937 0.26953-0.17969 0.55078-0.33203 0.85156-0.45313 0.29688-0.125 0.60156-0.21875 0.91797-0.28125 0.32031-0.0625 0.63672-0.09375 0.96094-0.09375s0.64062 0.03125 0.95703 0.09375 0.625 0.15625 0.92188 0.28125c0.30078 0.12109 0.58203 0.27344 0.85156 0.45313 0.26562 0.17969 0.51562 0.38281 0.74219 0.60937 0.23047 0.22656 0.43359 0.47656 0.61328 0.74609 0.17969 0.26562 0.32812 0.55078 0.45312 0.84766 0.125 0.29688 0.21875 0.60547 0.28125 0.92188 0.0625 0.31641 0.09375 0.63281 0.09375 0.95703z"/>
 </g>
 <g>
  <path d="m147.5 137.21h-107.06c-0.84766 0-1.6836-0.082-2.5117-0.2461-0.83203-0.16406-1.6367-0.41015-2.418-0.73437-0.77734-0.32031-1.5195-0.71875-2.2227-1.1875s-1.3555-1-1.9531-1.5977c-0.59766-0.59765-1.1289-1.25-1.5977-1.9492-0.47266-0.70312-0.86719-1.4453-1.1914-2.2266-0.32422-0.77734-0.56641-1.582-0.73438-2.4102-0.16406-0.82812-0.24609-1.6641-0.24609-2.5117 0-0.84375 0.08203-1.6797 0.24609-2.5078 0.16797-0.82812 0.41016-1.6328 0.73438-2.4141 0.32422-0.78125 0.71875-1.5195 1.1914-2.2227 0.46875-0.70312 1-1.3516 1.5977-1.9492 0.59766-0.59766 1.25-1.1328 1.9531-1.6016s1.4453-0.86328 2.2227-1.1875c0.78125-0.32422 1.5859-0.5664 2.418-0.73047 0.82812-0.16796 1.6641-0.25 2.5117-0.25h107.06c0.84375 0 1.6836 0.082 2.5117 0.25 0.82812 0.16407 1.6328 0.40625 2.4141 0.73047s1.5234 0.71875 2.2266 1.1875c0.70313 0.46875 1.3516 1.0039 1.9492 1.6016 0.59766 0.59765 1.1328 1.2461 1.6016 1.9492 0.46875 0.70313 0.86719 1.4414 1.1914 2.2227 0.32031 0.78125 0.56641 1.5859 0.73047 2.4141 0.16406 0.82813 0.24609 1.6641 0.24609 2.5078 0 0.84765-0.082 1.6836-0.24609 2.5117-0.16406 0.82813-0.41016 1.6328-0.73047 2.4102-0.32422 0.78125-0.72266 1.5234-1.1914 2.2266-0.46875 0.69922-1.0039 1.3516-1.6016 1.9492-0.59766 0.59766-1.2461 1.1289-1.9492 1.5977-0.70312 0.46875-1.4453 0.86719-2.2266 1.1875-0.78125 0.32422-1.5859 0.57031-2.4141 0.73437-0.82813 0.16407-1.668 0.2461-2.5117 0.2461z" fill="#fff"/>
  <path d="m147.5 138.06h-107.06c-0.90234 0-1.793-0.0859-2.6797-0.26172-0.88281-0.17578-1.7422-0.4375-2.5742-0.78125-0.83594-0.34375-1.625-0.76562-2.375-1.2656s-1.4453-1.0664-2.082-1.7031c-0.64062-0.63672-1.207-1.332-1.7109-2.0781-0.5-0.75-0.92188-1.543-1.2695-2.375-0.34375-0.83204-0.60547-1.6875-0.78125-2.5703-0.17578-0.88672-0.26172-1.7773-0.26172-2.6797 0-0.89844 0.08594-1.793 0.26172-2.6758 0.17578-0.88281 0.4375-1.7422 0.78125-2.5742 0.34766-0.83204 0.76953-1.6211 1.2695-2.3711 0.50391-0.75 1.0703-1.4414 1.7109-2.0781 0.63672-0.63672 1.332-1.2031 2.082-1.7031s1.5391-0.92578 2.375-1.2695c0.83203-0.34375 1.6914-0.60156 2.5742-0.77734 0.88672-0.17578 1.7773-0.26172 2.6797-0.26172h107.06c0.90234 0 1.793 0.0898 2.6758 0.26562 0.88281 0.17578 1.7422 0.4375 2.5742 0.78125 0.83203 0.34766 1.6211 0.76953 2.3672 1.2695 0.75 0.5 1.4414 1.0703 2.0781 1.7031 0.63672 0.63672 1.207 1.332 1.707 2.0781 0.5 0.75 0.92188 1.5391 1.2656 2.3711s0.60547 1.6875 0.77734 2.5703c0.17578 0.88281 0.26563 1.7734 0.26563 2.6719 0 0.90234-0.0898 1.793-0.26563 2.6758-0.17187 0.88281-0.43359 1.7383-0.77734 2.5703s-0.76563 1.6211-1.2656 2.3672c-0.5 0.75-1.0703 1.4414-1.707 2.0781s-1.3281 1.207-2.0781 1.707c-0.7461 0.5-1.5352 0.92188-2.3672 1.2656-0.83203 0.34765-1.6914 0.60547-2.5742 0.78515-0.88281 0.17579-1.7734 0.26172-2.6758 0.26563zm-107.06-25.727c-0.78906 0-1.5703 0.0781-2.3438 0.23047-0.77734 0.15625-1.5273 0.38281-2.2578 0.68359-0.73047 0.30078-1.4219 0.67187-2.0781 1.1094-0.65625 0.44141-1.2617 0.9375-1.8203 1.4961-0.55859 0.55859-1.0586 1.1641-1.4961 1.8203s-0.80859 1.3477-1.1133 2.0742c-0.30078 0.73047-0.52734 1.4805-0.68359 2.2539-0.15234 0.77343-0.23047 1.5547-0.23047 2.3438 0 0.78906 0.07813 1.5703 0.23047 2.3438 0.15625 0.77343 0.38281 1.5273 0.68359 2.2539 0.30469 0.73047 0.67578 1.4219 1.1133 2.0781s0.9375 1.2617 1.4961 1.8203c0.55859 0.55859 1.1641 1.0547 1.8203 1.4922 0.65625 0.4414 1.3477 0.80859 2.0781 1.1133 0.73047 0.30078 1.4805 0.52734 2.2578 0.68359 0.77344 0.15235 1.5547 0.23047 2.3438 0.23047h107.06c0.78906 0 1.5703-0.0781 2.3476-0.23047 0.77344-0.15625 1.5234-0.38281 2.2539-0.68359 0.73047-0.30469 1.4219-0.67188 2.0781-1.1133 0.65625-0.4375 1.2656-0.9336 1.8242-1.4922 0.55469-0.55859 1.0547-1.1641 1.4922-1.8203 0.44141-0.65625 0.8086-1.3477 1.1133-2.0781 0.30078-0.72656 0.53125-1.4805 0.6836-2.2539 0.15234-0.77344 0.23047-1.5547 0.23047-2.3438 0-0.78907-0.0781-1.5703-0.23047-2.3438-0.15235-0.77344-0.38282-1.5234-0.6836-2.2539-0.30468-0.72656-0.67187-1.418-1.1133-2.0742-0.4375-0.65625-0.9375-1.2617-1.4922-1.8203-0.55859-0.5586-1.168-1.0547-1.8242-1.4961-0.65625-0.4375-1.3477-0.80859-2.0781-1.1094s-1.4805-0.52734-2.2539-0.68359c-0.77734-0.15235-1.5586-0.23047-2.3476-0.23047z" fill="#090817"/>
  <path d="m45.836 130.76c-0.52734 0-1.0547-0.0547-1.5742-0.15625-0.51953-0.10156-1.0234-0.25781-1.5117-0.45703-0.48828-0.20312-0.95312-0.45312-1.3945-0.74609-0.44141-0.29297-0.84766-0.62891-1.2227-1.0039-0.375-0.37109-0.70703-0.78125-1.0039-1.2188-0.29297-0.4414-0.54297-0.90625-0.74219-1.3945-0.20312-0.48828-0.35547-0.99219-0.46094-1.5117-0.10156-0.51953-0.15625-1.043-0.15625-1.5703 0-0.53125 0.05469-1.0547 0.15625-1.5742 0.10547-0.51953 0.25781-1.0234 0.46094-1.5117 0.19922-0.48828 0.44922-0.95312 0.74219-1.3945 0.29688-0.4375 0.62891-0.84375 1.0039-1.2188s0.78125-0.71094 1.2227-1.0039c0.44141-0.29297 0.90625-0.54297 1.3945-0.74219 0.48828-0.20313 0.99219-0.35547 1.5117-0.46094 0.51953-0.10156 1.0469-0.15234 1.5742-0.15234 0.53125 0 1.0547 0.0508 1.5742 0.15234 0.51953 0.10547 1.0234 0.25781 1.5117 0.46094 0.49219 0.19922 0.95703 0.44922 1.3945 0.74219 0.44141 0.29296 0.84766 0.6289 1.2227 1.0039s0.71094 0.78125 1.0039 1.2188c0.29297 0.44141 0.54297 0.90625 0.74609 1.3945s0.35547 0.99219 0.45703 1.5117c0.10547 0.51953 0.15625 1.043 0.15625 1.5742 0 0.52734-0.05469 1.0508-0.15625 1.5703-0.10547 0.51953-0.25781 1.0234-0.46094 1.5117s-0.45312 0.94922-0.74609 1.3906c-0.29297 0.4414-0.62891 0.84765-1.0039 1.2226-0.375 0.3711-0.78125 0.70703-1.2188 1-0.44141 0.29297-0.90625 0.54297-1.3945 0.7461-0.48828 0.20312-0.99219 0.35547-1.5117 0.45703-0.51953 0.10547-1.043 0.15625-1.5742 0.16015zm0-11.871c-0.50391 0-0.99219 0.0977-1.4609 0.28906-0.46484 0.19532-0.87891 0.46875-1.2344 0.82813-0.35938 0.35547-0.63672 0.76953-0.82813 1.2344-0.19531 0.46875-0.28906 0.95313-0.28906 1.4609 0 0.50391 0.09375 0.99219 0.28906 1.457 0.19531 0.46875 0.46875 0.87891 0.82813 1.2383 0.35547 0.35547 0.76953 0.63282 1.2383 0.82422 0.46484 0.19531 0.95312 0.29297 1.457 0.29297 0.50781 0 0.99219-0.0977 1.4609-0.29297 0.46875-0.1914 0.87891-0.46875 1.2383-0.82422 0.35547-0.35937 0.63281-0.76953 0.82422-1.2383 0.19531-0.46875 0.29297-0.95312 0.29297-1.457 0-0.50781-0.09766-0.99219-0.29297-1.4609-0.19531-0.46484-0.46875-0.875-0.82813-1.2344-0.35547-0.35547-0.76953-0.63281-1.2344-0.82422-0.46875-0.19531-0.95313-0.29297-1.4609-0.29297z" fill="#080717"/>
  <path d="m54.672 135.34c-0.64453 0-1.1797-0.24218-1.6016-0.73047l-5.125-5.875c-0.18359-0.21484-0.32031-0.45312-0.41016-0.71875-0.08984-0.26953-0.125-0.54296-0.10547-0.82421 0.01953-0.27735 0.09375-0.54688 0.21875-0.79688s0.29297-0.46875 0.50781-0.65625c0.21094-0.18359 0.44922-0.32031 0.71875-0.41016 0.26563-0.0898 0.53906-0.125 0.82031-0.10546 0.28125 0.0195 0.54688 0.0898 0.80078 0.21484 0.25 0.125 0.46875 0.29297 0.65625 0.50391l5.1211 5.8789c0.27344 0.3125 0.44141 0.67578 0.5 1.0898 0.0625 0.41015 0.0039 0.80468-0.16797 1.1836-0.17188 0.37891-0.43359 0.67969-0.78125 0.90625-0.35156 0.22656-0.73438 0.33984-1.1523 0.33984z" fill="#080717"/>
  <path d="m124.23 61.383-1.5664 18.297c-0.0195 0.25-0.11719 0.46875-0.29297 0.65234-0.17188 0.18359-0.38672 0.29297-0.63672 0.32812-0.25 0.03516-0.48438-0.01172-0.70313-0.14062-0.21484-0.12891-0.37109-0.3125-0.46093-0.54688l-6.0274-15.828c-0.60937 0.06641-1.2226 0.11328-1.8359 0.14062-0.60937 0.02734-1.2226 0.03516-1.8359 0.02734-0.61328-0.01172-1.2266-0.03906-1.8359-0.08984-0.61328-0.04687-1.2227-0.11328-1.8281-0.19922-0.60937-0.08594-1.2109-0.19141-1.8125-0.3125-0.60156-0.125-1.1953-0.26562-1.7891-0.42578-0.58984-0.16016-1.1758-0.33594-1.7578-0.53516-0.58203-0.19531-1.1562-0.41016-1.7227-0.64062-0.56641-0.23047-1.1289-0.48047-1.6797-0.74609-0.55078-0.26953-1.0938-0.55078-1.6289-0.85156-0.53516-0.30078-1.0625-0.61719-1.5742-0.94922-0.51562-0.33203-1.0195-0.67969-1.5156-1.043-0.49219-0.36328-0.97266-0.74219-1.4414-1.1367-0.47266-0.39453-0.92969-0.80078-1.375-1.2227-0.44531-0.42187-0.875-0.85547-1.293-1.3047s-0.82031-0.91016-1.2109-1.3828c-0.38672-0.47266-0.76172-0.95703-1.1211-1.457-0.35938-0.49609-0.70312-1.0039-1.0312-1.5195-0.32812-0.51953-0.63672-1.0469-0.93359-1.582-0.29297-0.53906-0.57422-1.082-0.83203-1.6367-0.26172-0.55469-0.50781-1.1172-0.73438-1.6875-0.22656-0.56641-0.43359-1.1445-0.625-1.7266-0.19141-0.58203-0.36328-1.168-0.51562-1.7617-0.15625-0.59375-0.28906-1.1914-0.40625-1.793-0.11719-0.60156-0.21875-1.2031-0.29688-1.8125-0.08203-0.60547-0.14062-1.2148-0.18359-1.8281-0.04297-0.60938-0.06641-1.2227-0.07031-1.8359-0.0039-0.61328 0.01172-1.2227 0.04688-1.8359 0.03125-0.61328 0.08594-1.2227 0.15625-1.832 0.07422-0.60547 0.16406-1.2109 0.27344-1.8164 0.10938-0.60156 0.23438-1.1992 0.38281-1.7969 0.14453-0.59375 0.30859-1.1836 0.49219-1.7695 0.18359-0.58203 0.38281-1.1602 0.60156-1.7344 0.21875-0.57031 0.45703-1.1367 0.71094-1.6953 0.25391-0.55859 0.52344-1.1055 0.8125-1.6484 0.28516-0.53906 0.58984-1.0703 0.91016-1.5938 0.32031-0.52344 0.65625-1.0352 1.0117-1.5352 0.35156-0.5 0.71875-0.99219 1.1016-1.4688 0.38281-0.48047 0.78125-0.94531 1.1914-1.3984 0.41016-0.45703 0.83594-0.89844 1.2773-1.3242 0.4375-0.42969 0.89063-0.83984 1.3555-1.2422 0.46484-0.39844 0.94141-0.78516 1.4297-1.1562 0.48828-0.36719 0.98438-0.72266 1.4961-1.0625 0.51172-0.33984 1.0312-0.66406 1.5625-0.96875 0.53125-0.30859 1.0703-0.59766 1.6172-0.87109 0.55078-0.27734 1.1055-0.53125 1.6719-0.76953 0.5625-0.24219 1.1328-0.46484 1.7109-0.66797 0.57813-0.20313 1.1641-0.39063 1.7539-0.55859 0.58984-0.16797 1.1836-0.31641 1.7812-0.44531 0.59766-0.13281 1.2031-0.24609 1.8086-0.33984s1.2148-0.16797 1.8242-0.22266c0.60938-0.05859 1.2227-0.09375 1.8359-0.11328 0.61328-0.01953 1.2227-0.01953 1.8359 0s1.2266 0.05859 1.8359 0.11719c0.60938 0.05469 1.2188 0.13281 1.8242 0.22656 0.60547 0.09766 1.207 0.21094 1.8086 0.34375 0.59765 0.12891 1.1914 0.28125 1.7812 0.44922 0.58984 0.16797 1.1719 0.35547 1.75 0.5625 0.57812 0.20312 1.1484 0.42578 1.7109 0.66797 0.56641 0.23828 1.1211 0.49609 1.668 0.77344 0.55078 0.27344 1.0898 0.56641 1.6172 0.875 0.53125 0.30469 1.0508 0.62891 1.5625 0.97266 0.50781 0.33984 1.0078 0.69531 1.4961 1.0664 0.48828 0.37109 0.96094 0.75781 1.4258 1.1562 0.46485 0.40234 0.91407 0.81641 1.3516 1.2461 0.4414 0.42578 0.86328 0.86719 1.2734 1.3242 0.41407 0.45312 0.8086 0.92188 1.1914 1.3984 0.38281 0.48047 0.75 0.97266 1.0977 1.4727 0.35156 0.50391 0.6875 1.0156 1.0078 1.5391 0.32031 0.52344 0.625 1.0547 0.91016 1.5938 0.28906 0.54297 0.55859 1.0938 0.80859 1.6523 0.25391 0.55859 0.48828 1.1211 0.70703 1.6953 0.21875 0.57422 0.41797 1.1523 0.59766 1.7383 0.18359 0.58203 0.34765 1.1719 0.49218 1.7695 0.14454 0.59375 0.26954 1.1953 0.37891 1.7969 0.10938 0.60156 0.19922 1.207 0.26953 1.8164 0.0703 0.60938 0.1211 1.2188 0.15235 1.832 0.0352 0.60937 0.0469 1.2227 0.043 1.8359-8e-3 0.61328-0.0312 1.2227-0.0742 1.8359-0.043 0.60938-0.10547 1.2188-0.1836 1.8281-0.082 0.60547-0.18359 1.2109-0.30078 1.8125-0.11719 0.60156-0.25391 1.1953-0.41016 1.7891s-0.32812 1.1797-0.51953 1.7617c-0.1914 0.58203-0.40234 1.1562-0.6289 1.7266-0.22657 0.57031-0.47266 1.1289-0.73438 1.6836s-0.54297 1.1016-0.83984 1.6367c-0.29297 0.53516-0.60547 1.0625-0.9336 1.582-0.33203 0.51562-0.67578 1.0234-1.0352 1.5195-0.35938 0.49609-0.73438 0.97656-1.125 1.4531-0.39063 0.47266-0.79297 0.92969-1.2109 1.3789-0.41797 0.44922-0.85156 0.88281-1.2969 1.3047-0.44532 0.41797-0.90235 0.82422-1.375 1.2188-0.46875 0.39062-0.95313 0.76953-1.4453 1.1328-0.49609 0.36328-1 0.71094-1.5156 1.043-0.51563 0.33203-1.0391 0.64453-1.5742 0.94531-0.53516 0.29688-1.082 0.58203-1.6328 0.84766z" fill="#fff"/>
  <path d="m121.57 81.52c-0.39844 0-0.76172-0.11328-1.0898-0.33984-0.33204-0.23047-0.5625-0.53125-0.69922-0.90625l-5.8008-15.223c-0.89454 0.07812-1.7852 0.11719-2.6524 0.11719-0.61719 0-1.2344-0.01953-1.8516-0.05859-0.61719-0.03516-1.2305-0.09375-1.8438-0.16797-0.61328-0.07422-1.2266-0.16797-1.832-0.28125-0.60938-0.11328-1.2109-0.24219-1.8125-0.39062-0.59766-0.14844-1.1914-0.31641-1.7812-0.5-0.58985-0.18359-1.1758-0.38672-1.75-0.60547-0.57813-0.21875-1.1484-0.45703-1.7109-0.71094-0.5625-0.25391-1.1172-0.52734-1.6641-0.81641-0.54688-0.28516-1.0859-0.58984-1.6133-0.91016-0.52734-0.32031-1.043-0.65625-1.5508-1.0117-0.50781-0.35156-1.0039-0.71875-1.4922-1.0977-0.48438-0.38281-0.95703-0.78125-1.418-1.1914-0.46094-0.41016-0.91016-0.83203-1.3438-1.2734-0.4375-0.4375-0.85938-0.88672-1.2656-1.3516-0.41016-0.46094-0.80469-0.9375-1.1836-1.4258-0.37891-0.48438-0.74219-0.98438-1.0938-1.4922-0.34766-0.51172-0.67969-1.0312-1-1.5586-0.31641-0.53125-0.61719-1.0703-0.90234-1.6172-0.28516-0.54688-0.55078-1.1016-0.80469-1.668-0.25-0.5625-0.48438-1.1328-0.69922-1.7109-0.21875-0.57812-0.41797-1.1641-0.59766-1.7539-0.17969-0.58984-0.34375-1.1836-0.48828-1.7852-0.14453-0.60156-0.27344-1.2031-0.37891-1.8125-0.10938-0.60547-0.19922-1.2188-0.26953-1.832-0.07422-0.61328-0.125-1.2266-0.16016-1.8438-0.03516-0.61719-0.04687-1.2344-0.04687-1.8516 0.0039-0.61719 0.02734-1.2305 0.06641-1.8477 0.04297-0.61719 0.10156-1.2305 0.17969-1.8438 0.07812-0.61328 0.17578-1.2227 0.28906-1.8281 0.11719-0.60547 0.25-1.207 0.40234-1.8086 0.15234-0.59766 0.32031-1.1914 0.50781-1.7773 0.1875-0.58984 0.39453-1.1719 0.61719-1.7461 0.22266-0.57422 0.46094-1.1445 0.71875-1.707 0.25781-0.55859 0.53125-1.1133 0.82422-1.6562 0.28906-0.54688 0.59766-1.082 0.92188-1.6055 0.32031-0.52734 0.66016-1.043 1.0156-1.5469 0.35547-0.50781 0.72656-1 1.1094-1.4844 0.38672-0.48047 0.78516-0.95312 1.1953-1.4102 0.41406-0.46094 0.84375-0.90625 1.2812-1.3398 0.44141-0.43359 0.89453-0.85156 1.3594-1.2578s0.94531-0.79688 1.4336-1.1719c0.48828-0.37891 0.98828-0.73828 1.5-1.0859 0.51172-0.34375 1.0352-0.67578 1.5664-0.99219 0.53125-0.3125 1.0703-0.61328 1.6211-0.89453s1.1094-0.54688 1.6719-0.79297c0.56641-0.25 1.1406-0.48047 1.7187-0.69531 0.58204-0.21094 1.1641-0.40625 1.7578-0.58594 0.58984-0.17578 1.1875-0.33594 1.7891-0.48047 0.60156-0.14062 1.207-0.26562 1.8164-0.37109 0.60546-0.10547 1.2188-0.19141 1.832-0.25781 0.61328-0.07031 1.2305-0.11719 1.8476-0.14844 0.61719-0.03125 1.2344-0.04297 1.8516-0.03906 0.61718 0.0078 1.2344 0.03125 1.8516 0.07813 0.61719 0.04297 1.2305 0.10547 1.8438 0.1875 0.61328 0.07813 1.2226 0.17969 1.8281 0.29688s1.207 0.25391 1.8047 0.41016c0.59766 0.15234 1.1914 0.32422 1.7812 0.51562 0.58594 0.19141 1.168 0.39844 1.7422 0.625 0.57422 0.22656 1.1445 0.46875 1.7031 0.72656 0.5625 0.26172 1.1133 0.53906 1.6562 0.83203s1.0781 0.60156 1.6016 0.92969c0.52734 0.32422 1.0391 0.66406 1.543 1.0234 0.50391 0.35547 1 0.72656 1.4805 1.1133 0.48047 0.38672 0.94922 0.78906 1.4062 1.2031 0.45703 0.41797 0.90235 0.84375 1.332 1.2891 0.4336 0.44141 0.85157 0.89453 1.2539 1.3633s0.79297 0.94531 1.168 1.4375c0.37109 0.49219 0.73047 0.99219 1.0781 1.5039 0.34375 0.51562 0.67188 1.0352 0.98438 1.5703 0.3125 0.53125 0.60547 1.0742 0.88672 1.625 0.27734 0.55078 0.54297 1.1094 0.78515 1.6758 0.2461 0.56641 0.47657 1.1367 0.6875 1.7188 0.21094 0.57812 0.40235 1.1641 0.57813 1.7578s0.33203 1.1875 0.47265 1.7891c0.13672 0.60156 0.25782 1.207 0.35938 1.8164s0.1875 1.2188 0.25391 1.8359c0.0625 0.61328 0.10937 1.2266 0.13671 1.8438 0.0273 0.61719 0.0391 1.2344 0.0273 1.8516-8e-3 0.61719-0.0352 1.2344-0.082 1.8477-0.0469 0.61719-0.11328 1.2305-0.19922 1.8398-0.082 0.61328-0.1875 1.2227-0.3086 1.8281-0.12109 0.60547-0.25781 1.207-0.41796 1.8008-0.15625 0.59766-0.33204 1.1914-0.52344 1.7773-0.19531 0.58594-0.40625 1.1641-0.63281 1.7383-0.23047 0.57422-0.47657 1.1406-0.73829 1.6992-0.26562 0.55859-0.54296 1.1094-0.83984 1.6484-0.29687 0.54297-0.60937 1.0742-0.9375 1.5977-0.32812 0.52344-0.67187 1.0352-1.0312 1.5352-0.35937 0.50391-0.73437 0.99219-1.125 1.4727-0.39062 0.48047-0.79297 0.94531-1.2109 1.4023-0.41797 0.45312-0.84765 0.89453-1.293 1.3242-0.44531 0.42969-0.90234 0.84375-1.3711 1.2422-0.47266 0.40234-0.95312 0.78906-1.4453 1.1602-0.49219 0.37109-1 0.72656-1.5117 1.0703-0.51562 0.33984-1.0391 0.66406-1.5742 0.97656-0.53515 0.30859-1.0781 0.60156-1.6328 0.87891l-1.5234 17.816c-0.0234 0.24219-0.0898 0.47266-0.19531 0.6875-0.10938 0.21875-0.25391 0.41016-0.43359 0.57422-0.17969 0.16016-0.38282 0.28906-0.60938 0.375-0.22656 0.08984-0.46094 0.13281-0.70703 0.13281zm-7.0234-18.227c0.17578 0 0.33594 0.05078 0.48047 0.14844 0.14453 0.10156 0.25 0.23438 0.3125 0.39844l6.0312 15.828c0.043 0.11719 0.12891 0.16406 0.25 0.14844 0.12109-0.01953 0.1875-0.08984 0.19922-0.21094l1.5664-18.297c0.0273-0.32031 0.1875-0.55078 0.47656-0.69141 0.52734-0.25391 1.0508-0.52344 1.5586-0.80859 0.51172-0.28516 1.0156-0.58594 1.5078-0.90234 0.4961-0.3125 0.97657-0.64453 1.4492-0.98828 0.47656-0.34766 0.9375-0.70703 1.3867-1.0781 0.45313-0.375 0.89063-0.76172 1.3203-1.1602 0.42969-0.39844 0.84375-0.8125 1.2461-1.2383 0.40234-0.42187 0.79297-0.85937 1.168-1.3086s0.73828-0.91016 1.0859-1.3789c0.34766-0.47266 0.6836-0.95312 1-1.4414 0.32032-0.49219 0.625-0.99219 0.91016-1.5039 0.28906-0.50781 0.5625-1.0273 0.82031-1.5508 0.25781-0.52734 0.4961-1.0586 0.72266-1.6016 0.22265-0.53906 0.43359-1.0859 0.62109-1.6406 0.19141-0.55078 0.36719-1.1094 0.52344-1.6758 0.16016-0.5625 0.29687-1.1289 0.42187-1.7031 0.1211-0.57031 0.22657-1.1484 0.31641-1.7266 0.0859-0.57812 0.15625-1.1602 0.20703-1.7422 0.0547-0.58203 0.0898-1.168 0.10547-1.7539 0.0156-0.58203 0.0156-1.168-4e-3 -1.7539-0.0195-0.58594-0.0547-1.168-0.10937-1.75-0.0547-0.58203-0.125-1.1641-0.21484-1.7422-0.0898-0.57812-0.19922-1.1523-0.32422-1.7266-0.1211-0.57031-0.26563-1.1406-0.42578-1.7031-0.15625-0.5625-0.33204-1.1211-0.52735-1.6719-0.1914-0.55469-0.40234-1.0977-0.6289-1.6406-0.22657-0.53906-0.46875-1.0703-0.72657-1.5977-0.25781-0.52344-0.53515-1.0391-0.82422-1.5469-0.28906-0.51172-0.59375-1.0078-0.91796-1.5-0.32032-0.48828-0.65235-0.96875-1.0039-1.4375-0.34766-0.46875-0.71484-0.92969-1.0898-1.375-0.37891-0.44922-0.76954-0.88281-1.1719-1.3086-0.40625-0.42187-0.82422-0.83203-1.25-1.2305-0.42969-0.39844-0.87109-0.78516-1.3242-1.1562-0.45312-0.37109-0.91797-0.73047-1.3906-1.0742-0.47266-0.34375-0.95703-0.67188-1.4531-0.98438-0.49218-0.3125-0.99609-0.61328-1.5117-0.89453-0.51171-0.28516-1.0312-0.55469-1.5586-0.80469-0.53125-0.25-1.0664-0.48828-1.6094-0.70703-0.54297-0.21875-1.0938-0.42188-1.6484-0.60547-0.55469-0.1875-1.1172-0.35547-1.6797-0.50781-0.56641-0.15234-1.1367-0.28516-1.7109-0.40234s-1.1523-0.21875-1.7305-0.30078c-0.58203-0.08203-1.1641-0.14453-1.7461-0.19141-0.58594-0.04688-1.168-0.07813-1.7539-0.08984-0.58593-0.01172-1.1719-0.0039-1.7578 0.01953-0.58594 0.02344-1.168 0.06641-1.75 0.125-0.58203 0.0625-1.1641 0.14062-1.7422 0.23438-0.57812 0.09375-1.1523 0.20703-1.7226 0.33594-0.57422 0.13281-1.1406 0.27734-1.7031 0.44141-0.55859 0.16406-1.1172 0.34766-1.668 0.54297-0.55078 0.19922-1.0976 0.41406-1.6328 0.64453-0.53906 0.23438-1.0703 0.48047-1.5938 0.74219-0.52344 0.26562-1.0352 0.54297-1.543 0.83984-0.50781 0.29297-1.0039 0.60156-1.4883 0.92969-0.48828 0.32422-0.96484 0.66406-1.4336 1.0156-0.46484 0.35547-0.92188 0.72266-1.3633 1.1055-0.44522 0.3789-0.87882 0.77344-1.2968 1.1836-0.42188 0.40625-0.82812 0.82812-1.2227 1.2578-0.39453 0.43359-0.77734 0.87891-1.1445 1.3359-0.36719 0.45312-0.72266 0.92188-1.0586 1.3984-0.33984 0.47656-0.66406 0.96484-0.97656 1.4609-0.30859 0.49609-0.60156 1-0.87891 1.5156-0.28125 0.51562-0.54297 1.0391-0.78906 1.5703-0.25 0.53125-0.48047 1.0664-0.69531 1.6133-0.21094 0.54297-0.41016 1.0938-0.58984 1.6523-0.18359 0.55469-0.34375 1.1172-0.49219 1.6836-0.14453 0.56641-0.27734 1.1367-0.38672 1.7109-0.11328 0.57422-0.20703 1.1523-0.28516 1.7344-0.07422 0.57812-0.13281 1.1602-0.17578 1.7461-0.04297 0.58203-0.06641 1.168-0.07031 1.7539-0.0078 0.58203 0.0078 1.168 0.03516 1.7539 0.03125 0.58203 0.07813 1.168 0.14453 1.75 0.0625 0.57812 0.14844 1.1602 0.24609 1.7344 0.10156 0.57812 0.21875 1.1523 0.35547 1.7188 0.13672 0.57031 0.28906 1.1367 0.45703 1.6953 0.17187 0.5625 0.35547 1.1172 0.55859 1.6641 0.20703 0.55078 0.42578 1.0898 0.66016 1.625 0.23828 0.53516 0.49219 1.0664 0.75781 1.5859 0.26953 0.51953 0.55469 1.0312 0.85547 1.5352 0.29688 0.5 0.61328 0.99609 0.94141 1.4766 0.33203 0.48438 0.67578 0.95703 1.0352 1.4219 0.35546 0.46094 0.73046 0.91406 1.1172 1.3555 0.38281 0.4375 0.78516 0.86719 1.1953 1.2812 0.41406 0.41797 0.83594 0.82031 1.2734 1.2109 0.4375 0.39062 0.88281 0.76562 1.3438 1.1289 0.46094 0.36328 0.92969 0.71484 1.4102 1.0469 0.48047 0.33594 0.97266 0.65625 1.4727 0.96094 0.5 0.30469 1.0078 0.59375 1.5273 0.86719 0.51562 0.27344 1.043 0.53125 1.5742 0.77344 0.53516 0.23828 1.0742 0.46484 1.6211 0.67578 0.54687 0.20703 1.1016 0.39844 1.6602 0.57422 0.5586 0.17578 1.1211 0.33594 1.6914 0.47656 0.56641 0.14062 1.1406 0.26562 1.7148 0.37109 0.57813 0.10547 1.1562 0.19531 1.7383 0.26562 0.58203 0.07031 1.1641 0.125 1.75 0.16016 0.58203 0.03516 1.168 0.05469 1.7539 0.05469 1.0469 0 2.0859-0.05859 3.125-0.16797 0.0312-0.0039 0.0625-0.0078 0.0937-0.0078z" fill="#090817"/>
 </g>
 <g fill="#080717">
  <path d="m97.551 24.09 3.4844-3.4844c0.16406-0.16016 0.35156-0.28906 0.5625-0.375 0.21484-0.08984 0.4375-0.13281 0.66797-0.13281s0.45312 0.04297 0.66797 0.13281c0.21093 0.08594 0.40234 0.21484 0.5625 0.375l21.602 21.586c0.16406 0.16406 0.28906 0.35156 0.37891 0.5625 0.0898 0.21484 0.13281 0.4375 0.13281 0.66797s-0.043 0.45312-0.13281 0.66406c-0.0898 0.21484-0.21485 0.40234-0.37891 0.56641l-3.4844 3.4805c-0.16406 0.16406-0.35156 0.28906-0.5625 0.37891-0.21484 0.08594-0.4375 0.13281-0.66796 0.13281-0.23047 0-0.45313-0.04688-0.66797-0.13281-0.21094-0.08984-0.40235-0.21484-0.5625-0.37891l-21.602-21.582c-0.16406-0.16406-0.28906-0.35156-0.37891-0.56641-0.08984-0.21094-0.13281-0.43359-0.13281-0.66406s0.04297-0.45312 0.13281-0.66797c0.08984-0.21094 0.21484-0.40234 0.37891-0.5625z"/>
  <path d="m121.61 20.605 3.4844 3.4844c0.16406 0.16016 0.28906 0.34766 0.37891 0.5625 0.0898 0.21484 0.13281 0.43359 0.13281 0.66797 0 0.23047-0.043 0.45312-0.13281 0.66406-0.0898 0.21484-0.21485 0.40234-0.37891 0.56641l-21.602 21.582c-0.16407 0.16406-0.35157 0.28906-0.5625 0.37891-0.21485 0.08594-0.4375 0.13281-0.66797 0.13281s-0.45313-0.04688-0.66797-0.13281c-0.21094-0.08984-0.40234-0.21484-0.5625-0.37891l-3.4883-3.4805c-0.16016-0.16406-0.28906-0.35156-0.375-0.56641-0.08984-0.21094-0.13281-0.43359-0.13281-0.66406s0.04297-0.45312 0.13281-0.66797c0.08594-0.21094 0.21484-0.40234 0.375-0.5625l21.602-21.586c0.16406-0.16406 0.35547-0.28906 0.56641-0.375 0.21484-0.08984 0.4375-0.13281 0.66797-0.13281 0.23046 0 0.45312 0.04297 0.66406 0.13281 0.21484 0.08594 0.40234 0.21094 0.5664 0.375z"/>
  <path d="m235.17 120.71s7.7344 19.578-8.7734 41.391c-16.512 21.809-19.332 35.969 0 41.961s45.402 0 45.402 0l12.895-33.469-13.977-61.723z"/>
 </g>
 <g>
  <path d="m270.72 162.34s-37.902-4.3828-58.766 24.738c-20.867 29.125-46.555 152.7-46.555 152.7h52.66z" fill="#135D66"/>
  <path d="m196.58 335.76c2.8906-26.574 7.1992-58.035 13.797-93.281 8.5586-45.727 13.277-56.707 23.988-65.781 7.1055-6.0195 16.066-10.535 25.789-13.52 0.98438-0.29688 1.8945-0.73438 2.7383-1.3203 0.83985-0.58984 1.5703-1.293 2.1836-2.1133 0.61328-0.82031 1.0859-1.7148 1.4141-2.6875 0.32422-0.97265 0.49219-1.9726 0.49609-2.9961v-24.805h34.801v22.098c0 0.57031 0.0508 1.1328 0.14844 1.6914 0.0937 0.5625 0.23828 1.1094 0.42578 1.6445 0.1875 0.53515 0.41797 1.0547 0.69141 1.5508 0.27344 0.49609 0.58594 0.96875 0.94141 1.4141 0.35156 0.44531 0.73828 0.85937 1.1602 1.2383 0.42188 0.37891 0.8711 0.72266 1.3516 1.0312 0.47657 0.30469 0.98047 0.56641 1.5 0.78906 0.52344 0.22266 1.0625 0.39844 1.6133 0.53125 9.4726 2.3242 17.785 6.3789 23.703 12.219 17.559 17.332 10.793 49.57 7.1992 70.098-2.9883 17.051-7.1562 21.973-9.6445 40.438-1.1367 8.6172-1.5508 17.27-1.2422 25.957 0.3125 8.6875 1.3398 17.289 3.0898 25.805z" fill="#fff"/>
  <path d="m332.73 336.61h-136.14c-0.12109 0-0.23437-0.0234-0.34375-0.0742-0.11328-0.0469-0.20703-0.11719-0.28906-0.20704-0.0781-0.0898-0.13672-0.19531-0.17578-0.30859-0.0352-0.11328-0.0469-0.23047-0.0352-0.35156 3.3828-31.07 8.0274-62.477 13.801-93.344 7.7539-41.422 12.117-55.965 24.277-66.273 6.8711-5.8203 15.891-10.555 26.09-13.684 0.89844-0.26563 1.7305-0.66407 2.5-1.1992 0.76563-0.53516 1.4297-1.1758 1.9922-1.9219 0.5625-0.75 0.99219-1.5664 1.2891-2.4531 0.29688-0.88672 0.44531-1.7969 0.44922-2.7305v-24.805c0-0.23437 0.0859-0.43359 0.25-0.60156 0.16797-0.16406 0.36719-0.24609 0.60156-0.24609h34.801c0.23438 0 0.4336 0.082 0.60157 0.24609 0.16406 0.16797 0.24609 0.36719 0.24609 0.60156v22.098c4e-3 0.52344 0.0469 1.0391 0.13672 1.5508 0.0859 0.51562 0.21875 1.0156 0.39062 1.5078 0.17188 0.49219 0.38282 0.96485 0.63672 1.4219 0.25 0.45703 0.53516 0.88672 0.85938 1.2969 0.32422 0.40625 0.67969 0.78516 1.0664 1.1367 0.38672 0.34766 0.80079 0.66016 1.2383 0.94141 0.4414 0.28125 0.90234 0.52343 1.3789 0.72656 0.48047 0.20312 0.97266 0.36328 1.4805 0.48437 10.012 2.457 18.344 6.7578 24.098 12.438 17.039 16.82 11.582 47.52 7.9726 67.832l-0.53515 3.0156c-1.1094 6.2109-2.6367 12.316-4.582 18.316-2.3711 7.207-4.0547 14.57-5.0547 22.09-1.1328 8.5703-1.543 17.176-1.2344 25.812 0.3086 8.6406 1.332 17.195 3.0703 25.664 0.0273 0.125 0.0234 0.25-8e-3 0.3711-0.0273 0.125-0.0859 0.23828-0.16406 0.33593-0.082 0.0977-0.17969 0.17579-0.29687 0.23047-0.11329 0.0547-0.23438 0.082-0.36329 0.082zm-135.2-1.6992h134.16c-3.3633-16.918-3.9141-33.926-1.6523-51.027 1.0117-7.6094 2.7148-15.066 5.1133-22.359 1.9258-5.9336 3.4336-11.973 4.5352-18.113l0.53515-3.0156c3.5469-19.965 8.9062-50.137-7.4922-66.328-5.5391-5.4648-13.598-9.6133-23.309-11.996-0.59766-0.14453-1.1797-0.33594-1.75-0.57812-0.56641-0.23828-1.1094-0.52344-1.625-0.85547-0.51953-0.33203-1.0078-0.70313-1.4648-1.1133-0.45703-0.41407-0.875-0.86328-1.2578-1.3438-0.38281-0.48438-0.72265-0.99219-1.0195-1.5312-0.29297-0.53907-0.54297-1.1016-0.74609-1.6797-0.20313-0.58203-0.35938-1.1758-0.46094-1.7812-0.10547-0.60547-0.15625-1.2188-0.16015-1.832v-21.25h-33.09v23.953c-4e-3 0.55469-0.0469 1.1094-0.13672 1.6562-0.0898 0.54688-0.22265 1.082-0.39843 1.6094-0.17579 0.52734-0.39454 1.0352-0.65235 1.5273-0.2539 0.49219-0.55078 0.95703-0.88281 1.4024-0.33203 0.44531-0.69922 0.85937-1.0977 1.2461-0.39843 0.38672-0.82812 0.73828-1.2812 1.0547-0.45703 0.3164-0.93359 0.59375-1.4336 0.83593-0.5 0.24219-1.0195 0.44141-1.5508 0.59766-9.9805 3.0625-18.793 7.6836-25.488 13.355-11.766 9.9727-16.035 24.324-23.703 65.289-5.7188 30.516-10.32 61.559-13.684 92.277z" fill="#090817"/>
  <path d="m336.57 85.398c-0.0156-1.0742-0.0625-2.1445-0.14062-3.2148-0.0781-1.0703-0.1836-2.1367-0.32422-3.1992-0.13672-1.0664-0.3086-2.125-0.50782-3.1797-0.19921-1.0508-0.42968-2.1016-0.6875-3.1406-0.26171-1.0391-0.55078-2.0742-0.87109-3.0977-0.32031-1.0234-0.66797-2.0391-1.0469-3.043-0.37891-1.0039-0.78516-1.9961-1.2227-2.9766-0.43359-0.98047-0.89844-1.9453-1.3906-2.8984-0.49218-0.95312-1.0078-1.8945-1.5547-2.8164-0.54688-0.92578-1.1172-1.832-1.7148-2.7227-0.59765-0.89062-1.2226-1.7656-1.8711-2.6172-0.64844-0.85547-1.3203-1.6914-2.0156-2.5078-0.69921-0.81641-1.418-1.6133-2.1602-2.3867-0.74219-0.77344-1.5078-1.5273-2.293-2.2578s-1.5938-1.4375-2.4219-2.1211c-0.82421-0.6875-1.6719-1.3438-2.5352-1.9805-0.86719-0.63672-1.75-1.2461-2.6484-1.832-0.89844-0.58203-1.8164-1.1406-2.75-1.6719-0.92969-0.53125-1.8789-1.0391-2.8398-1.5156-0.96094-0.47656-1.9375-0.92578-2.9219-1.3477-0.98828-0.41797-1.9883-0.8125-3-1.1758-1.0078-0.36328-2.0273-0.69531-3.0586-1-1.0274-0.30469-2.0664-0.58203-3.1094-0.82422-1.0469-0.24609-2.0976-0.46094-3.1562-0.64453-1.0586-0.18359-2.1211-0.33984-3.1875-0.46094-1.0664-0.125-2.1328-0.21484-3.207-0.27734-1.0703-0.0625-2.1445-0.09375-3.2188-0.08984-1.0703 0-2.1445 0.03125-3.2148 0.09375-1.0742 0.05859-2.1406 0.15234-3.207 0.27734-1.0664 0.125-2.1289 0.27734-3.1875 0.46484-1.0586 0.18359-2.1094 0.39844-3.1524 0.64453-1.0469 0.24609-2.082 0.51953-3.1133 0.82813-1.2226 0.10937-2.4414 0.27344-3.6523 0.48437-1.2109 0.21484-2.4102 0.48047-3.6016 0.79297-1.1875 0.3125-2.3594 0.67578-3.5195 1.0898-1.1562 0.41016-2.2969 0.87109-3.418 1.3789-1.1172 0.50781-2.2148 1.0625-3.2891 1.6602-1.0703 0.60156-2.1172 1.2422-3.1367 1.9297-1.0195 0.6875-2.0078 1.418-2.9688 2.1875-0.95703 0.76953-1.8828 1.5781-2.7734 2.4258-0.88672 0.84375-1.7422 1.7266-2.5586 2.6484-0.8164 0.91797-1.5938 1.8672-2.3281 2.8516-0.73828 0.98438-1.4336 1.9961-2.0859 3.0391-0.64844 1.0391-1.2578 2.1094-1.8203 3.1992-0.5625 1.0938-1.0781 2.207-1.5469 3.3438-0.46875 1.1367-0.88672 2.2891-1.2617 3.4609-0.37109 1.168-0.6914 2.3555-0.96484 3.5508-0.27344 1.1992-0.49609 2.4062-0.66797 3.6211-4.1719 29.504-3.1602 69.043 30.078 75.852 54.129 11.086 74.527-33.48 74.527-33.48v-8e-3c2.2734-4.1914 3.9805-8.6055 5.1211-13.238 1.1367-4.6289 1.668-9.332 1.5977-14.098z" fill="#fff"/>
  <path d="m271.93 148.82c-5.6524-0.0234-11.242-0.61328-16.777-1.7695-18.445-3.7773-38.754-20.168-30.75-76.801 0.17188-1.2383 0.39063-2.4688 0.66406-3.6914 0.27344-1.2227 0.59766-2.4297 0.97266-3.625 0.375-1.1953 0.80078-2.3711 1.2773-3.5273 0.47266-1.1602 0.9961-2.2969 1.5664-3.4102 0.56641-1.1172 1.1836-2.2031 1.8477-3.2656 0.66015-1.0664 1.3672-2.0977 2.1133-3.1016 0.75-1.0039 1.5391-1.9727 2.3711-2.9102 0.82813-0.9375 1.6992-1.8398 2.6055-2.7031 0.90625-0.86328 1.8477-1.6875 2.8242-2.4727 0.97656-0.78516 1.9805-1.5273 3.0195-2.2266s2.1055-1.3555 3.1992-1.9648 2.2109-1.1758 3.3516-1.6914c1.1445-0.51562 2.3047-0.98438 3.4844-1.4023 1.1797-0.41797 2.3789-0.78516 3.5898-1.1055 1.2109-0.31641 2.4336-0.58203 3.668-0.79688 1.2344-0.21484 2.4766-0.37891 3.7227-0.48828 1.332-0.39453 2.6797-0.73828 4.0391-1.0352 1.3594-0.29297 2.7266-0.53516 4.1016-0.73047s2.7578-0.33594 4.1445-0.42969 2.7774-0.13281 4.168-0.125c1.3906 0.01172 2.7773 0.07031 4.1641 0.18359 1.3828 0.10938 2.7617 0.27344 4.1367 0.48828 1.375 0.21094 2.7383 0.47656 4.0938 0.78906 1.3516 0.3125 2.6953 0.67578 4.0234 1.0859 1.3242 0.41406 2.6367 0.875 3.9297 1.3828s2.5664 1.0625 3.8203 1.6641c1.2539 0.60156 2.4805 1.25 3.6875 1.9414 1.2031 0.69141 2.3828 1.4297 3.5352 2.207 1.1484 0.77734 2.2695 1.5977 3.3594 2.4609 1.0938 0.85938 2.1484 1.7617 3.1758 2.6992 1.0234 0.9375 2.0117 1.9141 2.9648 2.9258 0.95312 1.0117 1.8672 2.0586 2.7422 3.1367s1.7109 2.1875 2.5039 3.3281 1.543 2.3086 2.2539 3.5039c0.70703 1.1953 1.3711 2.4141 1.9883 3.6562 0.61718 1.2461 1.1875 2.5117 1.7148 3.7969 0.52344 1.2852 1 2.5898 1.4297 3.9102 0.42969 1.3203 0.80859 2.6562 1.1406 4.0078 0.33203 1.3477 0.60938 2.707 0.84375 4.0781 0.23047 1.3672 0.41016 2.7461 0.53907 4.1289 0.1289 1.3828 0.20703 2.7695 0.23437 4.1563 0.0273 1.3906 4e-3 2.7773-0.0703 4.1641-0.0781 1.3867-0.20313 2.7695-0.37891 4.1484-0.17578 1.375-0.40234 2.7461-0.67969 4.1055-0.28125 1.3633-0.60546 2.7109-0.98437 4.0469-0.375 1.3398-0.80078 2.6602-1.2773 3.9648-0.47266 1.3047-0.99219 2.5938-1.5625 3.8594-0.57032 1.2695-1.1836 2.5117-1.8438 3.7344-2.0977 4.0898-4.5938 7.9219-7.4922 11.492-2.8945 3.5703-6.1289 6.8047-9.6992 9.7031-8.6406 7.0976-22.273 14.523-41.496 14.523zm8.8203-117.58c-0.26953 0-0.53906 0-0.8125 0.0078-5.0547 0.07422-10.008 0.82813-14.855 2.2695-0.0547 0.01172-0.10938 0.02344-0.16797 0.03125-1.1992 0.10156-2.3984 0.25781-3.5859 0.46094-1.1914 0.20703-2.3672 0.46094-3.5352 0.76562-1.168 0.30469-2.3203 0.65625-3.4609 1.0586-1.1367 0.40234-2.2578 0.85156-3.3555 1.3477-1.1016 0.49609-2.1797 1.0352-3.2344 1.625-1.0547 0.58594-2.082 1.2148-3.082 1.8867-1.0039 0.67578-1.9726 1.3906-2.9141 2.1445-0.9414 0.75391-1.8476 1.5469-2.7226 2.3789-0.875 0.83203-1.7109 1.6992-2.5117 2.6016s-1.5625 1.8359-2.2852 2.8008c-0.72266 0.96875-1.4023 1.9648-2.043 2.9883-0.63672 1.0234-1.2305 2.0703-1.7812 3.1445-0.54687 1.0742-1.0508 2.168-1.5078 3.2852-0.45703 1.1133-0.86719 2.25-1.2305 3.3984-0.35937 1.1523-0.67187 2.3164-0.9375 3.4922-0.26172 1.1758-0.47656 2.3633-0.64062 3.5586-7.8203 55.324 11.676 71.266 29.41 74.898 27.594 5.6523 46.117-3.6016 56.789-12.363 7.0117-5.7188 12.605-12.59 16.777-20.617 0.0117-0.0273 0.0234-0.0586 0.0391-0.0859 2.2344-4.1289 3.9141-8.4726 5.0312-13.035 1.1211-4.5586 1.6484-9.1875 1.582-13.883-0.0234-1.7812-0.13672-3.5586-0.33594-5.332-0.19921-1.7695-0.48437-3.5273-0.85156-5.2734-0.37109-1.7422-0.82422-3.4648-1.3633-5.1641s-1.1562-3.3711-1.8555-5.0117c-0.70312-1.6367-1.4805-3.2383-2.3359-4.8047-0.85546-1.5625-1.7852-3.082-2.7891-4.5547-1.0078-1.4727-2.0781-2.8945-3.2226-4.2656-1.1445-1.3672-2.3477-2.6797-3.6211-3.9297-1.2695-1.2539-2.5976-2.4414-3.9844-3.5625-1.3867-1.1211-2.8242-2.1758-4.3125-3.1602-1.4883-0.98047-3.0195-1.8906-4.5977-2.7227-1.5781-0.83594-3.1914-1.5898-4.8398-2.2656-1.6524-0.67578-3.332-1.2734-5.0391-1.7852-1.7109-0.51562-3.4375-0.94531-5.1914-1.2891-1.75-0.34375-3.5117-0.60547-5.2891-0.77734-1.7735-0.17581-3.5547-0.26175-5.3399-0.26175z" fill="#090817"/>
  <path d="m262.57 161.13s5.7305 8.6797 22.121 9.4688c16.395 0.78906 20.938-11.32 20.938-11.32s29.129 2.0156 39.332 22.059c3.9922 7.8438 3.5781 15.484 3.3242 18.996-1.6875 23.141-6.2812 73.164-13.535 139.18l-139.59 0.13672c3.7148-30.305 9.7578-79.547 10.664-86.957 4.9375-40.379 7.2891-59.887 23.172-74.988 11.066-10.516 24.277-14.703 33.578-16.574z" fill="#135D66"/>
  <path d="m191.34 171.91c-8.7812-8.0703-34.254-31.152-48.965-39.309-2.5312-1.4023-11.227-6.2266-14.102-3.5781-0.73047 0.67578-1.0781 1.5078-1.0547 2.5 0.125 1.5156 1.6758 2.4062 4.0976 3.9453 0 0 4.2266 2.5469 7.1602 4.8516 2.082 1.6367 3.9961 3.4492 5.7422 5.4336 0 0-7.6367 5.2656-8.4258 8.4219-0.25782 0.85547-0.33985 1.7266-0.25 2.6172 0.0937 0.89063 0.35156 1.7266 0.77734 2.5117 0 0-3.1602 3.0273-1.582 6.7109 0 0-2.8945 4.4726-1.0547 8.2891 1.8438 3.8164 5.332 4.0117 6.9141 3.4883 0 0 6.7812 8.75 14.152 7.4297l10.402 9.0781c4.3828-0.66797 8.4609-2.168 12.23-4.5 3.2773-2.1016 6.1133-4.6875 8.5078-7.7539 2.3906-3.0703 4.2109-6.4492 5.4492-10.137z" fill="#fff"/>
  <path d="m165.16 195.16c-0.21094 0-0.39844-0.0703-0.55859-0.21094l-10.102-8.8164c-6.7305 0.90235-12.695-5.5781-14.207-7.3711-2.168 0.43359-5.5352-0.28906-7.3633-4.0781-1.7226-3.5625 0.17969-7.5039 0.875-8.7344-1.1055-3.1289 0.63282-5.7305 1.4961-6.7695-0.70313-1.6953-0.8125-3.4297-0.32422-5.1992 0.71094-2.8477 5.8945-6.8438 7.9805-8.3555-1.5391-1.6797-3.2031-3.2227-4.9961-4.6289-2.8633-2.2422-7.0352-4.7695-7.0781-4.793l-0.42578-0.26953c-2.2774-1.4453-3.9258-2.4805-4.0781-4.332-0.0273-0.60547 0.0781-1.1836 0.3086-1.7422 0.23047-0.55859 0.57031-1.043 1.0156-1.4531 2.9805-2.7422 10.039 0.66016 15.09 3.4648 13.668 7.5742 36.648 27.953 49.129 39.422 0.26953 0.25 0.34766 0.55078 0.22656 0.90234-1.2695 3.7812-3.1289 7.2461-5.5859 10.391-2.4531 3.1445-5.3633 5.793-8.7266 7.9453-3.8633 2.3984-8.0469 3.9375-12.547 4.6172-0.043 8e-3 -0.0859 0.0117-0.12891 0.0117zm-10.402-10.777c0.21484 0 0.40234 0.0703 0.5625 0.21094l10.098 8.8164c4.1289-0.67969 7.9688-2.1172 11.523-4.3203 3.1172-1.9961 5.8281-4.4414 8.125-7.3398 2.3008-2.9023 4.0625-6.0977 5.293-9.5859-12.512-11.484-35.027-31.398-48.391-38.812-9.3008-5.1602-12.207-4.5273-13.113-3.6953-0.52343 0.48828-0.78125 1.0898-0.78125 1.8047 0.0781 0.96484 1.125 1.668 3.293 3.0352l0.41407 0.26172c2.4922 1.5117 4.9023 3.1445 7.2305 4.8984 2.1211 1.6719 4.0703 3.5195 5.8516 5.5469 0.082 0.0937 0.13672 0.19532 0.17578 0.3125 0.0352 0.11719 0.0469 0.23438 0.0312 0.35547-0.0156 0.1211-0.0547 0.23047-0.11719 0.33594-0.0625 0.10156-0.14453 0.19141-0.24219 0.25781-2.0508 1.4141-7.5039 5.5938-8.0859 7.9258-0.22657 0.74219-0.30469 1.5-0.23438 2.2695 0.0742 0.77343 0.28906 1.5039 0.64844 2.1914 0.10937 0.17188 0.15234 0.35938 0.1289 0.5625-0.0234 0.19922-0.10546 0.375-0.2539 0.51563-0.10938 0.10547-2.7109 2.6758-1.3867 5.7617 0.11719 0.27734 0.0977 0.54296-0.0664 0.79296-0.0273 0.043-2.6094 4.1289-1.0039 7.4609 1.7109 3.5391 4.8242 3.4024 5.8789 3.0469 0.17188-0.0547 0.34375-0.0586 0.51563-4e-3 0.17187 0.0508 0.3164 0.14844 0.42578 0.29297 0.0625 0.082 6.5586 8.3164 13.332 7.1133 0.0508-8e-3 0.10156-0.0117 0.14844-0.0117z" fill="#090817"/>
  <path d="m307.21 161.13c30.953 1.1172 41 11.82 44.715 17.723 20.801 33.008-30.203 116.07-76.316 114.62-1.1523-0.0351-2.1836-0.17187-3.125-0.27734-23.094-2.6641-38.797-18.062-50.594-30.242-22.336-23.238-43.402-47.578-63.195-73.016l29.723-21.691 90.66 66.141c9.3789-24.418 18.758-48.84 28.133-73.258z" fill="#135D66"/>
 </g>
 <g fill="#080717">
  <path d="m248.34 41.914s-7.375 17.102 6.582 25.785l33.973 8.6836s2.3672-14.473 6.3164-17.234c-1.5078 21.48 1.7539 28.215 5.6133 29.758 3.9414 1.5781 7.7188-2.582 11.824-0.1836 4.6289 2.7031 6 11.617 2.7695 17.348-0.51562 0.91797-2.5664 4.5586-5.9102 4.9844-3.1289 0.40235-4.7109-2.3438-7.0234-1.8438-3.5 0.75391-4.7031 8.1055-4.9883 9.9688-3.5977 23.656-6.375 41.863 4.5625 55.355 13.328 16.449 34.891 6.4648 42.801 22.352 9.2891 18.664-1.8594 45.332-1.8594 45.332s32-13.395 30.422-47.914c-1.5781-34.516-35.742-31.93-24.98-67.953 10.762-36.027-7.3867-124.12-90.742-97.594-0.79297-0.03125-18.816-0.45703-28.031 14.129-6.5 10.285-4.2344 21.105-3.7109 23.363z"/>
  <path d="m293.8 89.805c-0.23438 0-0.4375-0.0859-0.60156-0.2539-1.2031-1.25-2.5508-2.3203-4.0391-3.207-1.4922-0.88282-3.0742-1.5586-4.7461-2.0156-1.6758-0.46094-3.3789-0.6914-5.1133-0.6875-1.7344 0-3.4414 0.23047-5.1133 0.69141-0.22266 0.0781-0.4375 0.0664-0.65235-0.0352-0.21093-0.10156-0.35546-0.26562-0.43359-0.48828-0.0781-0.22266-0.0625-0.44141 0.0391-0.65234 0.10547-0.21094 0.26953-0.35547 0.49219-0.42969 0.90625-0.25391 1.8281-0.44531 2.7617-0.57422s1.8711-0.19531 2.8164-0.19922c0.9414-0.0039 1.8789 0.05859 2.8164 0.17969 0.9336 0.12109 1.8555 0.30859 2.7656 0.55469 0.91015 0.24609 1.7969 0.55078 2.668 0.91797 0.86718 0.36718 1.707 0.78906 2.5195 1.2656 0.8125 0.48047 1.5898 1.0117 2.3281 1.5938 0.74219 0.58203 1.4414 1.2109 2.0938 1.8867 0.26953 0.26953 0.32813 0.57812 0.1836 0.92578-0.14454 0.35156-0.40625 0.52344-0.78516 0.52344z"/>
  <path d="m284.99 97.598c-1.1992-0.13672-2.25-0.60937-3.1445-1.4141-0.37891-0.29297-0.77344-0.55469-1.1836-0.79687-0.49609-0.21875-1.0156-0.32422-1.5547-0.32422-0.54297 4e-3 -1.0625 0.11718-1.5547 0.33984-0.21094 0.10156-0.42969 0.11328-0.64844 0.0352-0.22265-0.0742-0.38672-0.21875-0.48828-0.42969s-0.11328-0.42969-0.0391-0.64844c0.0781-0.22265 0.22265-0.38672 0.43359-0.48828 0.74219-0.34375 1.5195-0.51172 2.3359-0.50781 0.81641 4e-3 1.5938 0.18359 2.332 0.53515 0.47656 0.27344 0.93359 0.57813 1.3711 0.91016 1.5469 1.1328 2.2305 1.4727 3.2539 0.54688 0.17188-0.16016 0.37891-0.23047 0.61328-0.21875 0.23438 0.0117 0.42969 0.10546 0.58594 0.27734 0.16016 0.17578 0.23047 0.37891 0.21875 0.61328-0.0117 0.23438-0.10547 0.42969-0.27734 0.58594-0.6211 0.6289-1.3711 0.95703-2.2539 0.98437z"/>
  <path d="m284.04 98.492c0 0.33985-0.0312 0.67969-0.0977 1.0117-0.0664 0.33594-0.16796 0.66016-0.29687 0.97266-0.12891 0.31641-0.28906 0.61328-0.48047 0.89844-0.1875 0.28125-0.40234 0.54297-0.64453 0.78515-0.24219 0.23828-0.50391 0.45313-0.78516 0.64453-0.28515 0.1875-0.58203 0.34766-0.89843 0.47657-0.3125 0.13281-0.63672 0.23047-0.97266 0.29687-0.33203 0.0664-0.67188 0.0977-1.0117 0.0977s-0.67969-0.0312-1.0117-0.0977c-0.33594-0.0664-0.66015-0.16406-0.97265-0.29687-0.31641-0.12891-0.61719-0.28907-0.89844-0.47657-0.28516-0.1914-0.54688-0.40625-0.78516-0.64453-0.24219-0.24218-0.45703-0.5039-0.64453-0.78515-0.19141-0.28516-0.35156-0.58203-0.48047-0.89844-0.13281-0.3125-0.23047-0.63672-0.29687-0.97266-0.0664-0.33203-0.0977-0.67187-0.0977-1.0117 0-0.33984 0.0312-0.67578 0.0977-1.0117 0.0664-0.33204 0.16406-0.65625 0.29687-0.97266 0.12891-0.3125 0.28906-0.61328 0.48047-0.89453 0.1875-0.28516 0.40234-0.54688 0.64453-0.78516 0.23828-0.24219 0.5-0.45703 0.78516-0.64453 0.28125-0.19141 0.58203-0.35156 0.89844-0.48047 0.3125-0.1289 0.63671-0.22656 0.97265-0.29297 0.33203-0.0664 0.67188-0.10156 1.0117-0.10156s0.67969 0.0352 1.0117 0.10156c0.33594 0.0664 0.66016 0.16407 0.97266 0.29297 0.3164 0.12891 0.61328 0.28906 0.89843 0.48047 0.28125 0.1875 0.54297 0.40234 0.78516 0.64453 0.24219 0.23828 0.45703 0.5 0.64453 0.78516 0.19141 0.28125 0.35156 0.58203 0.48047 0.89453 0.12891 0.31641 0.23047 0.64062 0.29687 0.97266 0.0664 0.33593 0.0977 0.67187 0.0977 1.0117z"/>
  <path d="m228.86 85.395c-0.17578 0-0.33594-0.0508-0.48047-0.15235-0.14453-0.0977-0.2461-0.23046-0.3125-0.39062-0.0625-0.16406-0.0742-0.33203-0.0312-0.50391 0.0391-0.16797 0.125-0.3125 0.2539-0.43359 0.625-0.56641 1.2891-1.0859 1.9922-1.5586 0.69922-0.47266 1.4336-0.88672 2.1953-1.25 0.76563-0.36328 1.5508-0.66797 2.3594-0.91797 0.80859-0.24609 1.6328-0.43359 2.4688-0.55859s1.6758-0.1875 2.5234-0.19141c0.84765 0 1.6875 0.05859 2.5234 0.18359 0.83594 0.12109 1.6602 0.30469 2.4688 0.54688 0.8125 0.24609 1.5977 0.54688 2.3633 0.90625 0.21484 0.10156 0.35937 0.26172 0.4414 0.48047 0.0781 0.22266 0.0664 0.4375-0.0312 0.65234-0.10156 0.21094-0.26172 0.35547-0.48047 0.4375-0.22265 0.07812-0.4375 0.07031-0.65234-0.03125-0.6875-0.32422-1.3984-0.59766-2.1289-0.81641s-1.4726-0.38672-2.2266-0.49609c-0.75391-0.10938-1.5117-0.16406-2.2734-0.16406-0.76172 0.0039-1.5195 0.05859-2.2734 0.17188-0.75391 0.11328-1.4961 0.28125-2.2227 0.50391-0.73047 0.22266-1.4375 0.5-2.1289 0.82422-0.6875 0.32812-1.3476 0.70312-1.9805 1.1289-0.63281 0.42578-1.2305 0.89453-1.793 1.4062-0.16407 0.14844-0.35547 0.22266-0.57422 0.22266z"/>
  <path d="m232.86 93.621c-0.5-0.0117-0.97265-0.13281-1.4141-0.36719-0.44141-0.23437-0.80859-0.55468-1.0977-0.96093-0.15234-0.17969-0.21484-0.38672-0.1914-0.6211 0.0234-0.23437 0.125-0.42578 0.30469-0.57422 0.17968-0.14843 0.38671-0.21093 0.62109-0.1914 0.23437 0.0234 0.42578 0.125 0.57422 0.30468 0.88281 1.0664 1.6055 0.82813 3.3008-0.0664 0.48047-0.26953 0.97656-0.50391 1.4883-0.70313 0.78125-0.24218 1.5742-0.30468 2.3828-0.1914 0.8086 0.11328 1.5547 0.39453 2.2383 0.83984 0.19532 0.13281 0.3125 0.3125 0.35938 0.54297 0.043 0.23047 0 0.44141-0.13281 0.63672-0.12891 0.19531-0.3125 0.3125-0.54297 0.35937-0.23047 0.043-0.44141 0-0.63672-0.13281-0.45703-0.28906-0.95313-0.47656-1.4883-0.55859-0.53516-0.082-1.0664-0.0508-1.5898 0.0937-0.4414 0.17968-0.87109 0.38281-1.2852 0.61328-0.88672 0.55859-1.8516 0.88672-2.8906 0.97656z"/>
  <path d="m243.57 95.367c0 0.33985-0.0352 0.67579-0.10156 1.0078-0.0664 0.33593-0.16407 0.66015-0.29297 0.97265-0.12891 0.31641-0.28907 0.61328-0.48047 0.89844-0.1875 0.28125-0.40235 0.54297-0.64453 0.78516-0.24219 0.24218-0.50391 0.45703-0.78516 0.64453-0.28516 0.1875-0.58203 0.34765-0.89844 0.48047-0.3164 0.1289-0.64062 0.22656-0.97265 0.29297-0.33594 0.0664-0.67188 0.10156-1.0117 0.10156-0.33985 0-0.67969-0.0352-1.0117-0.10156-0.33594-0.0664-0.66016-0.16407-0.97656-0.29297-0.3125-0.13282-0.61328-0.29297-0.89453-0.48047-0.28516-0.1875-0.54688-0.40235-0.78516-0.64453-0.24219-0.24219-0.45703-0.50391-0.64844-0.78516-0.1875-0.28516-0.34765-0.58203-0.47656-0.89844-0.13281-0.3125-0.23047-0.63672-0.29688-0.97265-0.0664-0.33203-0.0977-0.66797-0.0977-1.0078 0-0.34375 0.0312-0.67968 0.0977-1.0117 0.0664-0.33594 0.16407-0.66016 0.29688-0.97266 0.12891-0.31641 0.28906-0.61328 0.47656-0.89844 0.19141-0.28125 0.40625-0.54297 0.64844-0.78515 0.23828-0.24219 0.5-0.45704 0.78516-0.64454 0.28125-0.1875 0.58203-0.34765 0.89453-0.48046 0.3164-0.12891 0.64062-0.22657 0.97656-0.29297 0.33203-0.0664 0.67187-0.10157 1.0117-0.10157 0.33984 0 0.67578 0.0352 1.0117 0.10157 0.33203 0.0664 0.65625 0.16406 0.97265 0.29297 0.31641 0.13281 0.61328 0.29296 0.89844 0.48046 0.28125 0.1875 0.54297 0.40235 0.78516 0.64454 0.24218 0.24218 0.45703 0.5039 0.64453 0.78515 0.1914 0.28516 0.35156 0.58203 0.48047 0.89844 0.1289 0.3125 0.22656 0.63672 0.29297 0.97266 0.0664 0.33203 0.10156 0.66796 0.10156 1.0117z"/>
  <path d="m259.94 110.14c-1.9648 0-6.3203-0.22656-7.4336-2.1602-1.207-2.0976 2.6328-10.758 4.3438-14.383 0.10547-0.20313 0.26562-0.33984 0.48437-0.41406 0.21485-0.0742 0.42969-0.0625 0.63672 0.0352s0.34766 0.25391 0.42969 0.46875c0.082 0.21094 0.0781 0.42578-0.0117 0.63282-2.5156 5.3398-4.8828 11.766-4.4062 12.82 0.58594 1.0117 4.3242 1.3594 6.668 1.2891 0.23437-0.0117 0.44141 0.0625 0.61328 0.22266 0.17188 0.16406 0.26172 0.35937 0.26563 0.59765 8e-3 0.23438-0.0664 0.4375-0.22657 0.60938-0.16015 0.16797-0.35937 0.25781-0.59375 0.26562-0.16406 8e-3 -0.42968 0.0156-0.76953 0.0156z"/>
 </g>
 <g>
  <path d="m286.57 107.55c0.46875 4e-3 0.9336 0.0391 1.3945 0.10156 0.46093 0.0664 0.91015 0.16016 1.3438 0.28125 0.43359 0.1211 0.84375 0.26954 1.2344 0.44141 0.39063 0.17578 0.75 0.37109 1.082 0.59375 0.33203 0.21875 0.625 0.45703 0.88281 0.71484 0.26172 0.25782 0.48047 0.53125 0.65625 0.81641 0.17579 0.28516 0.3125 0.57812 0.39844 0.87891 0.0899 0.30078 0.13281 0.60546 0.12891 0.91406 0 0.30469-0.0508 0.60937-0.14453 0.91015-0.0937 0.30079-0.23438 0.58985-0.41407 0.875-0.18359 0.28125-0.40625 0.54688-0.67187 0.80079-0.26172 0.2539-0.5625 0.48437-0.89844 0.69921-0.33203 0.21485-0.69922 0.40625-1.0898 0.57032-0.39453 0.16797-0.8086 0.30859-1.2422 0.42187-0.4375 0.11328-0.88672 0.19922-1.3477 0.25391-0.46093 0.0547-0.92968 0.082-1.3984 0.0781-0.47266-4e-3 -0.9375-0.0391-1.3984-0.10156-0.46094-0.0664-0.91016-0.16016-1.3438-0.28125s-0.84375-0.26953-1.2344-0.44141c-0.39062-0.17578-0.75-0.37109-1.082-0.59375-0.32812-0.21875-0.625-0.45703-0.88281-0.71484s-0.47656-0.52734-0.65625-0.8125c-0.17578-0.28906-0.30859-0.58203-0.39844-0.88281-0.0898-0.30078-0.13281-0.60547-0.1289-0.91406 4e-3 -0.30469 0.0508-0.60938 0.14453-0.91016 0.0937-0.30078 0.23437-0.58984 0.41797-0.875 0.17968-0.28125 0.40625-0.54687 0.66797-0.80078 0.26562-0.25391 0.5625-0.48438 0.89843-0.69922 0.33594-0.21484 0.69922-0.40625 1.0898-0.57031 0.39453-0.16797 0.80859-0.3086 1.2461-0.42188 0.43359-0.11328 0.88281-0.19922 1.3438-0.2539 0.46484-0.0547 0.92969-0.082 1.4023-0.0781z" fill="#135D66"/>
  <path d="m234.07 105.77c0.46875 4e-3 0.9375 0.0391 1.3984 0.10156 0.46093 0.0664 0.90625 0.15625 1.3398 0.27735 0.43359 0.125 0.84766 0.26953 1.2383 0.44531 0.38672 0.17578 0.75 0.37109 1.0781 0.58984 0.33203 0.22266 0.625 0.46094 0.88671 0.71875 0.25782 0.25782 0.47657 0.52735 0.65235 0.8125 0.17969 0.28516 0.3125 0.57813 0.40234 0.88282 0.0898 0.30078 0.13281 0.60547 0.12891 0.91406-4e-3 0.30469-0.0508 0.60937-0.14844 0.91015-0.0937 0.30079-0.23047 0.58985-0.41406 0.8711-0.1836 0.28515-0.40625 0.55078-0.66797 0.80469-0.26563 0.25-0.56641 0.48437-0.89844 0.69921-0.33594 0.21485-0.69922 0.40625-1.0938 0.57032-0.39062 0.16797-0.80469 0.30859-1.2422 0.42187s-0.88281 0.19922-1.3476 0.25391c-0.46094 0.0547-0.92578 0.082-1.3984 0.0781-0.46875-4e-3 -0.9375-0.0391-1.3984-0.10547-0.46093-0.0625-0.90625-0.15625-1.3398-0.27734s-0.84766-0.26953-1.2344-0.44141c-0.39062-0.17578-0.75-0.37109-1.082-0.59375-0.33203-0.21875-0.625-0.45703-0.88672-0.71484-0.25781-0.25781-0.47656-0.53125-0.65234-0.81641-0.17969-0.28515-0.3125-0.57812-0.40234-0.8789-0.0859-0.30078-0.13282-0.60547-0.12891-0.91406 4e-3 -0.3086 0.0508-0.60938 0.14844-0.91016 0.0937-0.30078 0.23047-0.59375 0.41406-0.875s0.40625-0.54687 0.67188-0.80078c0.26171-0.25391 0.5625-0.48828 0.89453-0.69922 0.33593-0.21484 0.69922-0.40625 1.0938-0.57422 0.39062-0.16406 0.80468-0.30469 1.2422-0.41797s0.88672-0.19922 1.3477-0.2539c0.46094-0.0586 0.92969-0.082 1.3984-0.0781z" fill="#135D66"/>
  <path d="m261.34 130.1c-0.0664 0-0.1289-8e-3 -0.1914-0.0195-0.23047-0.0547-0.40625-0.17969-0.53125-0.37891s-0.16016-0.41406-0.10938-0.64062c0.0547-0.23438 1.3438-5.707 5.0664-7.8633 0.8164-0.46875 1.6992-0.75 2.6406-0.83593 0.9375-0.0898 1.8555 0.0195 2.75 0.32812 0.23047 0.0625 0.40235 0.19922 0.51953 0.40625 0.11328 0.21094 0.13672 0.42969 0.0664 0.66016-0.0703 0.22656-0.21094 0.39844-0.42188 0.50781-0.21484 0.10938-0.43359 0.125-0.66015 0.0469-0.66797-0.23438-1.3516-0.32422-2.0586-0.26172-0.70312 0.0586-1.3633 0.26562-1.9805 0.61718-3.082 1.7812-4.25 6.7227-4.2617 6.7734-0.043 0.19141-0.14453 0.35156-0.30078 0.47266-0.15235 0.125-0.32813 0.1875-0.52735 0.1875z" fill="#080717"/>
 </g>
 <g fill="#fff">
  <path d="m284.7 266.41c-0.13671 4e-3 -0.26953-0.0274-0.39062-0.0937-0.12109-0.0625-0.22266-0.14844-0.30078-0.25782-0.082-0.11328-0.13281-0.23828-0.15235-0.37109-0.0195-0.13672-8e-3 -0.26953 0.0391-0.39844 4.2578-12.48-8.1016-24.516-8.2266-24.637l-62.938-53.613c-0.17578-0.15234-0.27343-0.34765-0.29296-0.57812-0.0156-0.23438 0.0508-0.44141 0.20312-0.61719 0.15234-0.17969 0.34375-0.27734 0.57813-0.29688 0.23437-0.0195 0.4414 0.0469 0.61718 0.19922l62.973 53.648c2.3984 2.4102 4.4297 5.0977 6.0938 8.0586 3.6211 6.4141 4.5195 12.77 2.6016 18.383-0.0586 0.17578-0.16015 0.3125-0.30859 0.41797-0.14844 0.10546-0.31641 0.16015-0.4961 0.15625z"/>
  <path d="m276.25 240.89c-0.36328 0-0.61719-0.16406-0.76953-0.49218-0.15235-0.32422-0.11328-0.625 0.11718-0.90235l36.602-43.676c0.14843-0.1875 0.34375-0.29687 0.58203-0.32031 0.23828-0.0273 0.44922 0.0391 0.63281 0.19141 0.18359 0.15625 0.28516 0.35156 0.30078 0.58984 0.0195 0.24219-0.0508 0.44922-0.21094 0.62891l-36.602 43.676c-0.17187 0.20312-0.39062 0.30468-0.65234 0.30468z"/>
  <path d="m275.55 298.53c-1.3008 4e-3 -2.5938-0.0977-3.8789-0.29688-26.578-4.2109-75.102-61.297-77.156-63.727-0.14453-0.17578-0.20703-0.38281-0.18359-0.61328 0.0195-0.23047 0.12109-0.41797 0.29687-0.57032 0.17578-0.14843 0.37891-0.21484 0.60938-0.19531 0.23047 0.0156 0.42187 0.10938 0.57812 0.28516 0.125 0.14844 12.676 14.957 28.309 30.086 20.594 19.93 37.129 31.363 47.816 33.055 13.406 2.1172 30.059-8.6445 41.664-18.055 7.9883-6.5391 15.434-13.645 22.336-21.32 0.15235-0.1875 0.34766-0.28906 0.58985-0.30859 0.23828-0.0234 0.44921 0.0469 0.6289 0.20312 0.1836 0.16016 0.27735 0.35938 0.29297 0.59766 0.0117 0.23828-0.0625 0.44922-0.22656 0.625-1.5 1.7188-35.363 40.234-61.676 40.234z"/>
 </g>
 <g transform="translate(-.039062 -17.129)" clip-path="url(#6ce5d06b05)">
  <path d="m195.2 357.63c-0.125 0-0.24609-0.0274-0.35546-0.0781-0.11329-0.0508-0.21094-0.125-0.29297-0.21875-0.0781-0.0937-0.13672-0.20312-0.17188-0.32031-0.0352-0.1211-0.043-0.24219-0.0234-0.36328l13.664-88.707c0.0391-0.22657 0.15234-0.41016 0.33984-0.54297 0.1875-0.13672 0.39453-0.1875 0.625-0.15235 0.23047 0.0352 0.41406 0.14453 0.55078 0.32813 0.14063 0.1875 0.19531 0.39453 0.16406 0.62109l-13.66 88.715c-0.0312 0.20703-0.12891 0.3789-0.28516 0.51562-0.16015 0.13281-0.34765 0.20313-0.55469 0.20313z" fill="#fff"/>
 </g>
 <g fill="#fff">
  <path d="m228.86 56.051c-0.13672 0-0.26953-0.03125-0.39063-0.09766-0.125-0.0625-0.22656-0.15234-0.30469-0.26562-0.0781-0.11328-0.1289-0.23828-0.14843-0.37891-0.0156-0.13672 0-0.26953 0.0469-0.40234 1.1484-2.875 2.6211-5.5703 4.4219-8.0898 3.957-5.5898 8.8398-9.2539 14.133-10.594 0.22656-0.05859 0.44141-0.02734 0.64453 0.09375 0.19922 0.12109 0.33203 0.29297 0.38672 0.51953 0.0586 0.23047 0.0273 0.44531-0.0937 0.64453-0.11719 0.20312-0.29297 0.33203-0.51953 0.39062-11.855 3.0039-17.32 17.477-17.375 17.625-0.0625 0.16406-0.16797 0.30078-0.3125 0.40234-0.14453 0.10156-0.3086 0.15234-0.48828 0.15234z"/>
  <path d="m270.72 68.879c-0.11328 0-0.22656-0.02344-0.33203-0.07031-14.246-6.1016-12.184-25.156-12.156-25.348 0.0234-0.23828 0.125-0.42969 0.3125-0.58203 0.18359-0.14844 0.39453-0.20703 0.63281-0.17969 0.23438 0.02734 0.42578 0.13281 0.57032 0.32422 0.14843 0.1875 0.20312 0.39844 0.17187 0.63281-0.0195 0.17969-1.9336 17.992 11.137 23.59 0.18359 0.08203 0.32422 0.21094 0.41797 0.38672 0.0937 0.17969 0.12109 0.36719 0.0781 0.56641-0.0391 0.19531-0.13672 0.35938-0.29297 0.48828-0.15625 0.125-0.33593 0.19141-0.53906 0.19141z"/>
  <path d="m283.86 68.879c-0.0937-0.0039-0.1836-0.01562-0.27344-0.04687-4.9609-1.6992-8.9102-5.8203-11.414-11.93-1.1484-2.8047-1.9141-5.7109-2.2969-8.7227-0.0234-0.23047 0.0391-0.4375 0.1875-0.62109 0.15235-0.17969 0.33985-0.28516 0.57422-0.30859 0.23438-0.02344 0.44141 0.03906 0.625 0.1875 0.17969 0.14844 0.28516 0.33984 0.30859 0.57422 0.0156 0.15234 1.6758 15.488 12.566 19.211 0.19531 0.06641 0.34766 0.19141 0.45313 0.36719 0.10937 0.17969 0.14453 0.37109 0.10937 0.57422-0.0312 0.20703-0.12891 0.375-0.28906 0.50781-0.15625 0.13672-0.33985 0.20312-0.54688 0.20312z"/>
  <path d="m323.65 176.03c-0.0977 0-0.19532-0.0195-0.28516-0.0508-26.844-9.6094-18.41-54.496-18.324-54.949 0.0469-0.23047 0.16406-0.41016 0.35938-0.53907 0.19531-0.13281 0.40625-0.17578 0.63671-0.1289 0.23047 0.043 0.41016 0.16406 0.54297 0.35547 0.13282 0.19531 0.17578 0.40625 0.12891 0.63671-0.0859 0.44141-8.2461 43.91 17.227 53.023 0.19531 0.0703 0.34375 0.19531 0.44922 0.375 0.10547 0.17578 0.14063 0.36719 0.10547 0.57031-0.0352 0.20313-0.13281 0.375-0.29297 0.50782-0.15625 0.13281-0.33984 0.19922-0.54687 0.19922z"/>
  <path d="m356.71 214c-0.13672 0-0.26562-0.0312-0.39062-0.0937-0.1211-0.0625-0.22266-0.15234-0.30078-0.26562-0.082-0.10938-0.12891-0.23438-0.14844-0.3711-0.0195-0.13672-8e-3 -0.26953 0.0391-0.40234 0.0899-0.25391 8.7148-25.605-11.465-36.949-21.133-11.883-26.695-33.16-26.75-33.371-0.0547-0.22657-0.0234-0.44141 0.0976-0.64063 0.1211-0.20312 0.29297-0.33203 0.51954-0.39062 0.22656-0.0547 0.4414-0.0234 0.64453 0.0937 0.19922 0.12109 0.33203 0.29687 0.38672 0.52343 0.0547 0.20313 5.457 20.793 25.93 32.305 21.434 12.051 12.328 38.73 12.238 38.996-0.0586 0.17187-0.16406 0.30468-0.30859 0.41015-0.14844 0.10547-0.3125 0.15625-0.49219 0.15625z"/>
  <path d="m235.57 162.95c-0.1875 0-0.35546-0.0547-0.5039-0.16406-0.15235-0.10938-0.25391-0.25391-0.3086-0.42969-0.0547-0.17969-0.0547-0.35547 8e-3 -0.53125 0.0586-0.17578 0.16406-0.31641 0.32031-0.42187 6.625-4.5859 5.832-17.48 5.8242-17.609-0.0156-0.23437 0.0508-0.44141 0.20703-0.61719 0.15234-0.17578 0.34766-0.27343 0.58203-0.28906 0.23438-0.0195 0.44141 0.0469 0.62109 0.20313 0.17969 0.15625 0.27344 0.35156 0.28516 0.58593 0.0391 0.57032 0.86719 13.988-6.5508 19.121-0.14844 0.10156-0.30859 0.15234-0.48438 0.15234z"/>
 </g>
 <g fill="#080717">
  <path d="m141.25 148.86c-0.17578 0-0.33594-0.0508-0.48047-0.15234-0.14453-0.0977-0.25-0.23047-0.3125-0.39453-0.0625-0.16797-0.0742-0.33594-0.0312-0.50391 0.043-0.17187 0.12891-0.3164 0.26172-0.43359 0.21484-0.19141 5.3047-4.6094 11.73-2.293 0.22656 0.0742 0.39453 0.21875 0.49609 0.43359 0.10547 0.21485 0.11719 0.4336 0.0352 0.66016-0.082 0.22266-0.23047 0.38281-0.44532 0.48438-0.21875 0.0977-0.4375 0.10546-0.66015 0.0195-5.4844-1.9805-9.9805 1.9258-10.023 1.9648-0.16406 0.14453-0.35156 0.21484-0.57031 0.21484z"/>
  <path d="m136.32 160.16c-0.18359 0-0.34766-0.0508-0.49609-0.16015-0.14844-0.10547-0.25391-0.2461-0.3086-0.41797-0.0586-0.17578-0.0625-0.34766-8e-3 -0.52344 0.0547-0.17188 0.15625-0.31641 0.30469-0.42578 0.51953-0.38672 5.1602-3.7969 7.6445-4.3125 2.5508-0.52735 7.3203 0.85156 7.5195 0.90625 0.23047 0.0625 0.40234 0.19531 0.51953 0.40234 0.11328 0.20703 0.14063 0.42578 0.0742 0.65235-0.0664 0.23046-0.20703 0.39843-0.41406 0.51171-0.21094 0.11329-0.42969 0.13282-0.65625 0.0625-1.2617-0.36718-4.9297-1.2383-6.6953-0.87109-1.793 0.37109-5.6484 3.0234-6.9805 4.0117-0.14844 0.10937-0.31641 0.16797-0.50391 0.16406z"/>
  <path d="m134.74 166.87c-0.20703 0-0.39063-0.0664-0.55078-0.20313-0.15625-0.13671-0.25391-0.30468-0.28906-0.51171-0.0312-0.20704 8e-3 -0.39844 0.11328-0.57422 0.10937-0.17969 0.26172-0.30078 0.46093-0.36719 0.22657-0.0742 5.6367-1.8555 8.3672-1.5352 1.9766 0.29688 3.8945 0.81641 5.75 1.5547 0.21485 0.0898 0.36719 0.24219 0.45703 0.45703 0.0859 0.21485 0.0859 0.42969 0 0.64453-0.0859 0.21485-0.23828 0.3711-0.44922 0.46094-0.21484 0.0937-0.42968 0.0977-0.64453 0.0117-1.7148-0.67969-3.4844-1.1602-5.3086-1.4453-1.9492-0.22657-6.1758 0.98047-7.6406 1.4609-0.0859 0.0312-0.17578 0.0469-0.26562 0.0469z"/>
  <path d="m140.6 178.64c-0.3789 0-0.64062-0.17578-0.78125-0.52735-0.14453-0.34765-0.082-0.65625 0.1875-0.92187l0.96875-0.96485c0.19141-0.1914 0.33985-0.41015 0.44922-0.65625 0.10547-0.24609 0.16797-0.5039 0.17578-0.77343 0.0117-0.26953-0.0234-0.53125-0.10937-0.78516-0.0898-0.25391-0.21875-0.48437-0.39063-0.69141l-1.1445-1.3438c-0.15234-0.17968-0.21875-0.38671-0.19922-0.62109 0.0195-0.23437 0.1211-0.42578 0.29688-0.57812 0.17969-0.15235 0.38672-0.21875 0.62109-0.19922 0.23438 0.0195 0.42578 0.12109 0.57813 0.30078l1.1445 1.3438c0.30859 0.37109 0.54297 0.78125 0.69922 1.2383s0.22265 0.92578 0.20312 1.4102c-0.0234 0.48046-0.1289 0.9414-0.32422 1.3828-0.1914 0.4414-0.46093 0.83594-0.80078 1.1758l-0.96875 0.96484c-0.16797 0.16797-0.37109 0.25-0.60547 0.2461z"/>
  <path d="m306.43 107.05c-0.1875 0-0.35937-0.0586-0.50781-0.17187-0.15234-0.11328-0.25391-0.26172-0.30859-0.44141-0.0508-0.17969-0.0469-0.35937 0.0195-0.53906 0.0664-0.17578 0.17969-0.3125 0.33984-0.41406 0.44922-0.28516 0.84375-0.62891 1.1836-1.0352 0.33984-0.40625 0.60937-0.85547 0.80859-1.3438 0.19922-0.49219 0.31641-1.0039 0.35156-1.5312 0.0352-0.52734-8e-3 -1.0508-0.13672-1.5625-0.1289-0.51563-0.33593-0.99609-0.61718-1.4453s-0.625-0.84375-1.0312-1.1875c-0.40625-0.33985-0.85547-0.60938-1.3438-0.8086-0.49219-0.19922-1.0039-0.3164-1.5312-0.35156-0.21875-0.0195-0.40235-0.10547-0.55469-0.26172-0.14844-0.16015-0.22656-0.34765-0.23438-0.5625-4e-3 -0.21875 0.0625-0.41015 0.20703-0.57812 0.14063-0.16407 0.32032-0.26172 0.53516-0.28907l9.3633-1.2305c0.23438-0.0312 0.44531 0.0234 0.63281 0.16406 0.1875 0.14453 0.29688 0.33203 0.32813 0.5664 0.0312 0.23438-0.0273 0.44532-0.17188 0.63282-0.14453 0.1875-0.33593 0.29297-0.57031 0.32031l-5.9961 0.78906c0.22656 0.16016 0.4414 0.33203 0.64453 0.51563 0.20312 0.18359 0.39453 0.38281 0.57422 0.58984s0.34375 0.42578 0.49609 0.65625c0.15235 0.22656 0.28906 0.46484 0.41406 0.71094 0.1211 0.24609 0.23047 0.5 0.32032 0.75781 0.0937 0.25781 0.16797 0.52344 0.23047 0.78906 0.0586 0.26953 0.10156 0.53907 0.125 0.8125 0.0273 0.27344 0.0351 0.55078 0.0312 0.82422-8e-3 0.27344-0.0352 0.54688-0.0742 0.82031-0.043 0.26954-0.10157 0.53907-0.17578 0.80469-0.0742 0.26172-0.16407 0.52344-0.26954 0.77735-0.10546 0.2539-0.22656 0.5-0.36328 0.73828s-0.28906 0.46484-0.45312 0.6875c-0.16406 0.21875-0.34375 0.42968-0.53125 0.625-0.19141 0.19922-0.39453 0.38672-0.60938 0.55859-0.21093 0.17188-0.43359 0.33203-0.66797 0.47656-0.14062 0.0898-0.28906 0.13672-0.45703 0.13672z"/>
 </g>
</svg>
