<svg xmlns="http://www.w3.org/2000/svg" xmlns:xlink="http://www.w3.org/1999/xlink" width="500" zoomAndPan="magnify" viewBox="0 0 375 374.999991" height="500" preserveAspectRatio="xMidYMid meet" version="1.0"><path fill="#e80346" d="M 187.5 375 C 185.582031 375 183.667969 374.90625 181.757812 374.71875 C 179.847656 374.53125 177.949219 374.25 176.070312 373.875 C 174.1875 373.5 172.328125 373.035156 170.492188 372.476562 C 168.65625 371.917969 166.851562 371.273438 165.078125 370.539062 C 163.304688 369.804688 161.570312 368.984375 159.878906 368.082031 C 158.1875 367.175781 156.542969 366.191406 154.945312 365.125 C 153.351562 364.058594 151.8125 362.917969 150.328125 361.699219 C 148.84375 360.480469 147.425781 359.195312 146.066406 357.839844 C 144.710938 356.480469 143.425781 355.0625 142.207031 353.578125 C 140.988281 352.09375 139.847656 350.554688 138.78125 348.960938 C 137.714844 347.363281 136.730469 345.71875 135.824219 344.027344 C 134.921875 342.335938 134.101562 340.601562 133.367188 338.828125 C 132.632812 337.054688 131.988281 335.25 131.429688 333.414062 C 130.871094 331.578125 130.40625 329.71875 130.03125 327.835938 C 129.65625 325.957031 129.375 324.058594 129.1875 322.148438 C 129 320.238281 128.90625 318.324219 128.90625 316.40625 C 128.90625 315.636719 128.980469 314.875 129.132812 314.121094 C 129.28125 313.367188 129.503906 312.632812 129.796875 311.921875 C 130.09375 311.210938 130.453125 310.535156 130.882812 309.894531 C 131.308594 309.253906 131.792969 308.664062 132.339844 308.121094 C 132.882812 307.574219 133.472656 307.089844 134.113281 306.664062 C 134.753906 306.234375 135.429688 305.875 136.140625 305.578125 C 136.851562 305.285156 137.585938 305.0625 138.339844 304.914062 C 139.09375 304.761719 139.855469 304.6875 140.625 304.6875 C 141.394531 304.6875 142.15625 304.761719 142.910156 304.914062 C 143.664062 305.0625 144.398438 305.285156 145.109375 305.578125 C 145.820312 305.875 146.496094 306.234375 147.136719 306.664062 C 147.773438 307.089844 148.367188 307.574219 148.910156 308.121094 C 149.457031 308.664062 149.941406 309.253906 150.367188 309.894531 C 150.796875 310.535156 151.15625 311.210938 151.453125 311.921875 C 151.746094 312.632812 151.96875 313.367188 152.117188 314.121094 C 152.269531 314.875 152.34375 315.636719 152.34375 316.40625 C 152.34375 317.558594 152.398438 318.707031 152.511719 319.851562 C 152.625 320.996094 152.792969 322.136719 153.019531 323.265625 C 153.242188 324.394531 153.523438 325.507812 153.859375 326.613281 C 154.191406 327.714844 154.578125 328.796875 155.019531 329.859375 C 155.460938 330.921875 155.953125 331.964844 156.496094 332.980469 C 157.039062 333.996094 157.628906 334.980469 158.269531 335.9375 C 158.910156 336.894531 159.59375 337.820312 160.324219 338.710938 C 161.054688 339.597656 161.828125 340.453125 162.640625 341.265625 C 163.453125 342.078125 164.308594 342.851562 165.195312 343.582031 C 166.085938 344.3125 167.011719 344.996094 167.96875 345.636719 C 168.925781 346.277344 169.910156 346.867188 170.925781 347.410156 C 171.941406 347.953125 172.984375 348.445312 174.046875 348.886719 C 175.109375 349.328125 176.191406 349.714844 177.292969 350.046875 C 178.398438 350.382812 179.511719 350.664062 180.640625 350.886719 C 181.769531 351.113281 182.90625 351.28125 184.054688 351.394531 C 185.199219 351.507812 186.347656 351.5625 187.5 351.5625 C 188.652344 351.5625 189.800781 351.507812 190.945312 351.394531 C 192.089844 351.28125 193.230469 351.113281 194.359375 350.886719 C 195.488281 350.664062 196.601562 350.382812 197.707031 350.046875 C 198.808594 349.714844 199.890625 349.328125 200.953125 348.886719 C 202.015625 348.445312 203.058594 347.953125 204.074219 347.410156 C 205.089844 346.867188 206.074219 346.277344 207.03125 345.636719 C 207.988281 344.996094 208.914062 344.3125 209.804688 343.582031 C 210.691406 342.851562 211.546875 342.078125 212.359375 341.265625 C 213.171875 340.453125 213.945312 339.597656 214.675781 338.710938 C 215.40625 337.820312 216.089844 336.894531 216.730469 335.9375 C 217.371094 334.980469 217.960938 333.996094 218.503906 332.980469 C 219.046875 331.964844 219.539062 330.921875 219.980469 329.859375 C 220.421875 328.796875 220.808594 327.714844 221.140625 326.613281 C 221.476562 325.507812 221.757812 324.394531 221.980469 323.265625 C 222.207031 322.136719 222.375 320.996094 222.488281 319.851562 C 222.601562 318.707031 222.65625 317.558594 222.65625 316.40625 C 222.65625 315.636719 222.730469 314.875 222.882812 314.121094 C 223.03125 313.367188 223.253906 312.632812 223.546875 311.921875 C 223.84375 311.210938 224.203125 310.535156 224.632812 309.894531 C 225.058594 309.253906 225.542969 308.664062 226.089844 308.121094 C 226.632812 307.574219 227.222656 307.089844 227.863281 306.664062 C 228.503906 306.234375 229.179688 305.875 229.890625 305.578125 C 230.601562 305.285156 231.335938 305.0625 232.089844 304.914062 C 232.84375 304.761719 233.605469 304.6875 234.375 304.6875 C 235.144531 304.6875 235.90625 304.761719 236.660156 304.914062 C 237.414062 305.0625 238.148438 305.285156 238.859375 305.578125 C 239.570312 305.875 240.246094 306.234375 240.886719 306.664062 C 241.523438 307.089844 242.117188 307.574219 242.660156 308.121094 C 243.207031 308.664062 243.691406 309.253906 244.117188 309.894531 C 244.546875 310.535156 244.90625 311.210938 245.203125 311.921875 C 245.496094 312.632812 245.71875 313.367188 245.867188 314.121094 C 246.019531 314.875 246.09375 315.636719 246.09375 316.40625 C 246.09375 318.324219 246 320.238281 245.8125 322.148438 C 245.625 324.058594 245.34375 325.957031 244.96875 327.835938 C 244.59375 329.71875 244.128906 331.578125 243.570312 333.414062 C 243.011719 335.25 242.367188 337.054688 241.632812 338.828125 C 240.898438 340.601562 240.078125 342.335938 239.175781 344.027344 C 238.269531 345.71875 237.285156 347.363281 236.21875 348.960938 C 235.152344 350.554688 234.011719 352.09375 232.792969 353.578125 C 231.578125 355.0625 230.289062 356.480469 228.933594 357.839844 C 227.574219 359.195312 226.15625 360.480469 224.671875 361.699219 C 223.1875 362.917969 221.648438 364.058594 220.054688 365.125 C 218.457031 366.191406 216.8125 367.175781 215.121094 368.082031 C 213.429688 368.984375 211.695312 369.804688 209.921875 370.539062 C 208.148438 371.273438 206.34375 371.917969 204.507812 372.476562 C 202.671875 373.035156 200.8125 373.5 198.929688 373.875 C 197.050781 374.25 195.152344 374.53125 193.242188 374.71875 C 191.332031 374.90625 189.417969 375 187.5 375 Z M 187.5 375 " fill-opacity="1" fill-rule="nonzero"/><path fill="#e80346" d="M 320.976562 250.664062 C 319.726562 249.832031 318.535156 248.925781 317.394531 247.945312 C 316.257812 246.964844 315.183594 245.921875 314.175781 244.808594 C 313.167969 243.699219 312.230469 242.527344 311.363281 241.300781 C 310.5 240.074219 309.714844 238.800781 309.007812 237.476562 C 308.296875 236.152344 307.675781 234.789062 307.132812 233.386719 C 306.59375 231.988281 306.140625 230.558594 305.777344 229.101562 C 305.414062 227.644531 305.140625 226.171875 304.957031 224.683594 C 304.777344 223.191406 304.6875 221.695312 304.6875 220.195312 L 304.6875 164.0625 C 304.6875 161.230469 304.582031 158.40625 304.375 155.582031 C 304.167969 152.761719 303.863281 149.949219 303.453125 147.148438 C 303.042969 144.347656 302.53125 141.566406 301.917969 138.800781 C 301.308594 136.039062 300.597656 133.300781 299.789062 130.589844 C 298.976562 127.878906 298.070312 125.199219 297.066406 122.550781 C 296.0625 119.90625 294.964844 117.300781 293.769531 114.734375 C 292.578125 112.167969 291.292969 109.648438 289.917969 107.171875 C 288.542969 104.699219 287.082031 102.277344 285.53125 99.910156 C 283.980469 97.542969 282.34375 95.234375 280.625 92.984375 C 278.90625 90.738281 277.109375 88.554688 275.234375 86.433594 C 273.359375 84.316406 271.40625 82.265625 269.382812 80.289062 C 267.359375 78.3125 265.265625 76.410156 263.101562 74.585938 C 260.941406 72.757812 258.714844 71.011719 256.425781 69.347656 C 254.136719 67.683594 251.789062 66.105469 249.386719 64.609375 C 246.984375 63.113281 244.527344 61.707031 242.023438 60.390625 C 239.519531 59.074219 236.96875 57.851562 234.375 56.71875 L 234.375 46.875 C 234.375 45.339844 234.300781 43.808594 234.148438 42.28125 C 234 40.753906 233.773438 39.234375 233.472656 37.730469 C 233.175781 36.222656 232.800781 34.738281 232.355469 33.269531 C 231.910156 31.796875 231.394531 30.355469 230.808594 28.9375 C 230.21875 27.519531 229.5625 26.132812 228.839844 24.777344 C 228.117188 23.425781 227.328125 22.109375 226.476562 20.832031 C 225.621094 19.554688 224.707031 18.324219 223.734375 17.136719 C 222.761719 15.949219 221.730469 14.816406 220.644531 13.730469 C 219.558594 12.644531 218.425781 11.613281 217.238281 10.640625 C 216.050781 9.667969 214.820312 8.753906 213.542969 7.898438 C 212.265625 7.046875 210.949219 6.257812 209.597656 5.535156 C 208.242188 4.8125 206.855469 4.15625 205.4375 3.566406 C 204.019531 2.980469 202.574219 2.464844 201.105469 2.019531 C 199.636719 1.574219 198.152344 1.199219 196.644531 0.902344 C 195.140625 0.601562 193.621094 0.375 192.09375 0.226562 C 190.566406 0.0742188 189.035156 0 187.5 0 C 185.964844 0 184.433594 0.0742188 182.90625 0.226562 C 181.378906 0.375 179.859375 0.601562 178.355469 0.902344 C 176.847656 1.199219 175.363281 1.574219 173.894531 2.019531 C 172.421875 2.464844 170.980469 2.980469 169.5625 3.566406 C 168.144531 4.15625 166.757812 4.8125 165.402344 5.535156 C 164.050781 6.257812 162.734375 7.046875 161.457031 7.898438 C 160.179688 8.753906 158.949219 9.667969 157.761719 10.640625 C 156.574219 11.613281 155.441406 12.644531 154.355469 13.730469 C 153.269531 14.816406 152.238281 15.949219 151.265625 17.136719 C 150.292969 18.324219 149.378906 19.554688 148.523438 20.832031 C 147.671875 22.109375 146.882812 23.425781 146.160156 24.777344 C 145.4375 26.132812 144.78125 27.519531 144.191406 28.9375 C 143.605469 30.355469 143.089844 31.796875 142.644531 33.269531 C 142.199219 34.738281 141.824219 36.222656 141.527344 37.730469 C 141.226562 39.234375 141 40.753906 140.851562 42.28125 C 140.699219 43.808594 140.625 45.339844 140.625 46.875 L 140.625 56.71875 C 130.972656 60.933594 122.027344 66.324219 113.789062 72.890625 C 113.1875 73.386719 112.644531 73.9375 112.152344 74.539062 C 111.660156 75.144531 111.230469 75.789062 110.867188 76.480469 C 110.5 77.167969 110.207031 77.882812 109.984375 78.628906 C 109.761719 79.375 109.613281 80.136719 109.539062 80.914062 C 109.464844 81.6875 109.46875 82.464844 109.546875 83.238281 C 109.628906 84.011719 109.78125 84.773438 110.011719 85.515625 C 110.238281 86.261719 110.539062 86.976562 110.90625 87.660156 C 111.277344 88.347656 111.710938 88.988281 112.207031 89.589844 C 112.703125 90.191406 113.253906 90.734375 113.855469 91.226562 C 114.460938 91.71875 115.105469 92.148438 115.796875 92.511719 C 116.484375 92.878906 117.199219 93.171875 117.945312 93.394531 C 118.691406 93.617188 119.453125 93.765625 120.230469 93.839844 C 121.003906 93.914062 121.78125 93.910156 122.554688 93.832031 C 123.328125 93.75 124.089844 93.597656 124.832031 93.367188 C 125.578125 93.140625 126.292969 92.839844 126.976562 92.472656 C 127.664062 92.101562 128.304688 91.667969 128.90625 91.171875 C 130.617188 89.800781 132.371094 88.496094 134.175781 87.25 C 135.976562 86 137.820312 84.820312 139.707031 83.703125 C 141.589844 82.585938 143.511719 81.535156 145.472656 80.554688 C 147.429688 79.570312 149.421875 78.660156 151.441406 77.816406 C 153.464844 76.972656 155.515625 76.203125 157.59375 75.503906 C 159.667969 74.804688 161.765625 74.179688 163.886719 73.628906 C 166.007812 73.074219 168.144531 72.597656 170.300781 72.195312 C 172.453125 71.792969 174.617188 71.46875 176.796875 71.21875 C 178.972656 70.96875 181.15625 70.792969 183.34375 70.695312 C 185.535156 70.601562 187.722656 70.578125 189.914062 70.636719 C 192.105469 70.691406 194.289062 70.824219 196.46875 71.035156 C 198.652344 71.246094 200.824219 71.53125 202.984375 71.890625 C 205.144531 72.253906 207.289062 72.691406 209.421875 73.203125 C 211.550781 73.714844 213.660156 74.300781 215.75 74.960938 C 217.839844 75.621094 219.902344 76.355469 221.941406 77.160156 C 223.980469 77.964844 225.988281 78.839844 227.964844 79.785156 C 229.941406 80.730469 231.878906 81.746094 233.785156 82.828125 C 235.691406 83.910156 237.558594 85.058594 239.382812 86.269531 C 241.207031 87.480469 242.988281 88.757812 244.722656 90.09375 C 246.457031 91.433594 248.144531 92.828125 249.78125 94.285156 C 251.421875 95.738281 253.003906 97.25 254.539062 98.816406 C 256.070312 100.382812 257.542969 102.003906 258.960938 103.671875 C 260.378906 105.34375 261.738281 107.0625 263.035156 108.828125 C 264.335938 110.59375 265.570312 112.402344 266.738281 114.253906 C 267.910156 116.105469 269.015625 117.996094 270.054688 119.925781 C 271.09375 121.855469 272.0625 123.816406 272.960938 125.816406 C 273.863281 127.8125 274.691406 129.839844 275.453125 131.894531 C 276.210938 133.949219 276.894531 136.03125 277.507812 138.132812 C 278.121094 140.238281 278.660156 142.359375 279.125 144.5 C 279.589844 146.644531 279.976562 148.796875 280.289062 150.96875 C 280.601562 153.136719 280.839844 155.3125 281 157.496094 C 281.160156 159.683594 281.242188 161.871094 281.25 164.0625 L 281.25 220.195312 C 281.246094 222.660156 281.398438 225.113281 281.695312 227.5625 C 281.996094 230.007812 282.445312 232.425781 283.042969 234.816406 C 283.640625 237.207031 284.378906 239.554688 285.265625 241.855469 C 286.152344 244.152344 287.175781 246.390625 288.335938 248.5625 C 289.496094 250.738281 290.785156 252.832031 292.207031 254.847656 C 293.625 256.863281 295.160156 258.785156 296.816406 260.609375 C 298.46875 262.4375 300.230469 264.15625 302.097656 265.765625 C 303.960938 267.375 305.917969 268.863281 307.96875 270.234375 C 308.8125 270.785156 309.605469 271.398438 310.351562 272.078125 C 311.097656 272.757812 311.78125 273.488281 312.410156 274.277344 C 313.035156 275.066406 313.59375 275.902344 314.085938 276.78125 C 314.578125 277.660156 314.996094 278.574219 315.339844 279.519531 C 315.6875 280.464844 315.953125 281.433594 316.140625 282.421875 C 316.332031 283.414062 316.4375 284.410156 316.46875 285.417969 C 316.496094 286.425781 316.441406 287.429688 316.308594 288.425781 C 316.175781 289.425781 315.960938 290.40625 315.671875 291.371094 C 315.378906 292.335938 315.011719 293.269531 314.570312 294.175781 C 314.125 295.078125 313.613281 295.945312 313.03125 296.765625 C 312.449219 297.589844 311.804688 298.359375 311.101562 299.078125 C 310.394531 299.796875 309.636719 300.453125 308.824219 301.050781 C 308.011719 301.648438 307.15625 302.175781 306.261719 302.632812 C 305.363281 303.089844 304.433594 303.476562 303.476562 303.785156 C 302.515625 304.09375 301.539062 304.324219 300.542969 304.476562 C 299.546875 304.625 298.546875 304.699219 297.539062 304.6875 L 77.460938 304.6875 C 76.460938 304.683594 75.46875 304.597656 74.480469 304.4375 C 73.496094 304.273438 72.527344 304.035156 71.578125 303.71875 C 70.628906 303.402344 69.710938 303.011719 68.824219 302.550781 C 67.9375 302.089844 67.09375 301.558594 66.292969 300.964844 C 65.488281 300.367188 64.738281 299.710938 64.039062 298.996094 C 63.34375 298.28125 62.707031 297.511719 62.128906 296.695312 C 61.554688 295.878906 61.042969 295.023438 60.605469 294.125 C 60.164062 293.226562 59.796875 292.300781 59.503906 291.34375 C 59.210938 290.386719 58.996094 289.414062 58.859375 288.421875 C 58.722656 287.433594 58.664062 286.4375 58.683594 285.4375 C 58.703125 284.4375 58.800781 283.445312 58.980469 282.464844 C 59.15625 281.480469 59.414062 280.515625 59.742188 279.574219 C 60.074219 278.628906 60.476562 277.71875 60.953125 276.839844 C 61.429688 275.957031 61.972656 275.121094 62.582031 274.328125 C 63.191406 273.535156 63.859375 272.796875 64.585938 272.109375 C 65.3125 271.421875 66.089844 270.796875 66.914062 270.234375 C 68.972656 268.871094 70.9375 267.390625 72.8125 265.785156 C 74.6875 264.179688 76.457031 262.464844 78.121094 260.640625 C 79.78125 258.816406 81.328125 256.898438 82.753906 254.882812 C 84.175781 252.867188 85.472656 250.773438 86.640625 248.597656 C 87.804688 246.421875 88.835938 244.183594 89.722656 241.882812 C 90.613281 239.578125 91.359375 237.230469 91.957031 234.835938 C 92.558594 232.445312 93.007812 230.023438 93.304688 227.570312 C 93.605469 225.121094 93.753906 222.664062 93.75 220.195312 C 93.75 164.0625 91.171875 147.1875 103.476562 122.34375 C 103.816406 121.640625 104.082031 120.910156 104.277344 120.152344 C 104.472656 119.394531 104.589844 118.628906 104.632812 117.847656 C 104.675781 117.066406 104.644531 116.292969 104.535156 115.515625 C 104.425781 114.742188 104.242188 113.988281 103.980469 113.25 C 103.722656 112.515625 103.394531 111.808594 103 111.136719 C 102.601562 110.464844 102.140625 109.835938 101.621094 109.253906 C 101.101562 108.671875 100.527344 108.144531 99.902344 107.675781 C 99.277344 107.207031 98.613281 106.804688 97.910156 106.464844 C 97.207031 106.125 96.476562 105.859375 95.71875 105.664062 C 94.960938 105.46875 94.195312 105.351562 93.414062 105.308594 C 92.632812 105.265625 91.859375 105.296875 91.082031 105.40625 C 90.308594 105.515625 89.554688 105.699219 88.816406 105.960938 C 88.082031 106.21875 87.375 106.546875 86.703125 106.941406 C 86.03125 107.339844 85.402344 107.800781 84.820312 108.320312 C 84.238281 108.839844 83.710938 109.414062 83.242188 110.039062 C 82.773438 110.664062 82.371094 111.328125 82.03125 112.03125 C 66.796875 142.5 70.3125 163.125 70.3125 220.195312 C 70.316406 221.699219 70.226562 223.199219 70.042969 224.691406 C 69.863281 226.1875 69.585938 227.664062 69.222656 229.121094 C 68.855469 230.582031 68.398438 232.015625 67.855469 233.417969 C 67.3125 234.820312 66.683594 236.183594 65.96875 237.507812 C 65.257812 238.832031 64.464844 240.109375 63.59375 241.335938 C 62.71875 242.5625 61.777344 243.730469 60.757812 244.839844 C 59.742188 245.949219 58.660156 246.988281 57.511719 247.964844 C 56.367188 248.9375 55.164062 249.839844 53.90625 250.664062 C 52.972656 251.289062 52.0625 251.949219 51.183594 252.648438 C 50.300781 253.347656 49.449219 254.078125 48.625 254.84375 C 47.804688 255.609375 47.011719 256.40625 46.253906 257.234375 C 45.492188 258.0625 44.765625 258.921875 44.074219 259.808594 C 43.382812 260.695312 42.730469 261.605469 42.109375 262.546875 C 41.492188 263.484375 40.914062 264.445312 40.371094 265.429688 C 39.828125 266.414062 39.328125 267.421875 38.867188 268.445312 C 38.402344 269.46875 37.984375 270.511719 37.605469 271.570312 C 37.226562 272.628906 36.890625 273.699219 36.597656 274.785156 C 36.304688 275.871094 36.054688 276.964844 35.847656 278.070312 C 35.644531 279.175781 35.480469 280.289062 35.363281 281.40625 C 35.246094 282.523438 35.171875 283.644531 35.144531 284.769531 C 35.117188 285.890625 35.132812 287.015625 35.195312 288.136719 C 35.257812 289.257812 35.363281 290.378906 35.515625 291.492188 C 35.664062 292.605469 35.859375 293.710938 36.097656 294.808594 C 36.339844 295.910156 36.621094 296.996094 36.945312 298.070312 C 37.269531 299.148438 37.640625 300.210938 38.050781 301.257812 C 38.460938 302.300781 38.910156 303.332031 39.402344 304.339844 C 39.894531 305.351562 40.425781 306.34375 40.996094 307.308594 C 41.570312 308.277344 42.175781 309.222656 42.824219 310.140625 C 43.46875 311.0625 44.152344 311.953125 44.867188 312.820312 C 45.585938 313.683594 46.335938 314.519531 47.121094 315.328125 C 47.90625 316.132812 48.71875 316.90625 49.566406 317.644531 C 50.410156 318.386719 51.285156 319.09375 52.1875 319.761719 C 53.089844 320.433594 54.015625 321.066406 54.96875 321.664062 C 55.921875 322.261719 56.894531 322.820312 57.890625 323.339844 C 58.890625 323.859375 59.90625 324.335938 60.941406 324.777344 C 61.976562 325.214844 63.027344 325.609375 64.09375 325.964844 C 65.160156 326.320312 66.238281 326.632812 67.332031 326.898438 C 68.421875 327.167969 69.523438 327.394531 70.632812 327.574219 C 71.742188 327.753906 72.855469 327.890625 73.976562 327.984375 C 75.097656 328.074219 76.21875 328.121094 77.34375 328.125 L 297.539062 328.125 C 298.664062 328.121094 299.785156 328.074219 300.90625 327.984375 C 302.027344 327.890625 303.140625 327.753906 304.25 327.574219 C 305.359375 327.394531 306.460938 327.167969 307.550781 326.898438 C 308.644531 326.632812 309.722656 326.320312 310.789062 325.964844 C 311.855469 325.609375 312.90625 325.214844 313.941406 324.777344 C 314.976562 324.335938 315.992188 323.859375 316.988281 323.339844 C 317.988281 322.820312 318.960938 322.261719 319.914062 321.664062 C 320.867188 321.066406 321.792969 320.433594 322.695312 319.761719 C 323.597656 319.09375 324.472656 318.386719 325.316406 317.644531 C 326.164062 316.90625 326.976562 316.132812 327.761719 315.328125 C 328.546875 314.519531 329.296875 313.683594 330.015625 312.820312 C 330.730469 311.953125 331.414062 311.0625 332.058594 310.140625 C 332.707031 309.222656 333.3125 308.277344 333.886719 307.308594 C 334.457031 306.34375 334.988281 305.351562 335.480469 304.339844 C 335.972656 303.332031 336.421875 302.300781 336.832031 301.257812 C 337.242188 300.210938 337.613281 299.148438 337.9375 298.070312 C 338.261719 296.996094 338.542969 295.910156 338.785156 294.808594 C 339.023438 293.710938 339.21875 292.605469 339.367188 291.492188 C 339.519531 290.378906 339.625 289.257812 339.6875 288.136719 C 339.75 287.015625 339.765625 285.890625 339.738281 284.769531 C 339.707031 283.644531 339.636719 282.523438 339.519531 281.40625 C 339.402344 280.289062 339.238281 279.175781 339.035156 278.070312 C 338.828125 276.964844 338.578125 275.871094 338.285156 274.785156 C 337.992188 273.699219 337.65625 272.628906 337.277344 271.570312 C 336.898438 270.511719 336.480469 269.46875 336.015625 268.445312 C 335.554688 267.421875 335.054688 266.414062 334.511719 265.429688 C 333.96875 264.445312 333.390625 263.484375 332.773438 262.542969 C 332.152344 261.605469 331.5 260.695312 330.808594 259.808594 C 330.117188 258.921875 329.390625 258.0625 328.628906 257.234375 C 327.871094 256.40625 327.078125 255.609375 326.257812 254.84375 C 325.433594 254.078125 324.582031 253.347656 323.699219 252.648438 C 322.820312 251.949219 321.910156 251.289062 320.976562 250.664062 Z M 164.0625 49.335938 L 164.0625 46.875 C 164.101562 46.105469 164.175781 45.34375 164.289062 44.582031 C 164.402344 43.824219 164.554688 43.070312 164.742188 42.324219 C 164.929688 41.578125 165.152344 40.84375 165.410156 40.121094 C 165.671875 39.398438 165.964844 38.691406 166.296875 37.996094 C 166.625 37.300781 166.988281 36.625 167.382812 35.964844 C 167.777344 35.304688 168.207031 34.667969 168.664062 34.050781 C 169.121094 33.433594 169.609375 32.839844 170.125 32.273438 C 170.644531 31.703125 171.1875 31.160156 171.753906 30.644531 C 172.324219 30.128906 172.917969 29.644531 173.539062 29.1875 C 174.15625 28.730469 174.792969 28.304688 175.453125 27.910156 C 176.113281 27.515625 176.789062 27.152344 177.484375 26.824219 C 178.179688 26.496094 178.890625 26.203125 179.613281 25.945312 C 180.335938 25.6875 181.070312 25.464844 181.816406 25.277344 C 182.5625 25.09375 183.316406 24.941406 184.078125 24.832031 C 184.835938 24.71875 185.601562 24.644531 186.367188 24.605469 C 187.136719 24.570312 187.902344 24.570312 188.671875 24.609375 C 189.441406 24.648438 190.203125 24.722656 190.964844 24.835938 C 191.722656 24.949219 192.476562 25.101562 193.222656 25.289062 C 193.96875 25.476562 194.703125 25.699219 195.425781 25.957031 C 196.148438 26.21875 196.855469 26.511719 197.550781 26.84375 C 198.246094 27.171875 198.921875 27.535156 199.582031 27.929688 C 200.242188 28.324219 200.878906 28.753906 201.496094 29.210938 C 202.113281 29.667969 202.707031 30.15625 203.273438 30.671875 C 203.84375 31.191406 204.386719 31.734375 204.902344 32.300781 C 205.417969 32.871094 205.902344 33.464844 206.359375 34.085938 C 206.816406 34.703125 207.242188 35.339844 207.636719 36 C 208.03125 36.660156 208.394531 37.335938 208.722656 38.03125 C 209.050781 38.726562 209.34375 39.4375 209.601562 40.160156 C 209.859375 40.882812 210.082031 41.617188 210.269531 42.363281 C 210.453125 43.109375 210.605469 43.863281 210.714844 44.625 C 210.828125 45.382812 210.902344 46.148438 210.941406 46.914062 C 210.976562 47.683594 210.976562 48.449219 210.9375 49.21875 C 203.203125 47.625 195.390625 46.839844 187.492188 46.859375 C 179.597656 46.878906 171.789062 47.703125 164.0625 49.335938 Z M 164.0625 49.335938 " fill-opacity="1" fill-rule="nonzero"/></svg>
