<?xml version="1.0" encoding="UTF-8"?>
<svg width="480.86" height="480.65" version="1.0" viewBox="0 0 360.64 360.49" xmlns="http://www.w3.org/2000/svg" zoomAndPan="magnify">
 <path d="m348 286.81-53.602-53.492c-0.76953-0.73047-1.5703-1.4219-2.4023-2.0781s-1.6914-1.2734-2.582-1.8516c-0.88672-0.57812-1.8008-1.1133-2.7383-1.6094-0.9375-0.49219-1.8984-0.94532-2.875-1.3516-0.98047-0.40234-1.9766-0.76562-2.9883-1.0781-1.0117-0.31641-2.0352-0.58594-3.0742-0.80469-1.0352-0.22266-2.082-0.39453-3.1328-0.51953-1.0547-0.125-2.1094-0.20313-3.168-0.23047-1.0625-0.0273-2.1211-8e-3 -3.1758 0.0625-1.0586 0.0664-2.1133 0.18359-3.1602 0.35156-1.0469 0.16407-2.082 0.375-3.1094 0.63672-1.0273 0.26172-2.043 0.56641-3.043 0.92188-0.99609 0.35156-1.9805 0.75-2.9414 1.1953-0.96485 0.44141-1.9024 0.92578-2.8203 1.457-0.92188 0.53125-1.8125 1.1016-2.6797 1.7109-0.86328 0.61328-1.6992 1.2617-2.5078 1.9492l-9.6836-9.6836c1.5274-1.8086 3.0078-3.6562 4.4414-5.543 1.4297-1.8828 2.8125-3.8047 4.1445-5.7656 1.3281-1.957 2.6055-3.9492 3.832-5.9727 1.2266-2.0273 2.3984-4.082 3.5156-6.168 1.1211-2.0898 2.1836-4.2031 3.1875-6.3476 1.0078-2.1406 1.957-4.3086 2.8516-6.5 0.89062-2.1953 1.7266-4.4102 2.5039-6.6445 0.77735-2.2383 1.4922-4.4922 2.1524-6.7695 0.65625-2.2734 1.2539-4.5625 1.793-6.8672 0.53515-2.3047 1.0117-4.625 1.4297-6.957 0.41407-2.3281 0.76954-4.668 1.0625-7.0195 0.29297-2.3477 0.52344-4.7031 0.69141-7.0664 0.16797-2.3594 0.27734-4.7266 0.32031-7.0938 0.0469-2.3672 0.0274-4.7305-0.0508-7.0977-0.082-2.3672-0.22265-4.7305-0.42578-7.0898-0.20703-2.3555-0.47266-4.707-0.79687-7.0547-0.32813-2.3438-0.71875-4.6797-1.168-7.0039s-0.96094-4.6328-1.5312-6.9297c-0.57422-2.3008-1.2031-4.582-1.8984-6.8437-0.69141-2.2656-1.4414-4.5078-2.25-6.7344-0.80859-2.2266-1.6758-4.4258-2.6016-6.6055s-1.9062-4.332-2.9453-6.4609c-1.0391-2.1289-2.1328-4.2266-3.2812-6.2969-1.1484-2.0703-2.3516-4.1094-3.6055-6.1172-1.2578-2.0039-2.5664-3.9766-3.9258-5.918-1.3594-1.9375-2.7695-3.8398-4.2266-5.7031-1.4609-1.8633-2.9688-3.6875-4.5234-5.4727-1.5547-1.7852-3.1562-3.5273-4.8047-5.2266-1.6484-1.7031-3.3359-3.3594-5.0703-4.9727-1.7344-1.6094-3.5117-3.1758-5.3281-4.6953-1.8164-1.5156-3.668-2.9883-5.5625-4.4102-1.8945-1.418-3.8242-2.7891-5.7891-4.1094-1.9648-1.3203-3.9648-2.5859-5.9961-3.8008-2.0352-1.2148-4.0976-2.375-6.1914-3.4805-2.0898-1.1094-4.2109-2.1562-6.3594-3.1523-2.1484-0.99609-4.3242-1.9336-6.5195-2.8125-2.1992-0.88281-4.418-1.7031-6.6602-2.4688-2.2383-0.76172-4.5-1.4688-6.7773-2.1133-2.2773-0.64453-4.5703-1.2305-6.8789-1.7539-2.3086-0.52344-4.6289-0.98828-6.9648-1.3906-2.332-0.40234-4.6758-0.74219-7.0234-1.0234-2.3516-0.27734-4.7109-0.49609-7.0703-0.65234-2.3633-0.15625-4.7305-0.25-7.0977-0.28125-2.3672-0.03125-4.7305 0-7.0976 0.09375s-4.7266 0.25-7.0859 0.46484c-2.3555 0.21875-4.707 0.49609-7.0508 0.83594-2.3438 0.34375-4.6758 0.74609-6.9961 1.207-2.3203 0.46484-4.6289 0.98828-6.9258 1.5742-2.293 0.58203-4.5703 1.2266-6.832 1.9297-2.2578 0.70703-4.5 1.4688-6.7188 2.293-2.2227 0.82031-4.418 1.6992-6.5938 2.6367-2.1719 0.9375-4.3203 1.9336-6.4414 2.9844-2.1211 1.0508-4.2148 2.1562-6.2773 3.3164-2.0664 1.1602-4.0977 2.3711-6.0977 3.6406-2 1.2656-3.9648 2.5859-5.8945 3.957-1.9297 1.3711-3.8242 2.7891-5.6797 4.2578-1.8554 1.4727-3.6719 2.9883-5.4492 4.5547-1.7734 1.5664-3.5078 3.1758-5.1992 4.832-1.6914 1.6562-3.3398 3.3594-4.9414 5.1016-1.6016 1.7422-3.1562 3.5273-4.6641 5.3516-1.5117 1.8242-2.9688 3.6875-4.3789 5.5898-1.4102 1.9023-2.7695 3.8398-4.0781 5.8125-1.3086 1.9727-2.5664 3.9766-3.7695 6.0156-1.2031 2.0391-2.3516 4.1094-3.4453 6.2109-1.0938 2.0977-2.1328 4.2227-3.1172 6.3789-0.98047 2.1523-1.9062 4.332-2.7734 6.5352-0.87109 2.2031-1.6797 4.4258-2.4297 6.6719-0.75391 2.2461-1.4453 4.5078-2.0742 6.7891-0.63281 2.2812-1.207 4.5781-1.7188 6.8906-0.51172 2.3125-0.96094 4.6328-1.3516 6.9688-0.38672 2.3359-0.71484 4.6797-0.98047 7.0312-0.26953 2.3555-0.47266 4.7109-0.61328 7.0742-0.14453 2.3633-0.22266 4.7305-0.24219 7.0977-0.019531 2.3672 0.027344 4.7344 0.13281 7.0977 0.10547 2.3672 0.27344 4.7266 0.50391 7.082s0.52344 4.707 0.87891 7.0469c0.35156 2.3398 0.76953 4.6719 1.2461 6.9922 0.47266 2.3164 1.0117 4.6211 1.6094 6.9141 0.59766 2.2891 1.2539 4.5625 1.9727 6.8203 0.71484 2.2578 1.4922 4.4922 2.3242 6.707 0.83594 2.2148 1.7305 4.4102 2.6797 6.5781 0.94922 2.168 1.9531 4.3086 3.0156 6.4258 1.0625 2.1172 2.1797 4.2031 3.3516 6.2578 1.1719 2.0586 2.3984 4.082 3.6758 6.0742 1.2812 1.9961 2.6094 3.9531 3.9922 5.875 1.3789 1.9219 2.8125 3.8086 4.293 5.6562 1.4805 1.8477 3.0078 3.6562 4.582 5.4219 1.5742 1.7656 3.1953 3.4922 4.8633 5.1758 1.6641 1.6797 3.375 3.3164 5.125 4.9102 1.7539 1.5938 3.5469 3.1367 5.3789 4.6367 1.832 1.4961 3.707 2.9453 5.6133 4.3438 1.9102 1.4023 3.8555 2.75 5.8359 4.0469 1.9805 1.2969 3.9922 2.543 6.0391 3.7344 2.0469 1.1914 4.1211 2.3281 6.2266 3.4102s4.2383 2.1094 6.3984 3.082c2.1602 0.96875 4.3438 1.8828 6.5508 2.7383 0.69922 0.33204 1.4258 0.58985 2.1797 0.77344 0.75 0.17969 1.5156 0.28516 2.2891 0.3086 0.77344 0.0273 1.543-0.0274 2.3047-0.16016 0.76562-0.13672 1.5039-0.34375 2.2266-0.63281 0.71875-0.28516 1.4023-0.64063 2.0469-1.0703 0.64454-0.42578 1.2422-0.91796 1.7852-1.4648 0.54688-0.55078 1.0313-1.1523 1.4531-1.8008 0.41796-0.65234 0.76953-1.3359 1.0508-2.0586 0.27734-0.72266 0.48047-1.4688 0.60937-2.2305 0.125-0.76563 0.17188-1.5352 0.14063-2.3086-0.0352-0.77343-0.14453-1.5352-0.33594-2.2852-0.1875-0.75391-0.45313-1.4766-0.79297-2.1719-0.33984-0.69922-0.74609-1.3516-1.2188-1.9648-0.47656-0.61328-1.0078-1.168-1.5977-1.6719-0.58593-0.5039-1.2226-0.9414-1.9023-1.3125-0.67969-0.37109-1.3906-0.67187-2.1289-0.89453-2.1562-0.83984-4.2812-1.7422-6.3828-2.7109-2.0977-0.96875-4.1641-2.0039-6.1992-3.0976-2.0391-1.0977-4.0391-2.2539-6-3.4766-1.9648-1.2188-3.8906-2.4961-5.7773-3.8359-1.8828-1.3359-3.7266-2.7305-5.5273-4.1836-1.7969-1.4492-3.5508-2.957-5.2578-4.5156-1.707-1.5586-3.3633-3.168-4.9727-4.832-1.6055-1.6602-3.1602-3.3711-4.6641-5.1289-1.5-1.7578-2.9492-3.5586-4.3398-5.4023-1.3906-1.8477-2.7227-3.7344-4-5.6641-1.2734-1.9297-2.4883-3.8945-3.6445-5.8984-1.1523-2.0039-2.2422-4.0391-3.2734-6.1094-1.0273-2.0703-1.9922-4.1719-2.8906-6.3008-0.89844-2.1289-1.7305-4.2852-2.5-6.4688-0.76562-2.1797-1.4648-4.3828-2.0938-6.6055-0.63281-2.2266-1.1914-4.4688-1.6875-6.7266-0.49219-2.2578-0.91406-4.5312-1.2656-6.8164-0.35547-2.2852-0.63672-4.5781-0.84766-6.8789s-0.35156-4.6094-0.42188-6.918c-0.07031-2.3125-0.06641-4.625 0.0039-6.9336 0.07422-2.3125 0.21875-4.6172 0.43359-6.918 0.21484-2.3047 0.5-4.5977 0.85547-6.8828 0.35547-2.2812 0.78125-4.5547 1.2773-6.8125 0.49609-2.2578 1.0625-4.5 1.6953-6.7227 0.63672-2.2227 1.3359-4.4219 2.1055-6.6055 0.76953-2.1797 1.6055-4.332 2.5078-6.4609 0.90234-2.1289 1.8711-4.2266 2.9023-6.2969 1.0312-2.0703 2.125-4.1055 3.2812-6.1055 1.1602-2.0039 2.375-3.9648 3.6523-5.8945 1.2773-1.9258 2.6133-3.8125 4.0078-5.6562 1.3945-1.8438 2.8438-3.6445 4.3516-5.3984 1.5039-1.7539 3.0586-3.4609 4.6719-5.1211 1.6094-1.6602 3.2695-3.2656 4.9766-4.8242 1.7109-1.5586 3.4648-3.0586 5.2656-4.5078s3.6484-2.8398 5.5352-4.1758c1.8867-1.3359 3.8125-2.6133 5.7773-3.8281 1.9688-1.2188 3.9688-2.3711 6.0078-3.4648 2.0352-1.0938 4.1055-2.125 6.2031-3.0898 2.1016-0.96484 4.2305-1.8672 6.3867-2.6992 2.1562-0.83594 4.3359-1.6055 6.5391-2.3047 2.2031-0.69922 4.4258-1.332 6.668-1.8984 2.2422-0.5625 4.5-1.0547 6.7695-1.4805 2.2734-0.42578 4.5586-0.78125 6.8516-1.0625 2.2969-0.28516 4.5977-0.5 6.9024-0.64062 2.3086-0.14062 4.6172-0.21484 6.9297-0.21484s4.6211 0.07422 6.9297 0.21484c2.3086 0.14062 4.6094 0.35547 6.9023 0.64062 2.2969 0.28125 4.5781 0.63672 6.8516 1.0625 2.2734 0.42188 4.5312 0.91797 6.7734 1.4805 2.2422 0.5625 4.4648 1.1953 6.668 1.8945 2.2031 0.70312 4.3828 1.4688 6.5391 2.3047 2.1562 0.83594 4.2812 1.7344 6.3828 2.6992 2.1016 0.96875 4.1719 1.9961 6.207 3.0898 2.0391 1.0938 4.0391 2.25 6.0039 3.4648 1.9688 1.2148 3.8945 2.4922 5.7812 3.8281 1.8867 1.3359 3.7305 2.7266 5.5352 4.1758 1.8008 1.4492 3.5547 2.9492 5.2656 4.5078 1.707 1.5586 3.3672 3.1641 4.9766 4.8242 1.6094 1.6602 3.168 3.3672 4.6719 5.1211 1.5078 1.7539 2.957 3.5547 4.3516 5.3984s2.7305 3.7305 4.0078 5.6562 2.4961 3.8906 3.6523 5.8945c1.1562 2 2.25 4.0352 3.2812 6.1055 1.0312 2.0664 2 4.168 2.9024 6.2969 0.90234 2.125 1.7383 4.2812 2.5078 6.4609 0.76953 2.1797 1.4727 4.3828 2.1055 6.6055 0.63281 2.2227 1.1992 4.4648 1.6953 6.7227s0.92188 4.5273 1.2773 6.8125c0.35938 2.2852 0.64454 4.5781 0.85938 6.8789 0.21484 2.3008 0.35937 4.6094 0.42969 6.918 0.0742 2.3125 0.0781 4.6211 8e-3 6.9336-0.0703 2.3125-0.21094 4.6172-0.42188 6.918-0.21093 2.3047-0.49218 4.5976-0.84765 6.8828-0.35156 2.2852-0.77344 4.5547-1.2656 6.8164-0.49218 2.2578-1.0547 4.5-1.6875 6.7227-0.6289 2.2266-1.3281 4.4297-2.0938 6.6094-0.76562 2.1797-1.5976 4.3359-2.4961 6.4648-0.90234 2.1328-1.8633 4.2305-2.8945 6.3008-1.0274 2.0703-2.1172 4.1094-3.2734 6.1133-1.1523 2.0039-2.3672 3.9688-3.6406 5.8984-1.2774 1.9258-2.6094 3.8164-4 5.6602-1.3906 1.8476-2.8398 3.6484-4.3398 5.4062-1.5039 1.7578-3.0586 3.4688-4.6641 5.1289-1.6094 1.6602-3.2656 3.2734-4.9727 4.832-1.707 1.5586-3.4609 3.0664-5.2578 4.5156-1.8008 1.4531-3.6445 2.8476-5.5273 4.1875-1.8867 1.3359-3.8125 2.6133-5.7734 3.8359-1.9648 1.2188-3.9648 2.375-6 3.4726-2.0352 1.0977-4.1055 2.1289-6.2031 3.0977-2.0976 0.96875-4.2266 1.875-6.3789 2.7109-2.1562 0.83984-4.3359 1.6094-6.5352 2.3125-2.2031 0.70312-4.4258 1.3398-6.668 1.9062-2.2383 0.5664-4.4961 1.0664-6.7695 1.4922-2.2695 0.42969-4.5547 0.78907-6.8476 1.0742-2.293 0.28906-4.5938 0.50391-6.9024 0.65235-2.3086 0.14453-4.6172 0.21875-6.9297 0.22265-0.73828 0-1.4688 0.0703-2.1953 0.21485-0.72656 0.14453-1.4297 0.35937-2.1133 0.64062-0.68359 0.28516-1.332 0.63281-1.9453 1.043-0.61719 0.41016-1.1836 0.87891-1.707 1.3984-0.52344 0.52343-0.99219 1.0938-1.4024 1.707-0.41015 0.61719-0.75781 1.2656-1.0391 1.9492-0.28515 0.68359-0.49609 1.3867-0.64062 2.1094-0.14453 0.72656-0.21875 1.4609-0.21875 2.1992s0.0742 1.4727 0.21875 2.1953c0.14453 0.72657 0.35547 1.4297 0.64062 2.1133 0.28125 0.6836 0.62891 1.332 1.0391 1.9492 0.41016 0.61328 0.87891 1.1836 1.4024 1.7031 0.52343 0.52344 1.0898 0.99219 1.707 1.4023 0.61328 0.41016 1.2617 0.75781 1.9453 1.0391 0.68359 0.28516 1.3867 0.4961 2.1133 0.64063s1.457 0.21875 2.1953 0.21875c3.957 4e-3 7.9024-0.16406 11.844-0.50781 3.9375-0.34375 7.8555-0.86328 11.75-1.5547 3.8945-0.69141 7.75-1.5547 11.566-2.5859 3.8203-1.0352 7.582-2.2344 11.293-3.5976 3.7109-1.3672 7.3555-2.8984 10.934-4.5859 3.5742-1.6875 7.0703-3.5352 10.48-5.5312 3.4141-2 6.7305-4.1445 9.9531-6.4375 3.2226-2.293 6.3359-4.7266 9.3438-7.293l9.6836 9.6836c-0.70703 0.79297-1.375 1.6172-2.0078 2.4766-0.62891 0.85546-1.2148 1.7422-1.7617 2.6523-0.54688 0.91406-1.0508 1.8477-1.5078 2.8086-0.45703 0.96094-0.86719 1.9414-1.2344 2.9375-0.36328 1-0.68359 2.0117-0.95312 3.043-0.26953 1.0274-0.48828 2.0664-0.66016 3.1172-0.17187 1.0508-0.29297 2.1055-0.36719 3.1641-0.0703 1.0625-0.0898 2.125-0.0625 3.1875s0.10547 2.1211 0.23438 3.1797c0.1289 1.0547 0.30859 2.1016 0.53515 3.1406 0.22657 1.0391 0.50391 2.0664 0.82813 3.0781s0.69531 2.0078 1.1133 2.9844c0.41797 0.98047 0.87891 1.9336 1.3906 2.8672 0.50781 0.9336 1.0586 1.8438 1.6523 2.7266 0.59375 0.87891 1.2305 1.7344 1.9023 2.5547 0.67578 0.82031 1.3867 1.6094 2.1367 2.3633l53.492 53.605c1 1 2.0469 1.9492 3.1367 2.8438 1.0938 0.89844 2.2266 1.7383 3.4023 2.5234s2.3867 1.5117 3.6328 2.1758c1.2461 0.66797 2.5234 1.2734 3.8281 1.8125 1.3086 0.54297 2.6367 1.0156 3.9883 1.4258 1.3555 0.41016 2.7227 0.75391 4.1094 1.0312 1.3867 0.27344 2.7812 0.48047 4.1914 0.6211 1.4062 0.13671 2.8164 0.20703 4.2305 0.20703 1.4102 0 2.8203-0.0703 4.2305-0.20703 1.4062-0.14063 2.8008-0.34766 4.1875-0.6211 1.3867-0.27734 2.7578-0.62109 4.1094-1.0312 1.3516-0.41015 2.6797-0.88281 3.9883-1.4258 1.3047-0.53906 2.582-1.1445 3.8281-1.8086 1.2461-0.66797 2.457-1.3945 3.6328-2.1797s2.3086-1.625 3.4024-2.5234c1.0898-0.89453 2.1367-1.8438 3.1367-2.8438s1.9492-2.0469 2.8438-3.1367c0.89843-1.0938 1.7383-2.2266 2.5234-3.4023 0.78516-1.1758 1.5117-2.3867 2.1797-3.6328 0.66406-1.2461 1.2695-2.5234 1.8086-3.8281 0.54297-1.3086 1.0156-2.6367 1.4258-3.9883 0.41406-1.3555 0.7539-2.7227 1.0312-4.1094 0.27734-1.3867 0.48437-2.7852 0.62109-4.1914 0.14062-1.4062 0.20703-2.8164 0.20703-4.2305 0-1.4102-0.0664-2.8203-0.20703-4.2305-0.13672-1.4062-0.34375-2.8008-0.62109-4.1875-0.27735-1.3867-0.61719-2.7578-1.0312-4.1094-0.41016-1.3516-0.88282-2.6797-1.4258-3.9883-0.53906-1.3047-1.1445-2.582-1.8086-3.8281-0.66797-1.2461-1.3945-2.457-2.1797-3.6328-0.78515-1.1758-1.625-2.3086-2.5234-3.4024-0.89454-1.0938-1.8438-2.1367-2.8438-3.1367zm-30.516 51.125c-1.3555 0.0117-2.6953-0.11719-4.0234-0.37891-1.3281-0.26172-2.6172-0.65234-3.8633-1.1758-1.25-0.52344-2.4336-1.1641-3.5508-1.9258s-2.1484-1.6289-3.0898-2.6016l-53.605-53.488c-0.52735-0.52343-1-1.0938-1.4141-1.7109-0.41407-0.61719-0.76563-1.2695-1.0508-1.957-0.28515-0.68359-0.5-1.3906-0.64843-2.1211-0.14453-0.73047-0.21875-1.4648-0.21875-2.207 0-0.74609 0.0742-1.4805 0.21875-2.2109 0.14843-0.72656 0.36328-1.4336 0.64843-2.1211 0.28516-0.6875 0.63672-1.3359 1.0508-1.9531 0.41406-0.61718 0.88671-1.1875 1.4141-1.7109l13.176-13.176c0.52344-0.52734 1.0938-1 1.7109-1.4141 0.61718-0.41406 1.2695-0.76562 1.9531-1.0508 0.6875-0.28516 1.3945-0.50391 2.125-0.64844 0.72656-0.14453 1.4648-0.21875 2.207-0.21875 0.74219 0 1.4805 0.0742 2.207 0.21875 0.73047 0.14453 1.4375 0.36328 2.125 0.64844 0.6836 0.28516 1.3359 0.63672 1.9531 1.0508s1.1875 0.88672 1.7109 1.4141l53.488 53.602c0.71484 0.71875 1.3711 1.4844 1.9688 2.2969 0.60156 0.8125 1.1367 1.6641 1.6133 2.5586 0.47266 0.89062 0.87891 1.8125 1.2188 2.7617 0.33984 0.95313 0.60547 1.9258 0.80078 2.918 0.19531 0.98828 0.32031 1.9883 0.36719 3 0.0508 1.0078 0.0234 2.0156-0.0742 3.0195-0.10156 1.0039-0.27344 2-0.51953 2.9766-0.24219 0.98047-0.5586 1.9375-0.94531 2.8711-0.38672 0.93359-0.83985 1.8359-1.3555 2.7031-0.51953 0.86718-1.0977 1.6914-1.7383 2.4726-0.64063 0.78125-1.332 1.5117-2.082 2.1914-0.74609 0.67969-1.5391 1.3008-2.3789 1.8672-0.83594 0.5625-1.7109 1.0625-2.625 1.4961-0.91016 0.43359-1.8477 0.80078-2.8164 1.0977-0.96484 0.29687-1.9453 0.51953-2.9453 0.67187s-2.0039 0.23047-3.0117 0.23438z" fill="#ff9301"/>
</svg>
