<svg xmlns="http://www.w3.org/2000/svg" xmlns:xlink="http://www.w3.org/1999/xlink" width="500" zoomAndPan="magnify" viewBox="0 0 375 374.999991" height="500" preserveAspectRatio="xMidYMid meet" version="1.0"><defs><clipPath id="fb27d7150d"><path d="M 35.15625 0 L 339.65625 0 L 339.65625 375 L 35.15625 375 Z M 35.15625 0 " clip-rule="nonzero"/></clipPath></defs><g clip-path="url(#fb27d7150d)"><path fill="#135D66" d="M 316.40625 46.875 L 246.09375 46.875 L 246.09375 35.15625 C 246.09375 34.003906 246.039062 32.855469 245.925781 31.710938 C 245.8125 30.566406 245.644531 29.425781 245.417969 28.296875 C 245.195312 27.167969 244.914062 26.054688 244.578125 24.949219 C 244.246094 23.847656 243.859375 22.765625 243.417969 21.703125 C 242.976562 20.640625 242.484375 19.597656 241.941406 18.582031 C 241.398438 17.566406 240.808594 16.582031 240.167969 15.625 C 239.527344 14.667969 238.84375 13.742188 238.113281 12.851562 C 237.382812 11.964844 236.609375 11.109375 235.796875 10.296875 C 234.984375 9.484375 234.128906 8.710938 233.242188 7.980469 C 232.351562 7.25 231.425781 6.566406 230.46875 5.925781 C 229.511719 5.285156 228.527344 4.695312 227.511719 4.152344 C 226.496094 3.609375 225.453125 3.117188 224.390625 2.675781 C 223.328125 2.234375 222.246094 1.847656 221.144531 1.515625 C 220.039062 1.179688 218.925781 0.898438 217.796875 0.675781 C 216.667969 0.449219 215.527344 0.28125 214.382812 0.167969 C 213.238281 0.0546875 212.089844 0 210.9375 0 L 164.0625 0 C 162.910156 0 161.761719 0.0546875 160.617188 0.167969 C 159.472656 0.28125 158.332031 0.449219 157.203125 0.675781 C 156.074219 0.898438 154.960938 1.179688 153.855469 1.515625 C 152.753906 1.847656 151.671875 2.234375 150.609375 2.675781 C 149.546875 3.117188 148.503906 3.609375 147.488281 4.152344 C 146.472656 4.695312 145.488281 5.285156 144.53125 5.925781 C 143.574219 6.566406 142.648438 7.25 141.757812 7.980469 C 140.871094 8.710938 140.015625 9.484375 139.203125 10.296875 C 138.390625 11.109375 137.617188 11.964844 136.886719 12.851562 C 136.15625 13.742188 135.472656 14.667969 134.832031 15.625 C 134.191406 16.582031 133.601562 17.566406 133.058594 18.582031 C 132.515625 19.597656 132.023438 20.640625 131.582031 21.703125 C 131.140625 22.765625 130.753906 23.847656 130.421875 24.949219 C 130.085938 26.054688 129.804688 27.167969 129.582031 28.296875 C 129.355469 29.425781 129.1875 30.566406 129.074219 31.710938 C 128.960938 32.855469 128.90625 34.003906 128.90625 35.15625 L 128.90625 46.875 L 58.59375 46.875 C 57.824219 46.875 57.058594 46.914062 56.296875 46.988281 C 55.53125 47.0625 54.773438 47.175781 54.019531 47.324219 C 53.269531 47.476562 52.523438 47.660156 51.789062 47.882812 C 51.054688 48.105469 50.332031 48.367188 49.625 48.660156 C 48.914062 48.953125 48.222656 49.28125 47.546875 49.640625 C 46.867188 50.003906 46.210938 50.398438 45.574219 50.824219 C 44.933594 51.25 44.320312 51.707031 43.726562 52.195312 C 43.132812 52.683594 42.5625 53.195312 42.019531 53.738281 C 41.476562 54.28125 40.964844 54.851562 40.476562 55.445312 C 39.988281 56.039062 39.53125 56.652344 39.105469 57.292969 C 38.679688 57.929688 38.285156 58.585938 37.921875 59.265625 C 37.5625 59.941406 37.234375 60.632812 36.941406 61.34375 C 36.648438 62.050781 36.386719 62.773438 36.164062 63.507812 C 35.941406 64.242188 35.757812 64.988281 35.605469 65.738281 C 35.457031 66.492188 35.34375 67.25 35.269531 68.015625 C 35.195312 68.777344 35.15625 69.542969 35.15625 70.3125 L 35.15625 93.75 C 35.160156 94.804688 35.234375 95.855469 35.378906 96.902344 C 35.523438 97.945312 35.738281 98.976562 36.019531 99.992188 C 36.304688 101.007812 36.65625 102 37.074219 102.96875 C 37.492188 103.9375 37.972656 104.875 38.515625 105.78125 C 39.0625 106.683594 39.664062 107.546875 40.324219 108.367188 C 40.984375 109.191406 41.699219 109.964844 42.464844 110.691406 C 43.230469 111.417969 44.039062 112.089844 44.898438 112.707031 C 45.753906 113.324219 46.648438 113.878906 47.578125 114.375 L 68.4375 343.007812 C 68.535156 344.089844 68.683594 345.167969 68.882812 346.238281 C 69.078125 347.308594 69.328125 348.367188 69.621094 349.414062 C 69.917969 350.460938 70.261719 351.492188 70.65625 352.507812 C 71.046875 353.523438 71.484375 354.519531 71.96875 355.492188 C 72.453125 356.46875 72.984375 357.417969 73.554688 358.34375 C 74.128906 359.269531 74.742188 360.164062 75.398438 361.03125 C 76.054688 361.902344 76.75 362.738281 77.480469 363.542969 C 78.214844 364.34375 78.984375 365.113281 79.789062 365.847656 C 80.59375 366.578125 81.429688 367.273438 82.300781 367.925781 C 83.171875 368.582031 84.066406 369.195312 84.992188 369.765625 C 85.921875 370.335938 86.871094 370.863281 87.847656 371.347656 C 88.820312 371.832031 89.816406 372.265625 90.832031 372.65625 C 91.847656 373.046875 92.878906 373.390625 93.925781 373.6875 C 94.976562 373.980469 96.035156 374.226562 97.105469 374.421875 C 98.175781 374.617188 99.25 374.765625 100.335938 374.863281 C 101.417969 374.957031 102.503906 375.003906 103.59375 375 L 271.523438 375 C 272.613281 375.003906 273.699219 374.957031 274.78125 374.863281 C 275.867188 374.765625 276.941406 374.617188 278.011719 374.421875 C 279.082031 374.226562 280.140625 373.980469 281.191406 373.6875 C 282.238281 373.390625 283.269531 373.046875 284.285156 372.65625 C 285.300781 372.265625 286.296875 371.832031 287.269531 371.347656 C 288.246094 370.863281 289.195312 370.335938 290.125 369.765625 C 291.050781 369.195312 291.945312 368.582031 292.816406 367.925781 C 293.6875 367.273438 294.523438 366.578125 295.328125 365.847656 C 296.132812 365.113281 296.902344 364.34375 297.636719 363.542969 C 298.367188 362.738281 299.0625 361.902344 299.71875 361.03125 C 300.375 360.164062 300.988281 359.269531 301.5625 358.34375 C 302.132812 357.417969 302.664062 356.46875 303.148438 355.492188 C 303.632812 354.519531 304.070312 353.523438 304.460938 352.507812 C 304.855469 351.492188 305.199219 350.460938 305.496094 349.414062 C 305.789062 348.367188 306.039062 347.308594 306.234375 346.238281 C 306.433594 345.167969 306.582031 344.089844 306.679688 343.007812 L 323.90625 153.632812 C 323.976562 152.863281 323.96875 152.09375 323.886719 151.328125 C 323.804688 150.558594 323.648438 149.804688 323.417969 149.066406 C 323.1875 148.332031 322.886719 147.621094 322.515625 146.945312 C 322.148438 146.265625 321.714844 145.628906 321.21875 145.039062 C 320.722656 144.445312 320.175781 143.90625 319.574219 143.421875 C 318.972656 142.933594 318.332031 142.511719 317.648438 142.15625 C 316.960938 141.796875 316.25 141.507812 315.507812 141.289062 C 314.765625 141.074219 314.011719 140.929688 313.242188 140.859375 C 312.472656 140.789062 311.703125 140.796875 310.9375 140.878906 C 310.167969 140.960938 309.414062 141.117188 308.675781 141.347656 C 307.941406 141.578125 307.230469 141.878906 306.554688 142.25 C 305.875 142.617188 305.238281 143.050781 304.648438 143.546875 C 304.054688 144.042969 303.515625 144.589844 303.03125 145.191406 C 302.542969 145.792969 302.121094 146.433594 301.765625 147.121094 C 301.40625 147.804688 301.117188 148.515625 300.898438 149.257812 C 300.679688 150 300.539062 150.753906 300.46875 151.523438 L 283.242188 340.898438 C 283.175781 341.621094 283.046875 342.335938 282.847656 343.035156 C 282.648438 343.734375 282.386719 344.410156 282.066406 345.058594 C 281.742188 345.710938 281.359375 346.328125 280.921875 346.90625 C 280.484375 347.488281 279.996094 348.023438 279.457031 348.511719 C 278.921875 349 278.34375 349.4375 277.722656 349.816406 C 277.105469 350.199219 276.457031 350.519531 275.777344 350.78125 C 275.097656 351.042969 274.402344 351.238281 273.6875 351.371094 C 272.972656 351.5 272.25 351.566406 271.523438 351.5625 L 103.476562 351.5625 C 102.75 351.566406 102.027344 351.5 101.3125 351.371094 C 100.597656 351.238281 99.902344 351.042969 99.222656 350.78125 C 98.542969 350.519531 97.894531 350.199219 97.277344 349.816406 C 96.65625 349.4375 96.078125 349 95.542969 348.511719 C 95.003906 348.023438 94.515625 347.488281 94.078125 346.90625 C 93.640625 346.328125 93.257812 345.710938 92.933594 345.058594 C 92.613281 344.410156 92.351562 343.734375 92.152344 343.035156 C 91.953125 342.335938 91.824219 341.621094 91.757812 340.898438 L 71.484375 117.1875 L 316.40625 117.1875 C 317.175781 117.1875 317.941406 117.148438 318.703125 117.074219 C 319.46875 117 320.226562 116.886719 320.980469 116.738281 C 321.730469 116.585938 322.476562 116.402344 323.210938 116.179688 C 323.945312 115.957031 324.667969 115.695312 325.375 115.402344 C 326.085938 115.109375 326.777344 114.78125 327.453125 114.421875 C 328.132812 114.058594 328.789062 113.664062 329.425781 113.238281 C 330.066406 112.8125 330.679688 112.355469 331.273438 111.867188 C 331.867188 111.378906 332.4375 110.867188 332.980469 110.324219 C 333.523438 109.78125 334.035156 109.210938 334.523438 108.617188 C 335.011719 108.023438 335.46875 107.410156 335.894531 106.769531 C 336.320312 106.132812 336.714844 105.476562 337.078125 104.796875 C 337.4375 104.121094 337.765625 103.429688 338.058594 102.71875 C 338.351562 102.011719 338.613281 101.289062 338.835938 100.554688 C 339.058594 99.820312 339.242188 99.074219 339.394531 98.324219 C 339.542969 97.570312 339.65625 96.8125 339.730469 96.046875 C 339.804688 95.285156 339.84375 94.519531 339.84375 93.75 L 339.84375 70.3125 C 339.84375 69.542969 339.804688 68.777344 339.730469 68.015625 C 339.65625 67.25 339.542969 66.492188 339.394531 65.738281 C 339.242188 64.988281 339.058594 64.242188 338.835938 63.507812 C 338.613281 62.773438 338.351562 62.050781 338.058594 61.34375 C 337.765625 60.632812 337.4375 59.941406 337.078125 59.265625 C 336.714844 58.585938 336.320312 57.929688 335.894531 57.292969 C 335.46875 56.652344 335.011719 56.039062 334.523438 55.445312 C 334.035156 54.851562 333.523438 54.28125 332.980469 53.738281 C 332.4375 53.195312 331.867188 52.683594 331.273438 52.195312 C 330.679688 51.707031 330.066406 51.25 329.425781 50.824219 C 328.789062 50.398438 328.132812 50.003906 327.453125 49.640625 C 326.777344 49.28125 326.085938 48.953125 325.375 48.660156 C 324.667969 48.367188 323.945312 48.105469 323.210938 47.882812 C 322.476562 47.660156 321.730469 47.476562 320.980469 47.324219 C 320.226562 47.175781 319.46875 47.0625 318.703125 46.988281 C 317.941406 46.914062 317.175781 46.875 316.40625 46.875 Z M 152.34375 35.15625 C 152.34375 34.386719 152.417969 33.625 152.570312 32.871094 C 152.71875 32.117188 152.941406 31.382812 153.234375 30.671875 C 153.53125 29.960938 153.890625 29.285156 154.320312 28.644531 C 154.746094 28.007812 155.230469 27.414062 155.777344 26.871094 C 156.320312 26.324219 156.914062 25.839844 157.550781 25.414062 C 158.191406 24.984375 158.867188 24.625 159.578125 24.328125 C 160.289062 24.035156 161.023438 23.8125 161.777344 23.664062 C 162.53125 23.511719 163.292969 23.4375 164.0625 23.4375 L 210.9375 23.4375 C 211.707031 23.4375 212.46875 23.511719 213.222656 23.664062 C 213.976562 23.8125 214.710938 24.035156 215.421875 24.328125 C 216.132812 24.625 216.808594 24.984375 217.449219 25.414062 C 218.085938 25.839844 218.679688 26.324219 219.222656 26.871094 C 219.769531 27.414062 220.253906 28.007812 220.679688 28.644531 C 221.109375 29.285156 221.46875 29.960938 221.765625 30.671875 C 222.058594 31.382812 222.28125 32.117188 222.429688 32.871094 C 222.582031 33.625 222.65625 34.386719 222.65625 35.15625 L 222.65625 46.875 L 152.34375 46.875 Z M 58.59375 93.75 L 58.59375 70.3125 L 316.40625 70.3125 L 316.40625 93.75 Z M 58.59375 93.75 " fill-opacity="1" fill-rule="nonzero"/></g><path fill="#135D66" d="M 128.90625 316.40625 C 128.175781 316.410156 127.449219 316.34375 126.730469 316.210938 C 126.011719 316.074219 125.308594 315.875 124.628906 315.613281 C 123.945312 315.347656 123.292969 315.023438 122.671875 314.636719 C 122.050781 314.25 121.472656 313.808594 120.933594 313.3125 C 120.394531 312.816406 119.910156 312.277344 119.472656 311.6875 C 119.035156 311.101562 118.65625 310.480469 118.335938 309.824219 C 118.015625 309.164062 117.757812 308.484375 117.566406 307.777344 C 117.371094 307.070312 117.246094 306.355469 117.1875 305.625 L 105.46875 165 C 105.40625 164.230469 105.421875 163.460938 105.511719 162.695312 C 105.601562 161.929688 105.761719 161.175781 106 160.441406 C 106.238281 159.707031 106.546875 159.003906 106.921875 158.328125 C 107.296875 157.65625 107.734375 157.023438 108.238281 156.4375 C 108.738281 155.847656 109.289062 155.316406 109.894531 154.835938 C 110.5 154.359375 111.148438 153.941406 111.835938 153.589844 C 112.523438 153.238281 113.238281 152.957031 113.980469 152.746094 C 114.722656 152.539062 115.480469 152.402344 116.25 152.339844 C 117.019531 152.277344 117.789062 152.292969 118.554688 152.382812 C 119.320312 152.472656 120.070312 152.636719 120.804688 152.875 C 121.542969 153.109375 122.246094 153.417969 122.917969 153.792969 C 123.59375 154.171875 124.222656 154.609375 124.8125 155.109375 C 125.398438 155.609375 125.933594 156.164062 126.410156 156.769531 C 126.890625 157.375 127.304688 158.023438 127.65625 158.710938 C 128.007812 159.398438 128.289062 160.113281 128.5 160.855469 C 128.710938 161.597656 128.84375 162.355469 128.90625 163.125 L 140.625 303.75 C 140.691406 304.558594 140.671875 305.363281 140.570312 306.167969 C 140.464844 306.972656 140.28125 307.757812 140.015625 308.523438 C 139.75 309.289062 139.410156 310.019531 138.992188 310.714844 C 138.578125 311.410156 138.09375 312.054688 137.542969 312.648438 C 136.992188 313.242188 136.386719 313.777344 135.726562 314.246094 C 135.0625 314.714844 134.363281 315.109375 133.617188 315.433594 C 132.875 315.757812 132.105469 316 131.3125 316.164062 C 130.519531 316.328125 129.71875 316.410156 128.90625 316.40625 Z M 128.90625 316.40625 " fill-opacity="1" fill-rule="nonzero"/><path fill="#135D66" d="M 246.09375 316.40625 C 245.28125 316.410156 244.480469 316.328125 243.6875 316.164062 C 242.894531 316 242.125 315.757812 241.382812 315.433594 C 240.636719 315.109375 239.9375 314.714844 239.273438 314.246094 C 238.613281 313.777344 238.007812 313.242188 237.457031 312.648438 C 236.90625 312.054688 236.421875 311.410156 236.007812 310.714844 C 235.589844 310.019531 235.25 309.289062 234.984375 308.523438 C 234.71875 307.757812 234.535156 306.972656 234.429688 306.167969 C 234.328125 305.363281 234.308594 304.558594 234.375 303.75 L 246.09375 163.125 C 246.15625 162.355469 246.289062 161.597656 246.5 160.855469 C 246.710938 160.113281 246.992188 159.394531 247.339844 158.707031 C 247.691406 158.019531 248.105469 157.371094 248.585938 156.765625 C 249.0625 156.160156 249.597656 155.605469 250.183594 155.105469 C 250.773438 154.605469 251.402344 154.164062 252.078125 153.789062 C 252.753906 153.410156 253.457031 153.105469 254.191406 152.867188 C 254.925781 152.628906 255.679688 152.464844 256.445312 152.375 C 257.210938 152.285156 257.980469 152.269531 258.75 152.332031 C 259.519531 152.394531 260.277344 152.53125 261.019531 152.738281 C 261.765625 152.949219 262.480469 153.230469 263.167969 153.582031 C 263.855469 153.933594 264.5 154.351562 265.105469 154.832031 C 265.714844 155.308594 266.265625 155.84375 266.765625 156.429688 C 267.265625 157.019531 267.707031 157.652344 268.082031 158.324219 C 268.457031 159 268.765625 159.707031 269 160.441406 C 269.238281 161.175781 269.402344 161.925781 269.492188 162.695312 C 269.582031 163.460938 269.59375 164.230469 269.53125 165 L 257.8125 305.625 C 257.753906 306.355469 257.628906 307.070312 257.433594 307.777344 C 257.242188 308.484375 256.984375 309.164062 256.664062 309.824219 C 256.34375 310.480469 255.964844 311.101562 255.527344 311.6875 C 255.089844 312.273438 254.605469 312.816406 254.066406 313.3125 C 253.527344 313.808594 252.949219 314.25 252.328125 314.636719 C 251.707031 315.023438 251.054688 315.347656 250.371094 315.613281 C 249.691406 315.875 248.988281 316.074219 248.269531 316.210938 C 247.550781 316.34375 246.824219 316.410156 246.09375 316.40625 Z M 246.09375 316.40625 " fill-opacity="1" fill-rule="nonzero"/><path fill="#135D66" d="M 187.5 316.40625 C 186.730469 316.40625 185.96875 316.332031 185.214844 316.179688 C 184.460938 316.03125 183.726562 315.808594 183.015625 315.515625 C 182.304688 315.21875 181.628906 314.859375 180.988281 314.429688 C 180.351562 314.003906 179.757812 313.519531 179.214844 312.972656 C 178.667969 312.429688 178.183594 311.835938 177.757812 311.199219 C 177.328125 310.558594 176.96875 309.882812 176.671875 309.171875 C 176.378906 308.460938 176.15625 307.726562 176.007812 306.972656 C 175.855469 306.21875 175.78125 305.457031 175.78125 304.6875 L 175.78125 164.0625 C 175.78125 163.292969 175.855469 162.53125 176.007812 161.777344 C 176.15625 161.023438 176.378906 160.289062 176.671875 159.578125 C 176.96875 158.867188 177.328125 158.191406 177.757812 157.550781 C 178.183594 156.910156 178.667969 156.320312 179.214844 155.777344 C 179.757812 155.230469 180.351562 154.746094 180.988281 154.320312 C 181.628906 153.890625 182.304688 153.53125 183.015625 153.234375 C 183.726562 152.941406 184.460938 152.71875 185.214844 152.570312 C 185.96875 152.417969 186.730469 152.34375 187.5 152.34375 C 188.269531 152.34375 189.03125 152.417969 189.785156 152.570312 C 190.539062 152.71875 191.273438 152.941406 191.984375 153.234375 C 192.695312 153.53125 193.371094 153.890625 194.011719 154.320312 C 194.648438 154.746094 195.242188 155.230469 195.785156 155.777344 C 196.332031 156.320312 196.816406 156.910156 197.242188 157.550781 C 197.671875 158.191406 198.03125 158.867188 198.328125 159.578125 C 198.621094 160.289062 198.84375 161.023438 198.992188 161.777344 C 199.144531 162.53125 199.21875 163.292969 199.21875 164.0625 L 199.21875 304.6875 C 199.21875 305.457031 199.144531 306.21875 198.992188 306.972656 C 198.84375 307.726562 198.621094 308.460938 198.328125 309.171875 C 198.03125 309.882812 197.671875 310.558594 197.242188 311.199219 C 196.816406 311.835938 196.332031 312.429688 195.785156 312.972656 C 195.242188 313.519531 194.648438 314.003906 194.011719 314.429688 C 193.371094 314.859375 192.695312 315.21875 191.984375 315.515625 C 191.273438 315.808594 190.539062 316.03125 189.785156 316.179688 C 189.03125 316.332031 188.269531 316.40625 187.5 316.40625 Z M 187.5 316.40625 " fill-opacity="1" fill-rule="nonzero"/></svg>
