<svg xmlns="http://www.w3.org/2000/svg" xmlns:xlink="http://www.w3.org/1999/xlink" width="432" zoomAndPan="magnify" viewBox="0 0 324 323.999988" height="432" preserveAspectRatio="xMidYMid meet" version="1.0"><defs><clipPath id="03d04746ce"><path d="M 96.730469 96.511719 L 279.730469 96.511719 L 279.730469 279.511719 L 96.730469 279.511719 Z M 96.730469 96.511719 " clip-rule="nonzero"/></clipPath></defs><path stroke-linecap="butt" transform="matrix(0.632812, 0, 0, 0.632812, 0.0000062, 0)" fill="none" stroke-linejoin="round" d="M 185.000001 128.000008 L 407.000015 128.000008 C 408.864213 128.000008 410.72841 128.0926 412.586435 128.271613 C 414.44446 128.456798 416.290139 128.728403 418.1173 129.0926 C 419.950633 129.456798 421.759275 129.913588 423.543226 130.456798 C 425.333349 130.993835 427.086436 131.623465 428.814831 132.339514 C 430.537053 133.055564 432.222239 133.85186 433.870387 134.728403 C 435.518535 135.611119 437.117301 136.56791 438.666684 137.604947 C 440.222239 138.641984 441.716067 139.753095 443.160511 140.93828 C 444.604956 142.123465 445.987672 143.376552 447.302487 144.69754 C 448.623474 146.012355 449.876561 147.395071 451.061746 148.839515 C 452.246931 150.28396 453.358043 151.777787 454.39508 153.333343 C 455.432117 154.882725 456.388907 156.481491 457.271623 158.129639 C 458.148166 159.777788 458.944463 161.462973 459.660512 163.185195 C 460.376561 164.91359 461.006191 166.666677 461.543228 168.4568 C 462.086438 170.240751 462.543228 172.049393 462.907426 173.882727 C 463.271623 175.709887 463.543228 177.555566 463.728414 179.413591 C 463.907426 181.271616 464.000018 183.135814 464.000018 185.000011 L 464.000018 407.000025 C 464.000018 408.864222 463.907426 410.72842 463.728414 412.586445 C 463.543228 414.44447 463.271623 416.290149 462.907426 418.117309 C 462.543228 419.950643 462.086438 421.759285 461.543228 423.543236 C 461.006191 425.333359 460.376561 427.086446 459.660512 428.814841 C 458.944463 430.537063 458.148166 432.222249 457.271623 433.870397 C 456.388907 435.518545 455.432117 437.117311 454.39508 438.666693 C 453.358043 440.222249 452.246931 441.716076 451.061746 443.160521 C 449.876561 444.604965 448.623474 445.987682 447.302487 447.302496 C 445.987672 448.623484 444.604956 449.876571 443.160511 451.061756 C 441.716067 452.246941 440.222239 453.358052 438.666684 454.395089 C 437.117301 455.432127 435.518535 456.388917 433.870387 457.271633 C 432.222239 458.148176 430.537053 458.944472 428.814831 459.660522 C 427.086436 460.376571 425.333349 461.006201 423.543226 461.543238 C 421.759275 462.086448 419.950633 462.543238 418.1173 462.907436 C 416.290139 463.271633 414.44446 463.543238 412.586435 463.728423 C 410.72841 463.907436 408.864213 464.000028 407.000015 464.000028 L 185.000001 464.000028 C 183.135804 464.000028 181.271606 463.907436 179.413581 463.728423 C 177.555557 463.543238 175.709877 463.271633 173.882717 462.907436 C 172.049383 462.543238 170.240741 462.086448 168.456791 461.543238 C 166.666667 461.006201 164.913581 460.376571 163.185185 459.660522 C 161.462963 458.944472 159.777778 458.148176 158.129629 457.271633 C 156.481481 456.388917 154.882716 455.432127 153.333333 454.395089 C 151.777777 453.358052 150.28395 452.246941 148.839505 451.061756 C 147.395061 449.876571 146.012345 448.623484 144.69753 447.302496 C 143.376542 445.987682 142.123456 444.604965 140.93827 443.160521 C 139.753085 441.716076 138.641974 440.222249 137.604937 438.666693 C 136.5679 437.117311 135.61111 435.518545 134.728393 433.870397 C 133.85185 432.222249 133.055554 430.537063 132.339504 428.814841 C 131.623455 427.086446 130.993825 425.333359 130.456788 423.543236 C 129.913578 421.759285 129.456788 419.950643 129.092591 418.117309 C 128.728393 416.290149 128.456788 414.44447 128.271603 412.586445 C 128.092591 410.72842 127.999998 408.864222 127.999998 407.000025 L 127.999998 185.000011 C 127.999998 183.135814 128.092591 181.271616 128.271603 179.413591 C 128.456788 177.555566 128.728393 175.709887 129.092591 173.882727 C 129.456788 172.049393 129.913578 170.240751 130.456788 168.4568 C 130.993825 166.666677 131.623455 164.91359 132.339504 163.185195 C 133.055554 161.462973 133.85185 159.777788 134.728393 158.129639 C 135.61111 156.481491 136.5679 154.882725 137.604937 153.333343 C 138.641974 151.777787 139.753085 150.28396 140.93827 148.839515 C 142.123456 147.395071 143.376542 146.012355 144.69753 144.69754 C 146.012345 143.376552 147.395061 142.123465 148.839505 140.93828 C 150.28395 139.753095 151.777777 138.641984 153.333333 137.604947 C 154.882716 136.56791 156.481481 135.611119 158.129629 134.728403 C 159.777778 133.85186 161.462963 133.055564 163.185185 132.339514 C 164.913581 131.623465 166.666667 130.993835 168.456791 130.456798 C 170.240741 129.913588 172.049383 129.456798 173.882717 129.0926 C 175.709877 128.728403 177.555557 128.456798 179.413581 128.271613 C 181.271606 128.0926 183.135804 128.000008 185.000001 128.000008 Z M 185.000001 128.000008 " stroke="#000000" stroke-width="32" stroke-opacity="1" stroke-miterlimit="4"/><path stroke-linecap="round" transform="matrix(0.632812, 0, 0, 0.632812, 0.0000062, 0)" fill="none" stroke-linejoin="round" d="M 383.500014 128.000008 L 384.000014 104.000006 C 383.993841 102.166673 383.901248 100.339512 383.716063 98.518525 C 383.530878 96.691364 383.259273 94.882722 382.895075 93.086425 C 382.537051 91.290129 382.086433 89.512351 381.555569 87.759265 C 381.018532 86.006178 380.401248 84.283956 379.697544 82.592598 C 378.99384 80.90124 378.203717 79.246918 377.339519 77.635807 C 376.475322 76.018523 375.530877 74.450622 374.512359 72.92593 C 373.49384 71.401239 372.401247 69.932103 371.240754 68.518523 C 370.074087 67.09877 368.845692 65.746918 367.549395 64.450621 C 366.253099 63.154325 364.901247 61.92593 363.481494 60.759263 C 362.067914 59.598769 360.598778 58.506176 359.074086 57.487658 C 357.549395 56.469139 355.981493 55.524695 354.364209 54.660497 C 352.753098 53.7963 351.098777 53.006176 349.407419 52.302472 C 347.716061 51.598769 345.993838 50.981485 344.240752 50.444448 C 342.487665 49.913583 340.709888 49.462966 338.913591 49.104941 C 337.117295 48.740744 335.308653 48.469139 333.481492 48.283954 C 331.660504 48.098768 329.833344 48.006176 328.00001 48.000003 L 111.999997 48.000003 C 109.907404 48.006176 107.814812 48.117287 105.734565 48.327163 C 103.648145 48.53704 101.580243 48.845682 99.524688 49.259262 C 97.475305 49.672843 95.44444 50.185188 93.44444 50.796299 C 91.438267 51.407411 89.469131 52.117287 87.537033 52.919756 C 85.604934 53.728398 83.716045 54.62346 81.870366 55.611115 C 80.024686 56.604942 78.22839 57.679016 76.487649 58.845683 C 74.746908 60.006176 73.067896 61.25309 71.450612 62.586424 C 69.833328 63.913584 68.283945 65.320992 66.802463 66.802473 C 65.320982 68.283955 63.913574 69.833338 62.586414 71.450622 C 61.25308 73.067906 60.006167 74.746918 58.845673 76.487659 C 57.679006 78.2284 56.604932 80.024696 55.611105 81.870375 C 54.62345 83.716054 53.728389 85.604943 52.919747 87.537042 C 52.117277 89.469141 51.407401 91.438277 50.79629 93.44445 C 50.185178 95.44445 49.672833 97.475315 49.259252 99.524697 C 48.845672 101.580253 48.53703 103.648154 48.327154 105.734574 C 48.117277 107.814821 48.006166 109.907414 47.999993 112.000007 L 47.999993 328.00002 C 48.006166 329.833353 48.098759 331.660514 48.283944 333.481502 C 48.469129 335.308662 48.740734 337.117305 49.104931 338.913601 C 49.462956 340.709897 49.913573 342.487675 50.444438 344.240762 C 50.981475 345.993848 51.598759 347.716071 52.302463 349.407429 C 53.006166 351.098787 53.79629 352.753108 54.660487 354.364219 C 55.524685 355.981503 56.469129 357.549405 57.487648 359.074096 C 58.506167 360.598787 59.598759 362.067923 60.759253 363.481504 C 61.92592 364.901257 63.154315 366.253109 64.450611 367.549405 C 65.746908 368.845702 67.09876 370.074097 68.518513 371.240763 C 69.932093 372.401257 71.401229 373.49385 72.925921 374.512369 C 74.450612 375.530887 76.018513 376.475332 77.635797 377.339529 C 79.246909 378.203727 80.90123 378.99385 82.592588 379.697554 C 84.283946 380.401258 86.006168 381.018542 87.759255 381.555579 C 89.512341 382.086443 91.290119 382.53706 93.086416 382.895085 C 94.882712 383.259283 96.691354 383.530888 98.518515 383.716073 C 100.339502 383.901258 102.166663 383.993851 103.999997 384.000023 L 127.999998 384.000023 " stroke="#000000" stroke-width="32" stroke-opacity="1" stroke-miterlimit="4"/><g clip-path="url(#03d04746ce)"><path stroke-linecap="square" transform="matrix(0.357422, 0, 0, 0.357422, 96.731936, 96.510424)" fill="none" stroke-linejoin="miter" d="M 415.995929 128.003632 L 191.99591 384.003653 L 95.995903 288.003645 " stroke="#000000" stroke-width="44" stroke-opacity="1" stroke-miterlimit="10"/></g></svg>